<svg xmlns="http://www.w3.org/2000/svg" viewBox="0 0 3600 1633.95"><defs><style>.cls-1{isolation:isolate;}.cls-2{fill:#2b364f;}.cls-3{fill:#288795;}.cls-4,.cls-5{fill:#f7c29e;}.cls-5{opacity:0.2;}.cls-13,.cls-5{mix-blend-mode:multiply;}.cls-6{fill:#5cb30b;}.cls-7{fill:#7fbf43;}.cls-8{fill:#ad8dce;}.cls-9{fill:#9369bf;}.cls-10{fill:#292929;}.cls-11{fill:#f19c61;}.cls-12{fill:#fff;}.cls-13,.cls-15,.cls-16{fill:#3e82d7;}.cls-13,.cls-15{opacity:0.3;}.cls-14{fill:#4385d8;}.cls-17{fill:#8abbfa;}.cls-18{fill:#f3aa78;}.cls-19{fill:#141414;}.cls-20{fill:#f19a5e;}.cls-21{fill:#050505;}</style></defs><g class="cls-1"><g id="Capa_2" data-name="Capa 2"><g id="Layer_1" data-name="Layer 1"><path class="cls-2" d="M3600,1104.55c-260.38,1-720.86,306.25-720.86,529.4H3600Z"/><path class="cls-3" d="M0,610.57C95.44,698.66,183.32,707,238.32,707c284,0,473-393,876-393,353,0,446,261.5,471.5,305s124.5,318.37,192,378.18,306.78,219.53,412.5,434.82c27.1,55.2,51,155,51,202H0Z"/><path class="cls-4" d="M423.18,1634H830.37L864.14,1543a128.71,128.71,0,0,1,67.76-72.28c29.5-13.34,69.18-37.56,107.66-80.75,74.87-84,114.6-174.19,114.6-174.19l-252.35-1.24s22.71-141.16-102.71-328.63a106.11,106.11,0,0,1-17.44-68.21L793.55,681s85.23-95.24,32.94-213.41c0,0-50-69.23-69.84-43.89,0,0-151,359.68-164.8,413.16S559.76,923.94,578.1,1092c4.85,44.49,6.6,81.6,6.54,112.11a397.88,397.88,0,0,1-38.25,169.34Z"/><path class="cls-5" d="M803,1400.63c-37.8-42-90.3-35.33-145.51-54.47S584.52,1189,584.52,1189v0c.08,5.2.13,10.26.12,15.13a397.88,397.88,0,0,1-38.25,169.34L423.18,1634H830.37L864.14,1543a128.71,128.71,0,0,1,67.76-72.28c25.1-11.35,57.59-30.6,90.42-62.7C910.17,1455.17,840.75,1442.59,803,1400.63Z"/><path class="cls-6" d="M622.9,4.5c93.61,147.71,324.34,279.34,324.34,279.34S763.83,269,672.81,150.41l33-27.33s-26.23,2.54-48.21,5.08C637.36,94.57,624.25,53.85,622.9,4.5Z"/><path class="cls-7" d="M868.53,65.59c-14.24,6.46-35.3,16.3-35.3,16.3l20.29-29.15c-23.63-18.39-49.63-30.64-75.41-38.66-10.44,15.21-22.72,32.21-22.72,32.21L753,7.48c-69.07-14.87-130.05-3-130.05-3,93.61,147.71,324.34,279.34,324.34,279.34C946.2,175.32,913.15,107.55,868.53,65.59Z"/><path class="cls-8" d="M588.53,212.92a217.29,217.29,0,0,1,82.62-28.46c8.18,9.33,18.21,20.31,18.21,20.31l.56-22c104.34-5,192.31,60.71,192.31,60.71C822.52,279.83,771.14,290,728.8,287c-2.67-7.68-6.46-19.13-6.46-19.13l-7.08,17.69a192.31,192.31,0,0,1-53.94-16c3.76-9.18,7.7-19.67,7.7-19.67l-22.25,12.2C608.58,240.46,588.53,212.92,588.53,212.92Z"/><path class="cls-9" d="M728.8,287c-2.67-7.68-6.46-19.13-6.46-19.13l-7.08,17.69a192.31,192.31,0,0,1-53.94-16c3.76-9.18,7.7-19.67,7.7-19.67l-22.25,12.2c-38.19-21.62-58.24-49.16-58.24-49.16,121.4-13.88,293.7,30.58,293.7,30.58C822.52,279.83,771.14,290,728.8,287Z"/><path class="cls-9" d="M1616,197.74l-8.81,66.34,47.12-34.41L1798.49,156,1686.94,166.2S1630.11,180,1627,182.79,1616,197.74,1616,197.74Z"/><polygon class="cls-8" points="1566.56 157.68 1798.49 155.99 1615.96 197.74 1566.56 157.68"/><polygon class="cls-8" points="1690.52 264.48 1629.74 215.66 1798.49 155.99 1690.52 264.48"/><path class="cls-10" d="M1592.05,232.3a70.45,70.45,0,0,1,15.48-4.07l-.44-4.12a73.84,73.84,0,0,0-16.5,4.31Z"/><path class="cls-10" d="M1445.89,601.75a259.68,259.68,0,0,0,26.85-15.58l2.3,3.45a266.21,266.21,0,0,1-27.28,15.83Zm51.29-34.59A169,169,0,0,0,1518,544.37l3.3,2.49A172.83,172.83,0,0,1,1500,570.21ZM1534,518c2-4.27,3.9-8.71,5.56-13.21,1.87-5.09,3.53-10.42,4.92-15.82l4,1c-1.43,5.54-3.13,11-5,16.22-1.7,4.62-3.62,9.18-5.7,13.56Zm16.73-90.58,4.14-.09a267.19,267.19,0,0,1-1,31.52l-4.12-.39A265.55,265.55,0,0,0,1550.76,427.43Zm-5.89-62.08,4.1-.59c1.73,12.12,3,22,3.89,31.17l-4.12.41C1547.82,387.26,1546.59,377.41,1544.87,365.35Zm-4.64-31.19a152.68,152.68,0,0,1-1.57-31.43l4.14.25a147.82,147.82,0,0,0,1.53,30.57l0,.24-4.1.56Zm5.21-62.55a75.21,75.21,0,0,1,18-26.42l2.85,3a71.07,71.07,0,0,0-17,25Z"/><path class="cls-10" d="M1403.3,624.1c5.33-1.85,10.59-3.79,15.62-5.77l-1.52-3.86c-5,2-10.18,3.89-15.46,5.72Z"/><path class="cls-11" d="M1381.83,183.87s86.24-57.72,105.94-19.69-112.06,172.6-112.06,172.6Z"/><path class="cls-11" d="M1381.83,435.38s86.24-57.72,105.94-19.69-112.06,172.6-112.06,172.6Z"/><path class="cls-11" d="M1381.83,606.74s86.24-57.72,105.94-19.69-112.06,172.6-112.06,172.6Z"/><path class="cls-10" d="M1322.26,119.19H848.77A63.84,63.84,0,0,0,784.93,183V1150.7a63.86,63.86,0,0,0,63.84,63.85h473.49a63.84,63.84,0,0,0,63.84-63.85V183A63.85,63.85,0,0,0,1322.26,119.19Z"/><path class="cls-5" d="M828.06,932.82s-85.64,209.64-77.33,249.28,60.28,92.65,187.79,75,215.64-41.29,215.64-41.29,5.33-282.94,0-297.28S919.57,802.32,910.55,802.32,828.06,932.82,828.06,932.82Z"/><rect class="cls-12" x="815.88" y="206.2" width="539.28" height="921.33"/><path class="cls-13" d="M1224.08,743.58H755.74a29.29,29.29,0,0,0-29.3,29.29V966.15a29.29,29.29,0,0,0,29.3,29.29h368.72c14.93,20.82,42,58.11,44.37,58.11s-2.07-35.22-5.1-58.11h60.35a29.29,29.29,0,0,0,29.3-29.29V772.87A29.29,29.29,0,0,0,1224.08,743.58Z"/><path class="cls-13" d="M1391.73,305.69H893.15A29.29,29.29,0,0,0,863.85,335V542.71A29.29,29.29,0,0,0,893.15,572h51.77c-3,22.87-6.94,55.67-4.78,55.67s27.42-34.51,42.61-55.67h409A29.29,29.29,0,0,0,1421,542.71V335A29.29,29.29,0,0,0,1391.73,305.69Z"/><rect class="cls-12" x="970.57" y="165.7" width="230.76" height="11.54" rx="4.64"/><path class="cls-4" d="M774.19,763.5s3.26,12.09,10.61,18L793.55,681s62.7-70.06,47.55-164.56a141.21,141.21,0,0,0-45.89-83.75c-14-12.35-29.47-20.6-38.56-9,0,0-71,169.14-120.11,292.69Z"/><path class="cls-14" d="M1204.75,693.45H736.4a29.29,29.29,0,0,0-29.29,29.29V916A29.29,29.29,0,0,0,736.4,945.3h368.73c14.92,20.83,42,58.12,44.37,58.12,2.23,0-2.07-35.22-5.11-58.12h60.36A29.29,29.29,0,0,0,1234,916V722.74A29.29,29.29,0,0,0,1204.75,693.45Z"/><path class="cls-15" d="M1111.69,1171.92a26.49,26.49,0,1,1-26.48-26.49A26.49,26.49,0,0,1,1111.69,1171.92Z"/><path class="cls-16" d="M1093.1,1183h-15.79a3.14,3.14,0,0,1-3.14-3.13V1164a3.14,3.14,0,0,1,3.14-3.13h15.79a3.14,3.14,0,0,1,3.14,3.13v15.8A3.14,3.14,0,0,1,1093.1,1183Zm-15.79-21.21A2.29,2.29,0,0,0,1075,1164v15.8a2.29,2.29,0,0,0,2.29,2.28h15.79a2.29,2.29,0,0,0,2.29-2.28V1164a2.29,2.29,0,0,0-2.29-2.28Z"/><rect class="cls-17" x="815.88" y="1073.03" width="539.28" height="54.5"/><rect class="cls-17" x="815.88" y="206.2" width="539.28" height="48.89"/><path class="cls-11" d="M769.42,523c19.62-9,29.87-60.1,33.54-83-15.75-15.84-35.51-30.1-46.31-16.3,0,0-15.64,37.25-37.32,89.55C734.15,521.48,754.74,529.78,769.42,523Z"/><path class="cls-18" d="M1263.94,813s-72.84,6.11-75.39,25.46,3.06,53.49,71.82,60.11h71.22s-21.3-59.09-20.29-61.12S1263.94,813,1263.94,813Z"/><path class="cls-4" d="M1147.07,1101.72a19.77,19.77,0,0,0-7.69,27.37c33.51,57.81,166.79,287.53,178.8,306.22,13.75,21.39,47.37,71.82,158.91,97.79S1634.48,1634,1634.48,1634h343.8s-81-128.35-148.22-461.46c0,0-52-276.57-149.74-267.4,0,0-59.59-62.65-117.66-50.42,0,0-110-65.71-172.66-65.71L1239.52,611.12c-14.9-17.6-41.15-21-59.46-7-5.89,4.51-10.38,10.47-11.62,18.33-4.59,29,33.61,102.38,94.73,191s212.4,369.78,146.69,493.55c0,0-67.23-50.43-125.3-131.41C1235.94,1107.73,1178.74,1084.92,1147.07,1101.72Z"/><path class="cls-11" d="M1390.56,789a626.27,626.27,0,0,1,56.35,55.11c23.87,26,54,64.49,71.71,94.23,22.31,36.78,37,69,44,109.52l-.45.1c-8-38-29-79-47.2-107.33-13.65-22.13-38.93-57.29-70.78-94.15-16-18.45-36.3-40.26-54-57.15Z"/><path class="cls-11" d="M1561.68,854.19c16.25,8.31,30.73,19.91,43.54,33a210.55,210.55,0,0,1,33,44,215.05,215.05,0,0,1,20.65,51c4,16.62,6.5,27.89,6.92,54.19l-.46,0a267.23,267.23,0,0,0-9.91-53.21c-5.16-16.77-12.41-34.79-21.19-49.74a235.58,235.58,0,0,0-31.66-43.82c-11.51-12.59-26.56-26.19-41.11-35.06Z"/><path class="cls-11" d="M1679.05,903.81c14.37,10.86,28.92,30.1,36,43.1a194.14,194.14,0,0,1,20.54,52.38c3.4,12.41,4.26,24.46,4.79,37.08l-.45.06c-2.12-12.23-3.45-21.35-7.8-36.15-6.68-22.45-11.92-34-20.87-51.31-5.35-10.67-19.23-31.8-32.38-44.83Z"/><path class="cls-11" d="M1216.47,1172.86c3-15.47-15-40-31.34-58.51a38,38,0,0,0-40.52-11,19.79,19.79,0,0,0-5.23,25.79c9,15.53,25.22,43.48,44.34,76.42C1198,1198.21,1213.65,1187.17,1216.47,1172.86Z"/><path class="cls-11" d="M1230.92,680.92c8.69-1.74,48.13-14.86,45.71-22h0l-38.9-46a44.26,44.26,0,0,0-29.65-15.49h0l-.18,0c-.32,0-1-.08-2-.08-5.21,0-18.06,1.49-20.88,15.61-2.79,14,20.3,47.85,30.48,61.94A15.32,15.32,0,0,0,1230.92,680.92Z"/><path class="cls-10" d="M540.5,1393.68c43.08,26.47,181.79,105.62,325.22,122.49,8.4,1,14.31,8.7,11.83,15.35l-25.06,67.11c-1.66,4.44-6.65,7-12.25,6.35-42.27-5.13-216.68-31.38-339.39-126.31-4.17-3.23-5.93-8.13-4.37-12.31l25.57-68.49C524.46,1391.42,533.48,1389.37,540.5,1393.68Z"/><path class="cls-19" d="M527.91,1457.85l-.47-.17a4.86,4.86,0,0,1-2.86-6.26l7.72-20.66a4.86,4.86,0,0,1,6.25-2.85l.48.17a4.87,4.87,0,0,1,2.85,6.26L534.17,1455A4.86,4.86,0,0,1,527.91,1457.85Z"/><path class="cls-19" d="M553.71,1473.76l-.47-.18a4.86,4.86,0,0,1-2.86-6.26l7.72-20.66a4.86,4.86,0,0,1,6.25-2.85l.47.17a4.86,4.86,0,0,1,2.86,6.26L560,1470.9A4.87,4.87,0,0,1,553.71,1473.76Z"/><rect class="cls-19" x="579.76" y="1458.68" width="10.23" height="31.78" rx="4.86" transform="translate(552.1 -111.42) rotate(20.45)"/><path class="cls-19" d="M606.14,1502.39l-.47-.18a4.87,4.87,0,0,1-2.86-6.25l7.72-20.66a4.86,4.86,0,0,1,6.25-2.86l.48.18a4.86,4.86,0,0,1,2.85,6.25l-7.71,20.67A4.87,4.87,0,0,1,606.14,1502.39Z"/><path class="cls-19" d="M632.31,1517.32l-.48-.18a4.86,4.86,0,0,1-2.85-6.25l7.71-20.66a4.86,4.86,0,0,1,6.26-2.86l.47.18a4.85,4.85,0,0,1,2.85,6.25l-7.71,20.67A4.86,4.86,0,0,1,632.31,1517.32Z"/><path class="cls-19" d="M659.62,1529.16l-.47-.18a4.86,4.86,0,0,1-2.86-6.26l7.72-20.66a4.86,4.86,0,0,1,6.25-2.85l.48.18a4.86,4.86,0,0,1,2.85,6.25l-7.71,20.66A4.86,4.86,0,0,1,659.62,1529.16Z"/><path class="cls-19" d="M687.47,1539.56l-.47-.18a4.87,4.87,0,0,1-2.85-6.26l7.71-20.66a4.87,4.87,0,0,1,6.26-2.85l.47.17a4.86,4.86,0,0,1,2.85,6.26l-7.71,20.66A4.86,4.86,0,0,1,687.47,1539.56Z"/><rect class="cls-19" x="716.07" y="1517.65" width="10.23" height="31.78" rx="4.86" transform="translate(580.98 -155.3) rotate(20.44)"/><path class="cls-19" d="M745.41,1554.38l-.47-.17a4.86,4.86,0,0,1-2.86-6.26l7.72-20.66a4.86,4.86,0,0,1,6.25-2.85l.47.17a4.86,4.86,0,0,1,2.86,6.26l-7.71,20.66A4.86,4.86,0,0,1,745.41,1554.38Z"/><path class="cls-19" d="M774.18,1562.34l-.48-.18a4.86,4.86,0,0,1-2.85-6.25l7.71-20.66a4.86,4.86,0,0,1,6.26-2.86l.47.18a4.87,4.87,0,0,1,2.86,6.25l-7.72,20.66A4.86,4.86,0,0,1,774.18,1562.34Z"/><path class="cls-19" d="M804,1567.34l-.47-.17a4.87,4.87,0,0,1-2.86-6.26l7.72-20.66a4.85,4.85,0,0,1,6.25-2.85l.48.17a4.87,4.87,0,0,1,2.85,6.26l-7.71,20.66A4.86,4.86,0,0,1,804,1567.34Z"/><path class="cls-19" d="M834,1572.24l-.47-.18a4.85,4.85,0,0,1-2.86-6.25l7.72-20.66a4.85,4.85,0,0,1,6.25-2.86l.48.18a4.87,4.87,0,0,1,2.85,6.26l-7.71,20.66A4.87,4.87,0,0,1,834,1572.24Z"/><path class="cls-7" d="M625.64,1549.08l.11-.31a6.49,6.49,0,0,1-1.35-.33l-33.94-12.67a6.78,6.78,0,0,1-3.63-8.84l30.61-82a6.76,6.76,0,0,1,8.52-4.3l33.95,12.68a6.31,6.31,0,0,1,3.87,4.45c2.67,1.16,5.35,2.33,8.06,3.48.91-6.88-2.63-13.59-8.94-15.94L629,1432.64c-7.43-2.77-15.93,1.51-18.93,9.54l-30.6,82c-3,8,.61,16.84,8.05,19.61l33.94,12.68a14.29,14.29,0,0,0,14.65-3.16Q630.86,1551.24,625.64,1549.08Z"/><path class="cls-12" d="M618.19,1484l-14.77-5.52a5.54,5.54,0,0,0-3.86,10.36l14.76,5.51Z"/><path class="cls-5" d="M1634.48,1634h343.8s-53.1-84.16-109-293c-24.54,153.79-159.87,144.92-213.58,153.45-61.84,9.83-301.9-40.22-335.53-56,15,22.83,50.42,69.91,156.91,94.71C1588.64,1559.08,1634.48,1634,1634.48,1634Z"/><path class="cls-5" d="M1281.35,841.29c67.41,108.32,188.35,357.12,128.51,465.67l39.72,39.2s100.34-111.17-59.34-356.31A1635.62,1635.62,0,0,0,1281.35,841.29Z"/><path class="cls-12" d="M881.06,819.38a73.44,73.44,0,1,1-73.43-73.44A73.44,73.44,0,0,1,881.06,819.38Z"/><path d="M769.4,821.3s-7.28-29.88,10.07-41.07,35.87-13.75,48.52-7.3c17.55,8.94,24.76,33.09,19.15,46.45l-46.58-11.7Z"/><rect class="cls-4" x="797.68" y="856.38" width="21.56" height="21.53"/><path class="cls-20" d="M819.25,869.28v-12.9H797.68v11C802.33,869.85,809.2,871.28,819.25,869.28Z"/><path class="cls-4" d="M853.24,817.84a8,8,0,0,0-7.22.29,38.4,38.4,0,0,0-76.79,0,8,8,0,0,0-7.22-.29c-4.32,2.13-5.66,8.22-3,13.61s8.32,8,12.64,5.9a6.69,6.69,0,0,0,1.61-1.11c2.48,17.56,17.15,30.73,34.37,30.48,17.21.25,31.89-12.92,34.36-30.48a6.75,6.75,0,0,0,1.62,1.11c4.31,2.13,10-.52,12.63-5.9S857.56,820,853.24,817.84Z"/><path class="cls-12" d="M821.74,842.94c-1,4.25-5.83,7.6-11.8,7.78s-11.05-2.86-12.26-7.05Z"/><path d="M769.23,818.13s28.22-8.55,40.57-22.82c0,0-3.49,17.19-6.1,19.94.82.55,28.18-12.76,31.9-25s-28-16.69-28-16.69-10.86,4.62-11.41,4.9-10.74,1.46-11.91,4.06c-1.52,3.38-8.71,3.68-8.71,3.68l-4.54,9.45-3.17,9.93Z"/><path d="M746.12,779.26c6.23,2.51,13.43,3.67,20.89,1.37,16.47-5.06,23-3.09,25.18-1.85a5.36,5.36,0,0,0,4.32.56c1.63-.54,3.14-2,2.67-5.72,0,0,.65-15.65-12.76-24.56A73.56,73.56,0,0,0,746.12,779.26Z"/><path class="cls-7" d="M781.55,778.23h0a1.38,1.38,0,0,1,.34-2c2.75-1.81,9.82-5.88,18.32-6.32a1.39,1.39,0,0,1,1.46,1.4h0a1.39,1.39,0,0,1-1.32,1.39c-7.77.41-14.43,4.24-16.93,5.87A1.39,1.39,0,0,1,781.55,778.23Z"/><path class="cls-6" d="M1415.56,250.47H917a29.29,29.29,0,0,0-29.29,29.29V487.49A29.29,29.29,0,0,0,917,516.78h51.77c-3,22.87-6.93,55.67-4.78,55.67s27.43-34.5,42.62-55.67h409a29.29,29.29,0,0,0,29.3-29.29V279.76A29.3,29.3,0,0,0,1415.56,250.47Z"/><circle class="cls-12" cx="984.22" cy="384.36" r="73.43" transform="translate(189.18 1080.31) rotate(-62.53)"/><rect class="cls-4" x="974.28" y="421.37" width="21.56" height="21.53"/><path class="cls-20" d="M995.84,434.27v-12.9H974.28v11C978.92,434.84,985.79,436.27,995.84,434.27Z"/><path class="cls-4" d="M1029.84,382.83a8,8,0,0,0-7.23.29,38.39,38.39,0,0,0-76.78,0,8,8,0,0,0-7.23-.29c-4.32,2.13-5.66,8.22-3,13.61s8.32,8,12.64,5.9a7,7,0,0,0,1.62-1.11c2.47,17.56,17.14,30.73,34.36,30.48,17.21.25,31.89-12.92,34.36-30.48a6.75,6.75,0,0,0,1.62,1.11c4.31,2.13,10-.52,12.63-5.9S1034.15,385,1029.84,382.83Z"/><path class="cls-21" d="M958,336.35s10.82-9.16,35.42-7.68,29.28,14.31,30.67,32.64l-1.44,21.81s-6.38-6.57-14.7-24.77c0,0-13.77,15.45-19.77,13.62s2.27-13,2.27-13-28.06,24.14-44.58,24.11c0,0-8.75-28.25,3.53-38.62,0,0-9.25.44-9.74-1.38s4.41-4.54,13.3-3.51c0,0-6.34-12.39-2.8-13.68S958,336.35,958,336.35Z"/><path class="cls-12" d="M998.33,407.93c-1,4.25-5.83,7.6-11.8,7.78s-11-2.86-12.25-7Z"/><rect class="cls-12" x="1082.92" y="310.33" width="292.26" height="12.76" rx="6.06"/><rect class="cls-12" x="1082.92" y="344" width="69.02" height="12.76" rx="6.06"/><rect class="cls-12" x="1177.99" y="344" width="197.19" height="12.76" rx="6.06"/><path class="cls-12" d="M1089,377.68h138.85a6.06,6.06,0,0,1,6.06,6.06v.63a6.06,6.06,0,0,1-6.06,6.06H1089a6.07,6.07,0,0,1-6.07-6.07v-.63a6.06,6.06,0,0,1,6.06-6.06Z"/><rect class="cls-12" x="1255.99" y="377.68" width="119.2" height="12.76" rx="6.06"/><rect class="cls-12" x="1082.92" y="411.35" width="292.26" height="12.76" rx="6.06"/><rect class="cls-12" x="895.38" y="756.11" width="98.37" height="12.76" rx="6.06"/><rect class="cls-12" x="895.38" y="789.78" width="66.45" height="12.76" rx="6.06"/><rect class="cls-12" x="973.29" y="789.78" width="81.77" height="12.76" rx="6.06"/><rect class="cls-12" x="1066.52" y="789.78" width="110.23" height="12.76" rx="6.06"/><rect class="cls-12" x="1010.06" y="756.11" width="166.7" height="12.76" rx="6.06"/><rect class="cls-12" x="895.38" y="855.78" width="281.37" height="12.76" rx="6.06"/><rect class="cls-12" x="895.38" y="823.45" width="145.36" height="12.76" rx="6.06"/><rect class="cls-12" x="1062" y="823.45" width="114.75" height="12.76" rx="6.06"/><path class="cls-10" d="M465,782.16A70,70,0,0,0,451.86,773l1.83-3.71a73.38,73.38,0,0,1,14,9.74Z"/><path class="cls-10" d="M471.56,1182.18a266.14,266.14,0,0,1-20.14-24.27l3.35-2.44a260.74,260.74,0,0,0,19.82,23.89Zm-36.84-51.09a173,173,0,0,1-12-29.29l4-1.2a167.5,167.5,0,0,0,11.69,28.58Zm-18.06-60.38c-.45-4.82-.67-9.77-.67-14.69,0-5.56.29-11.27.86-17l4.12.41c-.56,5.56-.84,11.13-.84,16.55,0,4.8.22,9.61.65,14.31Zm9.92-61.68-4-1.06A267.15,267.15,0,0,1,432.51,978l3.85,1.52A265.8,265.8,0,0,0,426.58,1009Zm22.41-58-3.73-1.81c4-8.26,8.61-17.13,14.42-27.9l3.64,2C457.54,934.05,453,942.87,449,951.07Zm29.36-55.25-3.65-1.94.11-.21a148.63,148.63,0,0,0,12-28.16l4,1.18a152.43,152.43,0,0,1-12.33,29ZM491,835.3A71.16,71.16,0,0,0,483.7,806l3.71-1.84a75.3,75.3,0,0,1,7.75,31Z"/><path class="cls-10" d="M506.84,1215c-4.36-3.58-8.62-7.22-12.66-10.81l2.76-3.09c4,3.56,8.21,7.16,12.53,10.7Z"/><path class="cls-6" d="M437.72,712.1l-5.48,66.7L393.5,735.17,268.21,632.55l106.84,33.66s52.6,25.56,55,28.93S437.72,712.1,437.72,712.1Z"/><polygon class="cls-7" points="494.49 683.44 268.21 632.55 437.72 712.1 494.49 683.44"/><polygon class="cls-7" points="350.69 761.49 420.44 726.69 268.21 632.55 350.69 761.49"/></g></g></g></svg>