<svg xmlns="http://www.w3.org/2000/svg" viewBox="0 0 660 399.9998"><g id="a8f7595d-a991-4a92-8e94-82dfc3df53e7" data-name="Capa 2"><g id="bccb88e8-9484-4caf-9f99-9553e404910c" data-name="Layer 1"><polygon points="660 329.543 660 320.894 660 320.894 660 329.543" style="fill:#a8cff0"/><polygon points="0 307.614 85.244 258.767 0 209.997 0 307.614" style="fill:#d1ebff"/><polygon points="453.565 0 495.217 23.843 536.827 0 453.565 0" style="fill:#d1ebff"/><polygon points="660 0 660 320.894 660 320.894 660 0.001 660 0 660 0" style="fill:#d1ebff"/><polygon points="0 307.614 0 400 332.101 400 85.244 258.767 0 307.614" style="fill:#f0f8ff"/><polygon points="536.827 0 495.217 23.843 660 118.171 660 0 536.827 0" style="fill:#f0f8ff"/><polygon points="660 400 660 329.543 660 400 660 400" style="fill:#fff;opacity:0.5"/><polygon points="0 0 0 209.997 85.244 258.767 495.217 23.843 453.565 0 0 0" style="fill:#f0f8ff"/><polygon points="522.454 400 660 400 660 320.894 522.454 400" style="fill:#d1ebff"/><polygon points="660 118.171 495.217 23.843 85.244 258.767 332.101 400 522.454 400 660 320.894 660 118.171" style="fill:#d1ebff"/><polygon points="660 118.171 495.217 23.843 85.244 258.767 332.101 400 522.454 400 660 320.894 660 118.171" style="fill:#fff"/><path d="M433.7962,133.4245c-.0179-3.283-4.6418-5.9527-10.3279-5.9628s-10.2812,2.6426-10.2634,5.9254c.0162,3.0044,3.8941,5.4885,8.9094,5.8975l.0089,1.6639c-.9507.1453-1.6525.64-1.6491,1.2362l.0306,5.68c.004.7112,1.0057,1.29,2.2377,1.2918l1.6871.0031c1.2319.0023,2.2274-.5726,2.2234-1.2837l-.0307-5.68c-.0033-.5957-.71-1.0935-1.6628-1.2423l-.0089-1.6638C429.9616,138.8989,433.8123,136.4287,433.7962,133.4245Z" style="fill:#fff"/></g></g></svg>