<svg xmlns="http://www.w3.org/2000/svg" viewBox="0 0 461.37 456.87"><defs><style>.cls-1{fill:#f5f5f5;}.cls-2{fill:#e6e6e6;}.cls-3{fill:#27debf;}.cls-4{opacity:0.15;}.cls-5{fill:#37474f;}.cls-6{opacity:0.3;}.cls-7{fill:#455a64;}.cls-8{fill:#263238;}.cls-9{opacity:0.1;}.cls-10{opacity:0.05;}.cls-11,.cls-14{fill:none;}.cls-12,.cls-16,.cls-17,.cls-18{fill:#fff;}.cls-12{opacity:0.7;}.cls-13,.cls-17{opacity:0.5;}.cls-14{stroke:#27debf;stroke-linecap:round;stroke-miterlimit:10;stroke-width:2.26px;}.cls-15{opacity:0.2;}.cls-16{opacity:0.8;}.cls-18{opacity:0.6;}.cls-19{opacity:0.4;}.cls-20{opacity:0.25;}</style></defs><g id="Capa_2" data-name="Capa 2"><g id="Floor"><ellipse id="Floor-2" data-name="Floor" class="cls-1" cx="230.68" cy="344.75" rx="230.68" ry="112.11"/></g><g id="Shadows"><path id="Shadow" class="cls-2" d="M212.88,407.81a2,2,0,0,1-2-1.64l-.46-2.41a28.68,28.68,0,0,1-3.07-.75h-.07l-4.26,2a2.31,2.31,0,0,1-1,.21,2.52,2.52,0,0,1-1.21-.3l-4.24-2.45a1.69,1.69,0,0,1-.15-2.88l2.57-1.85a9.42,9.42,0,0,1-.64-1l-5.4-.34a2,2,0,0,1-1.82-1.94v-3.15a1.94,1.94,0,0,1,1.82-1.93l5.4-.35a9.42,9.42,0,0,1,.64-1l-2.57-1.85a1.69,1.69,0,0,1,.15-2.88l4.24-2.44a2.42,2.42,0,0,1,1.21-.31,2.31,2.31,0,0,1,1,.21l4.26,2h.05s0,0,0,0a27,27,0,0,1,3.1-.76l.46-2.41a2,2,0,0,1,2-1.64h6.24a2,2,0,0,1,2,1.64l.45,2.41a27.56,27.56,0,0,1,3.07.75h.08l4.25-2a2.34,2.34,0,0,1,1-.21,2.42,2.42,0,0,1,1.21.31l4.25,2.45a1.68,1.68,0,0,1,.14,2.87L233,388.08a9.42,9.42,0,0,1,.64,1l5.41.35a1.94,1.94,0,0,1,1.81,1.93v3.15a2,2,0,0,1-1.81,1.94l-5.41.34a8.43,8.43,0,0,1-.64,1l2.57,1.85a1.71,1.71,0,0,1,.74,1.48,1.75,1.75,0,0,1-.88,1.4l-4.25,2.44a2.42,2.42,0,0,1-1.21.31h0a2.34,2.34,0,0,1-1-.21l-4.25-2h-.06s0,0,0,0a26,26,0,0,1-3.1.76l-.45,2.41a2,2,0,0,1-2,1.64ZM216,388.42a13.16,13.16,0,0,0-6.48,1.53c-1.45.83-2.28,1.91-2.28,2.95s.83,2.11,2.28,2.94a14.49,14.49,0,0,0,13,0c1.45-.83,2.28-1.91,2.28-2.94s-.83-2.12-2.28-2.95A13.16,13.16,0,0,0,216,388.42Z"/><path id="Shadow-2" data-name="Shadow" class="cls-2" d="M261.38,379.92a2.29,2.29,0,0,1-1.6-.7l-1.69-1.78-1.25,0c-.41,0-.83,0-1.23,0l-1.8,1.9a2,2,0,0,1-1.47.57,2.33,2.33,0,0,1-.53-.06l-4.21-1a1.84,1.84,0,0,1-1.24-1,1.6,1.6,0,0,1,0-1.37l.67-1.32c-.36-.2-.7-.42-1-.64l-4,.67a1.53,1.53,0,0,1-.3,0,2.15,2.15,0,0,1-1.7-.89l-1.59-2.21a1.87,1.87,0,0,1-.35-1,1.64,1.64,0,0,1,1.15-1.58l3-1v-.14l-3-.94A1.72,1.72,0,0,1,238.1,366v-.1a1.58,1.58,0,0,1,.3-.92l1.74-2.42a2,2,0,0,1,1.62-.77l.36,0,3.9.66c.28-.19.59-.39.91-.57l.12-.06-.62-1.23a1.62,1.62,0,0,1-.19-.7l0-.2,0-.11a1.65,1.65,0,0,1,1.25-1.41l4.4-1.05a1.79,1.79,0,0,1,.42-.05,2.29,2.29,0,0,1,1.6.7l1.69,1.78c.42,0,.85,0,1.28,0l1.2,0,1.8-1.89a2,2,0,0,1,1.46-.58,2.48,2.48,0,0,1,.54.06l4.2,1a1.72,1.72,0,0,1,1.39,1.62,1.65,1.65,0,0,1-.15.69l-.69,1.36.14.07c.32.19.61.37.88.56l4-.67.3,0a2.17,2.17,0,0,1,1.69.87l1.59,2.23a1.7,1.7,0,0,1,.35,1V366l0,.13a1.6,1.6,0,0,1-1.1,1.29l-3.08,1a.33.33,0,0,1,0,.14l3,.93a1.71,1.71,0,0,1,1,2.53c-.51.78-1.09,1.53-1.64,2.29l-.09.13a2,2,0,0,1-1.62.77,2.22,2.22,0,0,1-.37,0l-3.9-.66a11.87,11.87,0,0,1-1,.64l.62,1.22a1.73,1.73,0,0,1,0,1.52,1.68,1.68,0,0,1-1.13.91l-4.37,1A2,2,0,0,1,261.38,379.92Zm-10.6-10.62a3.08,3.08,0,0,0,.82.84,4.45,4.45,0,0,0,.51.33,7.73,7.73,0,0,0,2.11.81,11.32,11.32,0,0,0,2.62.3,9.91,9.91,0,0,0,4.74-1.1,4.34,4.34,0,0,0,.5-.33,3.36,3.36,0,0,0,.76-.74,1.35,1.35,0,0,0,.13-1.6,1.31,1.31,0,0,1-.07-.13l-.11-.14-.1-.13,0,0,0,0,0,0a6.56,6.56,0,0,0-3.12-1.57,11.25,11.25,0,0,0-2.62-.3c-2.62,0-5.08.9-6,2.18a1.34,1.34,0,0,0-.24,1.37l0,.12.11.19Z"/><path id="Shadow-3" data-name="Shadow" class="cls-2" d="M318.56,398.65l35.88-20.71a1.17,1.17,0,0,0,0-2.22l-8.79-5.08a4.28,4.28,0,0,0-3.85,0l-35.88,20.72c-1.07.61-1.07,1.6,0,2.22l4.39,2.54-45,26c-1.07.62-.62.83-.12,1.11s.86.55,1.92-.06l45-26,2.59,1.49A4.22,4.22,0,0,0,318.56,398.65Z"/><path id="Shadow-4" data-name="Shadow" class="cls-2" d="M305,358.9a16.13,16.13,0,0,1-8-1.95c-.25-.15-.48-.3-.71-.46l-1.33-.94,11.29-1.65,1-2.13L304.21,350l-10.76,1.57.36-1a6.9,6.9,0,0,1,3.3-3.55,16.27,16.27,0,0,1,7.9-1.88,18.75,18.75,0,0,1,3.62.35l36.81-21.26a4.34,4.34,0,0,1-.3-3,6.59,6.59,0,0,1,3.41-3.95,16.35,16.35,0,0,1,7.92-1.88,16.1,16.1,0,0,1,8,1.95c.26.15.49.3.72.46l1.33.93-11.29,1.66-1,2.13,3,1.79,10.77-1.57-.36,1a6.92,6.92,0,0,1-3.31,3.55,16.25,16.25,0,0,1-7.9,1.88,18.65,18.65,0,0,1-3.61-.35l-36.81,21.26a4.4,4.4,0,0,1,.3,3,6.61,6.61,0,0,1-3.42,3.95A16.29,16.29,0,0,1,305,358.9Z"/><polygon id="Shadow-5" data-name="Shadow" class="cls-2" points="203.81 294.52 265.87 330.35 323.75 296.83 261.7 261 203.81 294.52"/><polygon id="Shadow-6" data-name="Shadow" class="cls-2" points="180.25 381.33 263.93 333.02 190.71 290.75 107.04 339.06 180.25 381.33"/></g><g id="Gate"><g id="Gate-2" data-name="Gate"><polygon class="cls-3" points="265.86 327.69 207.11 293.77 207.11 291.2 261.11 260.03 319.86 293.94 319.86 296.51 265.86 327.69"/><polygon class="cls-3" points="207.11 291.2 265.86 325.12 319.86 293.94 261.11 260.03 207.11 291.2"/><polygon class="cls-4" points="207.11 291.2 265.86 325.12 319.86 293.94 261.11 260.03 207.11 291.2"/><path class="cls-5" d="M280.42,305.36a4.34,4.34,0,0,0,3.94,0,1.2,1.2,0,0,0,0-2.27,4.34,4.34,0,0,0-3.94,0A1.2,1.2,0,0,0,280.42,305.36Z"/><polygon class="cls-6" points="265.86 325.12 265.86 327.69 207.11 293.77 207.11 291.2 265.86 325.12"/></g></g><g id="Server"><g id="Server-2" data-name="Server"><path class="cls-3" d="M189.09,90.22,254.55,128a4.82,4.82,0,0,1,2.19,3.79V330.62a4.83,4.83,0,0,1-2.19,3.79l-70.81,40.88a4.83,4.83,0,0,1-4.38,0L113.9,337.5a4.85,4.85,0,0,1-2.19-3.79V134.89a4.85,4.85,0,0,1,2.19-3.79l70.81-40.88A4.83,4.83,0,0,1,189.09,90.22Z"/><path class="cls-3" d="M111.72,134.89V333.7a4.87,4.87,0,0,0,2.18,3.8l65.47,37.79a4.29,4.29,0,0,0,2.18.53V172a4.54,4.54,0,0,1-2.18-.53L113.9,133.63l-.6-.5-.77-.65A4.51,4.51,0,0,0,111.72,134.89Z"/><path class="cls-6" d="M111.72,134.89V333.7a4.87,4.87,0,0,0,2.18,3.8l65.47,37.79a4.29,4.29,0,0,0,2.18.53V172a4.54,4.54,0,0,1-2.18-.53L113.9,133.63l-.6-.5-.77-.65A4.51,4.51,0,0,0,111.72,134.89Z"/><path class="cls-3" d="M113.9,131.1l70.81-40.88a4.83,4.83,0,0,1,4.38,0L254.55,128a1.33,1.33,0,0,1,0,2.52l-70.81,40.88a4.83,4.83,0,0,1-4.38,0L113.9,133.63A1.34,1.34,0,0,1,113.9,131.1Z"/><path class="cls-4" d="M113.9,131.1l70.81-40.88a4.83,4.83,0,0,1,4.38,0L254.55,128a1.33,1.33,0,0,1,0,2.52l-70.81,40.88a4.83,4.83,0,0,1-4.38,0L113.9,133.63A1.34,1.34,0,0,1,113.9,131.1Z"/><polygon class="cls-7" points="248.87 265.94 190.12 299.86 190.12 362.22 248.87 328.29 248.87 265.94"/><path class="cls-8" d="M220,310.49a.6.6,0,0,0-.61.06l-23.9,13.75a1.79,1.79,0,0,0-.61.64l-1.6-.93a1.86,1.86,0,0,1,.6-.64l23.4-13.46a1.93,1.93,0,0,1,1.72,0Z"/><path class="cls-5" d="M194.63,325.78v26.78c0,.55.38.77.85.5l23.9-13.75a1.91,1.91,0,0,0,.86-1.49V311.05c0-.55-.39-.77-.86-.5l-23.9,13.75A1.9,1.9,0,0,0,194.63,325.78Z"/><path class="cls-8" d="M194.86,353.1l-1-.56a1.9,1.9,0,0,1-.85-1.49v-26.2a1.7,1.7,0,0,1,.25-.84l1.6.93a1.77,1.77,0,0,0-.25.84v26.78A.61.61,0,0,0,194.86,353.1Z"/><path class="cls-3" d="M196.55,350.65a.37.37,0,0,1-.21-.06.5.5,0,0,1-.22-.46V326.35a1.32,1.32,0,0,1,.6-1.05L218,313a.5.5,0,0,1,.51,0,.48.48,0,0,1,.23.46v23.79a1.32,1.32,0,0,1-.6,1.05l-21.31,12.25A.61.61,0,0,1,196.55,350.65Zm21.79-37.45a.35.35,0,0,0-.18.06l-21.31,12.26a1.08,1.08,0,0,0-.48.83v23.78a.29.29,0,0,0,.1.25.29.29,0,0,0,.26,0h0L218,338.09a1.08,1.08,0,0,0,.48-.83V313.47a.29.29,0,0,0-.09-.25Z"/><path class="cls-3" d="M198.22,347.52l-.12,0a.29.29,0,0,1-.13-.26V327.05a.76.76,0,0,1,.29-.51l18.21-10.49a.3.3,0,0,1,.29,0,.27.27,0,0,1,.13.25l0,20.23a.6.6,0,0,1-.29.5l-18.18,10.45A.3.3,0,0,1,198.22,347.52Zm0-.24Zm18.4-31,0,0-18.22,10.49a.56.56,0,0,0-.16.29v20.18s0,0,0,0h0l18.19-10.45a.41.41,0,0,0,.16-.29h0l0-20.23S216.63,316.26,216.63,316.25Z"/><path class="cls-3" d="M199.45,321.21a.24.24,0,0,1-.24-.24v-5.7a.25.25,0,0,1,.24-.25.24.24,0,0,1,.24.25V321A.24.24,0,0,1,199.45,321.21Z"/><path class="cls-3" d="M203.44,318.93a.24.24,0,0,1-.24-.24V313a.24.24,0,0,1,.48,0v5.71A.24.24,0,0,1,203.44,318.93Z"/><path class="cls-3" d="M207.43,316.64a.24.24,0,0,1-.24-.24v-5.7a.24.24,0,0,1,.24-.25.25.25,0,0,1,.24.25v5.7A.24.24,0,0,1,207.43,316.64Z"/><path class="cls-3" d="M211.42,314.36a.25.25,0,0,1-.25-.25v-5.7a.25.25,0,0,1,.49,0v5.7A.25.25,0,0,1,211.42,314.36Z"/><path class="cls-3" d="M215.4,312.07a.24.24,0,0,1-.24-.24v-5.71a.25.25,0,0,1,.49,0v5.71A.25.25,0,0,1,215.4,312.07Z"/><path class="cls-8" d="M220,289.43a.6.6,0,0,0-.61.06l-23.9,13.74a1.79,1.79,0,0,0-.61.64l-1.6-.92a1.77,1.77,0,0,1,.6-.64l23.4-13.46a1.93,1.93,0,0,1,1.72,0Z"/><path class="cls-5" d="M194.63,304.72v13.5c0,.55.38.77.85.5L219.39,305a1.91,1.91,0,0,0,.86-1.49V290c0-.55-.39-.77-.86-.49l-23.9,13.75A1.89,1.89,0,0,0,194.63,304.72Z"/><path class="cls-8" d="M194.86,318.76l-1-.56a1.9,1.9,0,0,1-.85-1.49V303.79a1.67,1.67,0,0,1,.25-.84l1.6.92a1.84,1.84,0,0,0-.25.85v13.5A.61.61,0,0,0,194.86,318.76Z"/><path class="cls-3" d="M196.55,316.31a.46.46,0,0,1-.21-.05.52.52,0,0,1-.22-.46V305.29a1.3,1.3,0,0,1,.6-1.05L218,292a.46.46,0,0,1,.74.42v10.52a1.32,1.32,0,0,1-.6,1.05l-21.31,12.25A.61.61,0,0,1,196.55,316.31Zm21.79-24.17a.35.35,0,0,0-.18.06l-21.31,12.25a1.1,1.1,0,0,0-.48.84V315.8a.29.29,0,0,0,.1.24.29.29,0,0,0,.26,0h0L218,303.75a1.08,1.08,0,0,0,.48-.83V292.4a.27.27,0,0,0-.09-.24Z"/><path class="cls-3" d="M198.22,313.18a.27.27,0,0,1-.12,0,.29.29,0,0,1-.13-.26V306a.72.72,0,0,1,.29-.51L216.47,295a.3.3,0,0,1,.29,0,.29.29,0,0,1,.13.26l0,6.95a.6.6,0,0,1-.29.5l-18.18,10.45A.3.3,0,0,1,198.22,313.18Zm0-.24Zm18.4-17.75,0,0L198.38,305.7a.49.49,0,0,0-.16.29v6.9s0,0,0,0h0l18.19-10.45a.41.41,0,0,0,.16-.29h0l0-6.95S216.63,295.2,216.63,295.19Z"/><path class="cls-3" d="M224.83,286.68a3.11,3.11,0,0,0-1.41,2.44c0,.9.63,1.27,1.41.82a3.13,3.13,0,0,0,1.41-2.45C226.24,286.6,225.61,286.23,224.83,286.68Z"/><path class="cls-3" d="M224.83,310.68a3.11,3.11,0,0,0-1.41,2.44c0,.9.63,1.27,1.41.82a3.13,3.13,0,0,0,1.41-2.45C226.24,310.59,225.61,310.23,224.83,310.68Z"/><path class="cls-3" d="M224.83,317.13a3.13,3.13,0,0,0-1.41,2.45c0,.9.63,1.26,1.41.81a3.11,3.11,0,0,0,1.41-2.44C226.24,317.05,225.61,316.68,224.83,317.13Z"/><path class="cls-3" d="M224.83,323.59a3.11,3.11,0,0,0-1.41,2.44c0,.9.63,1.27,1.41.82a3.13,3.13,0,0,0,1.41-2.45C226.24,323.5,225.61,323.14,224.83,323.59Z"/><path class="cls-3" d="M224.83,330a3.13,3.13,0,0,0-1.41,2.45c0,.9.63,1.26,1.41.81a3.11,3.11,0,0,0,1.41-2.44C226.24,330,225.61,329.59,224.83,330Z"/><path class="cls-3" d="M224.83,292.51a3.11,3.11,0,0,0-1.41,2.44c0,.9.63,1.27,1.41.82a3.13,3.13,0,0,0,1.41-2.45C226.24,292.43,225.61,292.06,224.83,292.51Z"/><path class="cls-3" d="M224.83,298.34a3.11,3.11,0,0,0-1.41,2.44c0,.9.63,1.27,1.41.82a3.13,3.13,0,0,0,1.41-2.45C226.24,298.26,225.61,297.89,224.83,298.34Z"/><path class="cls-8" d="M240.26,289.72l-.14-1.31a.14.14,0,0,0-.18-.12,2.88,2.88,0,0,1-.64.06.34.34,0,0,0-.27.13l-.29.43,1.55.89A.1.1,0,0,1,240.26,289.72Zm1.11-9.17a2.85,2.85,0,0,1,0,.31,5,5,0,0,1-2.28,3.95l-.28.14c.14,1.23,1.1,1.68,2.26,1a5,5,0,0,0,2.28-3.94C243.37,280.66,242.5,280.05,241.37,280.55Zm4.95-1.16-1.56-.9-.23.47a.33.33,0,0,0,0,.29,2.66,2.66,0,0,1,.27.59.15.15,0,0,0,.2.1l1.2-.54a.12.12,0,0,1,.1,0Zm-3-3.43-.87-.5h-.13l-.05,0,0,0,0,0-.71,1.07-.9-.53h0l-.64-.38h-.05l-.07,0-.93.54-.41.24-.06,0,0,.06s0,0,0,0a.05.05,0,0,0,0,0h0a.41.41,0,0,0,0,.08l-.13,1.5s0,0,0,0a.07.07,0,0,1,0,.05.59.59,0,0,1-.11.19,6.25,6.25,0,0,0-.75.79.24.24,0,0,1-.12.07.26.26,0,0,1-.15,0l-.86-.3H236l-.05,0s0,0,0,.05l-.41.71-.43.75-.15.26a.2.2,0,0,0,0,.13.22.22,0,0,0,.06.13l.7.6a.18.18,0,0,1,0,.07.19.19,0,0,1,0,.1.25.25,0,0,1,0,.09,8.41,8.41,0,0,0-.32,1.05.51.51,0,0,1-.08.17l-.09.09-1.23.87a.45.45,0,0,0-.09.1.33.33,0,0,0,0,.16V286a.13.13,0,0,0,0,.1l1.57.91-.57,1.15a.18.18,0,0,0,.07.23l1.9,1.1.08.05a.27.27,0,0,1-.07-.08.22.22,0,0,1,0-.16l.8-1.61a.19.19,0,0,0,0-.07.36.36,0,0,0,0-.23,2.46,2.46,0,0,1-.27-.59.14.14,0,0,0-.2-.09l-.61.27-.59.27a.11.11,0,0,1-.11,0,.12.12,0,0,1-.05-.1v-1.56a.33.33,0,0,1,.05-.16.45.45,0,0,1,.09-.1l1.23-.87.1-.1a.4.4,0,0,0,.08-.16,7.88,7.88,0,0,1,.31-1.05.28.28,0,0,0,0-.09.23.23,0,0,0-.08-.18l-.69-.6a.19.19,0,0,1-.07-.12.34.34,0,0,1,0-.14l.29-.48.35-.61.35-.63a.26.26,0,0,1,.16-.09.14.14,0,0,1,.09,0l.87.3a.26.26,0,0,0,.15,0,.23.23,0,0,0,.11-.08,9.41,9.41,0,0,1,.75-.79.37.37,0,0,0,.11-.18.19.19,0,0,0,0-.1l.14-1.5a.29.29,0,0,1,0-.09.46.46,0,0,1,.14-.17l.26-.15.54-.31.55-.31a.13.13,0,0,1,.1,0h0s.05,0,.05.09l.07.69.06.62a.15.15,0,0,0,.18.13,3,3,0,0,1,.65-.07.29.29,0,0,0,.19-.06.16.16,0,0,0,.07-.07l1-1.5a.19.19,0,0,1,.24-.06Z"/><path class="cls-9" d="M240.28,277.78a.29.29,0,0,0,0,.09l-.14,1.5a.19.19,0,0,1,0,.1l-2-1.15h0a.43.43,0,0,0,0-.05s0,0,0,0l.13-1.5a.41.41,0,0,1,0-.08Z"/><path class="cls-4" d="M239.12,280.52a.26.26,0,0,1-.15,0l-.87-.3a.14.14,0,0,0-.09,0l-2-1.14h.07l.86.3a.26.26,0,0,0,.15,0Z"/><path class="cls-4" d="M237.68,283.06l-2-1.15h0s0-.07,0-.1a.18.18,0,0,0,0-.07l-.7-.6a.22.22,0,0,1-.06-.13l2,1.15a.19.19,0,0,0,.07.12l.69.6A.23.23,0,0,1,237.68,283.06Z"/><path class="cls-4" d="M237.67,287.62a.19.19,0,0,1,0,.07l-.8,1.61a.22.22,0,0,0,0,.16v0h0l-1.9-1.1a.18.18,0,0,1-.07-.23l.57-1.15.42.24h0a.11.11,0,0,0,.11,0l.59-.27Z"/><path class="cls-4" d="M240.26,289.72a.1.1,0,0,0,0,.08l-1.55-.89.29-.43a.34.34,0,0,1,.27-.13,2.88,2.88,0,0,0,.64-.06.14.14,0,0,1,.18.12Z"/><path class="cls-9" d="M244.39,276.6a.19.19,0,0,0-.24.06l-1,1.5a.16.16,0,0,1-.07.07l-.56-.32-.52-.3-.07-.69c0-.05,0-.08-.05-.09h0l-.41-.23.71-1.07,0,0,0,0,.05,0h0a.17.17,0,0,1,.12,0l.87.5Z"/><path class="cls-4" d="M237.28,284.36l-.1.1-1.23.87a.45.45,0,0,0-.09.1l-2-1.15a.45.45,0,0,1,.09-.1l1.23-.87.09-.09Z"/><path class="cls-5" d="M246.22,279.39l-1.2.55a.15.15,0,0,1-.2-.1,2.66,2.66,0,0,0-.27-.59.33.33,0,0,1,0-.29l.8-1.62a.18.18,0,0,0-.07-.23l-.87-.51a.19.19,0,0,0-.24.06l-1,1.5a.29.29,0,0,1-.26.13,3,3,0,0,0-.65.07.15.15,0,0,1-.18-.13l-.13-1.31a.1.1,0,0,0-.16-.08l-1.35.77a.4.4,0,0,0-.16.26l-.14,1.5a.5.5,0,0,1-.14.28,9.41,9.41,0,0,0-.75.79.26.26,0,0,1-.26.08l-.87-.3a.22.22,0,0,0-.25.08l-1,1.72a.23.23,0,0,0,0,.26l.69.6a.27.27,0,0,1,.07.27,7.88,7.88,0,0,0-.31,1.05.51.51,0,0,1-.18.26l-1.23.87a.34.34,0,0,0-.14.26v1.56a.1.1,0,0,0,.16.1l1.2-.54a.14.14,0,0,1,.2.09,2.46,2.46,0,0,0,.27.59.32.32,0,0,1,0,.3l-.8,1.61a.2.2,0,0,0,.07.24l.87.5A.19.19,0,0,0,238,290l1-1.5a.34.34,0,0,1,.27-.13,2.88,2.88,0,0,0,.64-.06.14.14,0,0,1,.18.12l.14,1.31a.1.1,0,0,0,.16.09l1.35-.78a.38.38,0,0,0,.16-.25l.14-1.51a.47.47,0,0,1,.14-.28,7.94,7.94,0,0,0,.74-.79.25.25,0,0,1,.27-.07l.87.3a.2.2,0,0,0,.24-.1l1-1.71a.21.21,0,0,0,0-.26l-.69-.6a.23.23,0,0,1-.07-.27,7.74,7.74,0,0,0,.31-1,.52.52,0,0,1,.17-.26l1.24-.87a.37.37,0,0,0,.13-.27V279.5C246.37,279.4,246.31,279.36,246.22,279.39ZM241.09,286c-1.26.73-2.28.14-2.28-1.31a5,5,0,0,1,2.28-3.95c1.26-.73,2.28-.14,2.28,1.32A5,5,0,0,1,241.09,286Z"/><path class="cls-8" d="M236.94,293l-.07,0,0,0,0,0-.31-.17-.92-.54h0l-.08,0h-.05l-.08,0-.85.09h-.08l0,0,0,0,0,0a.05.05,0,0,0,0,0l-.46,1.23s0,.06-.08.1l-.11.08-.27.14-.89-.51h0a.12.12,0,0,0-.1.05l-.66.7-.27.28,0,.05,0,.07a.09.09,0,0,0,0,.05v0l.27.88a.26.26,0,0,1,0,.12.25.25,0,0,1,0,.09,5.59,5.59,0,0,0-.43.75.24.24,0,0,1-.1.1l-.1,0-.8.19-.06,0-.05,0,0,0s0,0,0,.05l-.29,1-.11.36a.1.1,0,0,0,0,.1h0l.53.31.08,0,.28.16h0c0,.12,0,.24,0,.35a.21.21,0,0,1,0,.13.26.26,0,0,1,0,.09l-.81,1a.27.27,0,0,0-.05.11h0a.14.14,0,0,0,0,.11l.38.84,0,0h0l1.61.93.09.05,0,0,0-.09-.19-.4-.16-.36a.2.2,0,0,1,0-.11.19.19,0,0,1,.05-.09l.81-1a.26.26,0,0,0,.05-.09.15.15,0,0,0,0-.12,4.09,4.09,0,0,1,0-.7.12.12,0,0,0-.12-.13l-.73,0-.06,0h0a.1.1,0,0,1,0-.1l.19-.6v0l.21-.71a.11.11,0,0,1,0-.05.33.33,0,0,1,.15-.1l.8-.19a.27.27,0,0,0,.11,0,.21.21,0,0,0,.09-.1,7.89,7.89,0,0,1,.43-.74.21.21,0,0,0,0-.1.26.26,0,0,0,0-.12l-.26-.87a.38.38,0,0,1,0-.1h0a.27.27,0,0,1,.06-.1l.63-.66.31-.32c0-.05.09-.06.12,0h0l0,0,.43.66c0,.05.12,0,.19,0a2.85,2.85,0,0,1,.52-.31.33.33,0,0,0,.1-.06.31.31,0,0,0,.09-.12l.46-1.23s0,0,0-.06l.31-.08.68-.07h.07Zm-3.61,9a.13.13,0,0,0-.08-.15,1.23,1.23,0,0,1-.37-.21.14.14,0,0,0-.19,0l-.87.79a.16.16,0,0,1-.1.05c.25.13.58.33.85.49l.53.3a.06.06,0,0,1,0-.08Zm3.8-8.91a.07.07,0,0,1,0,.08l-.27,1.22a.14.14,0,0,0,.09.15,1.36,1.36,0,0,1,.37.21.14.14,0,0,0,.19,0l.87-.79a.13.13,0,0,1,.12,0ZM236,302l-.44-.67s-.11,0-.18,0a2.26,2.26,0,0,1-.26.16l.9.52S236,302,236,302Zm.69-5.52A.86.86,0,0,0,236,296h-.1a1.41,1.41,0,0,0-.61.12,1.93,1.93,0,0,1,0,.24,3.78,3.78,0,0,1-1.7,3l-.2.11a1.24,1.24,0,0,0,.12.44.83.83,0,0,0,.79.53h.17l.07,0h.09a2.37,2.37,0,0,0,1.1-.72A3.28,3.28,0,0,0,236.7,296.51Zm1.33,0c0,.11,0,.22,0,.34s0,.11.12.12l.73,0h0Z"/><path class="cls-4" d="M236,302s0,0,0,0l-.9-.52a2.26,2.26,0,0,0,.26-.16c.07-.05.15-.05.18,0Z"/><path class="cls-9" d="M233.07,303.2a.06.06,0,0,0,0,.08l-.53-.3c-.27-.16-.6-.36-.85-.49a.16.16,0,0,0,.1-.05l.87-.79a.14.14,0,0,1,.19,0,1.23,1.23,0,0,0,.37.21.13.13,0,0,1,.08.15Z"/><path class="cls-9" d="M232.2,300.32a.28.28,0,0,1-.06.09l-.81,1a.31.31,0,0,0-.05.1l-1.71-1a.48.48,0,0,1,.05-.11l.81-1a.73.73,0,0,0,0-.09Z"/><path class="cls-10" d="M232.22,299.5a4,4,0,0,0,0,.69.21.21,0,0,1,0,.13l-1.72-1a.18.18,0,0,0,0-.12c0-.12,0-.25,0-.36l.81.46h0s0,0,.05,0l.73,0A.12.12,0,0,1,232.22,299.5Z"/><path class="cls-9" d="M232.76,297.47a.34.34,0,0,1-.11,0l-.8.2a.19.19,0,0,0-.15.09l-1.71-1s0,0,0,0l.06,0,0,0,.8-.2.1,0Z"/><path class="cls-9" d="M233.33,296.42a.18.18,0,0,1,0,.1l-1.7-1a.24.24,0,0,0,0-.12l-.27-.88a0,0,0,0,1,0,0s0,0,0-.05l1.72,1a.38.38,0,0,0,0,.1Z"/><path class="cls-9" d="M236.06,293.2l-.05.07-.45,1.23a.31.31,0,0,1-.09.12l-1.71-1,0,0s.05-.07.06-.1l.47-1.24,0,0,0,0Z"/><path class="cls-11" d="M236.06,293.21a.27.27,0,0,1,.14-.07h.17"/><path class="cls-5" d="M238.92,297h0l-.73,0c-.08,0-.13-.06-.12-.12s0-.23,0-.34,0-.25,0-.36a.29.29,0,0,1,.08-.22l.81-1a.23.23,0,0,0,.05-.2l-.39-.85s0,0,0,0a.13.13,0,0,0-.12,0l-.87.79a.14.14,0,0,1-.19,0,1.36,1.36,0,0,0-.37-.21.14.14,0,0,1-.09-.15l.27-1.22a.07.07,0,0,0,0-.08.1.1,0,0,0-.08,0l-.68.07h-.17a.27.27,0,0,0-.14.07s0,0,0,.06l-.46,1.23a.31.31,0,0,1-.09.12.33.33,0,0,1-.1.06,2.85,2.85,0,0,0-.52.31c-.07,0-.15.05-.19,0l-.43-.66s0,0,0,0-.08,0-.12,0l-.31.32-.63.66a.24.24,0,0,0-.06.11.38.38,0,0,0,0,.1l.26.87a.26.26,0,0,1,0,.12.21.21,0,0,1,0,.1,7.89,7.89,0,0,0-.43.74.21.21,0,0,1-.09.1.27.27,0,0,1-.11,0l-.8.19a.33.33,0,0,0-.15.1.11.11,0,0,0,0,.05l-.21.71v0l-.19.6a.1.1,0,0,0,0,.1h0l.06,0,.73,0a.12.12,0,0,1,.12.13,4.09,4.09,0,0,0,0,.7.15.15,0,0,1,0,.12.26.26,0,0,1-.05.09l-.81,1a.22.22,0,0,0-.05.2l.16.36,0,0,0,.12.07.14.06.12a.19.19,0,0,0,0,.07l0,0,0,0a.16.16,0,0,0,.1-.05l.87-.79a.14.14,0,0,1,.19,0,1.23,1.23,0,0,0,.37.21.13.13,0,0,1,.08.15l-.26,1.22a.08.08,0,0,0,0,.09h.08l.85-.08a.25.25,0,0,0,.19-.14l.46-1.22a.41.41,0,0,1,.18-.19l.27-.14a2.26,2.26,0,0,0,.26-.16c.07-.05.15-.05.18,0l.44.67s0,0,0,0,.09,0,.13-.05l.94-1a.29.29,0,0,0,.07-.2l-.27-.88a.34.34,0,0,1,0-.21,5.59,5.59,0,0,0,.43-.75.35.35,0,0,1,.2-.15l.8-.19a.25.25,0,0,0,.18-.15l.4-1.35A.08.08,0,0,0,238.92,297Zm-4.25,3.31h-.09l-.07,0h-.17a.83.83,0,0,1-.79-.53,1.24,1.24,0,0,1-.12-.44,2.11,2.11,0,0,1,0-.25,3.82,3.82,0,0,1,1.06-2.42,2.47,2.47,0,0,1,.64-.51l.21-.12a1.41,1.41,0,0,1,.61-.12h.1a.86.86,0,0,1,.67.52,3.28,3.28,0,0,1-.93,3.11A2.37,2.37,0,0,1,234.67,300.34Z"/><path class="cls-3" d="M236.08,316a6.45,6.45,0,0,0-3.62,3,6,6,0,0,0,.19,5.65,6.48,6.48,0,0,0-1,3.49,7.74,7.74,0,0,0,5.1,6.89l.29.1.87-.51a8.23,8.23,0,0,1-4.68-4.3,5.83,5.83,0,0,1,.15-4.58,7.35,7.35,0,0,0,1.68,1.57c1.74,1.14,5.14,2,6.72.17a2.84,2.84,0,0,0-.13-3.71,5.55,5.55,0,0,0-4-1.87,5.62,5.62,0,0,0-4.17,1.75,5.59,5.59,0,0,1-.41-2.58,4.93,4.93,0,0,1,3.53-4.13c1.43,2.24,4.61,4.28,7.06,2.36s-1.46-3.63-3.1-3.79a11.35,11.35,0,0,0-3.39.19,3.64,3.64,0,0,1-.22-2,4.41,4.41,0,0,1,1.67-2.6,5.61,5.61,0,0,1,6.6-.41.36.36,0,1,0,.46-.55C241.77,306.57,234,311,236.08,316Zm-.62,7.42a4.26,4.26,0,0,1,3.7-.17c1,.45,2.2,1.41,2,2.66-.28,2.2-3.23,1.58-4.61,1a6,6,0,0,1-2.59-2.24A4.94,4.94,0,0,1,235.46,323.44Zm3-6.91a7.44,7.44,0,0,1,3.08.22c.47.16,1.81.6,1.74,1.29-.05.42-.65.74-1,.88a2.61,2.61,0,0,1-1.61.08,5.55,5.55,0,0,1-2.78-2l-.23-.33C237.9,316.61,238.17,316.56,238.43,316.53Z"/><path class="cls-12" d="M236.08,316a6.45,6.45,0,0,0-3.62,3,6,6,0,0,0,.19,5.65,6.48,6.48,0,0,0-1,3.49,7.74,7.74,0,0,0,5.1,6.89l.29.1.87-.51a8.23,8.23,0,0,1-4.68-4.3,5.83,5.83,0,0,1,.15-4.58,7.35,7.35,0,0,0,1.68,1.57c1.74,1.14,5.14,2,6.72.17a2.84,2.84,0,0,0-.13-3.71,5.55,5.55,0,0,0-4-1.87,5.62,5.62,0,0,0-4.17,1.75,5.59,5.59,0,0,1-.41-2.58,4.93,4.93,0,0,1,3.53-4.13c1.43,2.24,4.61,4.28,7.06,2.36s-1.46-3.63-3.1-3.79a11.35,11.35,0,0,0-3.39.19,3.64,3.64,0,0,1-.22-2,4.41,4.41,0,0,1,1.67-2.6,5.61,5.61,0,0,1,6.6-.41.36.36,0,1,0,.46-.55C241.77,306.57,234,311,236.08,316Zm-.62,7.42a4.26,4.26,0,0,1,3.7-.17c1,.45,2.2,1.41,2,2.66-.28,2.2-3.23,1.58-4.61,1a6,6,0,0,1-2.59-2.24A4.94,4.94,0,0,1,235.46,323.44Zm3-6.91a7.44,7.44,0,0,1,3.08.22c.47.16,1.81.6,1.74,1.29-.05.42-.65.74-1,.88a2.61,2.61,0,0,1-1.61.08,5.55,5.55,0,0,1-2.78-2l-.23-.33C237.9,316.61,238.17,316.56,238.43,316.53Z"/><path class="cls-3" d="M233,326.72a5.62,5.62,0,0,1,.35-1,4.17,4.17,0,0,1-.71-1.09,6.21,6.21,0,0,0-.54,1.06A8.51,8.51,0,0,0,233,326.72Z"/><path class="cls-3" d="M235.34,317.54a6.06,6.06,0,0,1,1.23-.59,5.54,5.54,0,0,1-.49-.93,7.26,7.26,0,0,0-1.35.64A6,6,0,0,0,235.34,317.54Z"/><path class="cls-3" d="M237,335.14l.87-.51a10.64,10.64,0,0,1-1.08-.52l-.93.54c.28.14.57.28.85.39Z"/><path class="cls-3" d="M260.21,319a6.43,6.43,0,0,0-4.53-1.28,6,6,0,0,0-4.54,3.36,6.39,6.39,0,0,0-2.27.5,6.74,6.74,0,0,0-1.18.64,7.57,7.57,0,0,0-2.93,7.19c0,.31.09.61.15.91l.06.23.77-.44,0-.24a7.87,7.87,0,0,1,1.08-5.11,5.55,5.55,0,0,1,2.08-1.86,5.63,5.63,0,0,1,1.78-.62,7.09,7.09,0,0,0-.33,2.27c.05,2.08,1.26,5.37,3.67,5.64a2.85,2.85,0,0,0,3-2.22,5.53,5.53,0,0,0-.73-4.37,5.68,5.68,0,0,0-3.8-2.44,5.58,5.58,0,0,1,1.88-1.8,5,5,0,0,1,5.4.56c-1,2.46-.9,6.23,2.06,7.16s2.16-3.26,1.37-4.7a11.28,11.28,0,0,0-2.08-2.68,3.72,3.72,0,0,1,1.54-1.34,4.44,4.44,0,0,1,3.09-.09,5.62,5.62,0,0,1,4.07,5.21.36.36,0,1,0,.72.06C271.22,318.32,263.19,314.43,260.21,319Zm-6.46,3.7a4.19,4.19,0,0,1,2.22,2.95c.22,1.1.1,2.61-1,3.18-2,1-3.14-1.76-3.45-3.23a6,6,0,0,1,.38-3.4A4.82,4.82,0,0,1,253.75,322.69Zm7.37-1.47a7.58,7.58,0,0,1,1.56,2.65c.14.48.54,1.84-.07,2.16-.37.21-1-.1-1.29-.31a2.45,2.45,0,0,1-1-1.27,5.44,5.44,0,0,1,.08-3.43c0-.14.09-.26.13-.39C260.76,320.82,260.94,321,261.12,321.22Z"/><path class="cls-12" d="M260.21,319a6.43,6.43,0,0,0-4.53-1.28,6,6,0,0,0-4.54,3.36,6.39,6.39,0,0,0-2.27.5,6.74,6.74,0,0,0-1.18.64,7.57,7.57,0,0,0-2.93,7.19c0,.31.09.61.15.91l.06.23.77-.44,0-.24a7.87,7.87,0,0,1,1.08-5.11,5.55,5.55,0,0,1,2.08-1.86,5.63,5.63,0,0,1,1.78-.62,7.09,7.09,0,0,0-.33,2.27c.05,2.08,1.26,5.37,3.67,5.64a2.85,2.85,0,0,0,3-2.22,5.53,5.53,0,0,0-.73-4.37,5.68,5.68,0,0,0-3.8-2.44,5.58,5.58,0,0,1,1.88-1.8,5,5,0,0,1,5.4.56c-1,2.46-.9,6.23,2.06,7.16s2.16-3.26,1.37-4.7a11.28,11.28,0,0,0-2.08-2.68,3.72,3.72,0,0,1,1.54-1.34,4.44,4.44,0,0,1,3.09-.09,5.62,5.62,0,0,1,4.07,5.21.36.36,0,1,0,.72.06C271.22,318.32,263.19,314.43,260.21,319Zm-6.46,3.7a4.19,4.19,0,0,1,2.22,2.95c.22,1.1.1,2.61-1,3.18-2,1-3.14-1.76-3.45-3.23a6,6,0,0,1,.38-3.4A4.82,4.82,0,0,1,253.75,322.69Zm7.37-1.47a7.58,7.58,0,0,1,1.56,2.65c.14.48.54,1.84-.07,2.16-.37.21-1-.1-1.29-.31a2.45,2.45,0,0,1-1-1.27,5.44,5.44,0,0,1,.08-3.43c0-.14.09-.26.13-.39C260.76,320.82,260.94,321,261.12,321.22Z"/><path class="cls-3" d="M249.65,322.54a5.11,5.11,0,0,1,1-.27,3.88,3.88,0,0,1,.5-1.2,6.81,6.81,0,0,0-1.19.16A9.33,9.33,0,0,0,249.65,322.54Z"/><path class="cls-3" d="M258.54,319.24a6.67,6.67,0,0,1,1.18.68,5.34,5.34,0,0,1,.48-.93,8,8,0,0,0-1.31-.74A6.15,6.15,0,0,0,258.54,319.24Z"/><path class="cls-3" d="M245,330.54l-.06-.23c-.06-.3-.11-.6-.15-.91l1,.46,0,.24Z"/><path class="cls-7" d="M246.68,219.34l-54.37,31.39a4.83,4.83,0,0,0-2.19,3.79v18.66c0,1.4,1,2,2.19,1.27l54.37-31.4a4.82,4.82,0,0,0,2.19-3.79V220.6C248.87,219.2,247.89,218.64,246.68,219.34Z"/><path class="cls-3" d="M244.76,227.56a4.67,4.67,0,0,1-2.19,3.63l-46.15,26.65c-1.21.7-2.19.2-2.19-1.11a4.7,4.7,0,0,1,2.19-3.63l46.15-26.65C243.78,225.75,244.76,226.25,244.76,227.56Z"/><path class="cls-8" d="M244.76,237.05a4.69,4.69,0,0,1-2.19,3.63l-46.15,26.65c-1.21.7-2.19.2-2.19-1.11a4.67,4.67,0,0,1,2.19-3.63l46.15-26.65C243.78,235.24,244.76,235.74,244.76,237.05Z"/><path class="cls-3" d="M242.57,235.94,223,247.25V252l19.59-11.31a4.69,4.69,0,0,0,2.19-3.63C244.76,235.74,243.78,235.24,242.57,235.94Z"/><path class="cls-3" d="M171.28,175.4c-2.27-1.32-4.11-.12-4.11,2.67V278.46a9.43,9.43,0,0,0,4.11,7.44c2.27,1.31,4.11.12,4.11-2.68V182.84A9.4,9.4,0,0,0,171.28,175.4Z"/><path class="cls-13" d="M171.28,175.4c-2.27-1.32-4.11-.12-4.11,2.67V278.46a9.43,9.43,0,0,0,4.11,7.44c2.27,1.31,4.11.12,4.11-2.68V182.84A9.4,9.4,0,0,0,171.28,175.4Z"/><path class="cls-5" d="M171.28,283.5a4.72,4.72,0,0,1-2.05-3.72V179.09c0-1.39.92-2,2.05-1.34a4.68,4.68,0,0,1,2.06,3.71v100.7C173.34,283.55,172.42,284.15,171.28,283.5Z"/><path class="cls-3" d="M171.28,283.5a4.72,4.72,0,0,1-2.05-3.72V230.59l4.11,2.37v49.2C173.34,283.55,172.42,284.15,171.28,283.5Z"/><path class="cls-3" d="M159,168.28c-2.27-1.31-4.11-.12-4.11,2.68V271.35a9.4,9.4,0,0,0,4.11,7.43c2.27,1.32,4.11.12,4.11-2.67V175.72A9.43,9.43,0,0,0,159,168.28Z"/><path class="cls-13" d="M159,168.28c-2.27-1.31-4.11-.12-4.11,2.68V271.35a9.4,9.4,0,0,0,4.11,7.43c2.27,1.32,4.11.12,4.11-2.67V175.72A9.43,9.43,0,0,0,159,168.28Z"/><path class="cls-3" d="M159,276.38a4.68,4.68,0,0,1-2.06-3.71V172c0-1.4.92-2,2.06-1.35a4.72,4.72,0,0,1,2,3.72V275C161,276.44,160.09,277,159,276.38Z"/><path class="cls-3" d="M146.63,161.17c-2.27-1.32-4.11-.12-4.11,2.67V264.23a9.43,9.43,0,0,0,4.11,7.44c2.27,1.31,4.11.12,4.11-2.68V168.61A9.4,9.4,0,0,0,146.63,161.17Z"/><path class="cls-13" d="M146.63,161.17c-2.27-1.32-4.11-.12-4.11,2.67V264.23a9.43,9.43,0,0,0,4.11,7.44c2.27,1.31,4.11.12,4.11-2.68V168.61A9.4,9.4,0,0,0,146.63,161.17Z"/><path class="cls-5" d="M146.63,269.27a4.72,4.72,0,0,1-2-3.72V164.86c0-1.39.92-2,2-1.34a4.68,4.68,0,0,1,2.06,3.71v100.7C148.69,269.32,147.77,269.92,146.63,269.27Z"/><path class="cls-3" d="M146.63,269.27a4.72,4.72,0,0,1-2-3.72V192.44l4.11,2.37v73.12C148.69,269.32,147.77,269.92,146.63,269.27Z"/><path class="cls-3" d="M134.31,154.05c-2.27-1.31-4.11-.12-4.11,2.68V257.11a9.4,9.4,0,0,0,4.11,7.44c2.27,1.32,4.11.12,4.11-2.67V161.49A9.43,9.43,0,0,0,134.31,154.05Z"/><path class="cls-13" d="M134.31,154.05c-2.27-1.31-4.11-.12-4.11,2.68V257.11a9.4,9.4,0,0,0,4.11,7.44c2.27,1.32,4.11.12,4.11-2.67V161.49A9.43,9.43,0,0,0,134.31,154.05Z"/><path class="cls-5" d="M134.31,262.15a4.68,4.68,0,0,1-2.06-3.71V157.75c0-1.4.92-2,2.06-1.35a4.72,4.72,0,0,1,2.05,3.72V260.81C136.36,262.21,135.44,262.81,134.31,262.15Z"/><path class="cls-3" d="M134.31,262.15a4.68,4.68,0,0,1-2.06-3.71V240.08l4.11,2.37v18.36C136.36,262.21,135.44,262.81,134.31,262.15Z"/><path class="cls-3" d="M122,146.94c-2.27-1.32-4.1-.12-4.1,2.67V250a9.43,9.43,0,0,0,4.11,7.44c2.27,1.31,4.11.12,4.11-2.68V154.38A9.4,9.4,0,0,0,122,146.94Z"/><path class="cls-13" d="M122,146.94c-2.27-1.32-4.1-.12-4.1,2.67V250a9.43,9.43,0,0,0,4.11,7.44c2.27,1.31,4.11.12,4.11-2.68V154.38A9.4,9.4,0,0,0,122,146.94Z"/><path class="cls-5" d="M122,255a4.72,4.72,0,0,1-2-3.72V150.63c0-1.39.92-2,2-1.34A4.68,4.68,0,0,1,124,153V253.69C124,255.09,123.12,255.69,122,255Z"/><path class="cls-3" d="M122,255a4.72,4.72,0,0,1-2-3.72V197.38l4.11,2.37v53.94C124,255.09,123.12,255.69,122,255Z"/><path class="cls-5" d="M246.68,143.64,192.31,175a4.85,4.85,0,0,0-2.19,3.8v62.54c0,1.39,1,2,2.19,1.26l54.37-31.39a4.85,4.85,0,0,0,2.19-3.79V144.91C248.87,143.51,247.89,142.94,246.68,143.64Z"/><path class="cls-8" d="M190.71,176.76a4.49,4.49,0,0,0-.59,2.07v62.54c0,1.39,1,2,2.19,1.26l54.37-31.39a4.57,4.57,0,0,0,1.59-1.72Z"/><path class="cls-7" d="M192.31,175a4.85,4.85,0,0,0-2.19,3.8v62.53L244.49,210a4.82,4.82,0,0,0,2.19-3.79V143.64Z"/><g id="Dead_Emoji" data-name="Dead Emoji"><line class="cls-14" x1="202.98" y1="183.39" x2="210.21" y2="190.34"/><line class="cls-14" x1="202.98" y1="194.51" x2="210.21" y2="179.21"/><line class="cls-14" x1="226.58" y1="169.76" x2="233.81" y2="176.71"/><line class="cls-14" x1="226.58" y1="180.88" x2="233.81" y2="165.59"/><line class="cls-14" x1="202.66" y1="211.84" x2="234.13" y2="193.68"/><path class="cls-14" d="M222.33,200.49v8.78c0,2.68,1.76,3.83,3.93,2.57a9,9,0,0,0,3.94-7.11V196"/><line class="cls-14" x1="226.26" y1="198.22" x2="226.26" y2="206.7"/></g><g id="Server-3" data-name="Server"><path class="cls-5" d="M126.9,337.72a2.13,2.13,0,0,1,1,1.68c0,.62-.43.87-1,.56a2.15,2.15,0,0,1-1-1.68C125.94,337.66,126.37,337.41,126.9,337.72Z"/><path class="cls-5" d="M135,342.39a2.15,2.15,0,0,1,1,1.67c0,.62-.43.87-1,.56a2.11,2.11,0,0,1-1-1.67C134,342.33,134.44,342.08,135,342.39Z"/><path class="cls-5" d="M142.92,347a2.15,2.15,0,0,1,1,1.67c0,.61-.43.86-1,.56a2.13,2.13,0,0,1-1-1.67C142,346.92,142.38,346.67,142.92,347Z"/><path class="cls-5" d="M150.92,351.6a2.13,2.13,0,0,1,1,1.66c0,.61-.43.86-1,.55a2.11,2.11,0,0,1-1-1.66C150,351.54,150.39,351.29,150.92,351.6Z"/><path class="cls-5" d="M117.48,290.25l8.21,4.71a5.16,5.16,0,0,1,2.33,4v4.71c0,1.48-1.05,2.08-2.33,1.34l-8.21-4.71a5.17,5.17,0,0,1-2.32-4v-4.71C115.16,290.1,116.2,289.5,117.48,290.25Z"/><path class="cls-3" d="M119.7,295.55l1.06-.61h0a1.44,1.44,0,0,1,1.42.15,4.45,4.45,0,0,1,2,3.5,1.41,1.41,0,0,1-.59,1.31h0l-1,.57-.18-.3a2.2,2.2,0,0,1-.58-.22,4.48,4.48,0,0,1-2-3.51,2,2,0,0,1,.06-.51Z"/><path class="cls-15" d="M119.7,295.55l1.06-.61h0a1.44,1.44,0,0,1,1.42.15,4.45,4.45,0,0,1,2,3.5,1.41,1.41,0,0,1-.59,1.31h0l-1,.57-.18-.3a2.2,2.2,0,0,1-.58-.22,4.48,4.48,0,0,1-2-3.51,2,2,0,0,1,.06-.51Z"/><path class="cls-3" d="M121.17,295.67a4.47,4.47,0,0,1,2,3.5c0,1.29-.91,1.81-2,1.17a4.47,4.47,0,0,1-2-3.5C119.14,295.55,120.05,295,121.17,295.67Z"/><path class="cls-7" d="M117.48,267.58l8.21,4.71a5.16,5.16,0,0,1,2.33,4V281c0,1.48-1.05,2.09-2.33,1.34l-8.21-4.71a5.15,5.15,0,0,1-2.32-4v-4.71C115.16,267.44,116.2,266.84,117.48,267.58Z"/><path class="cls-3" d="M119.7,272.89l1.06-.62h0a1.41,1.41,0,0,1,1.42.14,4.48,4.48,0,0,1,2,3.5,1.41,1.41,0,0,1-.59,1.31h0l-1,.57-.18-.3a1.9,1.9,0,0,1-.58-.22,4.48,4.48,0,0,1-2-3.5,2.06,2.06,0,0,1,.06-.52Z"/><path class="cls-15" d="M119.7,272.89l1.06-.62h0a1.41,1.41,0,0,1,1.42.14,4.48,4.48,0,0,1,2,3.5,1.41,1.41,0,0,1-.59,1.31h0l-1,.57-.18-.3a1.9,1.9,0,0,1-.58-.22,4.48,4.48,0,0,1-2-3.5,2.06,2.06,0,0,1,.06-.52Z"/><path class="cls-3" d="M121.17,273a4.49,4.49,0,0,1,2,3.5c0,1.29-.91,1.82-2,1.17a4.46,4.46,0,0,1-2-3.5C119.14,272.88,120.05,272.36,121.17,273Z"/><path class="cls-7" d="M246.31,250.4l-38,22a5.64,5.64,0,0,0-2.55,4.42v5.17c0,1.63,1.14,2.29,2.55,1.48l38-22a5.64,5.64,0,0,0,2.56-4.42v-5.17C248.87,250.24,247.72,249.58,246.31,250.4Z"/><path class="cls-3" d="M246.17,254.77v2.51a1.15,1.15,0,0,1-.51.89l-.57.33c-.28.16-.51,0-.51-.3v-2.5a1.13,1.13,0,0,1,.51-.89l.57-.33C245.94,254.32,246.17,254.45,246.17,254.77Z"/><path class="cls-3" d="M243.59,256.26v2.51a1.11,1.11,0,0,1-.51.88l-.57.34c-.29.16-.51,0-.51-.3v-2.51a1.1,1.1,0,0,1,.51-.88l.57-.33C243.36,255.8,243.59,255.94,243.59,256.26Z"/><path class="cls-3" d="M241,257.75v2.51a1.13,1.13,0,0,1-.51.88l-.58.33c-.28.17-.51,0-.51-.29v-2.51a1.13,1.13,0,0,1,.51-.88l.58-.33C240.78,257.29,241,257.43,241,257.75Z"/><path class="cls-3" d="M238.43,259.24v2.51a1.13,1.13,0,0,1-.51.88l-.58.33c-.28.17-.51,0-.51-.29v-2.51a1.13,1.13,0,0,1,.51-.88l.58-.34C238.2,258.78,238.43,258.91,238.43,259.24Z"/><path class="cls-5" d="M235.85,260.73v2.5a1.13,1.13,0,0,1-.51.89l-.58.33c-.28.16-.51,0-.51-.29v-2.51a1.15,1.15,0,0,1,.51-.89l.58-.33C235.62,260.27,235.85,260.4,235.85,260.73Z"/><path class="cls-5" d="M233.26,262.22v2.5a1.11,1.11,0,0,1-.51.89l-.57.33c-.28.16-.51,0-.51-.29v-2.51a1.15,1.15,0,0,1,.51-.89l.57-.33C233,261.76,233.26,261.89,233.26,262.22Z"/><path class="cls-3" d="M230.68,263.7v2.51a1.15,1.15,0,0,1-.51.89l-.57.33c-.29.16-.51,0-.51-.3v-2.5a1.11,1.11,0,0,1,.51-.89l.57-.33C230.45,263.25,230.68,263.38,230.68,263.7Z"/><path class="cls-3" d="M228.1,265.19v2.51a1.11,1.11,0,0,1-.51.88l-.57.34c-.29.16-.52,0-.52-.3v-2.51a1.11,1.11,0,0,1,.52-.88l.57-.33C227.87,264.73,228.1,264.87,228.1,265.19Z"/><path class="cls-3" d="M225.52,266.68v2.51a1.13,1.13,0,0,1-.51.88l-.58.33c-.28.17-.51,0-.51-.29V267.6a1.13,1.13,0,0,1,.51-.88l.58-.33C225.29,266.22,225.52,266.36,225.52,266.68Z"/><path class="cls-5" d="M222.94,268.17v2.51a1.13,1.13,0,0,1-.51.88l-.58.33c-.28.17-.51,0-.51-.29v-2.51a1.13,1.13,0,0,1,.51-.88l.58-.34C222.71,267.71,222.94,267.84,222.94,268.17Z"/><path class="cls-3" d="M220.36,269.66v2.5a1.12,1.12,0,0,1-.52.89l-.57.33c-.28.16-.51,0-.51-.29v-2.51a1.15,1.15,0,0,1,.51-.89l.57-.33C220.13,269.2,220.36,269.33,220.36,269.66Z"/><path class="cls-3" d="M217.77,271.15v2.5a1.13,1.13,0,0,1-.51.89l-.57.33c-.28.16-.51,0-.51-.3v-2.5a1.15,1.15,0,0,1,.51-.89l.57-.33C217.54,270.69,217.77,270.82,217.77,271.15Z"/><path class="cls-5" d="M215.19,272.63v2.51a1.15,1.15,0,0,1-.51.89l-.57.33c-.29.16-.51,0-.51-.3v-2.5a1.11,1.11,0,0,1,.51-.89l.57-.33C215,272.18,215.19,272.31,215.19,272.63Z"/><path class="cls-3" d="M212.61,274.12v2.51a1.11,1.11,0,0,1-.51.88l-.58.34c-.28.16-.51,0-.51-.3V275a1.13,1.13,0,0,1,.51-.88l.58-.33C212.38,273.66,212.61,273.8,212.61,274.12Z"/><path class="cls-5" d="M210,275.61v2.51a1.13,1.13,0,0,1-.51.88l-.58.33c-.28.17-.51,0-.51-.29v-2.51a1.13,1.13,0,0,1,.51-.88l.58-.33C209.8,275.15,210,275.29,210,275.61Z"/><path class="cls-7" d="M201.9,280.63l-1.07-.61h0a1.41,1.41,0,0,0-1.42.14,4.46,4.46,0,0,0-2,3.5A1.41,1.41,0,0,0,198,285h0l1,.57.18-.3a2.2,2.2,0,0,0,.58-.22,4.48,4.48,0,0,0,2-3.51,2,2,0,0,0-.06-.51Z"/><path class="cls-3" d="M200.42,280.75a4.47,4.47,0,0,0-2,3.5c0,1.29.91,1.81,2,1.17a4.47,4.47,0,0,0,2-3.5C202.45,280.63,201.54,280.1,200.42,280.75Z"/><path class="cls-16" d="M200.42,280.75a4.47,4.47,0,0,0-2,3.5c0,1.29.91,1.81,2,1.17a4.47,4.47,0,0,0,2-3.5C202.45,280.63,201.54,280.1,200.42,280.75Z"/><path class="cls-7" d="M193.12,285.7l-1.07-.61h0a1.44,1.44,0,0,0-1.42.15,4.45,4.45,0,0,0-2,3.5,1.43,1.43,0,0,0,.59,1.31h0l1,.57.18-.3a2.12,2.12,0,0,0,.58-.23,4.45,4.45,0,0,0,2-3.5,2.12,2.12,0,0,0-.06-.52Z"/><path class="cls-3" d="M191.65,285.82a4.46,4.46,0,0,0-2,3.5c0,1.29.91,1.81,2,1.17a4.51,4.51,0,0,0,2-3.51C193.67,285.69,192.76,285.17,191.65,285.82Z"/><path class="cls-16" d="M191.65,285.82a4.46,4.46,0,0,0-2,3.5c0,1.29.91,1.81,2,1.17a4.51,4.51,0,0,0,2-3.51C193.67,285.69,192.76,285.17,191.65,285.82Z"/><path class="cls-7" d="M134.61,275.63l39.79,22.95a2.85,2.85,0,0,1,1.29,2.24v11c0,.83-.58,1.16-1.29.75l-39.79-23a2.85,2.85,0,0,1-1.29-2.23v-11C133.32,275.55,133.9,275.22,134.61,275.63Z"/><path class="cls-3" d="M135.74,280.47a2.77,2.77,0,0,0,1.29,2.14L172,302.77c.71.41,1.29.12,1.29-.65A2.77,2.77,0,0,0,172,300L137,279.82C136.32,279.41,135.74,279.7,135.74,280.47Z"/><path class="cls-8" d="M135.74,286.06A2.77,2.77,0,0,0,137,288.2L172,308.36c.71.41,1.29.12,1.29-.65a2.77,2.77,0,0,0-1.29-2.14L137,285.4C136.32,285,135.74,285.28,135.74,286.06Z"/><path class="cls-3" d="M137,285.4l19.31,11.13v2.8L137,288.2a2.77,2.77,0,0,1-1.29-2.14C135.74,285.28,136.32,285,137,285.4Z"/><path class="cls-5" d="M117.48,267.58l8.21,4.71a5.16,5.16,0,0,1,2.33,4V281c0,1.48-1.05,2.09-2.33,1.34l-8.21-4.71a5.15,5.15,0,0,1-2.32-4v-4.71C115.16,267.44,116.2,266.84,117.48,267.58Z"/><path class="cls-3" d="M119.7,272.89l1.06-.62h0a1.41,1.41,0,0,1,1.42.14,4.48,4.48,0,0,1,2,3.5,1.41,1.41,0,0,1-.59,1.31h0l-1,.57-.18-.3a1.9,1.9,0,0,1-.58-.22,4.48,4.48,0,0,1-2-3.5,2.06,2.06,0,0,1,.06-.52Z"/><path class="cls-15" d="M119.7,272.89l1.06-.62h0a1.41,1.41,0,0,1,1.42.14,4.48,4.48,0,0,1,2,3.5,1.41,1.41,0,0,1-.59,1.31h0l-1,.57-.18-.3a1.9,1.9,0,0,1-.58-.22,4.48,4.48,0,0,1-2-3.5,2.06,2.06,0,0,1,.06-.52Z"/><path class="cls-3" d="M121.17,273a4.49,4.49,0,0,1,2,3.5c0,1.29-.91,1.82-2,1.17a4.46,4.46,0,0,1-2-3.5C119.14,272.88,120.05,272.36,121.17,273Z"/><path class="cls-5" d="M134.61,275.63l39.79,22.95a2.85,2.85,0,0,1,1.29,2.24v11c0,.83-.58,1.16-1.29.75l-39.79-23a2.85,2.85,0,0,1-1.29-2.23v-11C133.32,275.55,133.9,275.22,134.61,275.63Z"/><path class="cls-3" d="M135.74,280.47a2.77,2.77,0,0,0,1.29,2.14L172,302.77c.71.41,1.29.12,1.29-.65A2.77,2.77,0,0,0,172,300L137,279.82C136.32,279.41,135.74,279.7,135.74,280.47Z"/><path class="cls-8" d="M135.74,286.06A2.77,2.77,0,0,0,137,288.2L172,308.36c.71.41,1.29.12,1.29-.65a2.77,2.77,0,0,0-1.29-2.14L137,285.4C136.32,285,135.74,285.28,135.74,286.06Z"/><path class="cls-3" d="M137,285.4l19.31,11.13v2.8L137,288.2a2.77,2.77,0,0,1-1.29-2.14C135.74,285.28,136.32,285,137,285.4Z"/><path class="cls-5" d="M134.61,298.36l39.79,22.95a2.85,2.85,0,0,1,1.29,2.23v11c0,.83-.58,1.16-1.29.75l-39.79-23a2.85,2.85,0,0,1-1.29-2.23v-11C133.32,298.28,133.9,298,134.61,298.36Z"/><path class="cls-3" d="M135.74,303.2a2.77,2.77,0,0,0,1.29,2.14L172,325.5c.71.41,1.29.12,1.29-.65a2.77,2.77,0,0,0-1.29-2.14L137,302.55C136.32,302.14,135.74,302.43,135.74,303.2Z"/><path class="cls-8" d="M135.74,308.79a2.77,2.77,0,0,0,1.29,2.14L172,331.09c.71.41,1.29.12,1.29-.65a2.79,2.79,0,0,0-1.29-2.15L137,308.13C136.32,307.72,135.74,308,135.74,308.79Z"/><path class="cls-3" d="M137,308.13l24.15,13.93v2.79L137,310.93a2.77,2.77,0,0,1-1.29-2.14C135.74,308,136.32,307.72,137,308.13Z"/></g><path class="cls-7" d="M117.48,313l8.21,4.72a5.15,5.15,0,0,1,2.33,4v4.71c0,1.48-1.05,2.08-2.33,1.34l-8.21-4.72a5.14,5.14,0,0,1-2.32-4v-4.7C115.16,312.9,116.2,312.3,117.48,313Z"/><path class="cls-3" d="M119.7,318.35l1.06-.61h0a1.44,1.44,0,0,1,1.42.15,4.45,4.45,0,0,1,2,3.5,1.42,1.42,0,0,1-.59,1.31h0l-1,.57-.18-.3a1.94,1.94,0,0,1-.58-.23,4.45,4.45,0,0,1-2-3.5,2.12,2.12,0,0,1,.06-.52Z"/><path class="cls-15" d="M119.7,318.35l1.06-.61h0a1.44,1.44,0,0,1,1.42.15,4.45,4.45,0,0,1,2,3.5,1.42,1.42,0,0,1-.59,1.31h0l-1,.57-.18-.3a1.94,1.94,0,0,1-.58-.23,4.45,4.45,0,0,1-2-3.5,2.12,2.12,0,0,1,.06-.52Z"/><path class="cls-3" d="M121.17,318.47a4.47,4.47,0,0,1,2,3.5c0,1.29-.91,1.81-2,1.17a4.49,4.49,0,0,1-2-3.51C119.14,318.34,120.05,317.82,121.17,318.47Z"/><path class="cls-5" d="M117.48,313l8.21,4.72a5.15,5.15,0,0,1,2.33,4v4.71c0,1.48-1.05,2.08-2.33,1.34l-8.21-4.72a5.14,5.14,0,0,1-2.32-4v-4.7C115.16,312.9,116.2,312.3,117.48,313Z"/><path class="cls-3" d="M119.7,318.35l1.06-.61h0a1.44,1.44,0,0,1,1.42.15,4.45,4.45,0,0,1,2,3.5,1.42,1.42,0,0,1-.59,1.31h0l-1,.57-.18-.3a1.94,1.94,0,0,1-.58-.23,4.45,4.45,0,0,1-2-3.5,2.12,2.12,0,0,1,.06-.52Z"/><path class="cls-15" d="M119.7,318.35l1.06-.61h0a1.44,1.44,0,0,1,1.42.15,4.45,4.45,0,0,1,2,3.5,1.42,1.42,0,0,1-.59,1.31h0l-1,.57-.18-.3a1.94,1.94,0,0,1-.58-.23,4.45,4.45,0,0,1-2-3.5,2.12,2.12,0,0,1,.06-.52Z"/><path class="cls-3" d="M121.17,318.47a4.47,4.47,0,0,1,2,3.5c0,1.29-.91,1.81-2,1.17a4.49,4.49,0,0,1-2-3.51C119.14,318.34,120.05,317.82,121.17,318.47Z"/><path class="cls-5" d="M134.61,321.09l39.79,23a2.85,2.85,0,0,1,1.29,2.23v11c0,.82-.58,1.16-1.29.74l-39.79-22.95a2.85,2.85,0,0,1-1.29-2.23v-11C133.32,321,133.9,320.68,134.61,321.09Z"/><path class="cls-3" d="M135.74,325.93a2.79,2.79,0,0,0,1.29,2.15L172,348.24c.71.41,1.29.12,1.29-.65a2.79,2.79,0,0,0-1.29-2.15L137,325.28C136.32,324.87,135.74,325.16,135.74,325.93Z"/><path class="cls-8" d="M135.74,331.52a2.77,2.77,0,0,0,1.29,2.14L172,353.82c.71.42,1.29.12,1.29-.65A2.77,2.77,0,0,0,172,351L137,330.87C136.32,330.46,135.74,330.75,135.74,331.52Z"/><path class="cls-3" d="M137,330.87,156.34,342v2.79L137,333.66a2.77,2.77,0,0,1-1.29-2.14C135.74,330.75,136.32,330.46,137,330.87Z"/><path class="cls-9" d="M238,132.74,185,163.37a3,3,0,0,1-2.75,0l-53.06-30.63a.84.84,0,0,1,0-1.59l53.06-29.58a3,3,0,0,1,2.75,0L238,131.15A.84.84,0,0,1,238,132.74Z"/><path class="cls-3" d="M184.91,161.69l50.77-29.31A2.91,2.91,0,0,0,237,130.1v-1.71a2.9,2.9,0,0,0-1.31-2.27L184.91,96.8a2.9,2.9,0,0,0-2.63,0L131.5,126.12a2.88,2.88,0,0,0-1.31,2.27v1.71a2.89,2.89,0,0,0,1.31,2.28l50.78,29.31A2.9,2.9,0,0,0,184.91,161.69Z"/><path class="cls-17" d="M184.91,161.69l50.77-29.31A2.91,2.91,0,0,0,237,130.1v-1.71a2.9,2.9,0,0,0-1.31-2.27L184.91,96.8a2.9,2.9,0,0,0-2.63,0L131.5,126.12a2.88,2.88,0,0,0-1.31,2.27v1.71a2.89,2.89,0,0,0,1.31,2.28l50.78,29.31A2.9,2.9,0,0,0,184.91,161.69Z"/><path class="cls-10" d="M184.91,161.69l50.77-29.31A2.91,2.91,0,0,0,237,130.1v-1.71a2.9,2.9,0,0,0-1.31-2.27L184.91,96.8a2.9,2.9,0,0,0-2.63,0L131.5,126.12a2.88,2.88,0,0,0-1.31,2.27v1.71a2.89,2.89,0,0,0,1.31,2.28l50.78,29.31A2.9,2.9,0,0,0,184.91,161.69Z"/><path class="cls-3" d="M235.69,127.63,184.91,157a2.9,2.9,0,0,1-2.63,0L131.5,127.63a.79.79,0,0,1,0-1.51l50.78-28.31a2.9,2.9,0,0,1,2.63,0l50.78,28.31A.8.8,0,0,1,235.69,127.63Z"/><path class="cls-12" d="M235.69,127.63,184.91,157a2.9,2.9,0,0,1-2.63,0L131.5,127.63a.79.79,0,0,1,0-1.51l50.78-28.31a2.9,2.9,0,0,1,2.63,0l50.78,28.31A.8.8,0,0,1,235.69,127.63Z"/><path class="cls-3" d="M183.59,157.26V162a2.61,2.61,0,0,0,1.32-.32l50.78-29.32A2.89,2.89,0,0,0,237,130.1v-1.71a2.92,2.92,0,0,0-1.07-2.1c.47.41.39,1-.24,1.34L184.91,157A2.71,2.71,0,0,1,183.59,157.26Z"/><path class="cls-18" d="M183.59,157.26V162a2.61,2.61,0,0,0,1.32-.32l50.78-29.32A2.89,2.89,0,0,0,237,130.1v-1.71a2.92,2.92,0,0,0-1.07-2.1c.47.41.39,1-.24,1.34L184.91,157A2.71,2.71,0,0,1,183.59,157.26Z"/><path class="cls-8" d="M184.91,147.46l34.34-19.83a2.89,2.89,0,0,0,1.32-2.27v-1.71a2.91,2.91,0,0,0-1.32-2.28l-22-12.71a8.73,8.73,0,0,1-2.22-2L184.5,92.52a1.74,1.74,0,0,0-2.22-.46l-34.35,19.82a2.92,2.92,0,0,0-1.31,2.28v11.2a2.9,2.9,0,0,0,1.31,2.27l34.35,19.83A2.9,2.9,0,0,0,184.91,147.46Z"/><path class="cls-7" d="M182.28,142.72l-22-12.71a8.56,8.56,0,0,1-1.15-.86A7.84,7.84,0,0,1,158,128l-10.52-14.17a1.33,1.33,0,0,1,.41-2l34.35-19.82a1.74,1.74,0,0,1,2.22.46L195,106.68a8.15,8.15,0,0,0,2,2.06l22.2,12.63a.8.8,0,0,1,0,1.52l-34.34,19.83A2.9,2.9,0,0,1,182.28,142.72Z"/><path class="cls-5" d="M147.93,111.88l34.35-19.82a1.74,1.74,0,0,1,2.22.46L195,106.68a8,8,0,0,0,1.08,1.12s-37,21.36-37,21.35A7.84,7.84,0,0,1,158,128l-10.52-14.17A1.33,1.33,0,0,1,147.93,111.88Z"/><path class="cls-3" d="M210.92,121.72a3.41,3.41,0,0,0-3.08,0,.94.94,0,0,0,0,1.78,3.41,3.41,0,0,0,3.08,0A.94.94,0,0,0,210.92,121.72Z"/><path class="cls-3" d="M204.76,125.28a3.41,3.41,0,0,0-3.08,0,.94.94,0,0,0,0,1.78,3.41,3.41,0,0,0,3.08,0A.94.94,0,0,0,204.76,125.28Z"/><path class="cls-8" d="M198.59,128.84a3.41,3.41,0,0,0-3.08,0,.94.94,0,0,0,0,1.78,3.41,3.41,0,0,0,3.08,0C199.45,130.12,199.45,129.33,198.59,128.84Z"/><path class="cls-8" d="M192.43,132.39a3.41,3.41,0,0,0-3.08,0,.94.94,0,0,0,0,1.78,3.41,3.41,0,0,0,3.08,0A.94.94,0,0,0,192.43,132.39Z"/><path class="cls-3" d="M206.3,119.05a3.41,3.41,0,0,0-3.08,0,.94.94,0,0,0,0,1.78,3.41,3.41,0,0,0,3.08,0A.94.94,0,0,0,206.3,119.05Z"/><path class="cls-8" d="M200.14,122.61a3.43,3.43,0,0,0-3.09,0,.94.94,0,0,0,0,1.78,3.43,3.43,0,0,0,3.09,0A.94.94,0,0,0,200.14,122.61Z"/><ellipse class="cls-3" cx="192.43" cy="127.06" rx="2.18" ry="1.26"/><path class="cls-8" d="M187.81,129.73a3.35,3.35,0,0,0-3.08,0,.93.93,0,0,0,0,1.77,3.35,3.35,0,0,0,3.08,0A.93.93,0,0,0,187.81,129.73Z"/><path class="cls-8" d="M201.68,116.38a3.43,3.43,0,0,0-3.09,0,.94.94,0,0,0,0,1.78,3.43,3.43,0,0,0,3.09,0A.94.94,0,0,0,201.68,116.38Z"/><path class="cls-3" d="M195.51,119.94a3.41,3.41,0,0,0-3.08,0,.94.94,0,0,0,0,1.78,3.41,3.41,0,0,0,3.08,0A.94.94,0,0,0,195.51,119.94Z"/><path class="cls-8" d="M189.35,123.5a3.41,3.41,0,0,0-3.08,0,.94.94,0,0,0,0,1.78,3.41,3.41,0,0,0,3.08,0A.94.94,0,0,0,189.35,123.5Z"/><path class="cls-3" d="M186.24,135.88a3.43,3.43,0,0,0-3.09,0,.94.94,0,0,0,0,1.78,3.43,3.43,0,0,0,3.09,0A.94.94,0,0,0,186.24,135.88Z"/><ellipse class="cls-8" cx="180.07" cy="134.1" rx="2.18" ry="1.26"/><path class="cls-8" d="M183.19,127.06a3.41,3.41,0,0,0-3.08,0,.94.94,0,0,0,0,1.78,3.41,3.41,0,0,0,3.08,0A.94.94,0,0,0,183.19,127.06Z"/><path class="cls-3" d="M197.05,113.72a3.41,3.41,0,0,0-3.08,0,.94.94,0,0,0,0,1.78,3.41,3.41,0,0,0,3.08,0A.94.94,0,0,0,197.05,113.72Z"/><path class="cls-8" d="M190.89,117.28a3.41,3.41,0,0,0-3.08,0,.94.94,0,0,0,0,1.78,3.41,3.41,0,0,0,3.08,0A.94.94,0,0,0,190.89,117.28Z"/><path class="cls-3" d="M184.73,120.83a3.41,3.41,0,0,0-3.08,0,.94.94,0,0,0,0,1.78,3.41,3.41,0,0,0,3.08,0A.94.94,0,0,0,184.73,120.83Z"/><path class="cls-8" d="M178.57,124.39a3.41,3.41,0,0,0-3.08,0,.94.94,0,0,0,0,1.78,3.41,3.41,0,0,0,3.08,0A.94.94,0,0,0,178.57,124.39Z"/><path class="cls-3" d="M177,130.55a3.41,3.41,0,0,0-3.08,0,.94.94,0,0,0,0,1.78,3.41,3.41,0,0,0,3.08,0A.94.94,0,0,0,177,130.55Z"/><path class="cls-8" d="M172.37,127.88a3.41,3.41,0,0,0-3.08,0,.94.94,0,0,0,0,1.78,3.41,3.41,0,0,0,3.08,0A.94.94,0,0,0,172.37,127.88Z"/><path class="cls-5" d="M183.52,143v4.74a2.66,2.66,0,0,0,1.39-.31l34.34-19.83a2.89,2.89,0,0,0,1.32-2.28v-1.7a2.94,2.94,0,0,0-1.08-2.11c.48.42.4,1-.24,1.35l-34.34,19.83A2.77,2.77,0,0,1,183.52,143Z"/><path class="cls-8" d="M190.47,106.09l0,0a1.16,1.16,0,0,0-1.48-.31L159.07,123a.88.88,0,0,0-.27,1.31l0,0a1.17,1.17,0,0,0,1.48.3l29.89-17.25A.89.89,0,0,0,190.47,106.09Z"/><path class="cls-3" d="M190.47,106.09l0,0a1.16,1.16,0,0,0-1.48-.31l-22.22,12.83,1.24,1.66,22.22-12.82A.89.89,0,0,0,190.47,106.09Z"/><path class="cls-8" d="M188,102.77l0,0a1.16,1.16,0,0,0-1.48-.3L156.6,119.68a.89.89,0,0,0-.27,1.32l0,0a1.18,1.18,0,0,0,1.48.31l29.89-17.26A.89.89,0,0,0,188,102.77Z"/><path class="cls-3" d="M188,102.77l0,0a1.17,1.17,0,0,0-1.48-.31l-7.43,4.29,1.24,1.67,7.43-4.29A.89.89,0,0,0,188,102.77Z"/><path class="cls-8" d="M185.53,99.46l0,0a1.16,1.16,0,0,0-1.48-.31l-29.89,17.26a.88.88,0,0,0-.27,1.31l0,0a1.16,1.16,0,0,0,1.48.31l29.88-17.25A.88.88,0,0,0,185.53,99.46Z"/><path class="cls-3" d="M185.53,99.46l0,0a1.16,1.16,0,0,0-1.48-.31l-15.57,9,1.24,1.66,15.56-9A.88.88,0,0,0,185.53,99.46Z"/><path class="cls-8" d="M183.06,96.14l0,0a1.16,1.16,0,0,0-1.48-.31l-29.89,17.26a.89.89,0,0,0-.27,1.32l0,0a1.16,1.16,0,0,0,1.48.3l29.88-17.25A.88.88,0,0,0,183.06,96.14Z"/><path class="cls-3" d="M183.06,96.14l0,0a1.16,1.16,0,0,0-1.48-.31l-27.13,15.67,1.24,1.66,27.12-15.66A.88.88,0,0,0,183.06,96.14Z"/></g></g><g id="Gears"><g id="Gears-2" data-name="Gears"><path class="cls-3" d="M193.14,387v7.53a.56.56,0,0,0,.51.55l3.93.25v5.54h0a.34.34,0,0,0,.2.28l4.14,2.39a1.08,1.08,0,0,0,.52.11h0a1.18,1.18,0,0,0,.39-.08l4.2-1.94a1.51,1.51,0,0,1,1-.06,24.58,24.58,0,0,0,3.26.77.78.78,0,0,1,.61.59l.53,2.77a.6.6,0,0,0,.22.36h0a.63.63,0,0,0,.39.15h6.09a.65.65,0,0,0,.35-.13l.08-.07s.06-.05.08-.08v-.06c0-.06.09-.1.1-.17l.53-2.77a.79.79,0,0,1,.6-.59,24.21,24.21,0,0,0,3.26-.77,1.5,1.5,0,0,1,1,.06l4.2,1.94a1,1,0,0,0,.26,0v0h.25a1,1,0,0,0,.4-.11h0l4.14-2.39a.41.41,0,0,0,.15-.14h0a.23.23,0,0,0,0-.11v0h0v-2.35h0v-3.18h0l3.85-.24h.07s.07,0,.1,0a.62.62,0,0,0,.27-.13c.05-.05.05-.13.08-.2s.07-.1.07-.17h0v-3.08h0v-3.94h0v-3.08a.56.56,0,0,0-.51-.55l-3.94-.24v-5.53h0a.3.3,0,0,0-.19-.29l-4.14-2.39a1.1,1.1,0,0,0-.92,0l-4.19,1.95a1.58,1.58,0,0,1-1,.06,24.6,24.6,0,0,0-3.26-.78.78.78,0,0,1-.61-.59l-.53-2.76a.64.64,0,0,0-.61-.51H213a.64.64,0,0,0-.61.51l-.53,2.76a.78.78,0,0,1-.61.59,24.08,24.08,0,0,0-3.25.78,1.61,1.61,0,0,1-1-.06l-4.19-1.95a1.1,1.1,0,0,0-.92,0l-4.14,2.39a.32.32,0,0,0-.19.3h0v5.52l-3.92.24a.56.56,0,0,0-.52.55v2.47A.41.41,0,0,0,193.14,387ZM209.06,389a15.46,15.46,0,0,1,14,0c.29.17.56.34.81.52a7.58,7.58,0,0,1-.81.53,15.46,15.46,0,0,1-14,0,7.08,7.08,0,0,1-.81-.53C208.5,389.34,208.76,389.16,209.06,389Z"/><path class="cls-6" d="M193.14,387v7.53a.56.56,0,0,0,.52.55l3.92.25v5.54a.38.38,0,0,0,.2.28l4.14,2.39a1.08,1.08,0,0,0,.52.11h0a1.12,1.12,0,0,0,.39-.08l4.2-1.94a1.56,1.56,0,0,1,.4-.1h0a1.44,1.44,0,0,1,.56,0,24.58,24.58,0,0,0,3.26.77.85.85,0,0,1,.26.11v0a.73.73,0,0,1,.35.45l.53,2.77a.6.6,0,0,0,.22.36h0a.63.63,0,0,0,.39.15h6.09l.11,0a.64.64,0,0,0,.4-.26v-.06c0-.06.09-.11.1-.17l.53-2.77a.73.73,0,0,1,.24-.39h0a.93.93,0,0,1,.37-.19,24.43,24.43,0,0,0,3.25-.77,1.4,1.4,0,0,1,.65,0h0a.94.94,0,0,1,.31.08l4.2,1.94a1,1,0,0,0,.26,0v0h0a1.12,1.12,0,0,0,.66-.11h0l4.14-2.39a.22.22,0,0,0,.09-.07l.07-.08a.56.56,0,0,0,0-.12h0v-5.54l.71,0,3.14-.2h.08a.55.55,0,0,0,.51-.54v-7a.56.56,0,0,1-.51.55l-5.52.35a1,1,0,0,0-.75.5,8.17,8.17,0,0,1-1.17,1.62.44.44,0,0,0,.06.68l3.28,2.36a.31.31,0,0,1,0,.56l-4.14,2.39a1.13,1.13,0,0,1-.92,0l-4.19-1.94a1.53,1.53,0,0,0-1-.06,27.53,27.53,0,0,1-3.25.78.76.76,0,0,0-.61.58l-.53,2.77a.65.65,0,0,1-.61.51H213a.64.64,0,0,1-.61-.51l-.53-2.77a.76.76,0,0,0-.6-.58,27.87,27.87,0,0,1-3.27-.78,1.51,1.51,0,0,0-1,.06l-4.2,1.94a1.11,1.11,0,0,1-.91,0l-4.14-2.39a.31.31,0,0,1,0-.56l3.28-2.36a.45.45,0,0,0,.06-.68,8.17,8.17,0,0,1-1.17-1.62,1,1,0,0,0-.75-.5l-5.51-.35a.56.56,0,0,1-.52-.55v-.61A.37.37,0,0,0,193.14,387Z"/><path class="cls-6" d="M197.59,378.15v5.51l1.59-.1a1,1,0,0,0,.75-.49,8.22,8.22,0,0,1,1.17-1.63.44.44,0,0,0-.06-.67l-3.28-2.36a.36.36,0,0,1-.16-.26Z"/><path class="cls-19" d="M208.25,389.51l.35-.24.05,0,.41-.25a15.46,15.46,0,0,1,14,0l.37.23.44.29c3-2.24,2.77-5.48-.81-7.55a15.46,15.46,0,0,0-14,0C205.48,384,205.21,387.27,208.25,389.51Z"/><path class="cls-6" d="M231,381.44a8.22,8.22,0,0,1,1.17,1.63,1,1,0,0,0,.75.49l1.58.1v-5.52a.36.36,0,0,1-.17.27l-3.28,2.36A.44.44,0,0,0,231,381.44Z"/><path class="cls-3" d="M229.26,375.41l-4.19,1.95a1.58,1.58,0,0,1-1,.06,24.6,24.6,0,0,0-3.26-.78.78.78,0,0,1-.61-.59l-.53-2.76a.64.64,0,0,0-.61-.51H213a.64.64,0,0,0-.61.51l-.53,2.76a.78.78,0,0,1-.61.59,24.08,24.08,0,0,0-3.25.78,1.61,1.61,0,0,1-1-.06l-4.19-1.95a1.1,1.1,0,0,0-.92,0l-4.14,2.39a.31.31,0,0,0,0,.56l3.28,2.36a.43.43,0,0,1,.06.67,8.22,8.22,0,0,0-1.17,1.63,1,1,0,0,1-.75.49l-5.51.35a.56.56,0,0,0-.52.55v3.08a.56.56,0,0,0,.51.55l5.52.35a1,1,0,0,1,.75.5,8.17,8.17,0,0,0,1.17,1.62.44.44,0,0,1-.06.68l-3.28,2.36a.31.31,0,0,0,0,.56l4.14,2.39a1.14,1.14,0,0,0,.92,0l4.19-1.94a1.51,1.51,0,0,1,1-.06,24.58,24.58,0,0,0,3.26.77.78.78,0,0,1,.61.59l.53,2.77a.64.64,0,0,0,.61.51h6.09a.64.64,0,0,0,.61-.51l.53-2.77a.78.78,0,0,1,.61-.59,24.07,24.07,0,0,0,3.25-.77,1.53,1.53,0,0,1,1,.06l4.19,1.94a1.14,1.14,0,0,0,.92,0l4.14-2.39a.31.31,0,0,0,0-.56l-3.28-2.36a.44.44,0,0,1-.06-.68,8.17,8.17,0,0,0,1.17-1.62,1,1,0,0,1,.75-.5l5.52-.35a.56.56,0,0,0,.51-.55v-3.08a.56.56,0,0,0-.51-.55l-5.52-.35a1,1,0,0,1-.75-.49,8.22,8.22,0,0,0-1.17-1.63.44.44,0,0,1,.06-.67l3.28-2.36a.31.31,0,0,0,0-.56l-4.14-2.39A1.1,1.1,0,0,0,229.26,375.41ZM223.05,382c3.87,2.23,3.87,5.85,0,8.08a15.46,15.46,0,0,1-14,0c-3.87-2.23-3.87-5.85,0-8.08A15.46,15.46,0,0,1,223.05,382Z"/><path class="cls-3" d="M234.52,393.87a.36.36,0,0,0-.17-.27l-1.65-1.19V388.5a.86.86,0,0,1,.23-.06l5.52-.35a.56.56,0,0,0,.51-.55v7a.55.55,0,0,1-.51.54h-.08l-3.14.2-.71,0Z"/><path class="cls-15" d="M234.52,393.87a.36.36,0,0,0-.17-.27l-1.65-1.19V388.5a.86.86,0,0,1,.23-.06l5.52-.35a.56.56,0,0,0,.51-.55v7a.55.55,0,0,1-.51.54h-.08l-3.14.2-.71,0Z"/><path class="cls-3" d="M224.75,394.56a1,1,0,0,1,.32.09l4.19,1.94a1.06,1.06,0,0,0,.54.07v7h-.28v0a1,1,0,0,1-.26,0l-4.2-1.94a1.27,1.27,0,0,0-.31-.08Z"/><path class="cls-15" d="M224.75,394.56a1,1,0,0,1,.32.09l4.19,1.94a1.06,1.06,0,0,0,.54.07v7h-.28v0a1,1,0,0,1-.26,0l-4.2-1.94a1.27,1.27,0,0,0-.31-.08Z"/><path class="cls-3" d="M219.63,398.92a.5.5,0,0,0,.08-.2l.53-2.77a.6.6,0,0,1,.08-.21v7a.5.5,0,0,0-.08.2l-.53,2.77a.26.26,0,0,1-.08.13Z"/><path class="cls-15" d="M219.63,398.92a.5.5,0,0,0,.08-.2l.53-2.77a.6.6,0,0,1,.08-.21v7a.5.5,0,0,0-.08.2l-.53,2.77a.26.26,0,0,1-.08.13Z"/><path class="cls-4" d="M211.79,395.74a.6.6,0,0,1,.08.21l.53,2.77a.5.5,0,0,0,.08.2v7a.5.5,0,0,1-.08-.2l-.53-2.77a.52.52,0,0,0-.08-.19Z"/><path class="cls-4" d="M202.31,396.66a1,1,0,0,0,.53-.07l4.2-1.94a1,1,0,0,1,.32-.09v7a1.35,1.35,0,0,0-.32.09l-4.2,1.94a1.12,1.12,0,0,1-.39.08h-.14Z"/><path class="cls-4" d="M193.67,388.09l5.51.35a.86.86,0,0,1,.23.06v3.91l-1.65,1.19a.36.36,0,0,0-.17.28v1.49l-3.92-.25a.56.56,0,0,1-.52-.55V387a.37.37,0,0,1,0-.11v.61A.56.56,0,0,0,193.67,388.09Z"/><path class="cls-3" d="M273.91,365.38h0a.16.16,0,0,0,0-.09h0v-5h0a.43.43,0,0,0-.08-.24l-1.55-2.16a.77.77,0,0,0-.64-.3l-4.05.68a1.26,1.26,0,0,1-.78-.22c-.25-.17-.52-.34-.8-.5v-3.23h0c0-.13-.12-.25-.32-.3l-4.12-1a.75.75,0,0,0-.66.13l-2,2.07a.93.93,0,0,1-.64.2,21.78,21.78,0,0,0-2.68,0,1,1,0,0,1-.72-.31l-1.77-1.85a.82.82,0,0,0-.68-.26l-4.28,1a.27.27,0,0,0-.22.28h0v3.2a9.65,9.65,0,0,0-.95.6,1.09,1.09,0,0,1-.71.12l-3.92-.66a.7.7,0,0,0-.63.18l-1.7,2.38a.14.14,0,0,0,0,.1v0c0,.36,0,6.13,0,6.17a.21.21,0,0,0,0,.1c0,1.77,0,4.89,0,5a.43.43,0,0,0,.09.25l1.55,2.16a.72.72,0,0,0,.64.3l4-.68a1.28,1.28,0,0,1,.77.22,8,8,0,0,0,.81.51v3.21c0,.13.12.26.33.31l4.11,1a.75.75,0,0,0,.66-.12l2-2.07a.89.89,0,0,1,.65-.2,21.62,21.62,0,0,0,2.67,0,1.11,1.11,0,0,1,.73.31l1.76,1.86a.81.81,0,0,0,.69.25l4.27-1a.26.26,0,0,0,.22-.24c0-.07,0-3.25,0-3.25a9.23,9.23,0,0,0,1-.61,1.12,1.12,0,0,1,.7-.12l3.93.66a.69.69,0,0,0,.62-.18l1.7-2.37a.19.19,0,0,0,0-.11c0-.12,0-6,0-6.18Zm-22.89.13a7.11,7.11,0,0,1,.61-.39,11.74,11.74,0,0,1,10.64,0c.21.12.41.25.6.38a6,6,0,0,1-.65.42,11.82,11.82,0,0,1-8.16.92,8.84,8.84,0,0,1-2.41-.93A5.64,5.64,0,0,1,251,365.51Z"/><path class="cls-6" d="M273.91,365.38h0a.16.16,0,0,0,0-.09h0v-5h0a.43.43,0,0,0-.08-.24l-1.55-2.16a.77.77,0,0,0-.64-.3l-4.05.68a1.26,1.26,0,0,1-.78-.22c-.25-.17-.52-.34-.8-.5v-3.23h0c0-.13-.12-.25-.32-.3l-4.12-1a.75.75,0,0,0-.66.13l-2,2.07a.93.93,0,0,1-.64.2,21.78,21.78,0,0,0-2.68,0,1,1,0,0,1-.72-.31l-1.77-1.85a.82.82,0,0,0-.68-.26l-4.28,1a.27.27,0,0,0-.22.28h0v3.2a9.65,9.65,0,0,0-.95.6,1.09,1.09,0,0,1-.71.12l-3.92-.66a.7.7,0,0,0-.63.18l-1.7,2.38a.14.14,0,0,0,0,.1v0c0,.36,0,6.13,0,6.17a.21.21,0,0,0,0,.1c0,1.77,0,4.89,0,5a.43.43,0,0,0,.09.25l1.55,2.16a.72.72,0,0,0,.64.3l4-.68a1.28,1.28,0,0,1,.77.22,8,8,0,0,0,.81.51v3.21c0,.13.12.26.33.31l4.11,1a.75.75,0,0,0,.66-.12l2-2.07a.89.89,0,0,1,.65-.2,21.62,21.62,0,0,0,2.67,0,1.11,1.11,0,0,1,.73.31l1.76,1.86a.81.81,0,0,0,.69.25l4.27-1a.26.26,0,0,0,.22-.24c0-.07,0-3.25,0-3.25a9.23,9.23,0,0,0,1-.61,1.12,1.12,0,0,1,.7-.12l3.93.66a.69.69,0,0,0,.62-.18l1.7-2.37a.19.19,0,0,0,0-.11c0-.12,0-6,0-6.18Zm-22.89.13a7.11,7.11,0,0,1,.61-.39,11.74,11.74,0,0,1,10.64,0c.21.12.41.25.6.38a6,6,0,0,1-.65.42,11.82,11.82,0,0,1-8.16.92,8.84,8.84,0,0,1-2.41-.93A5.64,5.64,0,0,1,251,365.51Z"/><path class="cls-3" d="M240,360.27v0A.06.06,0,0,0,240,360.27Z"/><path class="cls-6" d="M248.86,357.06c-.32.15-.64.32-.94.49v-3.2a.41.41,0,0,0,.05.17l1,2A.37.37,0,0,1,248.86,357.06Z"/><path class="cls-4" d="M244.15,362.14a4.3,4.3,0,0,0,0,1.34.42.42,0,0,1-.27.47l-3.7,1.17a.24.24,0,0,0-.17.23v1.21a.16.16,0,0,1,0-.09v-6.18c0,.11.12.22.3.28l3.5,1.11A.47.47,0,0,1,244.15,362.14Z"/><path class="cls-4" d="M246.47,367.37v6.18h-.15l-4,.68a.5.5,0,0,1-.21,0V368a.38.38,0,0,0,.21,0l4.06-.68Z"/><path class="cls-20" d="M247.89,374.28a9.1,9.1,0,0,1-.8-.51,1.45,1.45,0,0,0-.62-.22v-6.18a1.28,1.28,0,0,1,.63.23,13.33,13.33,0,0,0,1.64.94c.24.12.37.33.3.49l-1.12,2.2a.29.29,0,0,0,0,.09C247.9,371.45,247.89,374.28,247.89,374.28Z"/><path class="cls-4" d="M255.21,370.27v6.18a.55.55,0,0,0-.25.14l-2,2.07a.66.66,0,0,1-.36.14v-6.18a.55.55,0,0,0,.37-.14l2-2.07A.51.51,0,0,1,255.21,370.27Z"/><path class="cls-20" d="M258.54,370.24v6.18a1.29,1.29,0,0,0-.25,0,21.79,21.79,0,0,1-2.68,0,.91.91,0,0,0-.4.06v-6.18a.91.91,0,0,1,.4-.06,21.77,21.77,0,0,0,2.68,0A.77.77,0,0,1,258.54,370.24Z"/><path class="cls-4" d="M261.16,372.6v6.18a.86.86,0,0,1-.39-.23L259,376.69a1.29,1.29,0,0,0-.47-.27v-6.18a1.05,1.05,0,0,1,.48.28l1.76,1.85A.83.83,0,0,0,261.16,372.6Z"/><path class="cls-3" d="M266,371.37v2.92h0s0,.52,0,1.15V376c0,.77,0,1.52,0,1.55a.28.28,0,0,1-.22.24l-4.27,1a.63.63,0,0,1-.3,0V372.6a.63.63,0,0,0,.3,0l4.28-1A.29.29,0,0,0,266,371.37Z"/><path class="cls-15" d="M266,371.37v2.92h0s0,.52,0,1.15V376c0,.77,0,1.52,0,1.55a.28.28,0,0,1-.22.24l-4.27,1a.63.63,0,0,1-.3,0V372.6a.63.63,0,0,0,.3,0l4.28-1A.29.29,0,0,0,266,371.37Z"/><path class="cls-4" d="M267.34,367.37v6.19a.84.84,0,0,0-.43.12,9.23,9.23,0,0,1-1,.61s0-2.83,0-3a.58.58,0,0,0,0-.18l-1-2a.37.37,0,0,1,.13-.52,11.6,11.6,0,0,0,1.9-1.08A.9.9,0,0,1,267.34,367.37Z"/><path class="cls-3" d="M273.91,365.38c0,.22,0,6.06,0,6.18a.19.19,0,0,1,0,.11l-1.7,2.37a.49.49,0,0,1-.29.17V368a.52.52,0,0,0,.3-.17l1.7-2.37A.15.15,0,0,0,273.91,365.38Z"/><path class="cls-3" d="M273.91,365.38c0,.22,0,6.06,0,6.18a.19.19,0,0,1,0,.11l-1.7,2.37a.49.49,0,0,1-.29.17V368a.52.52,0,0,0,.3-.17l1.7-2.37A.15.15,0,0,0,273.91,365.38Z"/><path class="cls-15" d="M273.91,365.38c0,.22,0,6.06,0,6.18a.19.19,0,0,1,0,.11l-1.7,2.37a.49.49,0,0,1-.29.17V368a.52.52,0,0,0,.3-.17l1.7-2.37A.15.15,0,0,0,273.91,365.38Z"/><path class="cls-3" d="M247.92,354.34h0a.41.41,0,0,0,.05.17l1,2a.36.36,0,0,1-.13.51c-.32.15-.64.32-.94.49a9.65,9.65,0,0,0-.95.6,1.09,1.09,0,0,1-.71.12l-3.92-.66a.7.7,0,0,0-.63.18l-1.7,2.38a.14.14,0,0,0,0,.1v0c0,.11.12.22.3.28l3.5,1.11a.47.47,0,0,1,.38.46,4,4,0,0,0,0,1.34.42.42,0,0,1-.27.47l-3.7,1.17a.24.24,0,0,0-.17.23.46.46,0,0,0,.08.24l1.56,2.16a.7.7,0,0,0,.64.3l4.05-.68a1.3,1.3,0,0,1,.77.22,11.2,11.2,0,0,0,1.64,1c.24.12.37.33.3.48l-1.12,2.21c-.08.16.06.33.3.39l4.12,1a.75.75,0,0,0,.66-.12l2-2.07a.88.88,0,0,1,.64-.2,21.77,21.77,0,0,0,2.68,0,1.1,1.1,0,0,1,.73.32l1.76,1.85a.79.79,0,0,0,.68.25l4.28-1a.3.3,0,0,0,.17-.46l-1-2a.35.35,0,0,1,.13-.51,13.3,13.3,0,0,0,1.9-1.09,1.06,1.06,0,0,1,.7-.13l3.93.66a.69.69,0,0,0,.62-.18l1.7-2.37a.17.17,0,0,0,0-.11h0a.16.16,0,0,0,0-.09h0a.47.47,0,0,0-.27-.19L270.12,364c-.25-.08-.42-.28-.39-.46a4.3,4.3,0,0,0,0-1.34.42.42,0,0,1,.27-.47l3.7-1.17a.23.23,0,0,0,.17-.23h0a.43.43,0,0,0-.08-.24l-1.55-2.16a.77.77,0,0,0-.64-.3l-4.05.68a1.26,1.26,0,0,1-.78-.22c-.25-.17-.52-.34-.8-.5s-.55-.3-.84-.44-.37-.33-.3-.48l1.12-2.22a.19.19,0,0,0,0-.08c0-.13-.12-.26-.32-.3l-4.12-1a.75.75,0,0,0-.66.13l-2,2.07a.93.93,0,0,1-.64.2,21.78,21.78,0,0,0-2.68,0,1,1,0,0,1-.72-.31l-1.77-1.85a.82.82,0,0,0-.68-.26l-4.28,1A.27.27,0,0,0,247.92,354.34Zm15.55,6.34.11.11.07.08.15.19a1.77,1.77,0,0,1,.16.22l.09.14,0,.07a2.67,2.67,0,0,1-.2,3,4.89,4.89,0,0,1-1,1,6,6,0,0,1-.65.42,11.82,11.82,0,0,1-8.16.92,8.84,8.84,0,0,1-2.41-.93,5.64,5.64,0,0,1-.63-.4,4.26,4.26,0,0,1-1.28-1.43v0a.59.59,0,0,0,0-.08.36.36,0,0,1,0-.09.3.3,0,0,1,0-.1,2.64,2.64,0,0,1,.38-2.62c1.59-2.22,6-3.27,9.83-2.35A7.52,7.52,0,0,1,263.47,360.68Z"/></g></g><g id="Wrench"><g id="Wrench-2" data-name="Wrench"><path class="cls-5" d="M297.59,346.51c-.85.48-2.44.46-2.94,1v2.09l9.68-1.42,3.66,2.15-1.39,2.91-9.78-.66v2.09l.66.42a16.48,16.48,0,0,0,14.92.07c2.1-1.2,3.14-2.77,3.14-4.34h0v-2.07l-.57.09s0-.08-.07-.12l36.64-21.15a16.54,16.54,0,0,0,11-1.38,6.08,6.08,0,0,0,2.94-3.12V321l-9.69,3.5-3.66-2.14,1.39-2.91,9.78-1.43V316s-11.43-.76-15.58,1.6a6.81,6.81,0,0,0-2.59,2.39l-.55-.2v2.07h0a4,4,0,0,0,.64,2.18l-36.63,21.15A16.57,16.57,0,0,0,297.59,346.51Z"/><polygon class="cls-5" points="351.54 327.61 351.54 325.53 314.9 346.68 314.9 348.76 351.54 327.61"/><path class="cls-7" d="M345.25,321.9l-36.63,21.15a16.57,16.57,0,0,0-11,1.38,6.08,6.08,0,0,0-2.94,3.12l9.68-1.41,3.66,2.14-1.39,2.91-9.78,1.43a7.39,7.39,0,0,0,.66.42,16.48,16.48,0,0,0,14.92.07c3.05-1.73,3.88-4.26,2.5-6.43l36.64-21.15a16.57,16.57,0,0,0,11-1.38,6.22,6.22,0,0,0,2.94-3.13l-9.69,1.42-3.66-2.15,1.39-2.91,9.78-1.43c-.21-.14-.42-.28-.66-.42-4.08-2.4-10.77-2.43-14.92-.07C344.71,317.19,343.88,319.72,345.25,321.9Z"/><polygon class="cls-8" points="352.94 320.75 352.16 320.29 353.55 317.38 363.33 315.95 363.33 318.04 353.55 319.47 352.94 320.75"/><polygon class="cls-8" points="307.21 349.91 307.99 348.28 304.33 346.14 294.65 347.55 294.65 349.64 304.33 348.22 307.21 349.91"/></g></g><g id="Screwdriver"><g id="Screwdriver-2" data-name="Screwdriver"><path class="cls-3" d="M320,377.29l7.66,13.26,25.83-14.92c1.06-.52,1.73-1.76,1.73-3.57a12,12,0,0,0-5.42-9.38,3.78,3.78,0,0,0-3.83-.38h0Z"/><path class="cls-3" d="M318.46,380h0c-.11,2-3,2.46-3,2.46l5.42,9.38s1.8-2.23,3.61-1.35h0c2.67,1.15,4.73-.28,4.73-3.47a12,12,0,0,0-5.42-9.38C321.07,376.07,318.8,377.15,318.46,380Z"/><path class="cls-10" d="M318.46,380h0c-.11,2-3,2.46-3,2.46l5.42,9.38s1.8-2.23,3.61-1.35h0c2.67,1.15,4.73-.28,4.73-3.47a12,12,0,0,0-5.42-9.38C321.07,376.07,318.8,377.15,318.46,380Z"/><path class="cls-10" d="M316.79,382.08a5.69,5.69,0,0,1-1.3.41l5.42,9.38a5.5,5.5,0,0,1,1-.91A12.15,12.15,0,0,0,316.79,382.08Z"/><path class="cls-3" d="M309.85,383.15l.46.78a5.41,5.41,0,0,0-.24,1.68,12,12,0,0,0,5.42,9.39,6.11,6.11,0,0,0,1.57.64l.45.78,1.81-1h0a3.82,3.82,0,0,0,1.59-3.51,12,12,0,0,0-5.42-9.38,3.78,3.78,0,0,0-3.83-.38h0Z"/><path class="cls-3" d="M319.1,392.91a12,12,0,0,0-5.42-9.38c-3-1.73-5.41-.33-5.41,3.13a12,12,0,0,0,5.41,9.38C316.68,397.77,319.1,396.37,319.1,392.91Z"/><path class="cls-4" d="M319.1,392.91a12,12,0,0,0-5.42-9.38c-3-1.73-5.41-.33-5.41,3.13a12,12,0,0,0,5.41,9.38C316.68,397.77,319.1,396.37,319.1,392.91Z"/><path class="cls-4" d="M311.57,394.33a10.09,10.09,0,0,0,1.35,1.2l1.27-3.62-1.53-1.12Z"/><path class="cls-15" d="M350.81,368.34h0a1.49,1.49,0,0,1-.55,2L331.81,381a1.49,1.49,0,0,1-2-.55h0a1.5,1.5,0,0,1,.55-2l18.45-10.65A1.5,1.5,0,0,1,350.81,368.34Z"/><path class="cls-15" d="M347.48,364.38h0a.88.88,0,0,1-.06,1.53l-18.8,10.85a2,2,0,0,1-2.18-.24h0a.87.87,0,0,1,.07-1.53l18.8-10.85A2,2,0,0,1,347.48,364.38Z"/><path class="cls-15" d="M352.58,373.21h0a.88.88,0,0,0-1.36-.71l-18.79,10.86a2,2,0,0,0-.89,2h0a.88.88,0,0,0,1.36.71l18.8-10.86A2,2,0,0,0,352.58,373.21Z"/><path class="cls-7" d="M266.18,414.8v3.61l9-2.94s1.8-3.32,3.61-4.36l34.31-19.81,1.06-3-1.06-.61L278.82,407.5a3.61,3.61,0,0,1-3.61-.19Z"/><path class="cls-5" d="M267.23,415.41V419l9-2.94s1.81-3.32,3.61-4.36l34.32-19.81V388.3l-34.32,19.81a3.61,3.61,0,0,1-3.61-.19Z"/><polygon class="cls-8" points="267.23 419.02 266.18 418.41 266.18 414.8 267.23 415.41 267.23 419.02"/><polygon class="cls-7" points="266.18 414.8 267.23 415.41 276.26 407.92 275.2 407.31 266.18 414.8"/></g></g><g id="_500_Error" data-name="500 Error"><g id="Speech_Bubble" data-name="Speech Bubble"><g id="Text"><path class="cls-3" d="M281.3,97.45c.28.39.58.78.91,1.19a3.71,3.71,0,0,0,1.21,1,3.45,3.45,0,0,0,1.7.33,5.26,5.26,0,0,0,2.35-.82,11,11,0,0,0,2.35-1.85,14.07,14.07,0,0,0,3.37-5.88,13.49,13.49,0,0,0,.5-3.72c0-2.05-.52-3.42-1.56-4.12s-2.45-.52-4.25.51a7,7,0,0,0-1.56,1.26c-.49.53-.94,1-1.35,1.55l-1.14,1.43a3.84,3.84,0,0,1-.88.87l-9.16,5.29a.91.91,0,0,1-1.18,0,1.83,1.83,0,0,1-.41-1.48L274,59.66a5.77,5.77,0,0,1,.5-2,2.89,2.89,0,0,1,1.09-1.35l25.13-14.5a.84.84,0,0,1,1.11.08,1.93,1.93,0,0,1,.47,1.44V52.9a4.64,4.64,0,0,1-.47,2,2.93,2.93,0,0,1-1.11,1.37l-17.09,9.86-.41,8.28a21.86,21.86,0,0,1,2.44-2.89,14.39,14.39,0,0,1,3-2.34A15.15,15.15,0,0,1,295,67,7.56,7.56,0,0,1,300,68.22,9.56,9.56,0,0,1,303.35,73a25,25,0,0,1,1.2,8.44,39.76,39.76,0,0,1-1.32,10.34,40.51,40.51,0,0,1-3.64,9.11,35.73,35.73,0,0,1-5.43,7.42,30.39,30.39,0,0,1-6.69,5.32,17.27,17.27,0,0,1-7.14,2.53A8.34,8.34,0,0,1,275,115a9,9,0,0,1-3.35-4.21,17.48,17.48,0,0,1-1.23-6.48,3.84,3.84,0,0,1,.38-1.62,2.44,2.44,0,0,1,.91-1.11l7.46-4.31c.62-.36,1.11-.45,1.44-.28A1.76,1.76,0,0,1,281.3,97.45Z"/><path class="cls-3" d="M327,25.71c2.94-1.69,5.46-2.49,7.58-2.38a7.55,7.55,0,0,1,5.25,2.3,13.24,13.24,0,0,1,3.11,6,39.32,39.32,0,0,1,1.21,8.66q.11,3.81.11,8.06c0,2.84,0,5.51-.11,8a61.23,61.23,0,0,1-1.21,10.05,43.73,43.73,0,0,1-3.11,9.61,37.78,37.78,0,0,1-5.25,8.37A28.1,28.1,0,0,1,327,90.79q-4.39,2.53-7.57,2.38a7.59,7.59,0,0,1-5.25-2.3,13.3,13.3,0,0,1-3.11-6,39.49,39.49,0,0,1-1.21-8.66c-.08-2.43-.11-5-.11-7.89s0-5.56.11-8.2A61.23,61.23,0,0,1,311,50.05a43.56,43.56,0,0,1,3.11-9.61,37.78,37.78,0,0,1,5.25-8.37A28,28,0,0,1,327,25.71Zm6.29,36.5q.23-7.82,0-15.18a31,31,0,0,0-.44-3.9,6.89,6.89,0,0,0-1-2.71,2.6,2.6,0,0,0-1.88-1.13,5.05,5.05,0,0,0-2.94.88A10.23,10.23,0,0,0,324,42.68a12.78,12.78,0,0,0-1.88,3.3,20.17,20.17,0,0,0-1.06,3.91,32.22,32.22,0,0,0-.41,4.39q-.29,7.68,0,15.19a25.68,25.68,0,0,0,.38,3.93,6.44,6.44,0,0,0,1.06,2.69A2.63,2.63,0,0,0,324,77.2a4.93,4.93,0,0,0,2.93-.88,10,10,0,0,0,2.94-2.5,13.61,13.61,0,0,0,1.91-3.32,17.43,17.43,0,0,0,1.05-3.91A33.64,33.64,0,0,0,333.26,62.21Z"/><path class="cls-3" d="M367.36,2.39C370.3.7,372.82-.1,374.93,0a7.59,7.59,0,0,1,5.26,2.3,13.4,13.4,0,0,1,3.11,6A39.43,39.43,0,0,1,384.5,17q.12,3.82.12,8.07t-.12,8a61.2,61.2,0,0,1-1.2,10.05,44.09,44.09,0,0,1-3.11,9.61,37.46,37.46,0,0,1-5.26,8.37,27.9,27.9,0,0,1-7.57,6.36c-2.93,1.69-5.46,2.49-7.57,2.38a7.55,7.55,0,0,1-5.26-2.3,13.44,13.44,0,0,1-3.11-6,40,40,0,0,1-1.2-8.66q-.12-3.63-.12-7.88c0-2.84,0-5.57.12-8.21a62.3,62.3,0,0,1,1.2-10,44.82,44.82,0,0,1,3.11-9.61,37.46,37.46,0,0,1,5.26-8.37A28.05,28.05,0,0,1,367.36,2.39Zm6.28,36.51q.24-7.82,0-15.19a29.28,29.28,0,0,0-.44-3.9,7,7,0,0,0-1-2.71A2.6,2.6,0,0,0,370.3,16a5.09,5.09,0,0,0-2.94.88,10.23,10.23,0,0,0-2.93,2.51,12.82,12.82,0,0,0-1.88,3.3,19.49,19.49,0,0,0-1.06,3.91,32.37,32.37,0,0,0-.41,4.39q-.3,7.68,0,15.19a25.82,25.82,0,0,0,.38,3.94,6.45,6.45,0,0,0,1.06,2.68,2.66,2.66,0,0,0,1.91,1.12,5.08,5.08,0,0,0,2.93-.88,10.41,10.41,0,0,0,2.94-2.51,13.4,13.4,0,0,0,1.9-3.32,17.29,17.29,0,0,0,1.06-3.91A33.37,33.37,0,0,0,373.64,38.9Z"/><path class="cls-7" d="M304,153.65a.3.3,0,0,1,.39,0,.67.67,0,0,1,.17.52v3.39a1.54,1.54,0,0,1-.17.71,1.08,1.08,0,0,1-.39.48l-9.87,5.7a.29.29,0,0,1-.39,0,.7.7,0,0,1-.17-.51v-20.7a1.68,1.68,0,0,1,.17-.71,1.08,1.08,0,0,1,.39-.48l9.7-5.6a.3.3,0,0,1,.4,0,.69.69,0,0,1,.16.51v3.4a1.62,1.62,0,0,1-.16.7,1.07,1.07,0,0,1-.4.49l-6.41,3.7v3.46l5.95-3.44a.3.3,0,0,1,.4,0,.7.7,0,0,1,.17.51v3.4a1.64,1.64,0,0,1-.17.7,1,1,0,0,1-.4.49l-5.95,3.43v3.59Z"/><path class="cls-7" d="M313.15,131.06a7.56,7.56,0,0,1,2.46-1,2.65,2.65,0,0,1,1.84.28,2.94,2.94,0,0,1,1.17,1.62,9.35,9.35,0,0,1,.4,3,13.91,13.91,0,0,1-.64,4.36,11.39,11.39,0,0,1-1.83,3.47l2.58,6.14a.87.87,0,0,1,.06.32,1.33,1.33,0,0,1-.14.57.89.89,0,0,1-.32.4l-2.83,1.63c-.28.16-.47.18-.59,0a1.42,1.42,0,0,1-.28-.41L312.72,146l-1.92,1.1V154a1.62,1.62,0,0,1-.16.7,1.07,1.07,0,0,1-.4.49l-2.72,1.57a.3.3,0,0,1-.4,0,.66.66,0,0,1-.17-.51V135.5a1.67,1.67,0,0,1,.17-.7,1,1,0,0,1,.4-.49Zm-2.35,11.06,2.35-1.35a4.36,4.36,0,0,0,1.45-1.35,3.83,3.83,0,0,0,.57-2.19q0-1.35-.57-1.53a1.9,1.9,0,0,0-1.45.32l-2.35,1.36Z"/><path class="cls-7" d="M327.62,122.71a7.43,7.43,0,0,1,2.45-1,2.68,2.68,0,0,1,1.85.28,3,3,0,0,1,1.16,1.62,9.32,9.32,0,0,1,.41,3,13.91,13.91,0,0,1-.65,4.36,11.39,11.39,0,0,1-1.83,3.47l2.58,6.14a.87.87,0,0,1,.06.32,1.31,1.31,0,0,1-.13.57.9.9,0,0,1-.33.4l-2.82,1.63c-.28.16-.48.18-.6,0a1.42,1.42,0,0,1-.28-.41l-2.31-5.52-1.91,1.1v6.86a1.64,1.64,0,0,1-.17.7,1,1,0,0,1-.4.49L322,148.39a.3.3,0,0,1-.4,0,.66.66,0,0,1-.16-.51v-20.7a1.62,1.62,0,0,1,.16-.7,1.07,1.07,0,0,1,.4-.49Zm-2.35,11.06,2.35-1.35a4.42,4.42,0,0,0,1.44-1.35,3.75,3.75,0,0,0,.58-2.19c0-.9-.19-1.41-.58-1.53a1.87,1.87,0,0,0-1.44.32L325.27,129Z"/><path class="cls-7" d="M335.4,126.58a18,18,0,0,1,.51-3.68,16.51,16.51,0,0,1,1.27-3.49,14.59,14.59,0,0,1,2-3,10.43,10.43,0,0,1,2.71-2.25,5.55,5.55,0,0,1,2.71-.88,3,3,0,0,1,2,.7,4.51,4.51,0,0,1,1.27,2,10.84,10.84,0,0,1,.51,3.09c0,.9,0,1.86,0,2.86s0,2,0,2.84a18,18,0,0,1-.51,3.68,17.17,17.17,0,0,1-1.27,3.5,14.18,14.18,0,0,1-2,3,10.51,10.51,0,0,1-2.71,2.23,5.53,5.53,0,0,1-2.71.9,2.92,2.92,0,0,1-2-.71,4.51,4.51,0,0,1-1.27-2,10.84,10.84,0,0,1-.51-3.09c0-.86,0-1.79,0-2.8S335.37,127.51,335.4,126.58Zm9.14.27c0-.4,0-.83,0-1.31s0-1,0-1.45,0-1,0-1.42,0-.85,0-1.21a5.43,5.43,0,0,0-.22-1.34,2.1,2.1,0,0,0-.5-.89,1.2,1.2,0,0,0-.8-.32,2.2,2.2,0,0,0-1.13.36,4.22,4.22,0,0,0-1.12.94,5.43,5.43,0,0,0-.8,1.25,6.79,6.79,0,0,0-.5,1.46,9.09,9.09,0,0,0-.22,1.59c0,.38,0,.8-.05,1.27s0,.94,0,1.43,0,1,0,1.44,0,.88.05,1.25a3.6,3.6,0,0,0,.72,2.24c.42.46,1.06.44,1.92,0a4.6,4.6,0,0,0,1.92-2.16A9.21,9.21,0,0,0,344.54,126.85Z"/><path class="cls-7" d="M357,105.73a7.56,7.56,0,0,1,2.46-1,2.66,2.66,0,0,1,1.84.28,2.94,2.94,0,0,1,1.17,1.62,9.35,9.35,0,0,1,.4,3,13.87,13.87,0,0,1-.64,4.36,11.14,11.14,0,0,1-1.84,3.48l2.59,6.13a.91.91,0,0,1,.06.32,1.33,1.33,0,0,1-.14.57.84.84,0,0,1-.32.4l-2.83,1.63c-.28.16-.48.18-.59.06a1.62,1.62,0,0,1-.28-.42l-2.31-5.52-1.92,1.11v6.85a1.54,1.54,0,0,1-.17.71,1.08,1.08,0,0,1-.39.48l-2.73,1.57a.3.3,0,0,1-.39,0,.71.71,0,0,1-.17-.52V110.18a1.68,1.68,0,0,1,.17-.71,1,1,0,0,1,.39-.48Zm-2.35,11.07,2.35-1.36a4.36,4.36,0,0,0,1.45-1.35,3.83,3.83,0,0,0,.57-2.19c0-.9-.19-1.4-.57-1.53a1.87,1.87,0,0,0-1.45.33l-2.35,1.35Z"/><path class="cls-7" d="M271.37,146.33a.17.17,0,0,1-.22,0,.38.38,0,0,1-.1-.3V134.06a.88.88,0,0,1,.1-.41.65.65,0,0,1,.22-.28l1.58-.91a.18.18,0,0,1,.23,0,.4.4,0,0,1,.09.29v12a1,1,0,0,1-.09.41.67.67,0,0,1-.23.28Z"/><path class="cls-7" d="M280.72,140.93a.27.27,0,0,1-.33,0,.79.79,0,0,1-.16-.16l-2.75-4.74v6.25a.88.88,0,0,1-.1.41.6.6,0,0,1-.23.28l-1.57.91a.18.18,0,0,1-.23,0,.4.4,0,0,1-.1-.29v-12a1.07,1.07,0,0,1,.1-.41.6.6,0,0,1,.23-.28l1.25-.72a.29.29,0,0,1,.33,0,.59.59,0,0,1,.16.16l2.76,4.74v-6.25a1,1,0,0,1,.09-.41.61.61,0,0,1,.23-.28l1.57-.91a.18.18,0,0,1,.23,0,.37.37,0,0,1,.1.29v12a.88.88,0,0,1-.1.41.66.66,0,0,1-.23.28Z"/><path class="cls-7" d="M290.46,122.35a.18.18,0,0,1,.23,0,.4.4,0,0,1,.1.29v2a1,1,0,0,1-.1.41.61.61,0,0,1-.23.28l-2.12,1.22V136a1,1,0,0,1-.09.41.63.63,0,0,1-.23.27l-1.57.91a.17.17,0,0,1-.23,0,.38.38,0,0,1-.1-.3v-9.49L284,129a.18.18,0,0,1-.23,0,.37.37,0,0,1-.1-.29v-2a.86.86,0,0,1,.1-.41.55.55,0,0,1,.23-.28Z"/><path class="cls-7" d="M298.19,127.88a.18.18,0,0,1,.23,0,.4.4,0,0,1,.09.29v2a1,1,0,0,1-.09.4.61.61,0,0,1-.23.28l-5.7,3.29a.18.18,0,0,1-.23,0,.43.43,0,0,1-.09-.3V121.87a1,1,0,0,1,.09-.41.61.61,0,0,1,.23-.28l5.6-3.24a.18.18,0,0,1,.23,0,.38.38,0,0,1,.1.3v2a.91.91,0,0,1-.1.41.57.57,0,0,1-.23.27l-3.7,2.14v2l3.44-2a.18.18,0,0,1,.23,0,.41.41,0,0,1,.09.3v2a1,1,0,0,1-.09.41.67.67,0,0,1-.23.28l-3.44,2v2.07Z"/><path class="cls-7" d="M303.78,114.66a4.47,4.47,0,0,1,1.42-.56,1.54,1.54,0,0,1,1.06.16,1.74,1.74,0,0,1,.68.94,5.59,5.59,0,0,1,.23,1.74,7.67,7.67,0,0,1-.38,2.52,6.21,6.21,0,0,1-1.05,2l1.49,3.54a.68.68,0,0,1,0,.19.78.78,0,0,1-.07.33.56.56,0,0,1-.19.23l-1.63.94c-.16.09-.28.1-.35,0a1,1,0,0,1-.16-.24l-1.33-3.19-1.11.64v4a.88.88,0,0,1-.1.41.65.65,0,0,1-.22.28l-1.58.91a.18.18,0,0,1-.23,0,.41.41,0,0,1-.09-.3v-12a1,1,0,0,1,.09-.41.67.67,0,0,1,.23-.28Zm-1.36,6.39,1.36-.78a2.48,2.48,0,0,0,.83-.78,2.11,2.11,0,0,0,.34-1.26c0-.52-.11-.82-.34-.89a1.09,1.09,0,0,0-.83.19l-1.36.78Z"/><path class="cls-7" d="M314.32,121.53c-.13.08-.25.09-.33,0a.48.48,0,0,1-.16-.16l-2.75-4.74v6.25a1,1,0,0,1-.1.41.61.61,0,0,1-.23.28l-1.57.91a.18.18,0,0,1-.23,0,.4.4,0,0,1-.1-.3v-12a.85.85,0,0,1,.1-.4.55.55,0,0,1,.23-.28l1.25-.73a.29.29,0,0,1,.33,0,.49.49,0,0,1,.16.17l2.75,4.74v-6.26a.88.88,0,0,1,.1-.41.6.6,0,0,1,.23-.28l1.57-.91a.18.18,0,0,1,.23,0,.41.41,0,0,1,.1.3v12a1,1,0,0,1-.1.41.6.6,0,0,1-.23.28Z"/><path class="cls-7" d="M322.33,104q.24-.14.36,0a.62.62,0,0,1,.18.3l2.62,10.15a1,1,0,0,1,.05.25.8.8,0,0,1-.08.33.5.5,0,0,1-.19.23l-1.51.87c-.16.1-.28.11-.35,0a.4.4,0,0,1-.12-.23l-.34-1.34-3.2,1.85-.33,1.72a1.43,1.43,0,0,1-.13.38.79.79,0,0,1-.34.36l-1.52.87a.14.14,0,0,1-.18,0,.33.33,0,0,1-.08-.24,1.87,1.87,0,0,1,.05-.31L319.84,106a2.76,2.76,0,0,1,.17-.51.93.93,0,0,1,.37-.41Zm-1.95,9.21,1.95-1.12-1-3.88Z"/><path class="cls-7" d="M332.7,108a.17.17,0,0,1,.23,0,.4.4,0,0,1,.09.29v2a1,1,0,0,1-.09.41.67.67,0,0,1-.23.28l-5.57,3.21a.17.17,0,0,1-.22,0,.39.39,0,0,1-.1-.3V101.87a.86.86,0,0,1,.1-.41.6.6,0,0,1,.22-.28l1.58-.91a.17.17,0,0,1,.23,0,.4.4,0,0,1,.09.29v9.49Z"/><path class="cls-7" d="M340,93.54a3.16,3.16,0,0,1,1.42-.47,2.11,2.11,0,0,1,1.11.23,1.94,1.94,0,0,1,.73.77,2.34,2.34,0,0,1,.28,1.08.8.8,0,0,1-.08.33.51.51,0,0,1-.17.22l-1.58.91a.47.47,0,0,1-.27.08.41.41,0,0,1-.21-.1l-.11-.12a.64.64,0,0,0-.23-.14.68.68,0,0,0-.36,0,1.36,1.36,0,0,0-.53.2,3.3,3.3,0,0,0-.43.3,1.91,1.91,0,0,0-.38.37,1.47,1.47,0,0,0-.36,1,.55.55,0,0,0,.11.4.51.51,0,0,0,.38.12,2.86,2.86,0,0,0,.72-.11l1.1-.28a3.66,3.66,0,0,1,1.16-.15,1.33,1.33,0,0,1,.82.31,1.7,1.7,0,0,1,.5.83,5.36,5.36,0,0,1,.16,1.41,6,6,0,0,1-.28,1.84,7.18,7.18,0,0,1-.77,1.72,8.08,8.08,0,0,1-1.18,1.48,7.37,7.37,0,0,1-1.49,1.14,3.73,3.73,0,0,1-1.49.53,2.16,2.16,0,0,1-1.16-.21,1.93,1.93,0,0,1-.76-.79,2.78,2.78,0,0,1-.29-1.22.8.8,0,0,1,.08-.33.49.49,0,0,1,.17-.23l1.58-.91a.47.47,0,0,1,.26-.08.34.34,0,0,1,.2.08,1.4,1.4,0,0,1,.14.16.76.76,0,0,0,.26.19.74.74,0,0,0,.41.07,1.43,1.43,0,0,0,.6-.22,4.61,4.61,0,0,0,1.07-.83,1.45,1.45,0,0,0,.42-1,.42.42,0,0,0-.15-.38.9.9,0,0,0-.47-.07,4.66,4.66,0,0,0-.8.16c-.33.09-.71.19-1.15.29a1.74,1.74,0,0,1-1.81-.31,3.33,3.33,0,0,1-.57-2.22,6.1,6.1,0,0,1,.24-1.65,7.24,7.24,0,0,1,.68-1.67,7.46,7.46,0,0,1,1.07-1.5A5.89,5.89,0,0,1,340,93.54Z"/><path class="cls-7" d="M351.34,97.19a.18.18,0,0,1,.23,0,.38.38,0,0,1,.1.3v2a.88.88,0,0,1-.1.41.66.66,0,0,1-.23.28l-5.7,3.29a.17.17,0,0,1-.22,0,.38.38,0,0,1-.1-.3V91.18a.88.88,0,0,1,.1-.41.65.65,0,0,1,.22-.28l5.61-3.23a.18.18,0,0,1,.23,0,.41.41,0,0,1,.09.3v2a1,1,0,0,1-.09.41.75.75,0,0,1-.23.28l-3.7,2.13v2l3.43-2a.17.17,0,0,1,.23,0,.4.4,0,0,1,.1.29v2a1,1,0,0,1-.1.41.55.55,0,0,1-.23.28l-3.43,2v2.08Z"/><path class="cls-7" d="M356.93,84a4.2,4.2,0,0,1,1.42-.55,1.48,1.48,0,0,1,1.06.16,1.66,1.66,0,0,1,.68.93,5.62,5.62,0,0,1,.23,1.75,8,8,0,0,1-.37,2.52,6.49,6.49,0,0,1-1.06,2l1.49,3.55a.58.58,0,0,1,0,.18.8.8,0,0,1-.08.33.5.5,0,0,1-.19.23l-1.63.94c-.16.1-.28.11-.34,0a.81.81,0,0,1-.17-.24l-1.33-3.18-1.11.63v4a1,1,0,0,1-.09.41.61.61,0,0,1-.23.28l-1.58.91a.16.16,0,0,1-.22,0,.37.37,0,0,1-.1-.29v-12a.85.85,0,0,1,.1-.4.6.6,0,0,1,.22-.28Zm-1.36,6.4,1.36-.79a2.41,2.41,0,0,0,.84-.78,2.18,2.18,0,0,0,.33-1.26c0-.52-.11-.81-.33-.88a1.09,1.09,0,0,0-.84.18l-1.36.79Z"/><path class="cls-7" d="M364.28,92.69c-.32.18-.53.06-.64-.37l-2.45-10.16a.7.7,0,0,1,0-.14.2.2,0,0,1,0-.07.81.81,0,0,1,.08-.34.49.49,0,0,1,.19-.23l1.51-.87c.16-.09.27-.1.34,0a.45.45,0,0,1,.13.23l1.67,7.18,1.67-9.11a1.5,1.5,0,0,1,.13-.37.74.74,0,0,1,.34-.36l1.51-.87a.14.14,0,0,1,.19,0,.33.33,0,0,1,.08.24.25.25,0,0,1,0,.08,1.05,1.05,0,0,1,0,.18l-2.45,13a1.52,1.52,0,0,1-.64,1.11Z"/><path class="cls-7" d="M376.42,82.72c.09,0,.16,0,.22,0a.37.37,0,0,1,.1.29v2a.88.88,0,0,1-.1.41.59.59,0,0,1-.22.28L370.72,89a.18.18,0,0,1-.23,0,.4.4,0,0,1-.1-.29v-12a1.07,1.07,0,0,1,.1-.41.6.6,0,0,1,.23-.28l5.6-3.23a.18.18,0,0,1,.23,0,.4.4,0,0,1,.09.29v2a1,1,0,0,1-.09.41.61.61,0,0,1-.23.28l-3.7,2.14v2l3.44-2a.17.17,0,0,1,.22,0,.38.38,0,0,1,.1.3v2a.85.85,0,0,1-.1.4.6.6,0,0,1-.22.28l-3.44,2v2.07Z"/><path class="cls-7" d="M382,69.5a4.33,4.33,0,0,1,1.42-.56,1.57,1.57,0,0,1,1.07.16,1.73,1.73,0,0,1,.67.94,5.2,5.2,0,0,1,.24,1.74A8,8,0,0,1,385,74.3a6.66,6.66,0,0,1-1.06,2l1.5,3.54a.57.57,0,0,1,0,.18.73.73,0,0,1-.08.34.46.46,0,0,1-.18.22l-1.64,1c-.16.09-.27.1-.34,0a.78.78,0,0,1-.16-.24l-1.34-3.19-1.1.64v4a.85.85,0,0,1-.1.4.55.55,0,0,1-.23.28l-1.57.91a.18.18,0,0,1-.23,0,.41.41,0,0,1-.1-.3v-12a1,1,0,0,1,.1-.41.55.55,0,0,1,.23-.28Zm-1.35,6.39,1.35-.78a2.61,2.61,0,0,0,.84-.78,2.24,2.24,0,0,0,.33-1.27c0-.52-.11-.81-.33-.88a1.07,1.07,0,0,0-.84.19l-1.35.78Z"/></g><path class="cls-7" d="M312.83,165.72a1.48,1.48,0,0,0-2.19.27c-.67.84-.73,3.4-1,5.13a20.8,20.8,0,0,1-1.68,5.33,27.89,27.89,0,0,1-5.72,7.86,36.24,36.24,0,0,1-10.92,7.3,32.4,32.4,0,0,1-4.25,1.48c-1.43.38-3.34.43-4.58,1.24a.4.4,0,0,0,0,.61c1.49.63,3.33.36,4.89.14a26.12,26.12,0,0,0,5.8-1.59,35.65,35.65,0,0,0,10.43-6.35,30.86,30.86,0,0,0,7.44-9.29,21.6,21.6,0,0,0,2.06-6.06,22,22,0,0,0,.45-3.33A3.31,3.31,0,0,0,312.83,165.72Z"/></g></g></g></svg>