<svg xmlns="http://www.w3.org/2000/svg" xmlns:xlink="http://www.w3.org/1999/xlink" viewBox="0 0 660 450"><defs><linearGradient id="f96006d4-1e5a-49d7-a108-05a74ed25378" x1="702.0956" y1="403.1307" x2="404.0956" y2="199.1309" gradientUnits="userSpaceOnUse"><stop offset="0.0051" stop-color="#b4f759"/><stop offset="0.0493" stop-color="#90ed6f"/><stop offset="0.1471" stop-color="#35d5a5"/><stop offset="0.202" stop-color="#00c7c5"/><stop offset="0.408" stop-color="#2d9be0"/><stop offset="0.596" stop-color="#5277f7"/><stop offset="0.6617" stop-color="#5b76f7"/><stop offset="0.7684" stop-color="#7374f6"/><stop offset="0.902" stop-color="#9a70f4"/><stop offset="1" stop-color="#bb6df3"/></linearGradient></defs><g style="isolation:isolate"><g id="ed8d4e38-c09d-414d-86f3-c62976c32eec" data-name="Capa 2"><g id="e2609ad2-32e1-4f2a-a963-7b8a774ff692" data-name="Layer 1"><rect width="660" height="450" style="fill:#273b98"/><path d="M660,0H446.5041c19.9109,48.9585,47.9143,152.8762-42.53,208.19-108.717,66.488-250,169-180.2041,241.8105H660Z" style="fill:url(#f96006d4-1e5a-49d7-a108-05a74ed25378)"/><g style="opacity:0.5;mix-blend-mode:multiply"><rect x="3.5" y="9" width="653" height="432" rx="26.05" style="fill:#afb6e5;opacity:0"/><rect x="4.7619" y="10.4286" width="650.4762" height="429" rx="25.2878" style="fill:#afb6e5;opacity:0.038095"/><path d="M30.5494,11.8572H629.4506a24.5256,24.5256,0,0,1,24.5256,24.5256V413.3316a24.5256,24.5256,0,0,1-24.5256,24.5256H30.5493A24.5255,24.5255,0,0,1,6.0238,413.3317V36.3828A24.5256,24.5256,0,0,1,30.5494,11.8572Z" style="fill:#afb6e5;opacity:0.07619000000000001"/><path d="M31.049,13.2857H628.9509a23.7634,23.7634,0,0,1,23.7634,23.7634V412.5223a23.7634,23.7634,0,0,1-23.7634,23.7634H31.0491A23.7634,23.7634,0,0,1,7.2857,412.5223V37.049A23.7633,23.7633,0,0,1,31.049,13.2857Z" style="fill:#afb6e5;opacity:0.114286"/><rect x="8.5476" y="14.7143" width="642.9048" height="420" rx="23.0012" style="fill:#afb6e5;opacity:0.152381"/><rect x="9.8095" y="16.1429" width="640.381" height="417" rx="22.239" style="fill:#afb6e5;opacity:0.19047599999999998"/><path d="M32.5481,17.5714H627.4518a21.4768,21.4768,0,0,1,21.4768,21.4768V410.0946a21.4768,21.4768,0,0,1-21.4768,21.4768H32.5482a21.4768,21.4768,0,0,1-21.4768-21.4768V39.0481A21.4767,21.4767,0,0,1,32.5481,17.5714Z" style="fill:#afb6e5;opacity:0.228571"/><path d="M33.0478,19H626.9521a20.7146,20.7146,0,0,1,20.7146,20.7146V409.2854A20.7146,20.7146,0,0,1,626.9521,430H33.0479a20.7146,20.7146,0,0,1-20.7146-20.7146V39.7145A20.7145,20.7145,0,0,1,33.0478,19Z" style="fill:#afb6e5;opacity:0.266667"/><path d="M33.5476,20.4286H626.4525a19.9523,19.9523,0,0,1,19.9523,19.9523V408.4763a19.9523,19.9523,0,0,1-19.9523,19.9523H33.5476a19.9524,19.9524,0,0,1-19.9524-19.9524V40.381A19.9524,19.9524,0,0,1,33.5476,20.4286Z" style="fill:#afb6e5;opacity:0.304762"/><path d="M34.0473,21.8572H625.9527a19.19,19.19,0,0,1,19.19,19.19v366.62a19.19,19.19,0,0,1-19.19,19.19H34.0472a19.19,19.19,0,0,1-19.19-19.19V41.0474a19.19,19.19,0,0,1,19.19-19.19Z" style="fill:#afb6e5;opacity:0.34285699999999997"/><path d="M34.547,23.2857H625.453a18.428,18.428,0,0,1,18.428,18.428V406.8578a18.4279,18.4279,0,0,1-18.4279,18.4279H34.5469A18.4279,18.4279,0,0,1,16.119,406.8578V41.7137a18.428,18.428,0,0,1,18.428-18.428Z" style="fill:#afb6e5;opacity:0.38095199999999996"/><rect x="17.381" y="24.7143" width="625.238" height="399" rx="17.6657" style="fill:#afb6e5;opacity:0.419048"/><rect x="18.6429" y="26.1429" width="622.7142" height="396" rx="16.9035" style="fill:#afb6e5;opacity:0.45714299999999997"/><path d="M36.046,27.5714H623.9539a16.1413,16.1413,0,0,1,16.1413,16.1413V404.43a16.1413,16.1413,0,0,1-16.1413,16.1413H36.0461A16.1413,16.1413,0,0,1,19.9048,404.43V43.7126A16.1412,16.1412,0,0,1,36.046,27.5714Z" style="fill:#afb6e5;opacity:0.49523799999999996"/><path d="M36.5458,29H623.4542a15.3791,15.3791,0,0,1,15.3791,15.3791V403.6209A15.3791,15.3791,0,0,1,623.4542,419H36.5457a15.379,15.379,0,0,1-15.379-15.379V44.3791A15.3791,15.3791,0,0,1,36.5458,29Z" style="fill:#afb6e5;opacity:0.533333"/><path d="M37.0455,30.4286H622.9546a14.6168,14.6168,0,0,1,14.6168,14.6168V402.8117a14.6169,14.6169,0,0,1-14.6169,14.6169H37.0454a14.6168,14.6168,0,0,1-14.6168-14.6168V45.0455A14.6169,14.6169,0,0,1,37.0455,30.4286Z" style="fill:#afb6e5;opacity:0.571429"/><path d="M37.5452,31.8572h584.91a13.8546,13.8546,0,0,1,13.8546,13.8546V402.0026a13.8546,13.8546,0,0,1-13.8546,13.8546H37.5451a13.8546,13.8546,0,0,1-13.8546-13.8546V45.7119A13.8547,13.8547,0,0,1,37.5452,31.8572Z" style="fill:#afb6e5;opacity:0.609524"/><path d="M38.0448,33.2857h583.91a13.0924,13.0924,0,0,1,13.0924,13.0924V401.1932a13.0925,13.0925,0,0,1-13.0925,13.0925H38.0448a13.0924,13.0924,0,0,1-13.0924-13.0924V46.3781A13.0924,13.0924,0,0,1,38.0448,33.2857Z" style="fill:#afb6e5;opacity:0.647619"/><rect x="26.2143" y="34.7143" width="607.5714" height="378" rx="12.3302" style="fill:#afb6e5;opacity:0.6857139999999999"/><rect x="27.4762" y="36.1429" width="605.0476" height="375" rx="11.568" style="fill:#afb6e5;opacity:0.7238100000000001"/><path d="M39.5439,37.5714H620.4561a10.8058,10.8058,0,0,1,10.8058,10.8058V398.7656a10.8058,10.8058,0,0,1-10.8058,10.8058H39.544a10.8059,10.8059,0,0,1-10.8059-10.8059V48.3772A10.8058,10.8058,0,0,1,39.5439,37.5714Z" style="fill:#afb6e5;opacity:0.7619049999999999"/><rect x="30" y="39" width="600" height="369" rx="10.0436" style="fill:#afb6e5;opacity:0.8"/></g></g></g></g></svg>