<svg xmlns="http://www.w3.org/2000/svg" viewBox="0 0 534.263 301.2556"><g id="ef354ed9-b562-4233-abe5-bb062b295f59" data-name="Capa 2"><g id="b953350c-e9a6-4a61-9bf7-3024fb1a1066" data-name="OBJECTS"><path d="M523.1423,301.2556H.0778S-4.5349,244.06,57.2735,232.0672s96.8638-47.0482,96.8638-78.4136,36.9-130.3048,110.7015-124.77,70.949,13.5585,107.9339-12.9153S483.6555-5.2929,511.15,40.8764c48.8931,82.1037-19.3728,119.2348-1.845,144.1426S533.29,240.37,534.2124,259.7425,523.1423,301.2556,523.1423,301.2556Z" style="fill:#e3e3ce"/><path d="M430.0764,46.6573a44.3174,44.3174,0,0,0-26.1671-3.1983c-15.1186,2.6167-23.8409,13.0835-23.8409,22.9689s-3.4891,18.6076-7.5594,26.7483-20.0613,19.7708-20.0613,19.7708,6.687,21.5149,29.9465,28.4929,45.6469,4.07,57.2767,2.326,30.2374-11.63,30.2374-11.63A65.0487,65.0487,0,0,1,455.08,100.1542c-3.1982-19.7706-6.6872-38.96-11.339-44.1932S430.0764,46.6573,430.0764,46.6573Z" style="fill:#9f2335"/><path d="M278.3305,191.5919s-6.9188-16.9511-9.34-21.4484-9.6864-6.9188-12.8-7.9566-13.8376-9.6864-15.2214-11.7621-4.1513,2.4216-.346,5.881,9.34,8.3027,9.34,8.3027l-20.7565,2.0756s-15.2215-8.3026-14.1837-4.4972,11.07,16.2592,17.2971,17.2971,28.3673,1.3837,28.3673,1.3837l8.9945,18.335Z" style="fill:#ffb380"/><path d="M239.0621,173.0267c3.6282-.9221,14.8116-3.5907,14.8116-3.5907l-3.91-4.8275-20.7565,2.0756s-15.2215-8.3026-14.1837-4.4972,11.07,16.2592,17.2971,17.2971c1.1.1832,2.7013.3445,4.5836.4865C236.655,177.3831,236.7153,173.6232,239.0621,173.0267Z" style="fill:#dd926f"/><path d="M233.704,179.484s-14.2725-19.0044-13.1458-20.0647c4.1409-3.8972,14.8755,14.53,14.8755,14.53s17.6431-2.7675,21.4484-2.7675,4.8432,2.7675,4.8432,2.7675a7.74,7.74,0,0,1,1.1251,3.5662c0,1.7953-2.1629,3.3526-2.1629,3.3526S236.8739,181.4528,233.704,179.484Z" style="fill:#ffb380"/><path d="M349.5946,174.6408l-29.751,63.6533-42.205-49.8156-18.3349,12.4539s44.2806,59.848,54.6589,66.4209,21.1024-5.1892,21.1024-5.1892l21.1025-30.0969Z" style="fill:#373463"/><path d="M390.4158,162.8787s-40.8212,8.9945-40.8212,11.7621,2.4216,49.1238,5.881,63.9993a241.2418,241.2418,0,0,1,4.8432,25.9456c.6919,4.8432-11.762,36.67-11.762,36.67H451.6475s-11.07-21.1025-13.4917-30.097,24.5619-83.718,24.9078-87.1774-34.5942-14.8755-40.8211-15.9133S390.4158,162.8787,390.4158,162.8787Z" style="fill:#373463"/><path d="M463.0636,183.9812S490.39,235.2444,487.5569,240.91s-11.3313,4.9575-17.7052,1.4165-18.1228-24.0375-18.1228-24.0375Z" style="fill:#373463"/><path d="M381.0753,201.2783A128.4476,128.4476,0,0,0,400.794,253.17s23.87-60.54,23.87-76.4532V168.61c-1.0189-.26-1.8448-.4459-2.4216-.542-6.227-1.0379-31.8267-5.1892-31.8267-5.1892s-3.4535.7614-8.34,1.9059C380.503,168.9478,378.07,179.4905,381.0753,201.2783Z" style="fill:#fff"/><path d="M400.1022,176.3705l-16.6053,11.07s-2.0756-8.9945-1.3837-16.2592,10.0323-13.4918,11.07-13.8377,16.6052,1.3837,21.7944,3.1134,8.6485,7.6108,9.34,9.34-11.762,19.7187-11.762,19.7187Z" style="fill:#e2e3ef"/><path d="M389.7239,127.5926s-.6919,33.9024.6919,38.0537,7.6107,12.8,10.3782,12.8,15.2215-14.53,15.2215-14.53l4.1513-21.7944-28.0213-20.0646A11.4959,11.4959,0,0,0,389.7239,127.5926Z" style="fill:#dd926f"/><path d="M386.9489,87.7939s-2.4211,32.28,1.2105,39.5433,16.5435,26.631,24.6135,23.403,23.4031-18.1575,28.2452-28.2451,13.3156-19.7715,11.2981-34.2977-22.1926-30.6661-34.7012-32.28S388.5629,72.8645,386.9489,87.7939Z" style="fill:#ffb380"/><path d="M423.9706,105.969s-2.6165,6.978-2.6165,11.9205-.8724,5.815-.8724,5.815l-7.5593-2.9075" style="fill:none;stroke:#603b4f;stroke-miterlimit:10"/><path d="M418.1558,130.6823s-8.1409-2.326-12.502-6.3963-6.1056-6.1056-6.1056-6.1056,5.5242,15.1186,9.3038,15.7S418.1558,130.6823,418.1558,130.6823Z" style="fill:#603b4f"/><path d="M406.5058,104.0644c-.27,1.8269-1.3252,3.1842-2.3578,3.0319s-1.651-1.757-1.3814-3.5837,1.3252-3.1842,2.3578-3.0319S406.7754,102.2376,406.5058,104.0644Z" style="fill:#603b4f"/><path d="M431.8006,110.7515c-.27,1.8268-1.3253,3.1842-2.3579,3.0318s-1.6509-1.7568-1.3814-3.5837,1.3254-3.1841,2.3578-3.0318S432.07,108.9248,431.8006,110.7515Z" style="fill:#603b4f"/><path d="M399.5482,93.1762s6.9778-2.3258,13.0834.8724" style="fill:none;stroke:#603b4f;stroke-linecap:round;stroke-miterlimit:10;stroke-width:2px"/><path d="M428.0411,98.1189s8.7223-.5814,11.63,6.6872" style="fill:none;stroke:#603b4f;stroke-linecap:round;stroke-miterlimit:10;stroke-width:2px"/><path d="M430.0764,47.82s-4.652-4.9427-19.1891-2.0353-25.8764,15.7-26.4578,24.4226a34.6,34.6,0,0,0,1.7445,13.3742s5.5241-15.7,18.3168-22.0965,23.8411-10.1761,25.2948-10.4668S430.0764,47.82,430.0764,47.82Z" style="fill:#7de2d2"/><path d="M415.2483,49.5647c16.5725-7.5594,30.8189-6.6872,46.81,9.5945s8.4316,44.4839,8.4316,44.4839-13.9558.5814-31.6911-8.7223-26.1671-30.2375-26.1671-30.2375,3.4891,4.652-2.3258,9.8854-17.7355,9.8852-19.48,12.5019a72.3531,72.3531,0,0,1-5.5241,6.6872s-.5816-14.2464,3.78-25.004S415.2483,49.5647,415.2483,49.5647Z" style="fill:#9f2335"/><path d="M386.7554,93.4671s-1.4536-5.2334-5.8148-2.9074-4.3613,14.2464-1.163,19.48,6.6871,3.78,6.6871,3.78Z" style="fill:#ffb380"/><path d="M450.1377,104.5154s6.3963,1.1629,6.1056,5.8149-6.9778,17.1539-10.1761,18.3168-7.5592-2.326-7.5592-2.326Z" style="fill:#7de2d2"/><path d="M442.2876,128.0656s-3.78,6.1056-13.3743,9.5947a33.5506,33.5506,0,0,1-18.3168,1.1629" style="fill:none;stroke:#603b4f;stroke-miterlimit:10"/><path d="M415.5391,138.8232c0,1.6057-2.278,2.9074-5.088,2.9074s-5.088-1.3017-5.088-2.9074,2.278-2.9075,5.088-2.9075S415.5391,137.2174,415.5391,138.8232Z" style="fill:#603b4f"/><path d="M458.5892,133.3513s-1.6334-12.0873-1.6334-14.7008-3.92-3.2668-4.2469-.3266,1.3068,9.8,1.3068,9.8Z" style="fill:#dd926f"/><path d="M443.6909,122.4035l1.0378,14.53s-16.9512,17.989-15.9133,22.8322,13.1458,24.9078,13.1458,24.9078l9.34-5.1891-12.8-21.4484s20.4106-15.9134,20.4106-22.4863-7.9566-18.3349-7.9566-19.7187S443.3449,112.0252,443.6909,122.4035Z" style="fill:#ffb380"/><path d="M445.1952,117.0171s3.2669,12.414,4.2469,16.6609a8.6483,8.6483,0,0,1-.98,6.86" style="fill:none;stroke:#603b4f;stroke-miterlimit:10;stroke-width:0.5px"/><path d="M448.7887,115.3837s5.227,15.3541,5.5536,17.6409a21.5765,21.5765,0,0,1,0,4.9" style="fill:none;stroke:#603b4f;stroke-miterlimit:10;stroke-width:0.5px"/><path d="M451.9935,170.1435l-17.989,13.8377s29.0591,59.1561,32.8645,65.3831,20.0646,11.07,25.2538-1.0379-3.1135-21.4484-5.5351-26.2916S451.9935,170.1435,451.9935,170.1435Z" style="fill:#373463"/><path d="M153.2123,217.548s-.32-8.305-3.8331-14.0551-16.2911-9.9025-22.9992-7.0271a91.0083,91.0083,0,0,0-9.9025,4.7915,75.4275,75.4275,0,0,1,18.8465,8.944A47.3634,47.3634,0,0,0,153.2123,217.548Z" style="fill:#11e56e"/><path d="M166.6282,221.7007s-7.6661-7.347-8.944-17.5688,9.5831-26.1933,9.5831-26.1933a113.4819,113.4819,0,0,1,8.6246,21.4019C179.0858,210.84,166.6282,221.7007,166.6282,221.7007Z" style="fill:#11e56e"/><path d="M181.3221,218.5064s-1.9168-9.5829,1.5972-16.2911,12.7771-6.0691,22.0408-3.1943,12.1384,2.875,12.1384,2.875-10.8608,7.347-20.1242,11.18A124.456,124.456,0,0,1,181.3221,218.5064Z" style="fill:#11e56e"/><path d="M166.7134,262.1866a.8256.8256,0,0,1-.826-.8262v-54.936a.8261.8261,0,1,1,1.6521,0V261.36A.8257.8257,0,0,1,166.7134,262.1866Z" style="fill:#373463"/><path d="M170.5481,262.1866a.7763.7763,0,0,1-.1147-.0082.825.825,0,0,1-.7048-.9307c.1581-1.1447,4.0168-37.4652,17.1242-52.4916a.8262.8262,0,1,1,1.2456,1.0857c-12.78,14.6514-16.6955,51.356-16.7343,51.6318A.8246.8246,0,0,1,170.5481,262.1866Z" style="fill:#373463"/><path d="M162.88,261.5477h-.01a.8267.8267,0,0,1-.8163-.8356c.0033-.2616.1227-35.52-15.3432-47.893a.8263.8263,0,1,1,1.0324-1.29c16.1017,12.8816,15.9757,48.1042,15.963,49.2031A.8258.8258,0,0,1,162.88,261.5477Z" style="fill:#373463"/><path d="M175.657,261.2284a.8077.8077,0,0,1-.2142-.0285.8251.8251,0,0,1-.5827-1.0119c.092-.3453,2.3345-17.792,7.4758-24.8612a.8256.8256,0,1,1,1.3356.971c-4.9637,6.825-7.1951,24.2376-7.2175,24.3191A.8254.8254,0,0,1,175.657,261.2284Z" style="fill:#373463"/><path d="M180.6832,239.2693s-.32-8.9442,3.5137-10.2218,7.3473,1.9168,10.2219,3.8332,6.0693,3.833,6.0693,9.5829-2.2361,16.2909-2.2361,16.2909-3.1943-9.9024-8.6246-14.3743S180.6832,239.2693,180.6832,239.2693Z" style="fill:#11e56e"/><path d="M157.1293,261.5477a.8268.8268,0,0,1-.7872-.5737c-.0243-.0778-2.5571-17.0665-8.3485-21.6384a.8258.8258,0,1,1,1.0229-1.2968c6.1964,4.891,8.7919,22.0959,8.9,22.4316a.8266.8266,0,0,1-.5355,1.0377A.8162.8162,0,0,1,157.1293,261.5477Z" style="fill:#373463"/><path d="M153.2123,242.1443s1.2776-5.75-1.9168-9.9025-10.8608-3.1943-14.6939,1.2776-9.2633,17.8883-9.2633,17.8883,7.6662-6.0691,16.61-6.0691S153.2123,242.1443,153.2123,242.1443Z" style="fill:#11e56e"/><polygon points="178.666 301.256 153.172 301.256 140.425 259.092 191.414 259.092 178.666 301.256" style="fill:#9f2335"/><rect x="296.4081" y="295.4288" width="130.1801" height="5.8268" style="fill:#e3e3ce"/><polygon points="347.323 301.256 201.336 301.256 187.128 203.7 333.115 203.7 347.323 301.256" style="fill:#e3e3ce"/><polygon points="342.515 301.256 196.527 301.256 182.319 203.7 328.307 203.7 342.515 301.256" style="fill:#646286"/><path d="M265.5971,245.437c3.0158,5.9144,1.3853,12.7869-3.642,15.35s-11.5474-.1531-14.5631-6.0674-1.3852-12.787,3.642-15.35S262.5813,239.5226,265.5971,245.437Z" style="fill:#e3e3ce"/><circle cx="225.0099" cy="77.9713" r="51.6772" transform="translate(-7.17 130.9002) rotate(-31.9544)" style="fill:#0dc9ab"/><circle cx="225.0099" cy="77.9713" r="45.3656" style="fill:#fff"/><polyline points="240.366 91.166 225.01 77.971 191.904 98.866" style="fill:none;stroke:#373463;stroke-miterlimit:10;stroke-width:2px"/><path d="M229.3493,77.9713a4.3394,4.3394,0,1,1-4.3394-4.3394A4.3393,4.3393,0,0,1,229.3493,77.9713Z" style="fill:#0dc9ab"/><path d="M361.0107,59.3268c0-12.9921-16.5726-23.5241-37.0158-23.5241s-37.0158,10.532-37.0158,23.5241,16.5725,23.524,37.0158,23.524a52.762,52.762,0,0,0,20.8743-4.0981l15.45,8.2494L355.4756,71.7C358.9814,68.1046,361.0107,63.8671,361.0107,59.3268Z" style="fill:#fff"/><path d="M313.9626,60.0187a3.4595,3.4595,0,1,0-3.4594,3.4594A3.46,3.46,0,0,0,313.9626,60.0187Z" style="fill:#373463"/><path d="M328.4921,60.0187a3.4594,3.4594,0,1,0-3.4594,3.4594A3.4595,3.4595,0,0,0,328.4921,60.0187Z" style="fill:#373463"/><path d="M343.0217,60.0187a3.4594,3.4594,0,1,0-3.4594,3.4594A3.46,3.46,0,0,0,343.0217,60.0187Z" style="fill:#373463"/></g></g></svg>