<svg xmlns="http://www.w3.org/2000/svg" viewBox="0 0 464.54 522"><defs><style>.cls-1{fill:#fff;stroke:#fff;stroke-miterlimit:10;stroke-width:10px;}</style></defs><g id="Capa_2" data-name="Capa 2"><g id="Capa_1-2" data-name="Capa 1"><path class="cls-1" d="M311.22,142.8H66a7.54,7.54,0,1,0,0,15.07H311.23a7.54,7.54,0,0,0,0-15.07Z"/><path class="cls-1" d="M66,105.62h122.6a7.53,7.53,0,0,0,0-15.06H66a7.53,7.53,0,1,0,0,15.06Z"/><path class="cls-1" d="M311.22,189.1H66a7.53,7.53,0,1,0,0,15.06H311.23a7.53,7.53,0,1,0,0-15.06Z"/><path class="cls-1" d="M121.89,464.67H43.42a23.39,23.39,0,0,1-23.36-23.36V43.42A23.39,23.39,0,0,1,43.42,20.06H269.48a15.47,15.47,0,0,1,2.16.17v47a38.46,38.46,0,0,0,38.42,38.42h47a15.47,15.47,0,0,1,.16,2.16V236a7.54,7.54,0,0,0,15.07,0V107.78a30.73,30.73,0,0,0-9.06-21.87L291.35,14.06A30.73,30.73,0,0,0,269.48,5H43.42A38.47,38.47,0,0,0,5,43.42V441.31a38.46,38.46,0,0,0,38.42,38.42h78.47a7.53,7.53,0,0,0,0-15.06ZM346.54,90.56H310.06A23.39,23.39,0,0,1,286.7,67.2V30.72Z"/><path class="cls-1" d="M457.23,373.73,393.41,266a16.51,16.51,0,0,0-22.63-5.8l-15.52,9.2a29.49,29.49,0,0,0-13,34.39,23.11,23.11,0,0,1-16.24-.18c-12.26-3.86-21.58-11.61-37-7.72-26.13,6.65-25.33,6.32-27.7,7.13-15.3-8.71-24.49-11.3-40.74-5l-14.47,5.6a23.18,23.18,0,0,1-20.29-1.7l-4-2.33a29.42,29.42,0,0,0-14-30.17h0l-15.52-9.19A16.53,16.53,0,0,0,129.7,266L65.88,373.73a16.51,16.51,0,0,0,5.79,22.63l15.52,9.2a29.29,29.29,0,0,0,15,4.1,29.69,29.69,0,0,0,16.09-4.75l3.23,1.91-6.83,9.51A25.24,25.24,0,0,0,139.08,456a25.19,25.19,0,0,0,28.79,20.68,25.24,25.24,0,0,0,34.84,18.95,25.23,25.23,0,0,0,42.91,7.09l18.15,10.75a25.28,25.28,0,0,0,38-18.71l0,0a25.25,25.25,0,0,0,38.06-19.87,25.27,25.27,0,0,0,31.3-21.84,25.26,25.26,0,0,0,28.55-39.78l10-5.85a29.36,29.36,0,0,0,26.21-1.88l15.52-9.19a16.51,16.51,0,0,0,5.8-22.63ZM94.87,392.6l-15.52-9.2a1.45,1.45,0,0,1-.51-2l63.82-107.73a1.46,1.46,0,0,1,2-.51l15.52,9.2a14.37,14.37,0,0,1,5,19.7l-50.64,85.48a14.39,14.39,0,0,1-19.7,5.05Zm34.35,46.74a10.18,10.18,0,0,1-2.34-14.22l10-14A10.19,10.19,0,0,1,153.48,423l-10,14A10.2,10.2,0,0,1,129.22,439.34ZM158,460a10.21,10.21,0,0,1-2.34-14.22l10-14h0l11.07-15.43a10.12,10.12,0,0,1,6.63-4.11,10.55,10.55,0,0,1,1.67-.14,10.19,10.19,0,0,1,8.26,16.14l-21.12,29.42A10.18,10.18,0,0,1,158,460Zm28.8,20.67a10.18,10.18,0,0,1-2.34-14.21h0L205.59,437a10.19,10.19,0,0,1,16.56,11.89L212.76,462h0L201,478.35a10.2,10.2,0,0,1-14.22,2.33Zm33.5,14.11A10.2,10.2,0,0,1,218,480.58l7-9.79a10.19,10.19,0,1,1,16.56,11.88l-7,9.79A10.2,10.2,0,0,1,220.31,494.79Zm168.82-60.05a10.2,10.2,0,0,1-14,3.57c-8.19-4.85-61-36.16-66.67-39.49a7.53,7.53,0,0,0-7.68,13l50.41,29.86h0a10.2,10.2,0,0,1-10.4,17.54l-50.43-29.87a7.53,7.53,0,0,0-7.68,13l37.14,22h0a10.2,10.2,0,0,1-10.4,17.54L289.53,470h0L275,461.38a7.53,7.53,0,1,0-7.68,13L281.84,483h0a10.2,10.2,0,1,1-10.39,17.55l-17-10.06A25.27,25.27,0,0,0,248,456.22a25,25,0,0,0-10.48-4.38A25.24,25.24,0,0,0,210,418.06a25.24,25.24,0,0,0-42.84-13.5,25.23,25.23,0,0,0-35.11-9l-3.46-2,47.37-80,2.26,1.33a38.16,38.16,0,0,0,33.38,2.78l14.48-5.6c8.28-3.2,12.85-3.41,21,.45A33.75,33.75,0,0,0,238.54,335v33.4a16.1,16.1,0,0,0,16.07,16.09h0a33.37,33.37,0,0,0,31.53-22.54l99.39,58.85a10.19,10.19,0,0,1,3.57,14Zm54.63-51.34-15.53,9.2a14.4,14.4,0,0,1-19.7-5.05L384.8,347.49a7.53,7.53,0,1,0-13,7.68l23.73,40.06c.45.76.93,1.47,1.44,2.17l-6.6,3.86a38.74,38.74,0,0,0-3.85,2.6L284.24,343.27a7.54,7.54,0,0,0-11.37,6.48c-.08.45.78,8.19-5.34,14.31a18.16,18.16,0,0,1-12.9,5.34h0a1,1,0,0,1-1-1V335a18.73,18.73,0,0,1,14.12-18.14l25-6.33c9.07-2.3,14.2,2.55,27.8,7.15a38.07,38.07,0,0,0,28.8-.46l4.54,7.67a7.53,7.53,0,0,0,13-7.68l-8.95-15.11a14.37,14.37,0,0,1,5-19.7l15.52-9.2a1.47,1.47,0,0,1,2,.51l63.82,107.73a1.45,1.45,0,0,1-.51,2Z"/></g></g></svg>