<svg xmlns="http://www.w3.org/2000/svg" viewBox="0 0 512 511"><defs><style>.cls-1{fill:#fff;}</style></defs><g id="Capa_2" data-name="Capa 2"><g id="Capa_1-2" data-name="Capa 1"><path class="cls-1" d="M255.5,0C174.05,0,107.79,66.26,107.79,147.71a147.63,147.63,0,0,0,64.14,121.72A255.92,255.92,0,0,0,0,511H39.92c0-118.87,96.71-215.58,215.58-215.58,81.45,0,147.71-66.26,147.71-147.71S337,0,255.5,0Zm0,255.5A107.79,107.79,0,1,1,363.29,147.71,107.91,107.91,0,0,1,255.5,255.5Z"/><polygon class="cls-1" points="428.16 387.24 428.16 303.41 388.24 303.41 388.24 387.24 304.4 387.24 304.4 427.17 388.24 427.17 388.24 511 428.16 511 428.16 427.17 512 427.17 512 387.24 428.16 387.24"/></g></g></svg>