<svg xmlns="http://www.w3.org/2000/svg" viewBox="0 0 505.25 519"><defs><style>.cls-1{fill:#fff;stroke:#fff;stroke-miterlimit:10;stroke-width:7px;}</style></defs><g id="Capa_2" data-name="Capa 2"><g id="Layer_1" data-name="Layer 1"><path class="cls-1" d="M463.49,68.17H452c.38-34.86-27.8-64.67-63.07-64.67H113.46A63.14,63.14,0,0,0,50.4,65.92H31.63a28.13,28.13,0,1,0,0,56.25H50.39v54.05H31.63a28.13,28.13,0,0,0,0,56.26H50.39v54H31.63a28.13,28.13,0,1,0,0,56.25H50.39v54.05H31.63a28.13,28.13,0,1,0,0,56.25H50.4a63.14,63.14,0,0,0,63.06,62.42H388.9c35.38,0,63.44-29.89,63.07-64.81h11.52a38.31,38.31,0,0,0,38.26-38.27v-306a38.31,38.31,0,0,0-38.26-38.26Zm23.26,262.51a23.28,23.28,0,0,1-23.26,23.26H452V287.2h11.52a38,38,0,0,0,23.26-7.92Zm0-81.75a23.29,23.29,0,0,1-23.26,23.27H452V204.09h11.52a38,38,0,0,0,23.26-7.91v52.75ZM463.49,83.17a23.29,23.29,0,0,1,23.26,23.26v59.4a23.28,23.28,0,0,1-23.26,23.26H452V83.17ZM18.5,94.05A13.14,13.14,0,0,1,31.63,80.92H84.48a13.13,13.13,0,0,1,0,26.25H31.63A13.14,13.14,0,0,1,18.5,94.05Zm0,110.3a13.14,13.14,0,0,1,13.13-13.13H84.48a13.13,13.13,0,0,1,0,26.26H31.63A13.14,13.14,0,0,1,18.5,204.35Zm0,110.3a13.14,13.14,0,0,1,13.13-13.13H84.48a13.13,13.13,0,0,1,0,26.26H31.63A13.14,13.14,0,0,1,18.5,314.65Zm0,110.3a13.14,13.14,0,0,1,13.13-13.12H84.48a13.13,13.13,0,0,1,0,26.25H31.63A13.14,13.14,0,0,1,18.5,425Zm445,10.74H452V425c0-9.7-15-9.7-15,0v27.47A48.12,48.12,0,0,1,388.9,500.5H155.78V114.67c0-9.69-15-9.69-15,0V500.5H113.46A48.12,48.12,0,0,1,65.4,453.08H84.48a28.13,28.13,0,0,0,0-56.25H65.39V342.78H84.48a28.13,28.13,0,0,0,0-56.26H65.39v-54H84.48a28.13,28.13,0,0,0,0-56.25H65.39v-54H84.48a28.13,28.13,0,0,0,0-56.25H65.4A48.12,48.12,0,0,1,113.46,18.5h27.32V75.67c0,9.7,15,9.7,15,0V18.5H388.9A48.12,48.12,0,0,1,437,66.57V386c0,9.69,15,9.69,15,0v-17.1h11.52A38.08,38.08,0,0,0,486.75,361v51.39a23.29,23.29,0,0,1-23.26,23.27Z"/><path class="cls-1" d="M332.1,210.38a61.49,61.49,0,1,0-79.12,0,93.91,93.91,0,0,0-54.07,84.85c0,9.7,15,9.7,15,0a78.81,78.81,0,0,1,57.69-75.78c6.58-1.81,7.38-11.11,1.2-14a46.49,46.49,0,1,1,39.48,0c-6.17,2.9-5.38,12.2,1.2,14a78.81,78.81,0,0,1,57.69,75.78c0,9.7,15,9.7,15,0a93.91,93.91,0,0,0-54.07-84.85Z"/><path class="cls-1" d="M378.67,352.52H206.41c-9.7,0-9.7,15,0,15H378.67C388.37,367.52,388.37,352.52,378.67,352.52Z"/><path class="cls-1" d="M348.54,402h-112c-9.7,0-9.7,15,0,15h112C358.23,417,358.23,402,348.54,402Z"/></g></g></svg>