<svg xmlns="http://www.w3.org/2000/svg" viewBox="0 0 511.97 512"><defs><style>.cls-1{fill:#fff;}</style></defs><g id="Capa_2" data-name="Capa 2"><g id="Capa_1-2" data-name="Capa 1"><path class="cls-1" d="M268.88,281.54H63.56a7.5,7.5,0,0,0,0,15H268.88a7.5,7.5,0,0,0,0-15Z"/><path class="cls-1" d="M268.88,328.87H63.56a7.5,7.5,0,0,0,0,15H268.88a7.5,7.5,0,0,0,0-15Z"/><path class="cls-1" d="M166.22,376.2H63.56a7.5,7.5,0,0,0,0,15H166.22a7.5,7.5,0,0,0,0-15Z"/><path class="cls-1" d="M466.19,186.88H260.87a7.5,7.5,0,0,0,0,15H466.19a7.5,7.5,0,0,0,0-15Z"/><path class="cls-1" d="M466.19,234.21H363.53a7.5,7.5,0,0,0,0,15H466.19a7.5,7.5,0,0,0,0-15Z"/><path class="cls-1" d="M46.44,57.27h150a7.5,7.5,0,0,0,0-15h-150a7.5,7.5,0,0,0,0,15Z"/><path class="cls-1" d="M46.44,94.77h75a7.5,7.5,0,0,0,0-15h-75a7.5,7.5,0,1,0,0,15Z"/><path class="cls-1" d="M284,225.62H48.41A48.47,48.47,0,0,0,0,274v121.7a48.47,48.47,0,0,0,48.41,48.41H50.1L40.41,498a11.92,11.92,0,0,0,19.94,10.76l66.37-63a5.72,5.72,0,0,1,4-1.58H284a48.46,48.46,0,0,0,48.41-48.41V274A48.46,48.46,0,0,0,284,225.62Zm33.4,170.11A33.44,33.44,0,0,1,284,429.14H130.68a20.67,20.67,0,0,0-14.29,5.7L56.83,491.38l8.42-46.73a13.19,13.19,0,0,0-13-15.52H48.41A33.44,33.44,0,0,1,15,395.73V274a33.45,33.45,0,0,1,33.41-33.41H284A33.44,33.44,0,0,1,317.43,274Z"/><path class="cls-1" d="M29.42,133.41H85.36a.32.32,0,0,1,.28.16l23.89,41.25a13.76,13.76,0,0,0,23.81,0l23.89-41.25a.33.33,0,0,1,.28-.16h55.94a29.07,29.07,0,0,0,29-29V29a29.07,29.07,0,0,0-29-29h-184a29.06,29.06,0,0,0-29,29V32.2a7.5,7.5,0,0,0,15,0V29a14,14,0,0,1,14-14h184a14,14,0,0,1,14,14v75.34a14.06,14.06,0,0,1-14,14H157.51a15.39,15.39,0,0,0-13.26,7.64l-22.81,39.39L98.62,126.05a15.37,15.37,0,0,0-13.26-7.64H29.42a14,14,0,0,1-14-14V67.26a7.5,7.5,0,0,0-15,0v37.11a29.07,29.07,0,0,0,29,29Z"/><path class="cls-1" d="M468.15,140.75H258.92a43.87,43.87,0,0,0-43.82,43.83v13.48a7.5,7.5,0,0,0,15,0V184.58a28.86,28.86,0,0,1,28.82-28.83H468.15A28.86,28.86,0,0,1,497,184.58V291.23a28.85,28.85,0,0,1-28.82,28.82h-3.44a12.55,12.55,0,0,0-12.35,14.77l7,39-51-48.43a19.18,19.18,0,0,0-13.27-5.3H360a7.5,7.5,0,0,0,0,15h35.1a4.25,4.25,0,0,1,2.94,1.18L457,392.17a11.43,11.43,0,0,0,19.12-10.32l-8.43-46.8h.49A43.87,43.87,0,0,0,512,291.23V184.58a43.87,43.87,0,0,0-43.82-43.83Z"/></g></g></svg>