<svg xmlns="http://www.w3.org/2000/svg" viewBox="0 0 512 336.46"><defs><style>.cls-1{fill:#fff;}</style></defs><g id="Capa_2" data-name="Capa 2"><g id="Layer_1" data-name="Layer 1"><path class="cls-1" d="M256.06,166.84a83.42,83.42,0,1,0-83.42-83.42,83.51,83.51,0,0,0,83.42,83.42Zm0-136.8a53.38,53.38,0,1,1-53.37,53.38A53.44,53.44,0,0,1,256.06,30Z"/><path class="cls-1" d="M416.68,163.83a63.43,63.43,0,1,0-63.43-63.43A63.51,63.51,0,0,0,416.68,163.83Zm0-96.82a33.39,33.39,0,1,1-33.39,33.39A33.43,33.43,0,0,1,416.68,67Z"/><path class="cls-1" d="M448.1,181.18H385.26c-18.12,0-35.57,8.2-47.74,21.73a90.53,90.53,0,0,0-44-11.36H218.6a90.51,90.51,0,0,0-44.31,11.54,63.63,63.63,0,0,0-47.55-21.17H63.9A64,64,0,0,0,0,245.81v23.78a15,15,0,0,0,15,15H127.59v36.82a15,15,0,0,0,15,15H369.52a15,15,0,0,0,15-15V283.87H497a15,15,0,0,0,15-15V245.08A64,64,0,0,0,448.1,181.18ZM30,245.81A33.9,33.9,0,0,1,63.9,212h62.84a33.75,33.75,0,0,1,24,10A90.93,90.93,0,0,0,132,254.56H30Zm324.46,60.6H157.63V282.57a61,61,0,0,1,61-61h74.92a61,61,0,0,1,61,61v23.84ZM482,253.83H379.89a91.05,91.05,0,0,0-18.76-32.13c6.48-6.49,15.29-10.48,24.13-10.48H448.1A33.9,33.9,0,0,1,482,245.08Z"/><path class="cls-1" d="M94.94,163.83A63.43,63.43,0,1,0,31.51,100.4,63.5,63.5,0,0,0,94.94,163.83Zm0-96.82A33.39,33.39,0,1,1,61.56,100.4,33.43,33.43,0,0,1,94.94,67Z"/></g></g></svg>