<svg xmlns="http://www.w3.org/2000/svg" viewBox="0 0 526.01 500.4"><defs><style>.cls-1,.cls-2{fill:#fff;}.cls-1{stroke:#fff;stroke-miterlimit:10;stroke-width:14px;}.cls-2{fill-rule:evenodd;}</style></defs><g id="Capa_2" data-name="Capa 2"><g id="Capa_1-2" data-name="Capa 1"><g id="Page-1"><g id="_042---Add-Message" data-name="042---Add-Message"><path id="Shape" class="cls-1" d="M408.07,7A110.71,110.71,0,0,0,320.8,49.67H83.8A76.88,76.88,0,0,0,7,126.47v204.8a76.89,76.89,0,0,0,76.8,76.8h34.13v68.26a16.92,16.92,0,0,0,9.88,15.46,17.42,17.42,0,0,0,7.24,1.61,17,17,0,0,0,11.09-4.11l94.42-81.22H408.07a76.9,76.9,0,0,0,76.8-76.8V197.81A110.81,110.81,0,0,0,408.07,7ZM467.8,331.27A59.8,59.8,0,0,1,408.07,391H240.56a16.81,16.81,0,0,0-11.1,4.11L135,476.33V408.07A17.07,17.07,0,0,0,117.93,391H83.8a59.8,59.8,0,0,1-59.73-59.73V126.47A59.8,59.8,0,0,1,83.8,66.73h226A110.77,110.77,0,0,0,467.8,211.27ZM408.07,211.8a93.87,93.87,0,1,1,93.86-93.87A93.87,93.87,0,0,1,408.07,211.8Z"/><path id="Path" class="cls-2" d="M459.27,109.4H416.6V66.73a8.54,8.54,0,0,0-17.07,0V109.4H356.87a8.54,8.54,0,1,0,0,17.07h42.66v42.66a8.54,8.54,0,1,0,17.07,0V126.47h42.67a8.54,8.54,0,0,0,0-17.07Z"/></g></g></g></g></svg>