<svg xmlns="http://www.w3.org/2000/svg" xmlns:xlink="http://www.w3.org/1999/xlink" viewBox="0 0 415.4261 291.6619"><defs><linearGradient id="a650a7cc-baa7-4d87-97f9-4eb4d6d41e4d" x1="300.0912" y1="73.4993" x2="300.0912" y2="126.0078" gradientUnits="userSpaceOnUse"><stop offset="0" stop-color="#59c7ef"/><stop offset="0.1967" stop-color="#62caf0"/><stop offset="0.5159" stop-color="#7ad4f2"/><stop offset="0.9155" stop-color="#a1e3f6"/><stop offset="1" stop-color="#aae7f7"/></linearGradient><linearGradient id="ee063550-01f1-41a4-8f67-db53679eab20" x1="195.5187" y1="122.7316" x2="195.5187" y2="202.6652" xlink:href="#a650a7cc-baa7-4d87-97f9-4eb4d6d41e4d"/><linearGradient id="a511578f-c7b3-44c3-b537-5167d32b7b85" x1="182.2677" y1="137.4844" x2="182.2677" y2="140.734" xlink:href="#a650a7cc-baa7-4d87-97f9-4eb4d6d41e4d"/><linearGradient id="a298df5f-f8f9-48f6-9b35-540703147b44" x1="212.3813" y1="137.7337" x2="212.3813" y2="140.4537" xlink:href="#a650a7cc-baa7-4d87-97f9-4eb4d6d41e4d"/><linearGradient id="a3b44203-2afc-43f4-a594-b189ed09021c" x1="204.0815" y1="140.877" x2="204.0815" y2="143.0267" xlink:href="#a650a7cc-baa7-4d87-97f9-4eb4d6d41e4d"/><linearGradient id="b47d45a8-ff7f-4096-a1ba-711602c72655" x1="318.1908" y1="190.25" x2="318.1908" y2="234.89" xlink:href="#a650a7cc-baa7-4d87-97f9-4eb4d6d41e4d"/><linearGradient id="a1b9caa1-9af5-4d31-b460-e75996c71a6f" x1="319.1964" y1="202.3657" x2="319.1964" y2="225.0458" gradientUnits="userSpaceOnUse"><stop offset="0" stop-color="#f054f5"/><stop offset="0.1393" stop-color="#eb53f5"/><stop offset="0.2939" stop-color="#de51f6"/><stop offset="0.4558" stop-color="#c84df7"/><stop offset="0.6228" stop-color="#a948f9"/><stop offset="0.7937" stop-color="#8141fc"/><stop offset="0.9655" stop-color="#5139ff"/><stop offset="0.984" stop-color="#4b38ff"/><stop offset="0.9893" stop-color="#43ecff"/></linearGradient></defs><g style="isolation:isolate"><g id="bc51c46d-1933-4d86-a69f-681c2acd8afd" data-name="Capa 2"><g id="a8d6cf9a-9781-47cf-b60b-16cc8111211a" data-name="Layer 1"><rect x="259.156" y="127.8836" width="221.2842" height="34.9525" transform="translate(223.634 514.8408) rotate(-89.8753)" style="fill:#fff"/><rect x="259.1563" y="143.3336" width="221.2842" height="4.0525" transform="translate(223.6343 514.8411) rotate(-89.8753)" style="fill:#262c66"/><rect x="249.0025" y="143.3114" width="221.2847" height="4.0525" transform="translate(213.5249 504.6653) rotate(-89.8753)" style="fill:#262c66"/><rect x="269.9334" y="143.3569" width="221.2847" height="4.0525" transform="translate(234.3647 525.6416) rotate(-89.8753)" style="fill:#262c66"/><polygon points="387.515 34.756 352.563 34.68 369.564 1.475 387.515 34.756" style="fill:#e7e7e7"/><polygon points="360.365 19.44 379.277 19.481 369.564 1.475 360.365 19.44" style="fill:#fd425f"/><ellipse cx="118.0342" cy="260.4089" rx="55.5449" ry="5.0362" style="fill:#77d2c9"/><path d="M282.8483,69.62h34.1009a1.5433,1.5433,0,0,1,1.5433,1.5433v58.6633a1.5434,1.5434,0,0,1-1.5434,1.5434H282.8483a1.5435,1.5435,0,0,1-1.5435-1.5435V71.1636A1.5435,1.5435,0,0,1,282.8483,69.62Z" style="fill:#1b0c41"/><rect x="284.1537" y="72.1742" width="31.875" height="54.1016" style="fill:url(#a650a7cc-baa7-4d87-97f9-4eb4d6d41e4d)"/><path d="M299.8987,129.645a1.0027,1.0027,0,1,1,1.0027-1.0027A1.0027,1.0027,0,0,1,299.8987,129.645Z" style="fill:#fff"/><path d="M285.7508,73.9952h.8258a.3688.3688,0,0,1,.3688.3688v.5266a.3687.3687,0,0,1-.3687.3687h-.8259a.3687.3687,0,0,1-.3687-.3687v-.5267A.3687.3687,0,0,1,285.7508,73.9952Z" style="fill:#fff"/><rect x="289.6466" y="73.9952" width="1.5632" height="1.2641" rx="0.3687" style="fill:#fff"/><rect x="310.2429" y="73.9952" width="1.5632" height="1.2641" rx="0.3687" style="fill:#fff"/><rect x="305.4643" y="73.9952" width="1.5632" height="1.2641" rx="0.3687" style="fill:#fff"/><rect x="313.2371" y="73.9952" width="1.5632" height="1.2641" rx="0.3687" style="fill:#fff"/><rect x="286.4832" y="110.0503" width="26.831" height="6.2588" style="fill:#fff"/><rect x="291.9819" y="111.5465" width="19.0337" height="1.1695" style="fill:#d3e9ff"/><rect x="291.9819" y="113.6838" width="14.955" height="1.1694" style="fill:#d3e9ff"/><path d="M291.0141,113.2a1.734,1.734,0,1,1-1.734-1.7339A1.734,1.734,0,0,1,291.0141,113.2Z" style="fill:#d3e9ff"/><rect x="286.4832" y="100.9511" width="26.831" height="6.2587" style="fill:#fff"/><rect x="291.9819" y="102.4472" width="19.0337" height="1.1695" style="fill:#d3e9ff"/><rect x="291.9819" y="104.5845" width="14.955" height="1.1695" style="fill:#d3e9ff"/><circle cx="289.2801" cy="104.1006" r="1.734" style="fill:#d3e9ff"/><rect x="286.4832" y="91.8518" width="26.831" height="6.2588" style="fill:#fff"/><rect x="291.9819" y="93.348" width="19.0337" height="1.1695" style="fill:#d3e9ff"/><rect x="291.9819" y="95.4853" width="14.955" height="1.1694" style="fill:#d3e9ff"/><circle cx="289.2801" cy="95.0014" r="1.734" style="fill:#d3e9ff"/><path d="M311.8416,87.8549H287.8778a1.6389,1.6389,0,0,1-1.637-1.637V82.9667a1.6389,1.6389,0,0,1,1.637-1.637h23.9638a1.6389,1.6389,0,0,1,1.637,1.637v3.2512A1.6389,1.6389,0,0,1,311.8416,87.8549Zm-23.9638-6.0413a1.154,1.154,0,0,0-1.153,1.1531v3.2512a1.154,1.154,0,0,0,1.153,1.1531h23.9638a1.154,1.154,0,0,0,1.1531-1.1531V82.9667a1.1541,1.1541,0,0,0-1.1531-1.1531Z" style="fill:#fff"/><polygon points="290.167 82.764 290.621 84.161 292.089 84.161 290.901 85.024 291.355 86.42 290.167 85.557 288.979 86.42 289.433 85.024 288.245 84.161 289.713 84.161 290.167 82.764" style="fill:#fff"/><polygon points="294.966 82.764 295.42 84.161 296.888 84.161 295.7 85.024 296.154 86.42 294.966 85.557 293.778 86.42 294.232 85.024 293.044 84.161 294.512 84.161 294.966 82.764" style="fill:#fff"/><polygon points="299.765 82.764 300.218 84.161 301.687 84.161 300.499 85.024 300.953 86.42 299.765 85.557 298.577 86.42 299.03 85.024 297.843 84.161 299.311 84.161 299.765 82.764" style="fill:#fff"/><path d="M305.5461,86.3966l-1.1974-.87-1.1985.87.4584-1.4073-1.1975-.87h1.48l.4575-1.4091.4565,1.4091h1.481l-1.1985.87Zm-2.54-2.084.8289.6029-.3166.9745.83-.603.8288.603-.3166-.9745.83-.6029h-1.0255l-.3165-.9745-.3177.9745Z" style="fill:#fff"/><path d="M310.56,86.3966l-1.1975-.87-1.1985.87.4584-1.4073-1.1975-.87h1.48l.4575-1.4091.4565,1.4091H311.3l-1.1985.87Zm-2.54-2.084.829.6029-.3167.9745.83-.603.8288.603-.3166-.9745.83-.6029h-1.0255l-.3166-.9745-.3176.9745Z" style="fill:#fff"/><path d="M295.5,118.488h8.9518a2.37,2.37,0,0,1,2.37,2.37v.0481a2.37,2.37,0,0,1-2.37,2.37H295.5a2.37,2.37,0,0,1-2.37-2.37v-.0479a2.37,2.37,0,0,1,2.37-2.37Z" style="fill:#fd425f"/><path d="M299.2808,122.0176a.7845.7845,0,0,1-.2825-.0453.4175.4175,0,0,1-.1862-.1343.5565.5565,0,0,1-.1-.2088,1.0989,1.0989,0,0,1-.0321-.2845v-.7514a1.0861,1.0861,0,0,1,.0321-.2835.54.54,0,0,1,.1-.207.42.42,0,0,1,.1862-.1314.7856.7856,0,0,1,.2825-.0444.5727.5727,0,0,1,.4641.1682.7615.7615,0,0,1,.1408.4981v.7514a.7736.7736,0,0,1-.1408.5009A.5675.5675,0,0,1,299.2808,122.0176Zm-.0794-.3147a.1829.1829,0,0,0,.0794.0161.1876.1876,0,0,0,.08-.0161.1282.1282,0,0,0,.0529-.0387.1645.1645,0,0,0,.03-.0615.345.345,0,0,0,.0141-.0728c.0019-.0236.0029-.051.0029-.084v-.9537c0-.0331-.001-.06-.0029-.0841a.3371.3371,0,0,0-.0141-.0719.1608.1608,0,0,0-.03-.0595.1448.1448,0,0,0-.0529-.0378.2033.2033,0,0,0-.08-.0142.1981.1981,0,0,0-.0794.0142.14.14,0,0,0-.0519.0378.1556.1556,0,0,0-.0284.06.3317.3317,0,0,0-.0142.0718c-.0019.0227-.0028.05-.0028.0832v.9537c0,.033.0009.06.0028.084a.3391.3391,0,0,0,.0142.0728.162.162,0,0,0,.0284.0615A.1241.1241,0,0,0,299.2014,121.7029Z" style="fill:#fff"/><path d="M300.157,121.99v-2.0377h.4139v.8544l.37-.8544h.4007l-.3818.9168.41,1.1209h-.4186l-.3223-.9328-.0577.0983v.8345Z" style="fill:#fff"/><path d="M311.5677,83.7543s-.2591,1.4572-.2418,1.4094a4.0754,4.0754,0,0,0-.9817-.2036,7.0275,7.0275,0,0,1-1.078.1577,1.7925,1.7925,0,0,1-.6826-.1818c-.12-.0407-.3422-.2056-.1943-.2882.13-.0726.33.0849.4291.103a1.9069,1.9069,0,0,0,.4175-.051s-.1311-.0287-.384-.0706a4.3267,4.3267,0,0,1-.8621-.19c-.0975-.0624-.1164-.2391.1109-.2457a3.0968,3.0968,0,0,1,.59.0639c.0469.0026.495.0628.495.0628s-.3881-.0584-.5279-.088c-.1567-.0331-.5836-.1016-.8567-.1582-.2635-.0547-.2692-.337-.0453-.37a5.6764,5.6764,0,0,1,.8731.1623c.0929.0092.5117.1012.5117.1012s-.5015-.1075-.5885-.1414-.6345-.1144-.726-.2522a.1476.1476,0,0,1,.1374-.2306,2.7386,2.7386,0,0,1,.6817.0773,6.0122,6.0122,0,0,0,1.0782.19c.1446-.0257.3-.0751.2626-.2568l.1466-.5093s.1836.044.3612.4383A1.4158,1.4158,0,0,0,311.5677,83.7543Z" style="fill:#f88667"/><path d="M327.8052,85.7771a2.3375,2.3375,0,0,0-2.4613-1.766c-1.8664.1239-5.3372.3428-6.4012.3317-1.48-.0154-7.6551-.6727-7.6551-.6727l-.2957,1.6572s6.95,1.77,8.13,1.7689,7.4106.78,8.3894-.1118A1.1981,1.1981,0,0,0,327.8052,85.7771Z" style="fill:#fd425f"/><path d="M327.8052,85.7771a2.3375,2.3375,0,0,0-2.4613-1.766c-1.8664.1239-5.3372.3428-6.4012.3317-1.48-.0154-7.6551-.6727-7.6551-.6727l-.2957,1.6572s6.95,1.77,8.13,1.7689,7.4106.78,8.3894-.1118A1.1981,1.1981,0,0,0,327.8052,85.7771Z" style="fill:#ca0045;opacity:0.32;mix-blend-mode:multiply"/><polygon points="332.113 101.914 331.741 100.8 315.099 100.8 315.453 101.914 332.113 101.914" style="fill:#110239"/><polygon points="334.091 107.847 333.716 106.721 316.984 106.721 317.343 107.847 334.091 107.847" style="fill:#110239"/><polygon points="329.609 95.981 329.238 94.867 312.595 94.867 312.95 95.981 329.609 95.981" style="fill:#110239"/><polygon points="336.09 113.843 335.711 112.706 318.89 112.706 319.252 113.843 336.09 113.843" style="fill:#110239"/><polygon points="338.111 119.905 337.728 118.755 320.816 118.755 321.182 119.905 338.111 119.905" style="fill:#110239"/><polygon points="340.154 126.031 339.766 124.869 322.763 124.869 323.133 126.031 340.154 126.031" style="fill:#110239"/><polygon points="342.219 132.225 341.827 131.05 324.732 131.05 325.106 132.225 342.219 132.225" style="fill:#110239"/><path d="M344.129,141.14h.0783a.77.77,0,0,0,.73-1.0138l-15.63-46.8175a.77.77,0,0,0-.73-.5261H327.501l15.8973,47.83A.77.77,0,0,0,344.129,141.14Z" style="fill:#110239"/><path d="M327.2,141.14h.0853a.77.77,0,0,0,.7335-1.0041L313.0755,93.3183a.77.77,0,0,0-.7335-.5358h-.0163a.77.77,0,0,0-.7339,1.0031l14.8746,46.8175A.77.77,0,0,0,327.2,141.14Z" style="fill:#110239"/><polygon points="342.258 132.299 341.877 131.158 324.823 131.158 325.187 132.299 342.258 132.299" style="fill:#110239"/><polygon points="344.285 138.379 343.9 137.225 326.755 137.225 327.123 138.379 344.285 138.379" style="fill:#110239"/><polygon points="339.693 126.219 339.312 125.078 322.258 125.078 322.621 126.219 339.693 126.219" style="fill:#110239"/><polygon points="346.334 144.523 345.945 143.358 328.708 143.358 329.08 144.523 346.334 144.523" style="fill:#110239"/><polygon points="348.405 150.734 348.012 149.556 330.682 149.556 331.057 150.734 348.405 150.734" style="fill:#110239"/><polygon points="350.498 157.013 350.101 155.821 332.677 155.821 333.057 157.013 350.498 157.013" style="fill:#110239"/><polygon points="352.614 163.36 352.213 162.155 334.694 162.155 335.078 163.36 352.614 163.36" style="fill:#110239"/><path d="M354.5714,172.4948h.08a.7891.7891,0,0,0,.7485-1.0388l-16.0164-47.975a.7887.7887,0,0,0-.7483-.5391h-1.1032l16.29,49.0128A.7891.7891,0,0,0,354.5714,172.4948Z" style="fill:#110239"/><path d="M337.2241,172.4948h.0873a.7889.7889,0,0,0,.7516-1.0289L322.75,123.4909a.789.789,0,0,0-.7517-.549h-.0166a.789.789,0,0,0-.7521,1.0278l15.2424,47.9751A.7889.7889,0,0,0,337.2241,172.4948Z" style="fill:#110239"/><path d="M327.1624,79.1646c-.034.0366-.0649.0751-.1005.1109a6.9924,6.9924,0,0,1-1.056.92c-.2354.1563-.6007.2579-.8027.4219a2.3228,2.3228,0,0,1-.2534.1787,19.432,19.432,0,0,1,.3636,3.0679s2.1072-.1488,2.8756-1.0005A21.3672,21.3672,0,0,1,327.1624,79.1646Z" style="fill:#f88667"/><path d="M326.0323,82.6877a3.055,3.055,0,0,1,.96-1.5886,4.84,4.84,0,0,1,.5049-.3747,10.7622,10.7622,0,0,1-.3346-1.56c-.034.0366-.0649.0751-.1005.1109a6.9924,6.9924,0,0,1-1.056.92c-.2354.1563-.6007.2579-.8027.4219a2.3228,2.3228,0,0,1-.2534.1787,19.432,19.432,0,0,1,.3636,3.0679,8.2822,8.2822,0,0,0,.8381-.1162A1.58,1.58,0,0,1,326.0323,82.6877Z" style="fill:#e45940"/><path d="M325.9956,116.77s-.0578,2.101-.3865,2.388-4.5085.4125-4.8681.0291-.1484-1.0287.7486-1.2777c.9619-.2669,1.4333-.0053,2.036-.2563s.4431-1.2007.4431-1.2007Z" style="fill:#110239"/><path d="M336.3613,116.6982s.3221,2.0465.0048,2.346-4.5748.634-4.9491.2647-.1878-1.0222.6989-1.3056c.9509-.3039,1.4113-.111,2.0247-.3344.4824-.1759.1575-1.1506.1575-1.1506Z" style="fill:#110239"/><path d="M333.2716,104.9189a62.6683,62.6683,0,0,0-.8726-11.6825,5.3309,5.3309,0,0,0-2.0868.4035c-1.276.5809-2.5593,1.1377-3.8408,1.6963A82.6623,82.6623,0,0,1,330.065,105.99c.3415,1.83,4.1661,11.163,4.1661,11.163l2.3139-.2909C336.5076,115.3574,333.2635,105.4234,333.2716,104.9189Z" style="fill:#0400a3"/><path d="M328.5239,94.47a21.3074,21.3074,0,0,1-2.065.84,87.7275,87.7275,0,0,1,3.3047,9.51c.3247-.98,1.8945-3.3488,2.4971-5.9419a13.8368,13.8368,0,0,0,.1948-5.2865l-.0033-.0208A9.9481,9.9481,0,0,0,328.5239,94.47Z" style="fill:#04006c"/><path d="M330.2534,94.1526c-.9017.3044-2.5426.7409-3.782,1.1836-.8631,2.1807-3.4124,7.3285-3.545,9.6558-.1462,2.5683.7427,12.2974.7427,12.2974h2.6485s.2454-10.9664.6164-11.6712c1.223-2.3235,2.5744-4.1651,3.3426-5.611a18.0224,18.0224,0,0,0,1.9525-5.1185c.1-.501.5383-2.1812-.3127-2.7073C331.213,92.3811,331.0086,93.8978,330.2534,94.1526Z" style="fill:#0400a3"/><path d="M325.5067,95.8646a10.77,10.77,0,0,0,4.4148.6879,8.32,8.32,0,0,0,3.41-.6931s-1.0142-7.9054-2.1842-10.3979a5.2264,5.2264,0,0,0-3.0914-2.97,6.5635,6.5635,0,0,1-2.7513.86s.03,4.8572.1245,6.7968S325.5067,95.8646,325.5067,95.8646Z" style="fill:#fd425f"/><path d="M325.4014,89.4392c-.0068-.2134-.0137-.4392-.02-.6787l-.0021-.0871c-.0057-.2283-.011-.4651-.0159-.707l-.0025-.1207c-.0053-.2695-.01-.5432-.0148-.8168l0-.0125a1.5842,1.5842,0,0,0,.2991-.0206,6.8681,6.8681,0,0,0,2.1154-.9779c.1124-.0663.2321-.1213.35-.1792a9.2285,9.2285,0,0,1-.5343,3.1315,17.8483,17.8483,0,0,0-.3812,7.38,11.79,11.79,0,0,1-1.6885-.4862s.0169-3.7763-.0775-5.7158c-.0083-.1718-.016-.3722-.0234-.5844Z" style="fill:#ca0045;opacity:0.32;mix-blend-mode:multiply"/><path d="M327.6393,76.3174s-1.4019-1.5409-2.5268-1.1241-1.8052.8255-1.8251,1.3139a13.2107,13.2107,0,0,1-.069,2.325c-.1581.539-.6142,1.3212-.5393,1.5213s.7527.0745.8141.1466.8613,1.4513,1.1476,1.5341a4.9687,4.9687,0,0,0,2.3753-2.1974C327.16,79.0787,328.0881,77.45,327.6393,76.3174Z" style="fill:#f88667"/><path d="M325.35,77.19a3.0231,3.0231,0,0,0-.3134.2c-.1591.0807-.3279.147-.4883.2266a2.18,2.18,0,0,1-1.0207.3051c-.547-.0145-.5341-.5536-.8668-.83-.1613-.1342-.397-.0633-.5744-.2134a1.2543,1.2543,0,0,1-.3418-.5971c-.1493-.5267.3471-.7286.7191-.9491.4343-.2576.3835-.5265.502-.95.2928-1.0462,1.4449-.062,2.04-.3219.3047-.133.5742-.4385.9331-.3559a2.2656,2.2656,0,0,1,.7961.4709c.2583.19.4115.0351.7113.0563a1.68,1.68,0,0,1,.6842.2575,1.7834,1.7834,0,0,1,.84,1.2548c.0386.4283-.2209.745-.11,1.1754a2.6349,2.6349,0,0,1,.1606,1.112c-.105.52-.62.7385-.8845,1.1506a1.59,1.59,0,0,1-1.161.7793c-.1426-.3035-.2731-.8467-.0416-1.0891a1.8607,1.8607,0,0,0,.3582-.3446.5163.5163,0,0,0-.7209-.69c-.3467.1591-.2136,1.1967-.656,1.1544-.3365-.0324-.1254-.64-.094-.8349.0416-.2577-.0712-.8439-.3415-.9692A.1653.1653,0,0,0,325.35,77.19Z" style="fill:#110239"/><path d="M315.7781,95.9072a1.7619,1.7619,0,0,0-.3106-.0244,1.2579,1.2579,0,0,1-.6806-.0839,2.6418,2.6418,0,0,0-1.1434-.2764c-.1923.034-1.3444.3025-1.0616.7752.0379.0634.1792.1626.22.1474.1181-.0443.45-.1651.45-.1651a2.6008,2.6008,0,0,0-.3066.13c-.0445.0317-.13.07-.1594.1155a.2912.2912,0,0,0,.1333.3435c.0988.0342.1757-.0655.259-.1117l-.0059.0043c-.08.0632-.2531.1074-.1458.35.12.2715.2027.1.3182.0712a.7414.7414,0,0,0,.1241-.0489,2.7155,2.7155,0,0,0-.2382.1309c-.1077.0959.13.416.3442.389.131-.0166.4419-.2053.5156-.1849a1.7286,1.7286,0,0,0,1.0443-.1252c.1081-.0489.3223-.1333.4292-.1907a4.5875,4.5875,0,0,0,.6406-.436C316.0263,96.3791,315.742,96.2929,315.7781,95.9072Z" style="fill:#f88667"/><path d="M316.1784,97.3544l-.93-1.8418a53.0643,53.0643,0,0,0,6.2993-4.6546c1.6863-1.7011,3.51-5.1627,4.7954-5.38s2.5806.4913,1.8355,2.2809-4.5163,4.1619-5.2848,4.95A76.2213,76.2213,0,0,1,316.1784,97.3544Z" style="fill:#fd425f"/><polygon points="310.92 81.482 310.031 83.084 311.28 84.424 309.482 84.074 308.593 85.676 308.371 83.857 306.572 83.507 308.233 82.733 308.011 80.915 309.26 82.255 310.92 81.482" style="fill:#fff"/><rect x="267.9822" y="131.3701" width="64.6801" height="71.5519" style="fill:#e7e7e7"/><rect x="267.9822" y="131.3701" width="64.6801" height="5.6025" style="fill:#fd425f"/><rect x="273.5617" y="142.0232" width="33.2995" height="3.3757" style="fill:#fff"/><rect x="273.5617" y="148.5195" width="33.2995" height="3.3758" style="fill:#fff"/><rect x="273.5617" y="162.7336" width="33.2995" height="3.3757" style="fill:#fff"/><rect x="273.5617" y="169.2299" width="33.2995" height="3.3757" style="fill:#fff"/><rect x="312.6079" y="140.0982" width="14.1104" height="14.1104" style="fill:#fff"/><path d="M319.36,147.8044c-.1594-.0042-2.2483-4.8362-2.71-4.6822-.65.2165-1.6047.49-1.648,1.23s3.5816,7.1119,4.188,7.1119c1.2756,0,6.63-7.0688,6.1971-7.87s-1.8122-1.36-2.1154-1.0565C323.048,142.7615,319.4976,147.808,319.36,147.8044Z" style="fill:#01d9cf"/><rect x="312.6079" y="160.4254" width="14.1104" height="14.1104" style="fill:#fff"/><path d="M319.36,168.1315c-.1594-.0042-2.2483-4.8362-2.71-4.6821-.65.2164-1.6047.49-1.648,1.23s3.5816,7.1118,4.188,7.1118c1.2756,0,6.63-7.0688,6.1971-7.87s-1.8122-1.36-2.1154-1.0565C323.048,163.0886,319.4976,168.1351,319.36,168.1315Z" style="fill:#01d9cf"/><rect x="273.5617" y="183.6704" width="33.2995" height="3.3758" style="fill:#fff"/><rect x="273.5617" y="190.1667" width="33.2995" height="3.3757" style="fill:#fff"/><rect x="312.6079" y="181.3622" width="14.1104" height="14.1104" style="fill:#fff"/><path d="M319.36,189.0684c-.1594-.0042-2.2483-4.8363-2.71-4.6822-.65.2165-1.6047.49-1.648,1.23s3.5816,7.1118,4.188,7.1118c1.2756,0,6.63-7.0687,6.1971-7.87s-1.8122-1.36-2.1154-1.0565C323.048,184.0254,319.4976,189.0719,319.36,189.0684Z" style="fill:#01d9cf"/><path d="M183.0253,173.4319c-8.494-2.1774-14.69-4.1227-15.2464-17.067-.2648-6.1553,1.2536-10.6714,5.0446-14.9716,3.0749-3.4878,4.6915-4.8567,5.0411-9.9347.53-7.7044-2.473-13.5036.0781-20.8534,2.7254-7.8516,11.0686-8.3571,13.8676-15.719,2.4218-6.37,2.9691-13.1023,10.1043-16.5173,6.319-3.0243,11.1949,2.045,9.8132,8.1606-.8026,3.5535-3.1663,6.8671-3.4595,10.56-.2883,3.63,1.7764,5.78,3.8812,8.4055,5.0014,6.2388,8.2831,14.1593,1.613,22.2762-3.9838,4.8477-6.9683,8.9648-3.6238,15.4481,3.8184,7.4025,5.8961,11.9761-.1257,19.8893-4.5145,5.9329-9.4864,6.265-15.3508,7.5472-5.2827,1.1549-11.8719,4.459-16.7537,1.5686Z" style="fill:#8494ab"/><path d="M187.6435,164.3323a7.4558,7.4558,0,0,1-.7609.0759.6128.6128,0,0,1-.6385-.58.5791.5791,0,0,1,.58-.6385c4.0191-.1754,7.5627-4.3973,9.3477-7.9408,1.4254-2.83.9188-5.1126.2754-8l-.5148-2.3845c-1.3322-6.24-2.481-11.6265,1.6655-17.2961,4.5889-6.28,5.4085-9.8591,3.9893-17.4144-.1142-.6156-.25-1.2618-.3881-1.9247a31.9393,31.9393,0,0,1-.9575-7.5739,16.3351,16.3351,0,0,1,.8866-3.9646,11.3293,11.3293,0,0,0,.7978-4.7814.6087.6087,0,0,1,.513-.686l.007-.001a.6091.6091,0,0,1,.6871.52,12.34,12.34,0,0,1-.8435,5.3105,15.3121,15.3121,0,0,0-.8306,3.6648,30.8591,30.8591,0,0,0,.9348,7.2621c.1395.6723.2743,1.3282.392,1.9508,1.4787,7.8709.5745,11.8164-4.2039,18.356-3.8252,5.2292-2.7813,10.1262-1.4579,16.324l.5106,2.373c.67,3.0014,1.2474,5.5932-.3744,8.8138C195.3491,159.5886,191.8633,163.6982,187.6435,164.3323Z" style="fill:#fff"/><path d="M198.8424,145.5564a3.28,3.28,0,0,1-2.7-.9253.61.61,0,0,1,.8006-.9193,1.9606,1.9606,0,0,0,2.15.5168c2.4257-1.0094,4.3746-6.8421,4.5147-8.9352.4144-6.18,1.53-9.4689,7.0436-12.6077a.6094.6094,0,0,1,.6021,1.06c-5.2962,3.0148-6.0538,5.9974-6.43,11.63-.124,1.8645-2.0083,8.6236-5.26,9.9788A3.1193,3.1193,0,0,1,198.8424,145.5564Z" style="fill:#fff"/><path d="M162.055,180.5842c-6.2636,6.7419-13.9915,12.9106-24.72,5.1454-5.3986-3.9071-5.6584-9.4731-5.97-16.2394-.2424-5.2755.015-7.6474-3.8918-11.5731-6.0789-6.108-16.6317-5.1955-20.6845-13.017-4.3016-8.3013,6.4471-16.7551,2.938-24.0658-3.0087-6.2679-8.3325-12.0369-3.7723-17.4826,3.6829-4.3977,11.873-1.9677,15.22,2.9623,1.9352,2.85,2.4622,6.1013,4.9047,8.86,2.3722,2.6789,5.3911,3.3205,8.641,4.24,7.2223,2.0438,13.8827,5.6223,15.1213,13.498.7732,4.917,1.67,9.0059,7.2944,11.0288,5.9649,2.1455,9.3155,3.5415,11.135,11.2107,1.42,5.9852-.4493,9.47-2.2842,14.378-1.7753,4.7486-2.9594,12.2344-7.5273,15.0641Z" style="fill:#0400a3"/><path d="M162.1579,177.1877a9.1148,9.1148,0,0,1-3.8583-.7629c-5.1889-2.28-8.0533-9.1332-10.5535-15.1155a42.3324,42.3324,0,0,0-3.638-7.4686c-3.3644-4.75-6.88-7.8628-12.96-11.4964-7.0643-4.2167-8.8986-7.4533-10.5195-14.409-1.3163-5.6247-2.9573-11.2341-6.0716-14.5005a.5162.5162,0,0,1,.0892-.8109.7643.7643,0,0,1,.954.0949c3.313,3.463,5.0176,9.2385,6.3761,15.015,1.57,6.6988,3.2254,9.6179,9.9276,13.6173,5.16,3.0779,9.4183,6.2765,13.3888,11.8689a43.114,43.114,0,0,1,3.7825,7.7044c2.4061,5.7418,5.161,12.3167,9.7946,14.3488a8.2153,8.2153,0,0,0,5.9623.1473.8007.8007,0,0,1,.9407.4018.5905.5905,0,0,1-.39.8189A11.5191,11.5191,0,0,1,162.1579,177.1877Z" style="fill:#fff"/><path d="M137.8679,146.62a.8.8,0,0,1-.4379-.1189.5807.5807,0,0,1-.187-.8589c1.8792-2.3538.3659-5.9933-1.2262-9.8224-1.3773-3.3139-2.7921-6.72-1.9827-9.5131a.6765.6765,0,0,1,.831-.4044.6127.6127,0,0,1,.5028.7315c-.7041,2.4462.6429,5.6781,1.9523,8.8185,1.6456,3.9491,3.3615,8.0577,1.0846,10.9208A.7046.7046,0,0,1,137.8679,146.62Z" style="fill:#fff"/><path d="M145.5057,154.826a.8247.8247,0,0,1-.2619-.0388,17.9273,17.9273,0,0,1-2.6036-1.1118,9.1381,9.1381,0,0,0-4.0489-1.2283,20.0782,20.0782,0,0,0-2.5773.1073,11.2923,11.2923,0,0,1-5.7213-.6076,32.2157,32.2157,0,0,1-9.948-7.1446c-.4794-.4756-1.091-1.2273-1.74-2.0226-.93-1.1381-2.6522-3.2514-3.2636-3.3751a.6524.6524,0,0,1-.5715-.7057.6426.6426,0,0,1,.7436-.4881c1.0887.1379,2.3186,1.5573,4.2171,3.8824.6257.7661,1.22,1.4911,1.6474,1.9171,2.2963,2.2757,5.812,5.3154,9.4726,6.82a9.5722,9.5722,0,0,0,4.973.4915,22.017,22.017,0,0,1,2.7721-.1082,10.6732,10.6732,0,0,1,4.6919,1.3881,16.4829,16.4829,0,0,0,2.3831,1.0212.635.635,0,0,1,.4586.7979A.66.66,0,0,1,145.5057,154.826Z" style="fill:#fff"/><path d="M163.7447,177.49c-9.632-5.9249-20.5228-9.2464-20.2848-23.33.1973-11.6609,12.8749-16.5525,6.9217-28.1767-3.8029-7.4253-11.9457-15.4291-10.9461-24.5044,1.0681-9.6965,13.7967-7.7955,15.1061-16.8867,1.1058-7.6775-7.9219-15.019-1.9324-22.0678,5.28-6.2143,16.8018-2.8026,20.9836,2.7947,5.34,7.1484-.6882,13.9611,1.5886,21.3708,1.473,4.7938,6.2792,4.8,10.1483,7.1115,3.7418,2.235,7.962,5.9659,10.0213,9.8473,6.33,11.9289-5.6511,18.4036-8.0354,28.6895-2.2475,9.6968,10.5343,10.6756,12.8528,19.7629,2.5589,10.03-7.1337,19.7095-15.6526,22.6881C178.6316,176.8463,169.8331,181.2356,163.7447,177.49Z" style="fill:#b3b2da"/><path d="M174.0234,178.9774a.5507.5507,0,0,1-.1757,0,.6059.6059,0,0,1-.5171-.6877c.0332-.2433,3.3383-24.6445-6.1929-48.6425-6.0374-15.1928-4.3716-26.7058-3.033-35.9582.7972-5.5056,1.4835-10.2582.1329-14.1707a.612.612,0,0,1,.3767-.776.6029.6029,0,0,1,.7762.3765c1.4459,4.1941.7388,9.0822-.08,14.7453-1.3171,9.107-2.9589,20.4433,2.9584,35.334,9.6569,24.3065,6.302,49.0159,6.2668,49.2619A.61.61,0,0,1,174.0234,178.9774Z" style="fill:#fff"/><path d="M168.1217,129.34a.609.609,0,0,1-.27-1.1843c4.8822-1.5111,9.9055-6.9346,9.5985-12.5969-.0365-.6757-.1016-1.4143-.17-2.1884-.3291-3.6954-.7358-8.2909,1.597-10.8963a6.6643,6.6643,0,0,1,5.0075-1.99.6084.6084,0,0,1,.6236.5946.6174.6174,0,0,1-.5945.6236,5.408,5.408,0,0,0-4.13,1.5832c-1.9777,2.213-1.5958,6.5162-1.29,9.9765.07.7886.1353,1.5416.1737,2.229.3486,6.4358-5.1571,12.1893-10.4578,13.8282A.5862.5862,0,0,1,168.1217,129.34Z" style="fill:#fff"/><path d="M164.508,130.0491a9.1967,9.1967,0,0,1-6.2762-1.2255c-2.7555-1.7639-4.5378-5.297-5.1529-10.2183-.06-.484-.1167-1.05-.1773-1.6686-.3487-3.5014-.8736-8.7935-3.3946-10.8315a3.8619,3.8619,0,0,0-3.0092-.7989.6093.6093,0,0,1-.1439-1.21l.007-.0008a5.0947,5.0947,0,0,1,3.9126,1.0627c2.916,2.3578,3.4718,7.9556,3.8387,11.6583.0613.6064.1163,1.1607.1759,1.6377.5687,4.5507,2.16,7.7814,4.6022,9.3445,2.0959,1.34,4.85,1.4805,8.1721.4275a.6016.6016,0,0,1,.7665.3957.6126.6126,0,0,1-.3959.7667A16.4283,16.4283,0,0,1,164.508,130.0491Z" style="fill:#fff"/><path d="M177.5284,168.35a5.7827,5.7827,0,0,1-2.2509-.0853.6095.6095,0,1,1,.289-1.1842c3.8475.94,8.7856-3.977,10.4741-6.9935a16.8877,16.8877,0,0,0,1.3484-5.04c.594-3.4632,1.2061-7.0449,4.152-8.26a.5888.5888,0,0,1,.7952.328.606.606,0,0,1-.328.7953c-2.3248.9607-2.8791,4.2062-3.4164,7.3408a17.6335,17.6335,0,0,1-1.4892,5.4317C185.5892,163.3921,181.5764,167.7421,177.5284,168.35Z" style="fill:#fff"/><path d="M172.1319,168.9206a7.1717,7.1717,0,0,1-2.3967-.0635c-4.6514-.8772-9.1675-5.8034-11.0672-8.8993-1.0111-1.6529-1.4778-4.1482-1.9731-6.7885-.7829-4.1853-1.5917-8.5111-4.56-9.4776a.61.61,0,0,1,.38-1.1594c3.6539,1.191,4.5707,6.09,5.3791,10.4136.4713,2.5283.9193,4.9157,1.8147,6.3743,1.7178,2.8006,6.0208,7.54,10.2535,8.3382a5.3526,5.3526,0,0,0,4.3982-.9834.61.61,0,1,1,.7382.9721A6.4652,6.4652,0,0,1,172.1319,168.9206Z" style="fill:#fff"/><path d="M358.454,207.6625c6.6365-1.9557,11.9255-3.7086,11.4771-10.9662-.232-3.7578-2.1222-6.2608-6.241-8.1275-3.3139-1.5016-4.9862-1.9861-5.9857-5.2448-1.597-5.2078.5028-10.5789-3.22-15.464-4.1328-5.424-12.1086-2.2408-16.2813-7.0756-3.7246-4.3157-6.0446-10.09-13.0274-9.4179-5.82.56-7.6528,7.0316-4.8076,11.1937,1.6052,2.3487,4.2081,3.9,5.4279,6.4617,1.1657,2.4479.29,4.5735-.4552,6.9293-1.6415,5.1916-1.7063,10.43,4.2108,13.4573,3.56,1.8212,6.3334,3.4468,5.4191,7.2793-.9585,4.019-1.3467,6.3006,3.6029,9.0761,3.722,2.0871,6.9472,1.7734,11.0646,1.7791,3.8835.0054,9.178.8716,12.7388-.9834Z" style="fill:#8494ab"/><path d="M356.24,207.0323a5.248,5.248,0,0,0,1.0482-2.2335c.6081-3.2908-2.7272-6.3991-5.7382-9.2047a22.9524,22.9524,0,0,1-3.6769-3.9255c-1.9654-3.1878-2.713-6.0858-2.736-10.6958-.0239-5.471-1.6468-7.6035-6.2973-10.9-3.8987-2.7692-7.7636-5.8324-9.0453-9.0445a.5681.5681,0,0,0-.7345-.2547.5188.5188,0,0,0-.375.6477c1.3671,3.4141,5.3616,6.5708,9.38,9.409,4.4958,3.17,5.97,5.0935,6.0037,10.2937a19.5352,19.5352,0,0,0,2.86,11.0619,23.3693,23.3693,0,0,0,3.8041,4.06c2.9045,2.6913,6.1251,5.6751,5.5831,8.6194a5.5663,5.5663,0,0,1-2.2935,3.251c-.2164.1782-.2741.4388-.114.5885a.5549.5549,0,0,0,.69-.0466A9.428,9.428,0,0,0,356.24,207.0323Z" style="fill:#fff"/><path d="M345.3527,186.1348a.4527.4527,0,0,0,.1027-.2881.4264.4264,0,0,0-.5473-.35c-2.5584.4373-4.6308-1.4971-6.8575-3.5756-1.967-1.8355-4.0284-3.7583-6.6544-4.15a.6711.6711,0,0,0-.712.3833.4037.4037,0,0,0,.3662.5426c2.3.3394,4.2618,2.16,6.133,3.8966,2.3064,2.14,4.65,4.3186,7.7564,3.7849A.6793.6793,0,0,0,345.3527,186.1348Z" style="fill:#fff"/><path d="M347.9783,192.718a.5057.5057,0,0,0,.0834-.1591,8.9935,8.9935,0,0,0,.3171-1.7713,4.9877,4.9877,0,0,1,.8517-2.6405,14.5444,14.5444,0,0,1,1.1727-1.4467,7.29,7.29,0,0,0,2.0095-3.4456,16.2915,16.2915,0,0,0-.7762-7.87,15.9692,15.9692,0,0,0-.6956-1.652c-.4161-.909-1.1983-2.6093-1.0191-3.012a.4.4,0,0,0-.2646-.5711.6156.6156,0,0,0-.6876.2807c-.38.6926.12,1.884.9823,3.7471a16.0107,16.0107,0,0,1,.6666,1.5661,16.2339,16.2339,0,0,1,.7721,7.5156,6.1982,6.1982,0,0,1-1.777,2.9946,15.9269,15.9269,0,0,0-1.2609,1.5631,5.8392,5.8392,0,0,0-1.0117,3.0607,8.2443,8.2443,0,0,1-.2859,1.6272.3618.3618,0,0,0,.3723.4653A.6742.6742,0,0,0,347.9783,192.718Z" style="fill:#fff"/><path d="M354.0661,207.1784a5.1724,5.1724,0,0,0,1.8164.6882.52.52,0,0,0,.6061-.4049.5.5,0,0,0-.424-.5814c-3.3971-.5906-5.6425-6.0388-5.9283-8.9134a12.72,12.72,0,0,1,.7254-4.229c.7617-2.7474,1.5429-5.5581-.3944-7.5972a.5642.5642,0,0,0-.765-.0861.4646.4646,0,0,0-.0209.7023c1.54,1.6157.823,4.1752.1252,6.672a13.2881,13.2881,0,0,0-.7629,4.5906C349.2984,200.6116,351.01,205.3339,354.0661,207.1784Z" style="fill:#fff"/><path d="M128.9564,240.204c-7.16-2.11-12.8658-4.0012-12.3821-11.831.25-4.0541,2.29-6.7545,6.7332-8.7684,3.5752-1.62,5.3794-2.1427,6.4577-5.6584,1.7229-5.6184-.5424-11.413,3.4734-16.6833,4.4586-5.8517,13.0634-2.4176,17.5651-7.6336,4.0182-4.6561,6.5212-10.8853,14.0547-10.1605,6.2783.6042,8.2562,7.586,5.1866,12.0764-1.7318,2.5338-4.54,4.2073-5.8559,6.9712-1.2576,2.6409-.3124,4.9341.4911,7.4757,1.7709,5.6009,1.8408,11.2524-4.5428,14.5185-3.84,1.9647-6.8328,3.7185-5.8464,7.8532,1.034,4.3359,1.4529,6.7975-3.8871,9.7918-4.0154,2.2517-7.495,1.9133-11.9371,1.9194-4.19.0058-9.9016.94-13.7432-1.0609Z" style="fill:#8494ab"/><path d="M131.6453,236.2861a5.248,5.248,0,0,1-1.0482-2.2335c-.6081-3.2908,2.7273-6.399,5.7382-9.2047a22.9575,22.9575,0,0,0,3.677-3.9255c1.9653-3.1878,2.7129-6.0858,2.7359-10.6958.0239-5.471,1.6468-7.6035,6.2973-10.9,3.8987-2.7692,7.7637-5.8324,9.0453-9.0445a.5681.5681,0,0,1,.7345-.2547.5188.5188,0,0,1,.375.6477c-1.3671,3.4141-5.3616,6.5708-9.38,9.409-4.4957,3.17-5.97,5.0935-6.0037,10.2937a19.5344,19.5344,0,0,1-2.86,11.0619,23.3693,23.3693,0,0,1-3.8041,4.06c-2.9045,2.6913-6.1251,5.6751-5.5831,8.6194a5.5668,5.5668,0,0,0,2.2935,3.251c.2164.1782.2741.4388.114.5885a.5549.5549,0,0,1-.69-.0466A9.428,9.428,0,0,1,131.6453,236.2861Z" style="fill:#fff"/><path d="M142.5325,215.3886a.4526.4526,0,0,1-.1027-.288.4264.4264,0,0,1,.5473-.35c2.5584.4373,4.6308-1.4971,6.8575-3.5756,1.967-1.8355,4.0284-3.7583,6.6544-4.15a.6709.6709,0,0,1,.712.3832.4037.4037,0,0,1-.3662.5426c-2.3.3394-4.2618,2.16-6.133,3.8967-2.3064,2.14-4.65,4.3185-7.7563,3.7848A.6792.6792,0,0,1,142.5325,215.3886Z" style="fill:#fff"/><path d="M139.9069,221.9718a.5039.5039,0,0,1-.0833-.159,8.9809,8.9809,0,0,1-.3171-1.7714,4.989,4.989,0,0,0-.8518-2.6405,14.5444,14.5444,0,0,0-1.1727-1.4467,7.29,7.29,0,0,1-2.0094-3.4456,16.29,16.29,0,0,1,.7761-7.87,15.96,15.96,0,0,1,.6956-1.6519c.4161-.9091,1.1983-2.6093,1.0191-3.0121a.4.4,0,0,1,.2646-.5711.6156.6156,0,0,1,.6876.2807c.38.6926-.12,1.884-.9823,3.7471a16.0107,16.0107,0,0,0-.6666,1.5661,16.2353,16.2353,0,0,0-.7721,7.5156,6.2,6.2,0,0,0,1.777,2.9946,15.9392,15.9392,0,0,1,1.261,1.5631,5.8389,5.8389,0,0,1,1.0116,3.0607,8.2443,8.2443,0,0,0,.2859,1.6272.3617.3617,0,0,1-.3723.4653A.6742.6742,0,0,1,139.9069,221.9718Z" style="fill:#fff"/><path d="M126.2085,247.7166c-8.8754-1.612-17.1852-.9287-20.7777-10.6445-2.8427-7.6884,3.7849-14.9334-2.8851-20.2172C98.5318,213.6754,92.2,211.7681,90.8,206.3323c-1.4584-5.6623,5.7863-9.2511,4.484-14.6836-1.0763-4.49-7.3072-4.7884-5.6813-10.6353a7.4851,7.4851,0,0,1,9.6322-5.4584c4.8493,1.3846,5.2515,5.822,8.47,8.9021,2.1479,2.0558,5.1909-.01,8.3431-.3889,3.1392-.3779,7.1582-.0982,9.8169,1.2867,8.6352,4.4974,1.7151,14.0238,3.2834,21.7776,1.5164,7.4967,12.0713,2.9654,17.5249,8.5962,6.3694,6.5765,1.564,17.9493-4.7124,23.3171C137.7788,242.6217,132.2065,248.8062,126.2085,247.7166Z" style="fill:#b3b2da"/><path d="M134.7741,245.7582a.4848.4848,0,0,1-.1424.0546.56.56,0,0,1-.6631-.3777c-.06-.2-5.8348-19.5027-19.8967-32.2149-7.917-7.1541-9.7989-14.5451-11.2694-20.3205-.8576-3.37-1.589-6.2387-3.2735-7.7911a.4277.4277,0,0,1,.0339-.5667.3708.3708,0,0,1,.5274-.1165c1.8163,1.6626,2.5747,4.62,3.4659,8.0938,1.4618,5.6986,3.3312,12.9923,11.1415,19.9962,14.3439,12.8653,20.2467,32.4736,20.3064,32.6774A.4867.4867,0,0,1,134.7741,245.7582Z" style="fill:#fff"/><path d="M114.64,212.6608a.4215.4215,0,0,1-.5665-.0211.461.461,0,0,1,.0537-.6335c2.8449-2.8043,4.6937-8.2106,2.84-11.6165-.2183-.4014-.4731-.8286-.7394-1.2749-1.2613-2.11-2.8015-4.69-2-7.2027a6.5831,6.5831,0,0,1,2.7478-3.3146.39.39,0,0,1,.5869.0795.5232.5232,0,0,1-.22.6273,5.3467,5.3467,0,0,0-2.2949,2.7049c-.6825,2.1419.7743,4.5638,1.9638,6.5435.274.4548.5348.8916.76,1.3,2.127,3.8834.0308,9.7136-3.0782,12.7624A.5085.5085,0,0,1,114.64,212.6608Z" style="fill:#fff"/><path d="M112.4507,214.4369a6.79,6.79,0,0,1-4.3606,1.4654c-2.1762-.1358-4.16-1.6881-5.7457-4.4487-.1542-.2685-.3256-.587-.5119-.9343-1.05-1.9486-2.6073-4.8439-4.5142-5.11a2.4161,2.4161,0,0,0-1.863.6126.3151.3151,0,0,1-.4922-.0668.476.476,0,0,1,.1427-.5669l.0037-.0029a3.1855,3.1855,0,0,1,2.4245-.7907c2.2127.2993,3.8708,3.3609,4.9875,5.4239.1852.34.3542.6525.5073.9174,1.4762,2.5534,3.2742,3.9808,5.2067,4.0929,1.6876.0972,3.5025-.8029,5.3886-2.6855a.4257.4257,0,0,1,.6185-.0322.462.462,0,0,1-.0474.6352A14.1008,14.1008,0,0,1,112.4507,214.4369Z" style="fill:#fff"/><path d="M133.8191,236.4322a5.1724,5.1724,0,0,1-1.8164.6882.52.52,0,0,1-.6061-.4049.5006.5006,0,0,1,.424-.5814c3.3971-.5906,5.6425-6.0388,5.9283-8.9134a12.72,12.72,0,0,0-.7254-4.229c-.7617-2.7474-1.5429-5.558.3944-7.5972a.5642.5642,0,0,1,.765-.0861.4646.4646,0,0,1,.0209.7023c-1.54,1.6157-.823,4.1752-.1252,6.672a13.2881,13.2881,0,0,1,.7629,4.5906C138.5868,229.8654,136.8756,234.5877,133.8191,236.4322Z" style="fill:#fff"/><path d="M129.77,238.6459a6.0916,6.0916,0,0,1-1.864.7251c-3.7809.8213-8.5863-1.3407-10.8464-2.9425a15.7369,15.7369,0,0,1-3.3155-4.0823c-1.6984-2.5831-3.4184-5.2-5.586-4.87a.3957.3957,0,0,1-.4514-.3763.48.48,0,0,1,.3851-.5034c2.6711-.4161,4.63,2.5435,6.3964,5.2135a15.1454,15.1454,0,0,0,3.1059,3.8432c2.051,1.4423,6.65,3.5141,10.0863,2.7533a4.4967,4.4967,0,0,0,3.0563-2.1732.5407.5407,0,0,1,.7086-.1979.49.49,0,0,1,.2029.68A5.3813,5.3813,0,0,1,129.77,238.6459Z" style="fill:#fff"/><path d="M1.1114,252.0721A88.6674,88.6674,0,0,0,3.837,291.5794H412a3.9238,3.9238,0,0,0,3.4264-3.67V238.1831H6.1924A38.2389,38.2389,0,0,0,1.1114,252.0721Z" style="fill:#fd425f"/><polygon points="209.086 234.542 181.952 234.542 184.182 201.832 206.856 201.832 209.086 234.542" style="fill:#1b0c41"/><path d="M186.5861,226.4123c6.7863-2.2525,14.8092-3.87,21.4575-7.1585l-1.1879-17.4216H184.1819l-1.7684,25.9366C183.8129,227.3183,185.2084,226.87,186.5861,226.4123Z" style="fill:#060d24"/><path d="M212.642,229.305a1.7733,1.7733,0,0,0-1.473-.7861h-31.3a1.7737,1.7737,0,0,0-1.4731.7861l-4.1,6.1168a1.7732,1.7732,0,0,0,1.473,2.7606h39.4995a1.7734,1.7734,0,0,0,1.4732-2.7606Z" style="fill:#1b0c41"/><path d="M129.0816,111.2192H261.9562a7.6363,7.6363,0,0,1,7.6363,7.6363V202.892a7.6363,7.6363,0,0,1-7.6363,7.6363H129.0816a7.6364,7.6364,0,0,1-7.6364-7.6364V118.8556A7.6364,7.6364,0,0,1,129.0816,111.2192Z" style="fill:#1b0c41"/><rect x="128.2659" y="117.7986" width="134.5056" height="85.1221" style="fill:url(#ee063550-01f1-41a4-8f67-db53679eab20)"/><rect x="160.248" y="126.9471" width="64.9584" height="46.5275" style="fill:#1b0c41"/><rect x="163.1254" y="136.8971" width="59.2035" height="32.3717" style="fill:#01d9cf"/><path d="M218.9687,159.9259c-2.8975.7312-6.0165,2.1873-9.0658,2.0919a27.58,27.58,0,0,1-9.3107-1.9624c-4.6016-1.7527-7.2122-2.3694-11.8826.1672-5.1849,2.8159-9.8525,4.8825-15.69,2.9628-3.5235-1.1586-5.8139-3.4589-9.8065-3.5648-.0294-.0007-.0582,0-.0875-.0009v9.6491h59.2035v-9.1873A6.0664,6.0664,0,0,0,218.9687,159.9259Z" style="fill:#01d9cf"/><path d="M165.9188,148.9216c.4929,1.0355-.0236,2.4076.2747,3.5013.7743,2.8375,4.1758.048,5.8993.3536,2.0875.37,2.5473,3.25,3.9094,4.5051,1.8905,1.7421,3.5881-.8756,5.0579-1.8415,1.1285-.7414,2.166-.5,3.414-.816a8.3477,8.3477,0,0,0,3.6739-2.5782c1.6147-1.6958,2.6383-3.0711,5.1864-3.0219,1.2217.0237,2.4457.33,3.6569.4535,1.1914.1214,2.73-.1042,3.7634.6346,1.14.8152.9548,2.055,1.1931,3.2762.636,3.2582,3.5147,1.982,5.6318,1.28,2.88-.9555,3.9513,2.81,6.57,2.55,1.6486-.1637,1.6268-1.4747,2.1847-2.6372.4456-.9285,1.5973-1.8413,2.6163-1.0789.7667.5736.644,1.5113,1.844,1.5416a1.6777,1.6777,0,0,0,1.5342-.8947v-3.1663l0-.0033c-.04-1.3425,0-2.6928,0-4.0361V136.8971H163.1254v11.254C163.1254,147.8371,165.5547,148.1568,165.9188,148.9216Z" style="fill:#dbdbdb"/><path d="M203.483,164.0861a.5119.5119,0,0,0-.0969.2061C203.3861,164.3665,203.4215,164.2846,203.483,164.0861Z" style="fill:#dbdbdb"/><path d="M177.8792,143.7619c4.1544,3.65,7.3456,16.3078,13.2181,13.9373,3.3208-1.34,14.9206-13.9478,18.5231-14.297,2.995-.29,4.7876.9083,7.3734,2.7544a56.7037,56.7037,0,0,1,5.3351,4.6383V134.32H163.1254v12.2235C169.1938,141.9365,171.8049,138.4247,177.8792,143.7619Z" style="fill:#fff"/><path d="M195.8416,146.5365a3.7317,3.7317,0,1,1-3.7316-3.7315A3.7315,3.7315,0,0,1,195.8416,146.5365Z" style="fill:#fff"/><path d="M177.8049,140.6879c2.3935,0,4.8253.1271,7.2151,0,.8932-.0474,2.9-.3922,2.47-1.8037-.3919-1.2869-2.2812-.5635-2.6389.372-.1262-2.8384-4.0628-2.4054-2.8817-.0233-.4961-.5012-1.3655-1.3989-2.1762-1.1129a.8917.8917,0,0,0-.2183,1.6066c-.4085-.4829-1.6278-1.0507-2.2259-.5363A.8184.8184,0,0,0,177.8049,140.6879Z" style="fill:url(#a511578f-c7b3-44c3-b537-5167d32b7b85)"/><path d="M208.6457,140.4152c2.0035,0,4.039.1063,6.04,0,.7475-.04,2.4277-.3283,2.0679-1.51-.328-1.0772-1.9095-.4718-2.2089.3115-.1057-2.376-3.4009-2.0136-2.4121-.02-.4154-.42-1.1431-1.1709-1.8217-.9316a.7463.7463,0,0,0-.1826,1.3448c-.342-.4043-1.3627-.8794-1.8633-.4489A.685.685,0,0,0,208.6457,140.4152Z" style="fill:url(#a298df5f-f8f9-48f6-9b35-540703147b44)"/><path d="M201.1292,142.9963c1.5833,0,3.1921.0839,4.773,0,.5908-.0315,1.9187-.26,1.6344-1.1933-.2592-.8513-1.5092-.3727-1.7458.2462-.0834-1.8777-2.6877-1.5914-1.9064-.0155-.3282-.3315-.9034-.9254-1.44-.7362A.59.59,0,0,0,202.3,142.36c-.27-.3194-1.0769-.6951-1.4725-.3547A.5414.5414,0,0,0,201.1292,142.9963Z" style="fill:url(#a3b44203-2afc-43f4-a594-b189ed09021c)"/><path d="M164.8958,129.5536a1.3586,1.3586,0,1,0,1.3585,1.3585A1.3586,1.3586,0,0,0,164.8958,129.5536Z" style="fill:#fff"/><path d="M169.4605,129.5536a1.3586,1.3586,0,1,0,1.3585,1.3585A1.3585,1.3585,0,0,0,169.4605,129.5536Z" style="fill:#fff"/><path d="M174.0252,129.5536a1.3586,1.3586,0,1,0,1.3585,1.3585A1.3585,1.3585,0,0,0,174.0252,129.5536Z" style="fill:#fff"/><path d="M220.97,129.5536a1.3586,1.3586,0,1,0,1.3585,1.3585A1.3585,1.3585,0,0,0,220.97,129.5536Z" style="fill:#fff"/><path d="M172.0621,125.3519a3.2726,3.2726,0,0,0-1.7651.6084,6.9719,6.9719,0,0,1-1.5543.5737,5.855,5.855,0,0,1,.1141.9173c-.0007-.0145.8667-.1515.9575-.18.2932-.0928.5207-.3214.857-.2324a2.4481,2.4481,0,0,1,.4572.2268c.177.0951.6085.5266.8225.4435.3217-.1249-.2025-.4944-.2611-.5979-.0871-.1539-.0528-.4342.183-.3721.3247.0856.88.4725,1.2285.311.4392-.2032-.9278-.5949-1.1608-.7429.37.19,1.5888.5609,1.6878.3477.19-.41-1.1007-.6252-1.4568-.8018a1.7507,1.7507,0,0,0,1.0176.2162C173.6475,125.9114,172.3251,125.463,172.0621,125.3519Z" style="fill:#f88667"/><path d="M155.7274,136.2163a2.4339,2.4339,0,0,0,3.1514-.1371c1.4488-1.3019,4.15-3.7136,5.0286-4.389,1.2216-.9391,6.7014-4.373,6.7014-4.373l-.8238-1.5473s-6.83,3.0207-7.795,3.7806-6.57,4.1276-6.798,5.4877A1.2473,1.2473,0,0,0,155.7274,136.2163Z" style="fill:#fd425f"/><path d="M155.7274,136.2163a2.4339,2.4339,0,0,0,3.1514-.1371c1.4488-1.3019,4.15-3.7136,5.0286-4.389,1.2216-.9391,6.7014-4.373,6.7014-4.373l-.8238-1.5473s-6.83,3.0207-7.795,3.7806-6.57,4.1276-6.798,5.4877A1.2473,1.2473,0,0,0,155.7274,136.2163Z" style="fill:#ca0045;opacity:0.32;mix-blend-mode:multiply"/><polygon points="151.561 153.201 151.947 152.041 169.278 152.041 168.908 153.201 151.561 153.201" style="fill:#110239"/><polygon points="149.501 159.378 149.892 158.206 167.314 158.206 166.941 159.378 149.501 159.378" style="fill:#110239"/><polygon points="154.167 147.023 154.554 145.863 171.884 145.863 171.515 147.023 154.167 147.023" style="fill:#110239"/><polygon points="147.419 165.623 147.814 164.438 165.33 164.438 164.952 165.623 147.419 165.623" style="fill:#110239"/><polygon points="145.314 171.934 145.714 170.737 163.324 170.737 162.943 171.934 145.314 171.934" style="fill:#110239"/><polygon points="143.187 178.314 143.591 177.104 161.296 177.104 160.911 178.314 143.187 178.314" style="fill:#110239"/><polygon points="141.037 184.764 141.445 183.54 159.247 183.54 158.857 184.764 141.037 184.764" style="fill:#110239"/><polygon points="139.17 191.2 139.578 189.976 157.38 189.976 156.991 191.2 139.17 191.2" style="fill:#110239"/><polygon points="137.304 197.636 137.712 196.412 155.514 196.412 155.124 197.636 137.304 197.636" style="fill:#110239"/><polygon points="135.438 204.073 135.846 202.849 153.647 202.849 153.258 204.073 135.438 204.073" style="fill:#110239"/><path d="M132.2827,213.8864h-.0816a.8019.8019,0,0,1-.7605-1.0557L154.4815,144.24a.8015.8015,0,0,1,.76-.5479h1.1211l-23.32,69.6456A.8018.8018,0,0,1,132.2827,213.8864Z" style="fill:#110239"/><path d="M149.9107,213.8864h-.0888a.8018.8018,0,0,1-.7638-1.0456l22.3263-68.591a.8019.8019,0,0,1,.7638-.5579h.0169a.8018.8018,0,0,1,.7643,1.0445l-22.2545,68.591A.8019.8019,0,0,1,149.9107,213.8864Z" style="fill:#110239"/><polygon points="140.86 184.731 141.258 183.538 159.09 183.538 158.71 184.731 140.86 184.731" style="fill:#110239"/><polygon points="138.74 191.088 139.142 189.882 157.069 189.882 156.685 191.088 138.74 191.088" style="fill:#110239"/><polygon points="143.542 178.374 143.94 177.181 161.772 177.181 161.392 178.374 143.542 178.374" style="fill:#110239"/><polygon points="136.598 197.513 137.005 196.294 155.027 196.294 154.639 197.513 136.598 197.513" style="fill:#110239"/><polygon points="134.433 204.007 134.844 202.775 152.964 202.775 152.571 204.007 134.433 204.007" style="fill:#110239"/><polygon points="132.244 210.572 132.659 209.326 150.877 209.326 150.481 210.572 132.244 210.572" style="fill:#110239"/><polygon points="130.031 217.208 130.451 215.949 148.768 215.949 148.367 217.208 130.031 217.208" style="fill:#110239"/><polygon points="128.111 223.83 128.531 222.571 146.848 222.571 146.447 223.83 128.111 223.83" style="fill:#110239"/><polygon points="126.191 230.453 126.61 229.194 144.927 229.194 144.527 230.453 126.191 230.453" style="fill:#110239"/><path d="M123.95,238.4564h-.0839a.8251.8251,0,0,1-.7825-1.0863l20.7814-61.8592a.8249.8249,0,0,1,.7825-.5637h1.1535l-21.0681,62.9444A.825.825,0,0,1,123.95,238.4564Z" style="fill:#110239"/><path d="M142.0885,238.4564h-.0913a.8251.8251,0,0,1-.786-1.0759l20.0462-61.8593a.8249.8249,0,0,1,.7858-.574h.0175a.825.825,0,0,1,.7864,1.0747l-19.9723,61.8593A.8249.8249,0,0,1,142.0885,238.4564Z" style="fill:#110239"/><path d="M156.7156,129.5113c.0354.0383.0675.0784.1046.1156a7.2836,7.2836,0,0,0,1.1.9576c.2452.1627.6255.2685.8359.4393a2.4219,2.4219,0,0,0,.2638.1861,20.24,20.24,0,0,0-.3786,3.1946s-2.1941-.1549-2.9943-1.0418A22.257,22.257,0,0,0,156.7156,129.5113Z" style="fill:#f88667"/><path d="M157.8923,133.18a3.1828,3.1828,0,0,0-.9993-1.6542,5.04,5.04,0,0,0-.5258-.39,11.2329,11.2329,0,0,0,.3484-1.6244c.0354.0383.0675.0784.1046.1156a7.2836,7.2836,0,0,0,1.1.9576c.2452.1627.6255.2685.8359.4393a2.4219,2.4219,0,0,0,.2638.1861,20.24,20.24,0,0,0-.3786,3.1946,8.5937,8.5937,0,0,1-.8727-.121A1.6452,1.6452,0,0,0,157.8923,133.18Z" style="fill:#e45940"/><path d="M157.9306,168.67s.06,2.1878.4024,2.4867,4.6947.43,5.0693.03.1545-1.0712-.78-1.3305c-1.0017-.278-1.4926-.0056-2.12-.2668s-.4615-1.25-.4615-1.25Z" style="fill:#110239"/><path d="M147.1367,168.5955s-.3355,2.131-.005,2.4429,4.7638.66,5.1534.2757.1957-1.0645-.7277-1.36c-.99-.3164-1.47-.1156-2.1082-.3482-.5025-.1831-.1641-1.1981-.1641-1.1981Z" style="fill:#110239"/><path d="M150.3541,156.33a65.2582,65.2582,0,0,1,.9085-12.1652,5.5512,5.5512,0,0,1,2.173.42c1.3288.6049,2.665,1.1847,3.9994,1.7664a86.0838,86.0838,0,0,0-3.742,11.0935c-.3555,1.9051-4.3381,11.6242-4.3381,11.6242l-2.4095-.303C146.9842,167.1994,150.3625,156.855,150.3541,156.33Z" style="fill:#0400a3"/><path d="M155.2978,145.45a22.1949,22.1949,0,0,0,2.15.8748,91.3387,91.3387,0,0,0-3.4413,9.9024c-.3382-1.02-1.9728-3.487-2.6-6.1873a14.4064,14.4064,0,0,1-.2029-5.5049l.0035-.0216A10.3565,10.3565,0,0,1,155.2978,145.45Z" style="fill:#04006c"/><path d="M153.4968,145.1186c.9391.317,2.6477.7715,3.9382,1.2325.8989,2.2707,3.5535,7.6312,3.6915,10.0546.1523,2.6744-.7734,12.8054-.7734,12.8054h-2.7578s-.2556-11.4194-.6419-12.1533c-1.2736-2.4195-2.6807-4.3371-3.4806-5.8428a18.7669,18.7669,0,0,1-2.0332-5.33c-.1042-.5218-.5606-2.2714.3255-2.8192C152.4976,143.2739,152.7105,144.8532,153.4968,145.1186Z" style="fill:#0400a3"/><path d="M158.44,146.9013a11.2152,11.2152,0,0,1-4.5972.7163,8.6649,8.6649,0,0,1-3.551-.7217s1.0562-8.232,2.2746-10.8274a5.4419,5.4419,0,0,1,3.2191-3.0924,6.8346,6.8346,0,0,0,2.8649.8956s-.0314,5.0578-.13,7.0776S158.44,146.9013,158.44,146.9013Z" style="fill:#fd425f"/><path d="M158.5492,140.2105q.0108-.3333.0206-.7068l.0022-.0908c.006-.2376.0114-.4841.0165-.7361l.0026-.1258c.0056-.28.0108-.5656.0155-.85l0-.013a1.6467,1.6467,0,0,1-.3114-.0215,7.15,7.15,0,0,1-2.2029-1.0183c-.117-.069-.2417-.1263-.3642-.1865a9.6037,9.6037,0,0,0,.5563,3.2608,18.5854,18.5854,0,0,1,.3969,7.6853,12.289,12.289,0,0,0,1.7583-.5062s-.0176-3.9322.0807-5.9519c.0086-.1789.0166-.3876.0243-.6086Z" style="fill:#ca0045;opacity:0.32;mix-blend-mode:multiply"/><path d="M168.57,146.9456a1.8194,1.8194,0,0,1,.3233-.0253,1.311,1.311,0,0,0,.7088-.0874,2.7511,2.7511,0,0,1,1.1906-.2879c.2.0355,1.4.3151,1.1054.8073-.0394.066-.1865.1693-.2287.1535-.123-.0462-.4683-.1719-.4683-.1719a2.6984,2.6984,0,0,1,.3193.1358c.0463.0331.1353.0728.1659.12a.3029.3029,0,0,1-.1387.3576c-.1029.0357-.183-.0681-.27-.1162l.0061.0045c.0832.0657.2636.1117.1517.3649-.1249.2827-.2109.1042-.3312.0743a.7815.7815,0,0,1-.1293-.051,2.8166,2.8166,0,0,1,.2481.1363c.1121.1-.1359.4332-.3584.4051-.1365-.0174-.46-.2139-.5369-.1926a1.7991,1.7991,0,0,1-1.0875-.13c-.1125-.051-.3357-.139-.4469-.1986a4.7734,4.7734,0,0,1-.667-.4541C168.3116,147.4371,168.6077,147.3472,168.57,146.9456Z" style="fill:#f88667"/><path d="M168.1533,148.4526l.9687-1.9179a55.2522,55.2522,0,0,1-6.56-4.8468c-1.756-1.7714-3.6546-5.3759-4.9934-5.6026s-2.6872.5115-1.9113,2.3751,4.7029,4.3337,5.5031,5.1541A79.3626,79.3626,0,0,0,168.1533,148.4526Z" style="fill:#fd425f"/><path d="M156.0567,125.77s3.5444-.4061,3.79.19.2985,2.2743.5282,2.6285.6451.7784.49,1.007-.3261.1727-.4241.4294-.0606,1.7074-.5287,1.9237-2.8559.0888-3.7207-1.2715S154.3445,125.8955,156.0567,125.77Z" style="fill:#f88667"/><path d="M155.1673,126.1027l2.35,1.0882a5.2823,5.2823,0,0,0,.6025,2.5685s-.2114.3237-.433.14a.8615.8615,0,0,1-.4164-.6234c-.0519-.341-.2567-1.2573-.8727-.8054s.0346.9884.3484,1.1216c0,0,.498,1.7846-.4493,1.6576a5.3014,5.3014,0,0,1-1.627-2.6974C153.9173,126.4092,154.5815,125.7009,155.1673,126.1027Z" style="fill:#161415"/><path d="M160.873,125.3229s.8405,1.2088-1.1129,2.0174-4.7629-1.321-4.7629-1.321.0719-1.06,1.63-1.5141a2.7263,2.7263,0,0,1,2.85.383C160.4872,126.0343,160.873,125.3229,160.873,125.3229Z" style="fill:#161415"/><polygon points="242.637 202.87 244.767 184.598 183.418 177.534 180.474 202.87 242.637 202.87" style="fill:#1b0c41"/><polygon points="239.884 202.87 240.967 193.682 185.053 187.244 183.228 202.87 239.884 202.87" style="fill:#fff"/><path d="M187.5238,180.5009a1.2916,1.2916,0,1,0,1.1352,1.4308A1.2917,1.2917,0,0,0,187.5238,180.5009Z" style="fill:#fff"/><path d="M191.8349,180.9973a1.2915,1.2915,0,1,0,1.1353,1.4308A1.2914,1.2914,0,0,0,191.8349,180.9973Z" style="fill:#fff"/><path d="M196.146,181.4936a1.2916,1.2916,0,1,0,1.1354,1.4308A1.2916,1.2916,0,0,0,196.146,181.4936Z" style="fill:#fff"/><path d="M236.262,182.94a3.2732,3.2732,0,0,1,.6713,1.7421,6.9775,6.9775,0,0,0,.5621,1.5585,5.8852,5.8852,0,0,0-.7752.5035c.0115-.0088-.4423-.7607-.4788-.8485-.1178-.2841-.0894-.6053-.3741-.8053a2.44,2.44,0,0,0-.468-.2036c-.1867-.0743-.7947-.1264-.869-.3438-.1116-.3265.5087-.1634.6256-.1852.1739-.0325.3661-.2393.1668-.38-.2746-.1932-.9278-.3684-1.0291-.7395-.1275-.4668,1.0527.3266,1.3159.41-.3834-.1611-1.4524-.8542-1.353-1.0673.191-.41,1.1873.44,1.5516.5981a1.75,1.75,0,0,1-.8207-.6392C234.813,182.0871,236.0076,182.81,236.262,182.94Z" style="fill:#f88667"/><path d="M249.488,199.1724a2.6059,2.6059,0,0,0-.7157-3.3007c-1.6365-1.2928-4.6711-3.7065-5.5429-4.511-1.2125-1.119-5.8293-6.2794-5.8293-6.2794l-1.4835,1.15s4.4254,6.66,5.4022,7.5406,5.5466,6.1855,7.0231,6.1792A1.3353,1.3353,0,0,0,249.488,199.1724Z" style="fill:#b3b2da"/><path d="M249.488,199.1724a2.6059,2.6059,0,0,0-.7157-3.3007c-1.6365-1.2928-4.6711-3.7065-5.5429-4.511-1.2125-1.119-5.8293-6.2794-5.8293-6.2794l-1.4835,1.15s4.4254,6.66,5.4022,7.5406,5.5466,6.1855,7.0231,6.1792A1.3353,1.3353,0,0,0,249.488,199.1724Z" style="fill:#696c95"/><path d="M248.32,192.76c-.0373.0416-.0709.0852-.11.1258a7.8155,7.8155,0,0,1-1.1589,1.0461c-.2594.1789-.6645.2994-.8864.4862a2.6083,2.6083,0,0,1-.2789.2043,21.6516,21.6516,0,0,1,.4663,3.4129s2.3461-.2079,3.1856-1.1727A23.8179,23.8179,0,0,1,248.32,192.76Z" style="fill:#f88667"/><path d="M247.13,196.71a3.4064,3.4064,0,0,1,1.0383-1.79,5.4071,5.4071,0,0,1,.5554-.4277,12.0236,12.0236,0,0,1-.4039-1.7323c-.0373.0416-.0709.0852-.11.1258a7.8155,7.8155,0,0,1-1.1589,1.0461c-.2594.1789-.6645.2994-.8864.4862a2.6083,2.6083,0,0,1-.2789.2043,21.6516,21.6516,0,0,1,.4663,3.4129,9.2683,9.2683,0,0,0,.9319-.1464A1.7619,1.7619,0,0,1,247.13,196.71Z" style="fill:#e45940"/><path d="M243.6755,235.8468s.03,2.3433-.3235,2.6778-5.0042.6614-5.4222.2505-.2114-1.1394.7768-1.457c1.06-.3407,1.5966-.07,2.2568-.3768s.44-1.3575.44-1.3575Z" style="fill:#161415"/><path d="M255.0584,235.1718s.5813,2.2354.2618,2.6024-5.0068,1.2035-5.4624.8348-.32-1.1138.6328-1.5252c1.0219-.441,1.5823-.2237,2.21-.5924s.307-1.3937.307-1.3937Z" style="fill:#161415"/><path d="M255.1126,221.6387a69.8639,69.8639,0,0,0-.2343-13.06,5.9453,5.9453,0,0,0-2.3484.3176c-1.457.5661-2.9207,1.105-4.3825,1.6461a92.1567,92.1567,0,0,1,3.3284,12.0856c.2646,2.0582,1.35,13.3147,1.35,13.3147l2.6454-.0087C255.5244,234.2573,255.0718,222.2,255.1126,221.6387Z" style="fill:#0400a3"/><path d="M250.4868,209.7081a23.7155,23.7155,0,0,1-2.3517.8049,96.85,96.85,0,0,1,3.3316,12.06c.4232-1.07,2.0674-4.8742,2.9016-7.7227a15.4225,15.4225,0,0,0,.55-5.8726l-.0023-.0234A11.0922,11.0922,0,0,0,250.4868,209.7081Z" style="fill:#04006c"/><path d="M252.4321,209.4636c-1.023.282-2.8771.6643-4.2847,1.079-1.0984,2.373-4.079,9.222-4.6825,11.75-.8351,3.498-2.406,13.9018-2.406,13.9018l2.9644.507s3.533-13.9229,3.99-14.684c1.508-2.5094,3.1285-4.4741,4.0747-6.0353a19.6552,19.6552,0,0,0,2.8362-7.0008C254.129,209.1591,253.2888,209.2275,252.4321,209.4636Z" style="fill:#0400a3"/><path d="M246.8063,211.41a20.6877,20.6877,0,0,0,4.8282.089c1.8048-.2062,3.4532-.8548,3.8409-1.53,0,0-1.2341-7.5126-2.5879-10.2678a5.8271,5.8271,0,0,0-3.5053-3.2492,7.3166,7.3166,0,0,1-3.05,1.0135s.13,5.4141.274,7.5745S246.8063,211.41,246.8063,211.41Z" style="fill:#b3b2da"/><path d="M248.9764,203.6831a10.2893,10.2893,0,0,0,.5333-3.5016c-.13.067-.2625.1305-.3863.2067a7.66,7.66,0,0,1-2.3389,1.1322,1.7576,1.7576,0,0,1-.3329.0289c.0449,1.3157.0987,2.6492.1546,3.49.1437,2.16.2,6.37.2,6.37s.67.1024,1.6593.1581C247.8866,209.1171,248.3994,206.2419,248.9764,203.6831Z" style="fill:#696c95"/><path d="M249.2229,190.3616s-1.0659-2.0635-2.3975-1.9388-2.1823.3689-2.3444.8892a14.7322,14.7322,0,0,1-.7444,2.4843c-.3255.535-1.0422,1.246-1.0193,1.4832s.7892.297.8347.3924a7.8679,7.8679,0,0,0,.7939,1.9829,5.5382,5.5382,0,0,0,3.1915-1.6822C247.9108,193.1976,249.38,191.7111,249.2229,190.3616Z" style="fill:#f88667"/><path d="M246.4994,190.6059c-.325.2828-1.169.6287-2.6015.0242s-.9158-3.8531,2.0518-3.7026,2.8651,1.209,3.4159,1.43a2.0654,2.0654,0,0,1,1.246,1.115A2.86,2.86,0,0,1,249.7689,193c-1.3712,1.2811-2.3113,1.0949-2.3113,1.0949-.066-.3679-.05-.9906.2691-1.1852a2.0691,2.0691,0,0,0,.4851-.2677.5757.5757,0,0,0-.5776-.9513c-.3284.0559-.4724.6384-.6622.8534-.2018.2286-.334.1826-.4468.1418-.2191-.0794-.386-.7371.0679-1.4388C246.8869,190.7926,246.8245,190.3231,246.4994,190.6059Z" style="fill:#161415"/><path d="M232.0414,202.4013a2.0934,2.0934,0,0,1-1.0549-.2806,1.2583,1.2583,0,0,0-.4513-.2383,2.6913,2.6913,0,0,1-.5425-.2242,1.0475,1.0475,0,0,0-.5554-.1665c-.2414.0306-.0545.2784.0937.4256.1612.16.8631.272.8862.5116s-.8231.05-.9907.01c-.3963-.0951-.4864-.387-.7634-.6309-.1617-.1425-.279-.1584-.3033.0894-.0183.1848.1391.3348.2567.4576a2.2055,2.2055,0,0,0,.9029.5845,2.574,2.574,0,0,1-.8978-.4575c-.1521-.1176-.7116-.7331-.9179-.51-.414.4473,1.2086,1.3925,1.5506,1.4177a3.0206,3.0206,0,0,1-.9331-.4029c-.1755-.0983-.58-.3488-.5594.0116.0309.5318,1.1154.6817,1.588.8353a3.5369,3.5369,0,0,1-.9475-.19c-.4159-.1052-.3484.237.0587.4185a4.8506,4.8506,0,0,0,.6173.19,3.2719,3.2719,0,0,0,2.1076-.1674c.2842-.0959.9051.0272,1.0351-.1972C232.4727,203.4524,232.1467,202.8134,232.0414,202.4013Z" style="fill:#f88667"/><path d="M231.33,204.2454l-.0043-2.1354s6.3318-.7553,9.0123-1.4576,6.5332-3.0776,7.9418-2.538,2.2814,2.0075.4864,3.3518-6.9471,1.4884-8.1758,1.821A87.7811,87.7811,0,0,1,231.33,204.2454Z" style="fill:#b3b2da"/><path d="M284.2434,188.18h71.3205a1.7364,1.7364,0,0,1,1.7364,1.7364V236.593a1.7364,1.7364,0,0,1-1.7364,1.7364H284.2433a1.7364,1.7364,0,0,1-1.7364-1.7364V189.9162A1.7365,1.7365,0,0,1,284.2434,188.18Z" style="fill:#1b0c41"/><rect x="285.9513" y="191.5021" width="64.4791" height="42.9855" style="fill:url(#b47d45a8-ff7f-4096-a1ba-711602c72655)"/><path d="M354.9739,213.2546a1.3522,1.3522,0,1,1-1.3521-1.3523A1.3521,1.3521,0,0,1,354.9739,213.2546Z" style="fill:#fff"/><path d="M343.9014,215.3358a7.0088,7.0088,0,0,1-2.7861-1.04c-.9316-.591-1.8421-1.22-2.7756-1.8108a11.0429,11.0429,0,0,0-1.5707-.8781,5.084,5.084,0,0,0-.7536-.2325,4.9576,4.9576,0,0,0-.5328-.0975,2.7821,2.7821,0,0,0-2.2829,1.1986c-.4515.4818-1.0156,1.1626-1.7593,1.0115a2.3934,2.3934,0,0,1-1.2148-.8682c-.6457-.7426-.4377-2.2534-1.0863-2.8348-1.037-.9294-1.65.1057-2.67.3-2.5146.4792-2.9-2.263-3.5127-4.2306a4.1359,4.1359,0,0,0-1.5909-2.5286,3.9419,3.9419,0,0,0-4.338,0,4.135,4.135,0,0,0-1.5909,2.5286c-.6124,1.9676-.9982,4.71-3.5127,4.2306-1.0206-.1946-1.6334-1.23-2.67-.3-.6487.5814-.4407,2.0922-1.0863,2.8348a2.3936,2.3936,0,0,1-1.2149.8682c-.7438.1511-1.3078-.53-1.7593-1.0115a2.782,2.782,0,0,0-2.2829-1.1986,4.9621,4.9621,0,0,0-.5328.0975,5.0864,5.0864,0,0,0-.7535.2325,11.0384,11.0384,0,0,0-1.5708.8781c-.9334.5909-1.844,1.22-2.7756,1.8108a7.0087,7.0087,0,0,1-2.7862,1.04,33.51,33.51,0,0,1-4.9814-.1178c3.9071,1.0773,11.5007,4.8511,15.2128,4.3,3.1107-.4622,4.9546-1.5727,7.5327,1.0821a34.87,34.87,0,0,0,2.9527,3.2676,6.8448,6.8448,0,0,0,7.9766,0,34.8575,34.8575,0,0,0,2.9529-3.2676c2.578-2.6548,4.4219-1.5443,7.5327-1.0821,3.7121.5515,11.3056-3.2223,15.2128-4.3A33.5129,33.5129,0,0,1,343.9014,215.3358Z" style="fill:url(#a1b9caa1-9af5-4d31-b460-e75996c71a6f)"/><g style="opacity:0.55;mix-blend-mode:screen"><path d="M290.2217,216.9864a.14.14,0,0,1-.14-.14v-7.1841a.14.14,0,0,1,.28,0v7.1841A.14.14,0,0,1,290.2217,216.9864Z" style="fill:#fff"/><path d="M294.3492,219.1607a.14.14,0,0,1-.14-.14V207.4491a.14.14,0,0,1,.28,0V219.021A.14.14,0,0,1,294.3492,219.1607Z" style="fill:#fff"/><path d="M298.4767,223.4929a.14.14,0,0,1-.14-.14V203.1556a.14.14,0,0,1,.28,0v20.1976A.14.14,0,0,1,298.4767,223.4929Z" style="fill:#fff"/><path d="M302.605,219.6658a.14.14,0,0,1-.14-.14v-12.543a.14.14,0,0,1,.28,0v12.543A.14.14,0,0,1,302.605,219.6658Z" style="fill:#fff"/><path d="M306.7324,216.9864a.14.14,0,0,1-.14-.14v-7.1841a.14.14,0,0,1,.28,0v7.1841A.14.14,0,0,1,306.7324,216.9864Z" style="fill:#fff"/><path d="M310.86,219.0055a.14.14,0,0,1-.14-.14V207.6434a.14.14,0,0,1,.28,0v11.2224A.14.14,0,0,1,310.86,219.0055Z" style="fill:#fff"/><path d="M314.9882,222.0454a.14.14,0,0,1-.14-.14V204.6031a.14.14,0,0,1,.28,0v17.3026A.14.14,0,0,1,314.9882,222.0454Z" style="fill:#fff"/><path d="M319.1157,226.85a.14.14,0,0,1-.14-.14V199.799a.14.14,0,0,1,.28,0V226.71A.14.14,0,0,1,319.1157,226.85Z" style="fill:#fff"/><path d="M323.2431,222.0454a.14.14,0,0,1-.14-.14V204.6031a.14.14,0,0,1,.28,0v17.3026A.14.14,0,0,1,323.2431,222.0454Z" style="fill:#fff"/><path d="M327.3715,219.0055a.14.14,0,0,1-.14-.14V207.6434a.14.14,0,0,1,.28,0v11.2224A.14.14,0,0,1,327.3715,219.0055Z" style="fill:#fff"/><path d="M331.4989,219.6658a.14.14,0,0,1-.14-.14v-12.543a.14.14,0,0,1,.28,0v12.543A.14.14,0,0,1,331.4989,219.6658Z" style="fill:#fff"/><path d="M335.6263,223.4929a.14.14,0,0,1-.14-.14V203.1556a.14.14,0,0,1,.28,0v20.1976A.14.14,0,0,1,335.6263,223.4929Z" style="fill:#fff"/><path d="M339.7547,219.1607a.14.14,0,0,1-.14-.14V207.4491a.14.14,0,0,1,.28,0V219.021A.14.14,0,0,1,339.7547,219.1607Z" style="fill:#fff"/><path d="M343.8822,216.9864a.14.14,0,0,1-.14-.14v-7.1841a.14.14,0,0,1,.28,0v7.1841A.14.14,0,0,1,343.8822,216.9864Z" style="fill:#fff"/></g><path d="M325.3525,214.9611a6.2366,6.2366,0,1,1-6.2366-6.2365A6.2366,6.2366,0,0,1,325.3525,214.9611Z" style="fill:#005b98;opacity:0.55;mix-blend-mode:multiply"/><path d="M319.1157,221.4681a6.5069,6.5069,0,1,1,6.5065-6.5069A6.5139,6.5139,0,0,1,319.1157,221.4681Zm0-12.473a5.9661,5.9661,0,1,0,5.9664,5.9661A5.9732,5.9732,0,0,0,319.1157,208.9951Z" style="fill:#fff"/><rect x="318.242" y="211.5589" width="1.7474" height="5.1213" rx="0.865" style="fill:#fff"/><rect x="318.0806" y="217.9855" width="2.0702" height="0.378" style="fill:#fff"/><rect x="318.9266" y="216.5903" width="0.3781" height="1.5662" style="fill:#fff"/><path d="M320.4447,215.4067a1.8947,1.8947,0,0,1-.3956,1.2339,1.5778,1.5778,0,0,1-1.8668,0,1.8935,1.8935,0,0,1-.3956-1.2339h-.4331a2.3215,2.3215,0,0,0,.5143,1.53,1.4915,1.4915,0,0,0,1.1325.447c.0375,0,.0765-.0024.1153-.0044.0388.002.0777.0044.1153.0044a1.4913,1.4913,0,0,0,1.1324-.447,2.3221,2.3221,0,0,0,.5144-1.53Z" style="fill:#fff"/><path d="M338.1393,196.2982a.4952.4952,0,1,1-.4952-.4951A.4952.4952,0,0,1,338.1393,196.2982Z" style="fill:#fff"/><path d="M340.11,196.2982a.4951.4951,0,1,1-.495-.4951A.4951.4951,0,0,1,340.11,196.2982Z" style="fill:#fff"/><circle cx="341.585" cy="196.2982" r="0.4951" style="fill:#fff"/><path d="M302.6514,228.4674a.4951.4951,0,1,1-.4951-.495A.4951.4951,0,0,1,302.6514,228.4674Z" style="fill:#fff"/><path d="M304.6219,228.4674a.4951.4951,0,1,1-.4952-.495A.4952.4952,0,0,1,304.6219,228.4674Z" style="fill:#fff"/><path d="M306.5923,228.4674a.4952.4952,0,1,1-.4951-.495A.4952.4952,0,0,1,306.5923,228.4674Z" style="fill:#fff"/><polygon points="347.106 250.861 346.483 249.076 318.573 249.076 319.168 250.861 347.106 250.861" style="fill:#fff"/><polygon points="350.423 260.372 349.793 258.568 321.735 258.568 322.336 260.372 350.423 260.372" style="fill:#fff"/><polygon points="353.776 269.985 353.14 268.161 324.931 268.161 325.539 269.985 353.776 269.985" style="fill:#fff"/><polygon points="357.165 279.701 356.522 277.857 328.161 277.857 328.775 279.701 357.165 279.701" style="fill:#fff"/><polygon points="360.591 289.522 359.941 287.659 331.427 287.659 332.047 289.522 360.591 289.522" style="fill:#fff"/><path d="M361.4691,291.6619l-19.0674-54.595a1.2873,1.2873,0,0,0-1.2246-.8434h-1.8054l19.2762,55.4384Z" style="fill:#fff"/><path d="M330.584,291.6619h2.8211L315.18,237.0824a1.2869,1.2869,0,0,0-1.23-.8589h-.0272a1.2448,1.2448,0,0,0-1.2308,1.6079Z" style="fill:#fff"/><path d="M387.9194,235.3063s-.5148,2.2958-.1843,2.9311c.3485.67,7.1914.8665,7.606.4149s-.2764-1.2374-.6391-1.4192-5.05-1.9268-5.05-1.9268Z" style="fill:#110239"/><path d="M378.9968,234.687h1.8619a17.1991,17.1991,0,0,1,.0566,3.0019c-.1639.4646-2.33,2.8773-3.5321,2.8773-.6558,0-1.4651.0031-1.5918-.5807a3.6618,3.6618,0,0,1,.7721-2.0622C377.4379,236.713,378.9968,234.687,378.9968,234.687Z" style="fill:#110239"/><path d="M388.2878,207.0973s-4.25,1.2117-6.8953-.0711a6.2807,6.2807,0,0,0-1.8564,4.0908c-.0781.8464-1.7837,24.687-1.7837,24.687h3.6225s1.2193-12.3909,1.493-13.9543,1.9563-8.9148,1.9563-8.9148,1.4618,6.5387,1.8658,8.9165c.0619.365.8058,13.8236.8058,13.8236l3.5023-.0093s-.48-14.6635-.48-13.8774C390.5185,222.109,390.1107,211.4937,388.2878,207.0973Z" style="fill:#fd425f"/><path d="M396.0218,189.1828l2.5345,5.6257s-.7418.8346-.9891.6491-4.0492-4.75-4.42-4.9868S396.0218,189.1828,396.0218,189.1828Z" style="fill:#0400a3"/><path d="M393.96,191.2064a13.0371,13.0371,0,0,1,1.8752-.6277c.242-.09.4653-.1892.6912-.2756l-.5047-1.12s-3.2457,1.0509-2.8747,1.288a7.8336,7.8336,0,0,1,.7476.7809C393.9178,191.2372,393.9354,191.22,393.96,191.2064Z" style="fill:#04006c"/><path d="M389.7366,189.8834s.01,1.6177.9994,1.9886c0,0,5.0694-2.1,6.0894-2.302s4.7293-.2326,4.7293-.2326l-3.74-6.6767s-1.7927,3.5857-3.431,4.76A31.3517,31.3517,0,0,1,389.7366,189.8834Z" style="fill:#fff"/><path d="M393.0247,190.9448c.4009-.1593.8193-.3241,1.2313-.483a5.1593,5.1593,0,0,1-1.0669-2.2878c-.3844.22-.7829.4325-1.1683.63A4.65,4.65,0,0,0,393.0247,190.9448Z" style="fill:#110239"/><path d="M402.9352,184.3779c1.0559,2.5467.6828,5.1208-.8334,5.7495s-3.6013-.9264-4.6572-3.4731-.6828-5.121.8334-5.75S401.8793,181.8311,402.9352,184.3779Z" style="fill:#fee08d"/><path d="M402.7306,184.4627c.8982,2.1664.5808,4.3562-.709,4.891s-3.0635-.7881-3.9617-2.9546-.5808-4.3562.709-4.8909S401.8324,182.2962,402.7306,184.4627Z" style="fill:#110239"/><path d="M395.6887,193.2338c-.1207-.073-.0866-.526-.0622-.6438.0383-.1843.1659-.4246.038-.6008-.2262-.3118-.5441.5267-.5855.6485a.8805.8805,0,0,0-.0582.5588,2.2037,2.2037,0,0,0,.4852.7327c-.0234.0835-.0492.17-.081.2625a5.548,5.548,0,0,1,.6108.3093c.2447.1409.2321.3156.4609.4729l.2289-.5256A10.7856,10.7856,0,0,0,395.6887,193.2338Z" style="fill:#f88667"/><path d="M397.3126,191.3927c-.219-.2358-.56-.1452-.8254.0481-.1936.1412-.7511.5923-.6009.9191.1249.2719.8421-.33.8421-.33-.2642.2272-.7565.409-.6327.6365.1381.2538.7644-.1078.9014-.2086-.1408.0361-.84.4607-.56.6823.1921.1519.7062-.1669.86-.2752-.2064.0629-.4874.2459-.4327.532.09.1564.4015.0528.5753-.0179.2622-.1064.5088-.1473.53-.473a1.4665,1.4665,0,0,0,.0091-.1768,1.7858,1.7858,0,0,0-.2306-.7088A3.0879,3.0879,0,0,0,397.3126,191.3927Z" style="fill:#f88667"/><path d="M381.5261,190.0563s1.2114,4.7226.5189,5.0938c0,0,2.4743,5.1311,3.57,4.8905s.5189-4.6192.5189-4.6192a1.9133,1.9133,0,0,1-.846-.4852,24.7041,24.7041,0,0,1-.9878-3.1Z" style="fill:#f88667"/><path d="M383.5985,197.8875a2.8655,2.8655,0,0,1-.6134-1.9365c.13-.9842,1.1007-1.4507,1.9819-1.8141a16.7878,16.7878,0,0,0-.6669-2.3007l-2.774-1.78s1.2114,4.7226.5189,5.0938c0,0,2.4743,5.1311,3.57,4.8905.2845-.0624.4547-.4067.553-.878A2.7094,2.7094,0,0,1,383.5985,197.8875Z" style="fill:#e45940"/><path d="M370.6273,193.26a2.8779,2.8779,0,0,1-.2931-.6237c-.0652-.1866-.1114-.3776-.176-.5643a1.4649,1.4649,0,0,1-.1259-.5527,1.6258,1.6258,0,0,1,.0678-.3373c.0374-.1434.09-.2829.12-.4282.0262-.1292.0147-.2551.0392-.3837a2.2852,2.2852,0,0,1,.2235-.7089,2.6275,2.6275,0,0,1,.3256-.4483,1.6757,1.6757,0,0,1,.1927-.2057.51.51,0,0,0,.1767-.2173.2078.2078,0,0,0-.1514-.28.7771.7771,0,0,0-.7185.2352c-.1909.2628-.2811.5844-.4938.8377-.65.7747-1.26-.1372-2.019-.4651a4.5364,4.5364,0,0,1-.7331-.4726c-.1356-.1021-.7179-.6555-.9934-.5111-.2026.1061.194.5711.3858.6847.0756.0448.7257.5726.81.598a4.1255,4.1255,0,0,1-1.09-.6751c-.2877-.2252-.5666-.4468-.7234-.3183-.4828.3955,1.4114,1.3007,1.5593,1.3835-.1579.0136-1.6408-1.0365-1.7811-.65-.0772.2122.2306.4228.4822.5594.3159.1716.8452.2944.9646.387-.2235.0758-1.2053-.592-1.2057-.1844,0,.2668.61.4664.8391.5363.2365.0721.931.5444,1.1509.6491.7331.3493,1.0355.3089,1.3247.7479.1843.28.5123,1.7578.7782,2.32Z" style="fill:#f88667"/><path d="M395.28,193.9905c-.6535,1.9028-2.0513,5.269-2.5126,5.0328-.8657-.4432-2.7284-1.9665-4.12-2.8983a9.762,9.762,0,0,0-1.6184-.9324l.9689,4.5939s4.5923,3.4878,5.5545,2.9533c.7566-.42,2.6189-5.7239,3.2761-7.9217C396.8284,194.8181,395.291,193.9989,395.28,193.9905Z" style="fill:#110239"/><path d="M390.7323,200.5434a31.136,31.136,0,0,0-3.0271-3.0184l.1543,2.1785s4.6291,3.48,5.6536,3.0457A11.9782,11.9782,0,0,1,390.7323,200.5434Z" style="fill:#330045;opacity:0.32;mix-blend-mode:multiply"/><path d="M387.0289,195.1926l-1.741-.2564a1.6948,1.6948,0,0,1-1.1848.5813,5.3358,5.3358,0,0,1-1.86-.8322A21.8447,21.8447,0,0,0,379.64,195.98a17.0264,17.0264,0,0,1,.15,3.4457l-.572,10.5594a47.4356,47.4356,0,0,0,5.9545.3533,17.3044,17.3044,0,0,0,4.1663-.4963s-.3687-8.7841-1.18-11.451C387.8388,197.3392,387.0289,195.1926,387.0289,195.1926Z" style="fill:#110239"/><path d="M380.4037,195.7647s-6.8148,1.9509-7.43,1.7905-2.6623-5.9834-2.6623-5.9834l-1.71.6949s1.8266,8.3989,3.0025,8.7915,8.1857-1.6323,8.1857-1.6323A4.29,4.29,0,0,0,380.4037,195.7647Z" style="fill:#110239"/><path d="M400.0541,186.0133a1.4336,1.4336,0,0,0-1.7362-1.0312,1.2062,1.2062,0,0,0-.5836.4225,6.996,6.996,0,0,0,.3256.9945,6.7458,6.7458,0,0,0,.8717,1.52,1.17,1.17,0,0,0,.3218-.0521A1.4338,1.4338,0,0,0,400.0541,186.0133Z" style="fill:#6cd3fe"/><path d="M381.4382,187.7405a2.9161,2.9161,0,0,1,2.0721-.9156c1.2248.04,1.9424.2174,2.3175,1.1847s1.0436,3.4248,1.0436,3.4248-.0636,2.2463-2.0951,1.6348-4.2167-1.8991-3.9469-2.8112S381.4382,187.7405,381.4382,187.7405Z" style="fill:#f88667"/><path d="M381.7307,187.3415s1.0893.3292,1.0782.8311a5.2669,5.2669,0,0,0,.17,2.4745s-.2914.2558-.5251.0482-.1031-1.1211-.7055-.98-.4606,1.2159.2065,1.312a1.7629,1.7629,0,0,0,1.2315.6309c.6612-.0464,1.4875-.7879,1.8178-.854a4.855,4.855,0,0,1,1.6824.01s.9219,2.5556-.1356,3.0392-3.6428-.2518-5.0118-1.6716c0,0-1.5134.0508-1.3628-2.0278.1135-1.5673-.8952-1.9165-.0633-3.0349C380.7058,186.3226,381.7307,187.3415,381.7307,187.3415Z" style="fill:#110239"/><path d="M380.5226,186.92s.2659-1.1617,2.0264-1.419,1.9481.7464,2.6114.8.7992-.3355.5476-.4772c0,0,.4186-.4283,1.1634.5126s-.2454,2.4248-1.631,2.6A4.65,4.65,0,0,1,380.5226,186.92Z" style="fill:#110239"/><path d="M386.1284,191.7458a2.6419,2.6419,0,0,1-1.3042.2129s.139.3554.864.2927C386.1,192.2157,386.1284,191.7458,386.1284,191.7458Z" style="fill:#fff"/><path d="M226.6432,96.009s1.4941,5.3884,2.2288,6.27a15.2725,15.2725,0,0,0,3.1352,2.18l-.6368,1.1267s-4.3622-2.223-5.1191-4.0414a13.7458,13.7458,0,0,1-.8818-2.7922c-.12-.667-.6132-2.3261-.3673-2.9882A.941.941,0,0,1,226.6432,96.009Z" style="fill:#01d9cf"/><path d="M226.6432,96.009s1.4941,5.3884,2.2288,6.27a15.2725,15.2725,0,0,0,3.1352,2.18l-.6368,1.1267s-4.3622-2.223-5.1191-4.0414a13.7458,13.7458,0,0,1-.8818-2.7922c-.12-.667-.6132-2.3261-.3673-2.9882A.941.941,0,0,1,226.6432,96.009Z" style="fill:#00a1cc;opacity:0.65;mix-blend-mode:multiply"/><path d="M241.6133,121.73l1.101-1.0288s4.4033-.3235,4.6606.0627-4.1754,2.4772-4.7445,2.4393S241.6882,122.1543,241.6133,121.73Z" style="fill:#110239"/><path d="M233.5419,106.8334s4.1638-1.06,4.5067-.374,4.6657,14.2417,4.6657,14.2417l-1.101,1.0288s-4.6356-11.4418-5.9779-12.6377S232.9214,107.3053,233.5419,106.8334Z" style="fill:#f88667"/><path d="M233.5419,106.8334s4.1638-1.06,4.5067-.374,4.6657,14.2417,4.6657,14.2417l-1.101,1.0288s-4.6356-11.4418-5.9779-12.6377S232.9214,107.3053,233.5419,106.8334Z" style="fill:#e45940"/><path d="M231.3949,104.3366a3.7083,3.7083,0,0,0,.8654-.3473,1.1524,1.1524,0,0,1,.7348-.2082c.198.0284,1.7981.6945,1.372.9923-.1382.0966-.4832-.0725-.6212-.122-.1963-.07-.3942-.1664-.5825-.25.1721-.0088,1.0374.3581.9465.56-.16.3554-1.0358-.1194-1.24-.2337.1557.0241.6975.2275.6967.4249-.001.3106-.6447.0512-.7845-.02a.942.942,0,0,0-.2936-.1429,1.1672,1.1672,0,0,0-.3919.0693,2.3022,2.3022,0,0,1-.6821.0132c-.1336-.0125-.4439.0159-.51-.0985a.4923.4923,0,0,1,.0861-.4858A.9794.9794,0,0,1,231.3949,104.3366Z" style="fill:#f88667"/><path d="M231.3949,104.3366a3.7083,3.7083,0,0,0,.8654-.3473,1.1524,1.1524,0,0,1,.7348-.2082c.198.0284,1.7981.6945,1.372.9923-.1382.0966-.4832-.0725-.6212-.122-.1963-.07-.3942-.1664-.5825-.25.1721-.0088,1.0374.3581.9465.56-.16.3554-1.0358-.1194-1.24-.2337.1557.0241.6975.2275.6967.4249-.001.3106-.6447.0512-.7845-.02a.942.942,0,0,0-.2936-.1429,1.1672,1.1672,0,0,0-.3919.0693,2.3022,2.3022,0,0,1-.6821.0132c-.1336-.0125-.4439.0159-.51-.0985a.4923.4923,0,0,1,.0861-.4858A.9794.9794,0,0,1,231.3949,104.3366Z" style="fill:#e45940"/><polygon points="238.608 97.14 239.587 97.542 236.223 105.66 235.233 105.125 238.608 97.14" style="fill:#110239"/><rect x="229.1864" y="104.9835" width="6.405" height="0.995" style="fill:#110239"/><path d="M217.8587,100.3561c.8567-.49,1-1.0309.5255-2.8234a3.7637,3.7637,0,0,1,1.9618-4.143c.8774-.3613,1.6478-.5208,2.1816-1.456s-.4777-2.93,1.2124-4.4074a2.96,2.96,0,0,1,2.9984-.2166c.38-.21.5368,2.0063.5644,3.6735-2.14,3.276-1.53,7.5559-.7506,11.2229a1.6959,1.6959,0,0,0,.0785.246c-.1681,2.8383-.3032,5.188-.3032,5.188s-5.1448,2.9129-8.6439.419S216.1423,101.3381,217.8587,100.3561Z" style="fill:#110239"/><path d="M232.9867,121.0575l1.3063.7511s1.6,4.1149,1.3063,4.4741-3.5923-3.2658-3.7229-3.8209S232.603,121.2534,232.9867,121.0575Z" style="fill:#110239"/><path d="M231.3212,106.59s8.393.5878,9.1768,1.3389-6.3419,13.8009-6.3419,13.8009l-1.1694-.6724s1.7635-6.205,2.2207-7.642,1.339-3.1677,1.1757-3.3963-8.6216,1.045-8.5564-1.3391S231.3212,106.59,231.3212,106.59Z" style="fill:#f88667"/><path d="M227.182,92.4329a7.9445,7.9445,0,0,0-.3428,4.1883l-2.9392-.71a33.2249,33.2249,0,0,1,1.7169-4.7028C226.1312,90.5224,227.182,92.4329,227.182,92.4329Z" style="fill:#f88667"/><path d="M225.9574,94.5883a1.4659,1.4659,0,0,0-1.5072,1.4556l-.55-.1329a33.2249,33.2249,0,0,1,1.7169-4.7028c.5143-.6858,1.5651,1.2247,1.5651,1.2247a9.8984,9.8984,0,0,0-.4937,2.33A1.5481,1.5481,0,0,0,225.9574,94.5883Z" style="fill:#e45940"/><path d="M227.486,89.3044a4.4626,4.4626,0,0,1,1.4147,1.0057c.2727.46.0341,1.0965.0568,1.517a6.4521,6.4521,0,0,1,.0751,1.1477c-.0637.1022-.4841,0-.5523.0909s-.6136.4318-.7841.8181-.3977.4205-.7954.2273a6.4349,6.4349,0,0,1-1.9375-3.1476A2.0676,2.0676,0,0,1,227.486,89.3044Z" style="fill:#f88667"/><path d="M226.5189,88.0245a7.919,7.919,0,0,1,.5879,1.4881,3.5162,3.5162,0,0,1-.5879,1.8374c-.2389.1653-.0367-1.3964-.6431-.9187s.0368,1.3779,0,1.5617a1.1223,1.1223,0,0,1-.937.8268c-.6246.0551-1.6536-3.05-.9737-3.8216A3.5154,3.5154,0,0,1,226.5189,88.0245Z" style="fill:#110239"/><path d="M226.4148,87.4a1.6859,1.6859,0,0,1,2.0516.0918c1.0473.8452,1.0105,2.1129,1.8741,2.0027,0,0-.57,1.47-1.819,1.1207S225.98,88.2817,226.4148,87.4Z" style="fill:#110239"/><path d="M222.9937,104.01l3.8929-.294s2.0258,2.2624,4.0266,2.2624h6.8418a13.0516,13.0516,0,0,1-2.0169,5.3812s-6.5.2046-9.6674-.0567S219.8912,107.5485,222.9937,104.01Z" style="fill:#fd425f"/><path d="M222.63,104.467c.1115-.152.23-.3044.3636-.4569l3.8929-.294s1.972,2.198,3.9465,2.257C228.4485,106.2145,223.8921,106.7421,222.63,104.467Z" style="fill:#ca0045;opacity:0.32;mix-blend-mode:multiply"/><path d="M235.9481,106.4357c-.9918-.097-1.9548-.3338-2.9313-.4572h4.292C236.8849,106.1962,236.6762,106.5069,235.9481,106.4357Z" style="fill:#ca0045;opacity:0.32;mix-blend-mode:multiply"/><path d="M224.2732,94.5551a16.5945,16.5945,0,0,0,2.3929.7682s1.2589,2.7758,1.7488,3.5269-1.2417,3.625-1.3394,4.8659c0,0-1.0408.9935-4.1942.3825C222.8813,104.0986,222.0583,96.3017,224.2732,94.5551Z" style="fill:#01d9cf"/><path d="M223.7951,96.2133a1.5053,1.5053,0,0,1,1.764.5541c.3293.6785-.0091,1.8835.0309,2.6175a14.2578,14.2578,0,0,0,.2853,2.5492,5.31,5.31,0,0,0,1.0274,1.9039c-.4041.2444-1.5755.7345-4.0214.2606,0,0-.5017-4.7542.333-7.6694C223.4419,96.3515,223.6523,96.2787,223.7951,96.2133Z" style="fill:#00a1cc;opacity:0.65;mix-blend-mode:multiply"/><path d="M230.7826,104.3366a3.7058,3.7058,0,0,0,.8653-.3473,1.1527,1.1527,0,0,1,.7349-.2082c.198.0284,1.7981.6945,1.372.9923-.1383.0966-.4832-.0725-.6213-.122-.1961-.07-.3942-.1664-.5824-.25.1721-.0088,1.0373.3581.9465.56-.16.3554-1.0359-.1194-1.24-.2337.1556.0241.6974.2275.6967.4249-.0011.3106-.6448.0512-.7846-.02a.9415.9415,0,0,0-.2935-.1429,1.1668,1.1668,0,0,0-.3919.0693,2.3028,2.3028,0,0,1-.6822.0132c-.1335-.0125-.4438.0159-.51-.0985a.4931.4931,0,0,1,.0861-.4858A.98.98,0,0,1,230.7826,104.3366Z" style="fill:#f88667"/><path d="M231.052,104.2973l-.3429,1.2885s-8.4257-.98-8.6217-2.4738.3429-8.4493,2.3759-7.7272.0245,5.7678.3429,6.16A67.3415,67.3415,0,0,0,231.052,104.2973Z" style="fill:#01d9cf"/><circle cx="299.7308" cy="31.6072" r="14.75" style="fill:#fbff00"/><path d="M81.1642,227.9134s-6.3536-.0354-8.5845-1.5227-2.62-7.401.62-9.8178,3.9121-3.1605,4.0541-4.754.1087-5.2094,4.3049-5.225c4.1158-.0154,3.761,3.3559,4.0742,5.5022.2179,1.4938,2.2731,3.699,4.0724,5.0744C92.0156,218.9366,94.6,229.4006,81.1642,227.9134Z" style="fill:#141c1e"/><path d="M83.0466,212.8942a3.6349,3.6349,0,0,1-1.1206.1715,3.38,3.38,0,0,1-1.882-.531c-.1744,1.1936.3693,2.595-.8021,2.9213,0,0,.07,5.135,2.1377,5.135s2.34-5.1682,2.34-5.1682S82.7733,215.2376,83.0466,212.8942Z" style="fill:#e45940"/><path d="M84.3594,211.6151c-.2124-.46-.7526-.2345-.7526-.2345.1062-1.2482.1017-3.2091.1017-3.2091l-2.1592-.2273-2.1592.2273s-.0045,1.9609.1017,3.2091c0,0-.54-.2258-.7526.2345-.36.78.5137,1.2927.5137,1.2927-.0342-.0157.6,2.6328,2.2964,2.7841,1.6962-.1513,2.3306-2.8,2.2964-2.7841C83.8457,212.9078,84.7192,212.3948,84.3594,211.6151Z" style="fill:#f88667"/><path d="M84.0112,208.1375a4.3766,4.3766,0,0,1-4.2493,2.709,1.9308,1.9308,0,0,1-.0841.9738s-.43-1.2245-.9121-.9509a1.6461,1.6461,0,0,0-.6681.7384s-.4516-3.4659,1.7927-4.2361A4.6163,4.6163,0,0,1,84.0112,208.1375Z" style="fill:#141c1e"/><path d="M83.0179,207.8731a2.6979,2.6979,0,0,0-.0471.4842c.0048.3459.0223.689.0093,1.0327a2.5216,2.5216,0,0,1,.5607,1.5851,1.8769,1.8769,0,0,0,.1013.8452s.43-1.2245.9121-.9509a1.6461,1.6461,0,0,1,.6682.7384S85.0643,207.8035,83.0179,207.8731Z" style="fill:#141c1e"/><path d="M87.584,223.63c-.6247-1.8138-.3013-6.6858-.3013-6.6858-.77-.2409-3.787-1.6546-3.787-1.6546L81.54,220.0165l-2.0623-4.6934s-2.4334,1.1694-3.2034,1.41c0,0-.1532,5.0832-.7779,6.897,0,0,1.91,3.1188,0,10.1085H87.584C85.6743,226.7492,87.584,223.63,87.584,223.63Z" style="fill:#01d9cf"/><path d="M87.584,223.63a21.0433,21.0433,0,0,1-.2624-2.8108c-.2875.77-.6259,2.4545-.92,3.2159-.9928,2.5726-2.0636,3.6386-4.9462,3.6858-2.3011.0379-4.4548-3.6878-4.6965-4.3733-.2805-.7955-.6242-1.5554-.913-2.329a10.6489,10.6489,0,0,1-.3494,2.6114s1.91,3.1188,0,10.1085H87.584C85.6743,226.7492,87.584,223.63,87.584,223.63Z" style="fill:#00a1cc;opacity:0.65;mix-blend-mode:multiply"/><path d="M84.93,231.6108c-7.713-1.1267-16.5784-2.449-16.5039.522.0706,2.8145,3.4867,4.88,6.44,6.1814a24.5312,24.5312,0,0,1,5.0256-1.1771c2.99-.58,5.9755-.1972,9.0162-.3119a12.1524,12.1524,0,0,0,4.7148-3.8075S90.9451,232.4894,84.93,231.6108Z" style="fill:#616161"/><path d="M77.5256,236.696c3.95-.34,7.9072-.1755,11.948-.3156-.594-.4865-.9112-.9038-.1948-1.082,3.1614-2.4421,5.4488-4.4964,3.6607-4.8034a30.5751,30.5751,0,0,0-7.6274.0757,7.4525,7.4525,0,0,1-3.8364-.0871l-4.8224-.339c-4.8509,1.1883-5.7919,3.0157-5.8436,2.9938C70.8335,233.8334,74.3046,235.1245,77.5256,236.696Z" style="fill:#fff"/><path d="M77.5256,236.696c3.95-.34,7.9072-.1755,11.948-.3156-.594-.4865-.9112-.9038-.1948-1.082,3.1614-2.4421,5.4488-4.4964,3.6607-4.8034a30.5751,30.5751,0,0,0-7.6274.0757,7.4525,7.4525,0,0,1-3.8364-.0871l-4.8224-.339c-4.8509,1.1883-5.7919,3.0157-5.8436,2.9938C70.8335,233.8334,74.3046,235.1245,77.5256,236.696Z" style="fill:#e7e7e7"/><path d="M76.4542,235.3425l1.57,2.1485s-1.692,1.2083-2.1646,1.4227-4.284.3723-5.28-.4088c-.891-.699-1.1974-1.6147-.7423-2.0477a5.685,5.685,0,0,1,2.6874-.8276C74.0713,235.4165,76.4542,235.3425,76.4542,235.3425Z"/><path d="M75.8281,235.5116l1.0163,3.2085s15.0422-.9429,16.5563-3.3907c1.5227-2.4619,1.3838-7.0248-4.16-5.1848C83.6126,232.0129,75.8281,235.5116,75.8281,235.5116Z" style="fill:#fff"/><path d="M92.6962,234.6621a5.0029,5.0029,0,0,1-2.6005-.8685,10.8148,10.8148,0,0,0-3.2346-1.1356c-.9767-.1886-1.846-.1883-2.6307-.4249-4.3637,1.6238-8.4024,3.2784-8.4024,3.2784l.7964,2.514c.3889.0809.78.1685,1.17.2626a8.0232,8.0232,0,0,1,1.3835.1713c.0966.023.1936.0385.2907.052,4.3667-.3946,12.82-1.3832,13.9321-3.182a5.7031,5.7031,0,0,0,.4553-.9225A3.3136,3.3136,0,0,1,92.6962,234.6621Z" style="fill:#e7e7e7"/><path d="M88.63,235.5036l-1.32,1.7081s2.19,1.3362,2.647,1.5574,3.6272.3706,4.6279-.357c.8982-.6532,1.2207-1.5363.7763-1.9707a5.7369,5.7369,0,0,0-2.644-.8761A23.0387,23.0387,0,0,0,88.63,235.5036Z"/><path d="M90.4748,234.6636l-1.2106,3.8756s-19.3182-1.2343-20.8956-3.7979c-1.57-2.5518.5974-6.5135,6.584-4.69C81.0066,231.8948,90.4748,234.6636,90.4748,234.6636Z" style="fill:#fff"/><rect x="79.9435" y="225.6795" width="3.2459" height="5.3897" rx="0.1347" style="fill:#272c66"/><path d="M86.8413,228.3283l-2.4566.3755-.2388,1.4793a25.4132,25.4132,0,0,1,3.2273,0C87.5918,230.32,87.0289,228.4181,86.8413,228.3283Z" style="fill:#f88667"/><path d="M84.2486,230.3833a1.66,1.66,0,0,0,.6205-1.7988c-.1073-.474-.5818-.5856-1.2715-.774a2.001,2.001,0,0,0-1.0758-.1281c-.5154.49,1.0642.79,1.4478.9548,0,0-1.6325-.5166-1.8288-.248-.3513.5063,1.1975.7625,1.5715.8939a2.61,2.61,0,0,0-1.1377-.2446c-.3-.05-.2818.1883-.2581.25.12.312,1.3844.5372,1.3844.5372-.224-.04-1.0194-.3615-.9161.0311.0674.2557.4233.3332.6062.4132A1.2514,1.2514,0,0,0,84.2486,230.3833Z" style="fill:#f88667"/><path d="M76.607,228.3283l2.4565.3755.2389,1.4793a25.4148,25.4148,0,0,0-3.2274,0C75.8564,230.32,76.4194,228.4181,76.607,228.3283Z" style="fill:#f88667"/><path d="M79.2,230.3833a1.66,1.66,0,0,1-.6205-1.7988c.1073-.474.5817-.5856,1.2714-.774a2.0014,2.0014,0,0,1,1.0759-.1281c.5153.49-1.0643.79-1.4478.9548,0,0,1.6325-.5166,1.8288-.248.3513.5063-1.1976.7625-1.5715.8939a2.61,2.61,0,0,1,1.1377-.2446c.2995-.05.2817.1883.2582.25-.12.312-1.3846.5372-1.3846.5372.2241-.04,1.02-.3615.9161.0311-.0673.2557-.4232.3332-.6061.4132A1.2514,1.2514,0,0,1,79.2,230.3833Z" style="fill:#f88667"/><path d="M76.67,216.5645c-.639.1784-2.2045.776-3.6633,4.808-1.3213,3.6518-1.8614,6.6288-1.7347,7.5731.2052,1.5292,6.7041,1.4745,6.7041,1.4745l.39-2.3564s-3.2971-.8652-3.2355-1.1915c.0831-.4406.8181-2.0635,1.1236-3.0533C76.3076,223.6454,77.12,216.4388,76.67,216.5645Z" style="fill:#01d9cf"/><path d="M86.7439,216.7435c.4608.076,2.1575.8693,3.6623,4.629a19.9721,19.9721,0,0,1,1.7347,7.5731c-.2053,1.5292-6.7041,1.4745-6.7041,1.4745l-.39-2.3564s3.2972-.8652,3.2357-1.1915c-.0832-.4406-.8182-2.0635-1.1236-3.0533C87.1054,223.6454,86.2832,216.6675,86.7439,216.7435Z" style="fill:#01d9cf"/><path d="M237.5538,58.592c-4.6443,0-9.2381-.1192-13.8364.1214a56.2209,56.2209,0,0,1-9.43-.37,9.5773,9.5773,0,0,1-3.1415-.84c-.9332-.4376-2.1533-.93-.7361-1.5218,3.11-1.2978,6.7638,1.3252,9.7328-.2741-.3213-.6307-1.4193-1.5747-.9057-2.439.3352-.5641,2.1669-.83,2.7275-.8945a12.8034,12.8034,0,0,1,6.5817.7178c2.2978,1.1021,4.6021.9008,7.1154.9008,1.1287,0,5.85-.5984,6.3805,1.1126.3078.9941-.8944.5539.1466,1.4663.7453.653,2.1142.5332,2.9869.5283.5635-.0032,2.1357-.1505,2.549.46.5887.87-.3053,1.3682-.9482,1.5348C245.1927,59.5062,238.94,58.592,237.5538,58.592Z" style="fill:#fff;stroke:#e7e7e7;stroke-miterlimit:10;stroke-width:0.5px"/><path d="M239.9546,72.1017a43.4056,43.4056,0,0,0,6.9276.1609,10.2224,10.2224,0,0,1,2.9565.1378,21.6087,21.6087,0,0,0,6.227-.2158c1.2647-.1359,2.802.0673,3.979-.6355,2.3384-1.3963-.9775-2.0485-2.0193-1.9254a7.4233,7.4233,0,0,1-5.0432-.8888,5.7852,5.7852,0,0,0-2.5971-.6184c-.7469-.0813-1.9908-.5107-2.6963-.1-.3071.179-.4412.59-.8373.7818A5.0828,5.0828,0,0,1,245,69.0866a18.0537,18.0537,0,0,1-3.1557-.4623c-.7287-.0763-6.1147-1.0344-6.3995.0126-.2036.7481,1.9424.6842,1.7741,1.4268-.1168.5146-2.4264.4805-2.8283.55-.6107.1059-2.961,0-2.9819,1.0285a14.0508,14.0508,0,0,0,5.0924.7241,1.3577,1.3577,0,0,0,.2534-.0234l.0142-.0026A14.185,14.185,0,0,1,239.9546,72.1017Z" style="fill:#fff;stroke:#e7e7e7;stroke-miterlimit:10;stroke-width:0.5px"/><path d="M327.2571,5.7347a41.93,41.93,0,0,0,6.8085.1609,9.8758,9.8758,0,0,1,2.9055.1378,20.8762,20.8762,0,0,0,6.12-.2158c1.2429-.1359,2.7539.0673,3.9106-.6355,2.2981-1.3963-.9608-2.0485-1.9846-1.9254a7.1884,7.1884,0,0,1-4.9563-.8888,5.6067,5.6067,0,0,0-2.5525-.6184c-.734-.0813-1.9565-.5107-2.65-.1-.3018.179-.4336.59-.8229.7818a4.9163,4.9163,0,0,1-1.82.2878,17.4594,17.4594,0,0,1-3.1014-.4623c-.7161-.0763-6.0094-1.0344-6.2893.0126-.2.7481,1.909.6842,1.7436,1.4268-.1148.5146-2.3847.4805-2.78.55-.6.1059-2.91,0-2.9306,1.0285a13.5888,13.5888,0,0,0,5.0047.7241,1.3126,1.3126,0,0,0,.2491-.0234l.0139-.0026A13.7059,13.7059,0,0,1,327.2571,5.7347Z" style="fill:#fff;stroke:#e7e7e7;stroke-miterlimit:10;stroke-width:0.5px"/><polygon points="341.117 54.94 338.319 54.94 338.319 52.142 336.745 52.142 336.745 54.94 333.947 54.94 333.947 56.514 336.745 56.514 336.745 59.312 338.319 59.312 338.319 56.514 341.117 56.514 341.117 54.94" style="fill:#fff9fd;stroke:#e7e7e7;stroke-miterlimit:10;stroke-width:0.5px"/><polygon points="264.447 90.938 261.649 90.938 261.649 88.141 260.075 88.141 260.075 90.938 257.277 90.938 257.277 92.513 260.075 92.513 260.075 95.31 261.649 95.31 261.649 92.513 264.447 92.513 264.447 90.938" style="fill:#fff;stroke:#e7e7e7;stroke-miterlimit:10;stroke-width:0.5px"/><polygon points="403.98 108.92 401.182 108.92 401.182 106.122 399.608 106.122 399.608 108.92 396.81 108.92 396.81 110.494 399.608 110.494 399.608 113.292 401.182 113.292 401.182 110.494 403.98 110.494 403.98 108.92" style="fill:#fff9fd;stroke:#e7e7e7;stroke-miterlimit:10;stroke-width:0.5px"/><polygon points="397.841 3.048 395.043 3.048 395.043 0.25 393.469 0.25 393.469 3.048 390.671 3.048 390.671 4.622 393.469 4.622 393.469 7.42 395.043 7.42 395.043 4.622 397.841 4.622 397.841 3.048" style="fill:#fff9fd;stroke:#e7e7e7;stroke-miterlimit:10;stroke-width:0.5px"/><polygon points="53.689 223.727 50.891 223.727 50.891 220.93 49.317 220.93 49.317 223.727 46.519 223.727 46.519 225.302 49.317 225.302 49.317 228.099 50.891 228.099 50.891 225.302 53.689 225.302 53.689 223.727" style="fill:#fff9fd;stroke:#e7e7e7;stroke-miterlimit:10;stroke-width:0.25px"/></g></g></g></svg>