<svg xmlns="http://www.w3.org/2000/svg" xmlns:xlink="http://www.w3.org/1999/xlink" viewBox="0 0 463.7007 376.2609"><defs><clipPath id="a11dcbba-e23d-41dd-b4bf-41baed97da13" transform="translate(-65.2965 -36.9627)"><rect width="600" height="400" style="fill:none"/></clipPath><linearGradient id="a9b90e67-b418-4f7c-9d90-902ddbcade15" x1="139.8369" y1="275.2009" x2="139.8369" y2="204.0119" gradientTransform="matrix(0.906, -0.4233, 0.4233, 0.906, -75.0515, 53.7421)" gradientUnits="userSpaceOnUse"><stop offset="0" stop-color="#dbccff"/><stop offset="1" stop-color="#d1bbff"/></linearGradient><linearGradient id="e10a78c5-683d-4e88-b399-79fa86bf92e9" x1="139.8328" y1="277.9781" x2="139.8328" y2="206.7891" gradientTransform="matrix(0.906, -0.4233, 0.4233, 0.906, -75.0515, 53.7421)" gradientUnits="userSpaceOnUse"><stop offset="0" stop-color="#b5a6e7"/><stop offset="1" stop-color="#7760bf"/></linearGradient><linearGradient id="b8e31666-6c71-479c-b8f3-d056fd0d7e96" x1="139.8326" y1="260.2796" x2="139.8326" y2="230.2723" xlink:href="#e10a78c5-683d-4e88-b399-79fa86bf92e9"/><linearGradient id="fd830e67-fb82-4957-a8d7-e2bd09e4049a" x1="135.5743" y1="230.8728" x2="144.091" y2="230.8728" gradientTransform="matrix(0.906, -0.4233, 0.4233, 0.906, -75.0515, 53.7421)" gradientUnits="userSpaceOnUse"><stop offset="0" stop-color="#8b8be0"/><stop offset="1" stop-color="#a177b7"/></linearGradient><linearGradient id="a365e24f-4ba1-4057-b65a-3ac5664b7de3" x1="139.8327" y1="232.85" x2="139.8327" y2="227.6944" gradientTransform="matrix(0.906, -0.4233, 0.4233, 0.906, -75.0515, 53.7421)" gradientUnits="userSpaceOnUse"><stop offset="0" stop-color="#fff"/><stop offset="1" stop-color="#a177b7"/></linearGradient><linearGradient id="a89acb2a-07f9-4a61-a89a-fe143ce9562c" x1="144.337" y1="263.3428" x2="144.337" y2="230.2624" gradientTransform="matrix(0.906, -0.4233, 0.4233, 0.906, -75.0515, 53.7421)" gradientUnits="userSpaceOnUse"><stop offset="0"/><stop offset="1" stop-color="#fff"/></linearGradient><linearGradient id="f0a4d63c-be84-4122-9030-9ae4bbfc770c" x1="280.2996" y1="400" x2="280.2996" y2="310.79" gradientUnits="userSpaceOnUse"><stop offset="0" stop-color="#6456c0"/><stop offset="1" stop-color="#5f2c95"/></linearGradient><radialGradient id="b575e9b7-62de-4fdb-a315-5697b4f826db" cx="232.4988" cy="368.6501" r="27.0277" gradientTransform="matrix(0, 0.6632, -1.7135, 0, 868.5288, 213.7257)" gradientUnits="userSpaceOnUse"><stop offset="0" stop-color="#4b474b"/><stop offset="1"/></radialGradient><radialGradient id="ae632366-7b01-41e0-a76b-1bfa11d3927b" cx="351.3293" cy="352.8094" r="27.0272" gradientTransform="matrix(0.6632, 0, 0, 1.7134, 87.0681, -237.0358)" xlink:href="#b575e9b7-62de-4fdb-a315-5697b4f826db"/><linearGradient id="f0e1b40e-4ca9-458b-b848-30d5d1ad3e10" x1="251.4272" y1="368.6816" x2="274.8247" y2="368.6816" gradientUnits="userSpaceOnUse"><stop offset="0" stop-color="#9e8cef"/><stop offset="1" stop-color="#caafee"/></linearGradient><linearGradient id="efed35e1-f64d-4c8f-b99d-06f2eea62a0e" x1="341.5261" y1="368.6826" x2="364.9255" y2="368.6826" gradientTransform="matrix(-1, 0, 0, 1, 647.6286, 0)" xlink:href="#f0e1b40e-4ca9-458b-b848-30d5d1ad3e10"/><linearGradient id="bdd8fcb7-fd71-4438-88e0-e2ccf6fe5347" x1="277.16" y1="400" x2="277.16" y2="310.79" gradientUnits="userSpaceOnUse"><stop offset="0" stop-color="#ccf"/><stop offset="1" stop-color="#755cbb"/></linearGradient><linearGradient id="b2a3789b-4505-4ca3-a1c7-2d0bca0ded76" x1="222.249" y1="318.4323" x2="222.249" y2="294.1005" xlink:href="#bdd8fcb7-fd71-4438-88e0-e2ccf6fe5347"/><linearGradient id="b9de1bb8-ba7f-4f5e-8caa-5d10afb6e9a7" x1="194.0667" y1="309.4849" x2="194.0667" y2="285.6464" xlink:href="#bdd8fcb7-fd71-4438-88e0-e2ccf6fe5347"/><linearGradient id="bffdd9ca-569a-4d61-9b75-4b80be8ce862" x1="283.5421" y1="176.45" x2="283.5421" y2="140.84" gradientUnits="userSpaceOnUse"><stop offset="0" stop-color="#d5cdf8"/><stop offset="1" stop-color="#f3edfb"/></linearGradient><linearGradient id="b96462b1-79b9-4f6e-a142-a6d352c2d357" x1="265.21" y1="158.61" x2="301.8742" y2="158.61" xlink:href="#bdd8fcb7-fd71-4438-88e0-e2ccf6fe5347"/><linearGradient id="e33de774-e3ac-49ac-a1d0-86020e35f43e" x1="273.0582" y1="318.7293" x2="273.0582" y2="139.29" xlink:href="#f0e1b40e-4ca9-458b-b848-30d5d1ad3e10"/><linearGradient id="b4b530cf-a6b4-4800-98e9-d15f183afce7" x1="198.59" y1="206.915" x2="242.29" y2="206.915" xlink:href="#bdd8fcb7-fd71-4438-88e0-e2ccf6fe5347"/><linearGradient id="e892a59a-aa5e-425c-a965-9586a987d9bb" x1="197.2384" y1="257.17" x2="197.2384" y2="173.26" gradientUnits="userSpaceOnUse"><stop offset="0" stop-color="#9e8cef"/><stop offset="1" stop-color="#dac7f3"/></linearGradient><linearGradient id="fb07d27a-c75d-4dde-9bdf-953b39897505" x1="341.5302" y1="232.9861" x2="397.8356" y2="232.9861" gradientUnits="userSpaceOnUse"><stop offset="0" stop-color="#a999f1"/><stop offset="1" stop-color="#dac7f3"/></linearGradient><linearGradient id="b9099c4c-8d04-436e-b599-bada94ff55e3" x1="178.9231" y1="161.8185" x2="178.9231" y2="139.694" gradientUnits="userSpaceOnUse"><stop offset="0.016" stop-color="#ffc2a9"/><stop offset="1" stop-color="#ff9595"/></linearGradient><linearGradient id="e485d519-2dc5-461e-863d-c1d738f7476f" x1="192.855" y1="161.2947" x2="192.855" y2="124.6715" gradientUnits="userSpaceOnUse"><stop offset="0" stop-color="#ffeadb"/><stop offset="0.9944" stop-color="#c27cb6"/></linearGradient><linearGradient id="b5eb173f-f3d3-4975-b88f-1a3a78ab37c8" x1="191.6668" y1="186.21" x2="191.6668" y2="129.75" xlink:href="#b9099c4c-8d04-436e-b599-bada94ff55e3"/><linearGradient id="fc8b668b-1f2c-47ac-8296-7ea41fb59d0e" x1="181.57" y1="177.3993" x2="199.322" y2="177.3993" gradientUnits="userSpaceOnUse"><stop offset="0.016" stop-color="#d1a1d6"/><stop offset="0.9944" stop-color="#bd89c4"/></linearGradient><linearGradient id="fa841ee6-5b67-4110-9537-29ec84bfa835" x1="398.9961" y1="220.6" x2="398.9961" y2="145.0987" xlink:href="#b9099c4c-8d04-436e-b599-bada94ff55e3"/><linearGradient id="ec7e4617-c616-4b2c-8b97-fcd30ffe505b" x1="407.9158" y1="196.41" x2="407.9158" y2="158.9" xlink:href="#e485d519-2dc5-461e-863d-c1d738f7476f"/><linearGradient id="af764cc5-d83a-46ae-bf6d-5eced69a1190" x1="415.3158" y1="183.4632" x2="415.3158" y2="166.6482" gradientUnits="userSpaceOnUse"><stop offset="0" stop-color="#ffb0b0"/><stop offset="0.984" stop-color="#ffc2a9"/></linearGradient><linearGradient id="a2e949c9-8b45-45c8-9948-e64e32a09d16" x1="425.0686" y1="186.0526" x2="425.0686" y2="176.8316" xlink:href="#af764cc5-d83a-46ae-bf6d-5eced69a1190"/><linearGradient id="f5f0a0de-7ef2-4056-b16a-4001848f7673" x1="385.63" y1="204.4312" x2="402.78" y2="204.4312" xlink:href="#fc8b668b-1f2c-47ac-8296-7ea41fb59d0e"/><linearGradient id="bc353b3e-81c5-4b75-ac31-ad67d977eeec" x1="361.7628" y1="263.6213" x2="361.7628" y2="179.11" xlink:href="#bdd8fcb7-fd71-4438-88e0-e2ccf6fe5347"/><linearGradient id="a89bf281-1650-48cb-baed-ec7a2e9e4383" x1="175.69" y1="246.5946" x2="317.04" y2="246.5946" xlink:href="#bdd8fcb7-fd71-4438-88e0-e2ccf6fe5347"/><linearGradient id="a6bec334-1356-403d-8658-de68cf028c31" x1="300.3053" y1="222.9416" x2="327.3233" y2="222.9416" gradientUnits="userSpaceOnUse"><stop offset="0" stop-color="#ccedff"/><stop offset="1" stop-color="#755cbb"/></linearGradient><linearGradient id="aa1f491f-1bf3-4428-b947-1a41f3f9754c" x1="275.8" y1="270.358" x2="315.5061" y2="270.358" xlink:href="#a6bec334-1356-403d-8658-de68cf028c31"/><linearGradient id="b231ab17-c52b-4e4d-b3c1-5b7dcb79058f" x1="277.6387" y1="288.3118" x2="320.06" y2="288.3118" xlink:href="#a6bec334-1356-403d-8658-de68cf028c31"/><linearGradient id="b5c6346b-29be-4b1a-a68a-dc7a58b84adf" x1="241.13" y1="243.86" x2="241.13" y2="196.25" xlink:href="#a6bec334-1356-403d-8658-de68cf028c31"/><linearGradient id="a7a694b2-64a4-43f2-8e11-b6bc069d4af3" x1="244.9629" y1="247.8622" x2="244.9629" y2="211.7722" xlink:href="#a6bec334-1356-403d-8658-de68cf028c31"/><linearGradient id="bf0292de-6e55-4dc7-9379-918f7eb611fd" x1="187.925" y1="201.7273" x2="187.925" y2="174.46" xlink:href="#a6bec334-1356-403d-8658-de68cf028c31"/><linearGradient id="b3a9f3b7-494e-44f7-a889-ff121d657c9b" x1="209.99" y1="177.7153" x2="220.9789" y2="177.7153" xlink:href="#a6bec334-1356-403d-8658-de68cf028c31"/><linearGradient id="b89eb196-9a73-4590-bd7b-2936425bfbef" x1="329.4473" y1="243.86" x2="329.4473" y2="193.32" xlink:href="#bdd8fcb7-fd71-4438-88e0-e2ccf6fe5347"/><linearGradient id="a8f7a1f1-9ac2-4458-9bbe-6eac1e6acc98" x1="386.2679" y1="232.99" x2="386.2679" y2="206.58" xlink:href="#bdd8fcb7-fd71-4438-88e0-e2ccf6fe5347"/><linearGradient id="a34dfa13-0a2c-46fa-bf34-3cce2fc86765" x1="356.3158" y1="231.81" x2="356.3158" y2="211.62" xlink:href="#bdd8fcb7-fd71-4438-88e0-e2ccf6fe5347"/><linearGradient id="ea650ab7-9161-4b3a-8888-23538198787c" x1="182.2174" y1="203.4679" x2="182.2174" y2="195.97" xlink:href="#a6bec334-1356-403d-8658-de68cf028c31"/><linearGradient id="e87fb1f3-c60f-43f0-9830-88c89d460861" x1="202.2462" y1="226.3269" x2="202.2462" y2="185.35" xlink:href="#bdd8fcb7-fd71-4438-88e0-e2ccf6fe5347"/><linearGradient id="bacfedda-44ea-492f-802a-181871281fa9" x1="307.6695" y1="197.4842" x2="307.6695" y2="166.6482" xlink:href="#a6bec334-1356-403d-8658-de68cf028c31"/><linearGradient id="bb4d5e91-ff7e-4ece-a2da-b09154292829" x1="267.2717" y1="193.3158" x2="267.2717" y2="150.7562" xlink:href="#a6bec334-1356-403d-8658-de68cf028c31"/><linearGradient id="b2bec5f5-cd61-435f-b186-6c3411c4643d" x1="252.901" y1="201.0999" x2="323.9855" y2="201.0999" gradientUnits="userSpaceOnUse"><stop offset="0" stop-color="#8642a0"/><stop offset="1" stop-color="#6456c0"/></linearGradient><linearGradient id="f34a8910-dd6e-451b-97ab-5ca34ef9e18e" x1="259.03" y1="160.08" x2="305.29" y2="160.08" xlink:href="#bdd8fcb7-fd71-4438-88e0-e2ccf6fe5347"/><linearGradient id="b9f0ae9c-6bf1-4e7a-9e82-942b261b7f3d" x1="377.9513" y1="229.9789" x2="377.9513" y2="203.2074" xlink:href="#bdd8fcb7-fd71-4438-88e0-e2ccf6fe5347"/><linearGradient id="a445ca05-d96c-487d-9ebb-b46917d88213" x1="340.11" y1="260.18" x2="340.11" y2="179.11" xlink:href="#bdd8fcb7-fd71-4438-88e0-e2ccf6fe5347"/><linearGradient id="a32537ec-02cb-4287-bff3-60aa43d99695" x1="252.95" y1="298.26" x2="252.95" y2="275.02" xlink:href="#bdd8fcb7-fd71-4438-88e0-e2ccf6fe5347"/><linearGradient id="b66e17f3-48bd-42c6-a5fe-bf83e899ebe6" x1="298.095" y1="291.8761" x2="298.095" y2="280.59" xlink:href="#bdd8fcb7-fd71-4438-88e0-e2ccf6fe5347"/><linearGradient id="fe764f85-1966-49f5-b167-f243ea59dfd3" x1="297.5975" y1="146.8119" x2="297.5975" y2="69.6049" xlink:href="#b9099c4c-8d04-436e-b599-bada94ff55e3"/><linearGradient id="ac1b8ff7-4222-4d24-b706-bfd6d9c15d38" x1="268.8155" y1="115.6572" x2="268.8155" y2="92.8947" xlink:href="#b9099c4c-8d04-436e-b599-bada94ff55e3"/><linearGradient id="ae7f1c3f-eaa3-444e-adc9-4a3429ad7e97" x1="308.3286" y1="124.2652" x2="309.283" y2="119.296" gradientUnits="userSpaceOnUse"><stop offset="0" stop-color="#e1616a"/><stop offset="1" stop-color="#ff8883"/></linearGradient><linearGradient id="a4926b41-e6e1-4844-9fa2-4454d409eb81" x1="299.7135" y1="120.4631" x2="299.7135" y2="70.7263" xlink:href="#e485d519-2dc5-461e-863d-c1d738f7476f"/><linearGradient id="a4523b79-eb5e-4155-8842-77b9efa24646" x1="297.2895" y1="100.0947" x2="297.2895" y2="90.2421" gradientUnits="userSpaceOnUse"><stop offset="0" stop-color="#cf6074"/><stop offset="1" stop-color="#f37270"/></linearGradient><linearGradient id="f3450592-e939-4739-acc8-f56fe6a832ca" x1="316.9416" y1="103.2211" x2="316.9416" y2="94.6474" gradientUnits="userSpaceOnUse"><stop offset="0" stop-color="#cf6074"/><stop offset="1" stop-color="#ff817f"/></linearGradient><linearGradient id="e758f360-d84a-436d-bcdd-1535bdef2c5e" x1="317.7484" y1="108.21" x2="317.7484" y2="88.9167" xlink:href="#e485d519-2dc5-461e-863d-c1d738f7476f"/><linearGradient id="afbe5d05-bf9c-4bb5-92e4-c4a32828d84a" x1="298.6336" y1="147.7828" x2="298.6336" y2="54.15" gradientUnits="userSpaceOnUse"><stop offset="0" stop-color="#2e33a0"/><stop offset="1" stop-color="#0665a5"/></linearGradient><linearGradient id="fb8fd342-e074-49e3-8598-0cb8dba56c04" x1="323.2266" y1="88.82" x2="323.2266" y2="67.22" gradientUnits="userSpaceOnUse"><stop offset="0" stop-color="#ffeadb"/><stop offset="0.9944" stop-color="#8860c7"/></linearGradient><linearGradient id="aeba1325-5ea4-4ae8-9db8-d6fb174e1c18" x1="293.792" y1="147.7828" x2="293.792" y2="54.15" gradientUnits="userSpaceOnUse"><stop offset="0" stop-color="#ccc2db"/><stop offset="0.9944" stop-color="#8860c7"/></linearGradient><linearGradient id="b8a0394a-40fe-47fb-becb-a4dba2eea828" x1="300.0704" y1="147.7607" x2="300.0704" y2="143.7378" gradientUnits="userSpaceOnUse"><stop offset="0" stop-color="#776d7e"/><stop offset="1" stop-color="#9d68c2"/></linearGradient><linearGradient id="b96db561-37c3-4335-8089-8117c5c0aec7" x1="311.8728" y1="60.87" x2="311.8728" y2="57.8813" gradientUnits="userSpaceOnUse"><stop offset="0" stop-color="#1f77d1"/><stop offset="1" stop-color="#0686c9"/></linearGradient><linearGradient id="b01364c1-050d-483a-90ef-ac16506694e6" x1="292.8335" y1="70.71" x2="292.8335" y2="61.8734" xlink:href="#b96db561-37c3-4335-8089-8117c5c0aec7"/><linearGradient id="a8db3915-fa09-4fe2-b401-c9fc767d1ce7" x1="324.855" y1="75.19" x2="324.855" y2="67.22" xlink:href="#b96db561-37c3-4335-8089-8117c5c0aec7"/><linearGradient id="fda85fea-89d6-46d5-9906-01b8ee23b695" x1="272.1304" y1="110.2623" x2="261.9347" y2="97.7712" gradientUnits="userSpaceOnUse"><stop offset="0" stop-color="#ffeadb"/><stop offset="0.9944" stop-color="#b060f4"/></linearGradient><linearGradient id="b596fab6-b04d-44a6-be61-92b212c34aa0" x1="273.1978" y1="108.6533" x2="268.1812" y2="102.5073" xlink:href="#fda85fea-89d6-46d5-9906-01b8ee23b695"/><linearGradient id="a2a1969e-3800-481b-9572-2045ca290851" x1="292.2432" y1="71.5004" x2="309.51" y2="71.5004" xlink:href="#b96db561-37c3-4335-8089-8117c5c0aec7"/><linearGradient id="ba7e2553-2a63-4dae-b99e-dc59ea4ed455" x1="316.5974" y1="123.1387" x2="321.8345" y2="123.1387" xlink:href="#b96db561-37c3-4335-8089-8117c5c0aec7"/><linearGradient id="e0386272-bf13-4bfc-b423-e274fe137b18" x1="310.1316" y1="119.2445" x2="315.7802" y2="119.2445" xlink:href="#b96db561-37c3-4335-8089-8117c5c0aec7"/><linearGradient id="a85afe8e-de60-4461-ba86-737c8bb209f5" x1="351.7959" y1="132.9462" x2="528.8544" y2="132.9462" gradientUnits="userSpaceOnUse"><stop offset="0" stop-color="#9d68c2"/><stop offset="1" stop-color="#aec2ff"/></linearGradient><linearGradient id="a8e25460-4553-477e-9842-c3cb6d7cc558" x1="322.5175" y1="162.8569" x2="322.5175" y2="109.4547" gradientUnits="userSpaceOnUse"><stop offset="0" stop-color="#ccedff"/><stop offset="1" stop-color="#9d68c2"/></linearGradient><linearGradient id="b03aa1cb-34ad-4976-b8fd-0b20c012f9f0" x1="413.5763" y1="136.8208" x2="413.5763" y2="113.2982" xlink:href="#a8e25460-4553-477e-9842-c3cb6d7cc558"/><linearGradient id="a545a98b-b4eb-4a58-a6c8-324737daf042" x1="441.3297" y1="136.8208" x2="441.3297" y2="113.2982" xlink:href="#a8e25460-4553-477e-9842-c3cb6d7cc558"/><linearGradient id="b61c085f-eba5-4d8e-bf13-3dde26771912" x1="385.3591" y1="136.8208" x2="385.3591" y2="113.2982" xlink:href="#a8e25460-4553-477e-9842-c3cb6d7cc558"/><linearGradient id="e21adc13-dbf7-4bdb-b666-cb517f68e237" x1="132.3715" y1="79.0247" x2="132.3715" y2="54.4027" gradientUnits="userSpaceOnUse"><stop offset="0" stop-color="#d93de3"/><stop offset="1" stop-color="#ff6dba"/></linearGradient><linearGradient id="fb88ff77-4f33-4835-8dbb-4a6998965bb3" x1="147.4214" y1="79.0247" x2="147.4214" y2="54.4027" gradientUnits="userSpaceOnUse"><stop offset="0" stop-color="#a242ea"/><stop offset="1" stop-color="#fe117e"/></linearGradient><linearGradient id="fe2b121e-f088-4535-b26e-2b8e82deeed9" x1="193.3956" y1="375.37" x2="206.7105" y2="269.3559" gradientUnits="userSpaceOnUse"><stop offset="0" stop-color="#067eff"/><stop offset="1" stop-color="#3e37a0"/></linearGradient><linearGradient id="e1452575-b466-44a1-8aad-eb291a285f6d" x1="504.249" y1="113.3083" x2="504.249" y2="104.3711" gradientUnits="userSpaceOnUse"><stop offset="0" stop-color="#459fff"/><stop offset="1" stop-color="#a96dff"/></linearGradient><linearGradient id="fd314cc9-dedc-4cb6-9a45-6b0aff0b931a" x1="84.2557" y1="218.0383" x2="84.2557" y2="206.915" xlink:href="#e1452575-b466-44a1-8aad-eb291a285f6d"/><linearGradient id="b06406f9-bddf-497c-af3d-b92244d7cab2" x1="452.0777" y1="76.3456" x2="452.0777" y2="67.4084" gradientUnits="userSpaceOnUse"><stop offset="0" stop-color="#b31a8f"/><stop offset="1" stop-color="#fe117e"/></linearGradient><linearGradient id="f5d13719-db44-46c4-a250-d7af4a177126" x1="163.9068" y1="105.7629" x2="163.9068" y2="99.4433" xlink:href="#b06406f9-bddf-497c-af3d-b92244d7cab2"/><linearGradient id="be69dc3f-a6a4-4d44-b604-3bc1d9ae7329" x1="375.5634" y1="245.2005" x2="375.5634" y2="238.8809" xlink:href="#b2bec5f5-cd61-435f-b186-6c3411c4643d"/><linearGradient id="b3b27e1f-f0c1-4a25-8ef9-daf0e59a128b" x1="47.0418" y1="276.37" x2="47.0418" y2="270.7204" xlink:href="#b2bec5f5-cd61-435f-b186-6c3411c4643d"/><linearGradient id="a84219da-94e5-4f19-85cc-556eb42eebbc" x1="136.0431" y1="282.7714" x2="136.0431" y2="236.1088" gradientUnits="userSpaceOnUse"><stop offset="0" stop-color="#d906e3"/><stop offset="1" stop-color="#ff6df9"/></linearGradient><linearGradient id="ac2789ce-35d1-4cee-a42a-86528068c8c4" x1="458.2341" y1="348.8215" x2="458.2341" y2="290.4473" xlink:href="#a84219da-94e5-4f19-85cc-556eb42eebbc"/><linearGradient id="fcd04a3d-8505-4b4f-84da-edf6a6a1ad8c" x1="404.3205" y1="275.2039" x2="399.3466" y2="232.5129" gradientTransform="matrix(0.9656, 0.26, -0.26, 0.9656, 63.6333, -54.681)" gradientUnits="userSpaceOnUse"><stop offset="0" stop-color="#1852a0"/><stop offset="1" stop-color="#067ed3"/></linearGradient><linearGradient id="a5546d20-d594-4c48-923e-85f228096b79" x1="399.4991" y1="275.3656" x2="399.4991" y2="231.6211" xlink:href="#fcd04a3d-8505-4b4f-84da-edf6a6a1ad8c"/><linearGradient id="b0f8db83-ec62-4273-8a4e-31f555615081" x1="361.9373" y1="289.2716" x2="358.72" y2="261.6577" gradientTransform="matrix(0.9438, 0.3306, -0.5202, 1.4851, 181.3359, -235.9143)" gradientUnits="userSpaceOnUse"><stop offset="0" stop-color="#188dc1"/><stop offset="1" stop-color="#06bfe7"/></linearGradient><linearGradient id="f5fcc2f4-bd8f-43c4-b801-2d037a1806b3" x1="347.0547" y1="51.1347" x2="358.3862" y2="9.0515" gradientTransform="matrix(1, 0, 0, 1, 0, 0)" xlink:href="#b0f8db83-ec62-4273-8a4e-31f555615081"/><linearGradient id="a63b4f20-4427-492a-9b4b-097aae8caacc" x1="327.577" y1="46.2799" x2="336.0272" y2="14.8976" gradientTransform="matrix(1, 0, 0, 1, 0, 0)" xlink:href="#fcd04a3d-8505-4b4f-84da-edf6a6a1ad8c"/><linearGradient id="b9f98cda-2007-4a99-90a4-6f0d532e3146" x1="121.9244" y1="160.5708" x2="129.6494" y2="131.8817" gradientTransform="matrix(-1, 0, 0, 1, 141.3594, -36.9627)" xlink:href="#b0f8db83-ec62-4273-8a4e-31f555615081"/><linearGradient id="fc6f2697-81b1-4557-9d60-47e23037b5dd" x1="108.646" y1="157.2612" x2="114.4067" y2="135.8671" gradientTransform="matrix(-1, 0, 0, 1, 141.3594, -36.9627)" xlink:href="#fcd04a3d-8505-4b4f-84da-edf6a6a1ad8c"/></defs><g style="isolation:isolate"><g id="a86334b6-56d5-4e78-a727-d7e26986fdaf" data-name="Capa 2"><g id="a8b1437f-167e-4234-9226-d8e6d8d15f73" data-name="illustration"><g style="clip-path:url(#a11dcbba-e23d-41dd-b4bf-41baed97da13)"><path d="M148.2109,196.0962q.0111-.3677.355-.3579l6.708.2036a5.0239,5.0239,0,0,1,1.6875.3032,2.82,2.82,0,0,1,1.1094.7471,2.7708,2.7708,0,0,1,.5918,1.1367,5.1118,5.1118,0,0,1,.1519,1.4741l-.0562,1.8423a5.1112,5.1112,0,0,1-.2407,1.4619,2.7635,2.7635,0,0,1-.66,1.1,2.8356,2.8356,0,0,1-1.1528.6787,5.0516,5.0516,0,0,1-1.7027.2l-3.6113-.11-.748-2.1123-.0977-.0029-.0635,2.0878-2.5312-.0771Zm2.3413,6.33,4.2872.1308a1.3884,1.3884,0,0,0,1.0419-.288,1.6237,1.6237,0,0,0,.3409-1.1211l.0454-1.4991a1.59,1.59,0,0,0-.272-1.1455,1.4466,1.4466,0,0,0-1.0229-.332l-4.1036-.125a.1735.1735,0,0,0-.1367.0513.1872.1872,0,0,0-.0527.1274Z" transform="translate(-65.2965 -36.9627)" style="fill:#f1f1f4"/><path d="M162.4453,199.9346l-.0859-.0025-.0811,2.6783a.1513.1513,0,0,0,.1665.1767l7.543.23-.07,2.3213-9.89-.3a.32.32,0,0,1-.3452-.3789l.249-8.2075a.3206.3206,0,0,1,.3677-.3575l9.6065.292a.3261.3261,0,0,1,.3579.3794l-.0708,2.3223-2.3731.8008-.0986-.003.0361-1.1914c.003-.09-.0366-.1367-.1186-.1391l-5.0733-.1538a.1354.1354,0,0,0-.1308.0507.2435.2435,0,0,0-.0337.1163l-.0337,1.1176,4.1767.1265-.0556,1.8193-3.502-.1064Z" transform="translate(-65.2965 -36.9627)" style="fill:#f1f1f4"/><path d="M179.2109,199.7671l-.0986-.0029.03-.9829a.13.13,0,0,0-.1426-.1519l-4.7178-.1436a.38.38,0,0,0-.4682.4161l-.0069.2211a.4462.4462,0,0,0,.0757.3345.6993.6993,0,0,0,.3291.1211l5.5288.9419a3.7064,3.7064,0,0,1,.8907.2549,1.6982,1.6982,0,0,1,.59.4238,1.4386,1.4386,0,0,1,.3125.6309,3.3611,3.3611,0,0,1,.0723.875l-.0215.7119a3.1987,3.1987,0,0,1-.1651.9726,1.6506,1.6506,0,0,1-.4638.6993,1.95,1.95,0,0,1-.8242.4111,4.4932,4.4932,0,0,1-1.2447.11l-7.9609-.2422.07-2.3213,7.1367.2168a.5731.5731,0,0,0,.4282-.1045.6205.6205,0,0,0,.1163-.4082l.0073-.2451a.5029.5029,0,0,0-.0694-.3282.484.484,0,0,0-.3095-.1269l-5.336-.8379a4.2753,4.2753,0,0,1-.9213-.2495,1.7706,1.7706,0,0,1-.6207-.4121,1.4235,1.4235,0,0,1-.3374-.6128,2.8692,2.8692,0,0,1-.0844-.8511l.019-.6265a2.0776,2.0776,0,0,1,.5606-1.4892,2.323,2.323,0,0,1,1.7368-.482l7.9477.2413a.3424.3424,0,0,1,.3692.4043l-.0557,1.8432Z" transform="translate(-65.2965 -36.9627)" style="fill:#f1f1f4"/><path d="M182.57,205.7217l.2715-8.9429,2.5312.0767-.2714,8.9433Z" transform="translate(-65.2965 -36.9627)" style="fill:#f1f1f4"/><path d="M194.4932,202.2471c.0039-.1309.0019-.2676-.0069-.4121s-.0175-.2686-.0312-.376l.0029-.11,2.5059.0762-.1328,4.3857c-.0069.23-.1133.3409-.3174.335l-6.7315-.2041a5.0567,5.0567,0,0,1-1.6884-.3037,2.82,2.82,0,0,1-1.1084-.7471,2.765,2.765,0,0,1-.5928-1.1367,5.1265,5.1265,0,0,1-.1514-1.4736l.0557-1.8433a5.12,5.12,0,0,1,.2412-1.4624,2.7732,2.7732,0,0,1,.66-1.0986,2.8243,2.8243,0,0,1,1.1524-.6778,5.0305,5.0305,0,0,1,1.7031-.2006l6.6943.2031a.3209.3209,0,0,1,.3458.3789l-.0586,1.9292-2.3731.7891-.0986-.0035.0263-.86c.003-.0821-.0322-.1241-.1064-.126l-4.2744-.13a2.4587,2.4587,0,0,0-.6221.0488.8746.8746,0,0,0-.42.2207.9877.9877,0,0,0-.2461.4351,2.7184,2.7184,0,0,0-.0957.68l-.0469,1.5727a1.6253,1.6253,0,0,0,.2725,1.14,1.3926,1.3926,0,0,0,1.0234.3506l4.2383.1289c.09.0019.1357-.0449.1387-.1436Z" transform="translate(-65.2965 -36.9627)" style="fill:#f1f1f4"/><path d="M202.3145,197.37a.7027.7027,0,0,1,.3974.0982.8029.8029,0,0,1,.2061.2763l3.1963,6.5284a.26.26,0,0,0,.2285.1543l.1347.0048a.1746.1746,0,0,0,.2032-.1914l.2041-6.7319,2.2968.07-.2607,8.5879q-.01.356-.3545.3447l-3.6377-.11a.79.79,0,0,1-.3828-.085.6766.6766,0,0,1-.2324-.29l-3.3184-6.5195a.2445.2445,0,0,0-.2285-.1543l-.123-.0039a.1739.1739,0,0,0-.2022.1909l-.2041,6.72-2.2978-.07.2607-8.5752c.0078-.2451.125-.3648.3545-.3574Z" transform="translate(-65.2965 -36.9627)" style="fill:#f1f1f4"/><circle cx="269.05" cy="195.53" r="155.0183" transform="translate(-124.7542 210.5538) rotate(-45)" style="fill:#e0f3ff"/><path d="M155.0971,185.6089a23.7973,23.7973,0,0,0-10.5535-9.2635l-2.3506,1.0982,5.2936,9.6044a10.2957,10.2957,0,0,1-3.239,5.72l-.0073-.0156a10.2962,10.2962,0,0,1-6.4654-1.186l-3.97-10.2228-2.3506,1.0982a23.7973,23.7973,0,0,0,.3333,14.0385s1.0026,2.3142,1.1756,2.5162c.9316,1.0872,3.3608,2.3417,8.0555,2.0514l16.2045,30.912a8.4741,8.4741,0,1,0,8.759-4.0916L152.6772,195.62c3.1664-3.3419,3.8359-5.9748,3.5955-7.4948C156.2219,187.8036,155.0971,185.6089,155.0971,185.6089Zm13.3274,53.31-4.2925,2.0054-3.8824-2.7133.41-4.7188,4.2925-2.0055,3.8823,2.7133Z" transform="translate(-65.2965 -36.9627)" style="fill:url(#a9b90e67-b418-4f7c-9d90-902ddbcade15)"/><path d="M156.2727,188.1251a23.7979,23.7979,0,0,0-10.5535-9.2636l-2.3506,1.0982,5.2935,9.6044a10.2964,10.2964,0,0,1-3.2389,5.72l-.0073-.0157a10.2954,10.2954,0,0,1-6.4654-1.186l-3.97-10.2227-2.3506,1.0982a23.7972,23.7972,0,0,0,.3333,14.0385s3.6645,4.9118,9.2311,4.5675l16.2044,30.9121a8.474,8.474,0,1,0,8.7591-4.0917l-13.3052-32.2481C157.6887,194.0874,156.2727,188.1251,156.2727,188.1251Zm13.3273,53.31-4.2924,2.0055-3.8824-2.7134.41-4.7187,4.2925-2.0055,3.8824,2.7133Z" transform="translate(-65.2965 -36.9627)" style="fill:url(#e10a78c5-683d-4e88-b399-79fa86bf92e9)"/><rect x="131.9204" y="181.762" width="2.5945" height="2.7773" transform="translate(-130.2993 36.6445) rotate(-25.0426)" style="fill:#e5e2ff"/><rect x="142.6589" y="176.764" width="2.5945" height="2.7772" transform="translate(-127.1756 40.7231) rotate(-25.0434)" style="fill:#e5e2ff"/><rect x="164.4971" y="239.7913" width="4.7378" height="2.7772" transform="translate(-151.6992 56.3424) rotate(-25.0425)" style="fill:#e5e2ff"/><path d="M145.6641,205.86l13.0869,25.1508a6.403,6.403,0,0,0,5.2829-2.4682L153.38,202.2549A10.0469,10.0469,0,0,0,145.6641,205.86Zm17.36,22.8879a7.4487,7.4487,0,0,1-1.6939,1.1087,6.3277,6.3277,0,0,1-1.8064.5393l-13.1065-24.6338a13.53,13.53,0,0,1,3.15-2.0684,11.0431,11.0431,0,0,1,3.24-.9553Z" transform="translate(-65.2965 -36.9627)" style="fill:url(#b8e31666-6c71-479c-b8f3-d056fd0d7e96)"/><path d="M163.0239,228.7479l1.01-.2053a5.6637,5.6637,0,0,1-5.2829,2.4682l.7726-.6149A7.133,7.133,0,0,0,163.0239,228.7479Z" transform="translate(-65.2965 -36.9627)" style="fill:#e5e2ff"/><path d="M145.6641,205.86l.753-.0979a12.205,12.205,0,0,1,6.39-3.0237l.5729-.4835a9.822,9.822,0,0,0-7.7162,3.6051Z" transform="translate(-65.2965 -36.9627)" style="opacity:0.62;mix-blend-mode:multiply;fill:url(#fd830e67-fb82-4957-a8d7-e2bd09e4049a)"/><path d="M142.1945,203.5638a28.8935,28.8935,0,0,0,11.6583-5.4277l1.7017,4.1244s-1.93-1.91-6.1652-.1839c-4.9543,2.0189-4.6834,6.0044-4.6834,6.0044Z" transform="translate(-65.2965 -36.9627)" style="opacity:0.62;mix-blend-mode:multiply;fill:url(#a365e24f-4ba1-4057-b65a-3ac5664b7de3)"/><path d="M155.5545,202.2605a5.1,5.1,0,0,0-2.5895-.8944l12.6662,30.5954,1.5268-1.5773Z" transform="translate(-65.2965 -36.9627)" style="opacity:0.5;mix-blend-mode:screen;fill:url(#a89acb2a-07f9-4a61-a89a-fe143ce9562c)"/><path d="M155.5545,202.2605s-1.3291,4.0878,2.4867,6.027Z" transform="translate(-65.2965 -36.9627)" style="fill:#fff"/><path d="M346.2316,400H299.23c-4.92-27.32-16.36-62.87-16.36-62.87-2.78-1.65-8.21.38-8.21.38L257.48,400H214.54c-2.28-38.56,18.82-82.33,18.82-82.33l-.01-.01a4.7252,4.7252,0,0,1-.56-2.39,5.6817,5.6817,0,0,1,1.6-1.86c1.16-1.06,2.54-2.12,2.54-2.12l80.11-.5s.81.41,1.84,1.03h.01c1.75,1.06,4.12,2.7,4.12,3.9a5.4653,5.4653,0,0,1-.81,2.96l-.04.05C339.3368,351.1474,346.2316,400,346.2316,400Z" transform="translate(-65.2965 -36.9627)" style="fill:url(#f0a4d63c-be84-4122-9030-9ae4bbfc770c)"/><ellipse cx="236.8595" cy="367.9163" rx="46.3103" ry="17.9244" transform="translate(-240.1844 479.0379) rotate(-77.0082)" style="opacity:0.5;mix-blend-mode:screen;fill:url(#b575e9b7-62de-4fdb-a315-5697b4f826db)"/><ellipse cx="320.06" cy="367.4669" rx="17.9244" ry="46.3103" transform="translate(-152.5784 63.0292) rotate(-15.6542)" style="opacity:0.5;mix-blend-mode:screen;fill:url(#ae632366-7b01-41e0-a76b-1bfa11d3927b)"/><path d="M251.92,400.042l-.4932-.084c5.4654-32.1992,19.3379-59.2041,19.4771-59.4736l.0576-.0733,3.5337-3.09.3291.3769-3.4976,3.0577C270.7036,341.9746,257.272,368.5127,251.92,400.042Z" transform="translate(-65.2965 -36.9627)" style="fill:url(#f0e1b40e-4ca9-458b-b848-30d5d1ad3e10)"/><path d="M305.61,400.042c-5.3565-31.5518-19.1587-58.3467-19.7793-59.5381l-3.128-2.8076.334-.3731,3.2158,2.9082c.1431.2715,14.3843,27.5264,19.85,59.7266Z" transform="translate(-65.2965 -36.9627)" style="fill:url(#efed35e1-f64d-4c8f-b99d-06f2eea62a0e)"/><path d="M323.01,315.72a5.4653,5.4653,0,0,1-.81,2.96l-.04.05c-16.68,3.77-29.37,19.34-29.37,19.34,9.09,17.44,24.25,61.93,24.25,61.93H299.23c-4.92-27.32-16.36-62.87-16.36-62.87-2.78-1.65-8.21.38-8.21.38L257.48,400H246.36c3.98-26.18,15.73-58.14,15.73-58.14-11.55-13.45-28.73-24.19-28.73-24.19l-.01-.01-2.04-1.28,1.48-1.11c7.43,7.13,31.39,16.44,32.13,16.73l-30.53-18.59c1.16-1.06,2.54-2.12,2.54-2.12l80.11-.5s.81.41,1.84,1.03L297,323.86Z" transform="translate(-65.2965 -36.9627)" style="opacity:0.76;mix-blend-mode:multiply;fill:url(#bdd8fcb7-fd71-4438-88e0-e2ccf6fe5347)"/><polygon points="217.574 300.167 226.925 294.1 224.703 300.167 223.075 318.432 217.574 300.167" style="opacity:0.76;mix-blend-mode:multiply;fill:url(#b2a3789b-4505-4ca3-a1c7-2d0bca0ded76)"/><polygon points="209.363 300.547 199.623 295.037 178.77 285.646 205.325 303.195 206.906 309.485 209.363 300.547" style="opacity:0.76;mix-blend-mode:multiply;fill:url(#b9de1bb8-ba7f-4f5e-8caa-5d10afb6e9a7)"/><path d="M301.46,149.65c.06.43.11.66.11.66a57.2732,57.2732,0,0,1-1.66,5.66,46.0044,46.0044,0,0,1-6.23,12.12,23.8539,23.8539,0,0,1-2.72,3.18c-14.59-4.58-21.78-18.85-24.54-25.95a.3582.3582,0,0,1-.04-.11c-.53-1.34-.88-2.42-1.1-3.12v-.01c-.17-.56-.25-.87-.25-.87.06-.12.12-.25.18-.37l.03-.05c.24-.5.48-1.01.7-1.5a71.163,71.163,0,0,0,4-11.17c.71-2.62,1.09-4.64,1.27-5.71.09-.55.13-.85.13-.85l6.8,3.59,23.43,12.4a38.5472,38.5472,0,0,0-.5,5.94c-.02,1.25.02,2.37.09,3.32.07,1.16.19,2.08.28,2.68v.01A.68.68,0,0,0,301.46,149.65Z" transform="translate(-65.2965 -36.9627)" style="fill:#fe9083"/><path d="M294.96,172.84a20.1,20.1,0,0,1-4.84,3.54.7459.7459,0,0,1-.12.07s-.05-.03-.14-.08l-.01-.01c-.51-.31-2.25-1.38-4.59-3.14-6.12-4.61-16.34-13.93-19.26-26.49-.01-.02-.01-.03-.02-.05a31.1419,31.1419,0,0,1-.7-4.59v-.01c-.03-.41-.06-.82-.07-1.24a64.431,64.431,0,0,0,5.55,9.92c4.14,6.06,10.35,12.67,17.77,12.71,6.42.04,9.71-4.35,11.38-8.4a22.9166,22.9166,0,0,0,1.35-4.6.031.031,0,0,0,.01-.02c.07-.36.12-.68.17-.95v-.01c.02-.14.04-.26.05-.37.06-.45.08-.71.08-.71S304.03,163.77,294.96,172.84Z" transform="translate(-65.2965 -36.9627)" style="fill:url(#bffdd9ca-569a-4d61-9b75-4b80be8ce862)"/><path d="M294.96,172.84a20.1,20.1,0,0,1-4.84,3.54H290l-.14-.01-.01-.01c-.51-.31-2.25-1.38-4.59-3.14-6.12-4.61-16.34-13.93-19.26-26.49-.01-.02-.01-.03-.02-.05a31.1419,31.1419,0,0,1-.7-4.59v-.01c-.03-.41-.06-.82-.07-1.24a64.431,64.431,0,0,0,5.55,9.92s4.04,11.1,12.78,16.6c4.38,2.75,7.7,2.35,10.14.73a15.0862,15.0862,0,0,0,4.95-6.54,15.3772,15.3772,0,0,0,1.28-5.58q.015-.495,0-.9a22.9166,22.9166,0,0,0,1.35-4.6.031.031,0,0,0,.01-.02c.07-.36.12-.68.17-.95v-.01c.02-.14.04-.26.05-.37.06-.45.08-.71.08-.71S304.03,163.77,294.96,172.84Z" transform="translate(-65.2965 -36.9627)" style="opacity:0.5;mix-blend-mode:multiply;fill:url(#b96462b1-79b9-4f6e-a142-a6d352c2d357)"/><path d="M351.12,263.53a1.7753,1.7753,0,0,0-.16.08c-.82.1-3.37-.46-6.71-3.35l-.01-.01q0-.015-.03-.03c-.01-.01-.02-.03-.04-.04-2.8-2.45-6.16-6.54-9.51-13.24-6.7-13.39-8.62-22.33-8.93-23.89l-.04-.24-3.91,6.2c-2.65,7.97-7.67,40.95-7.58,42.37s4.45,8.34,4.36,9.19a.031.031,0,0,1-.01.02c-.12.86-2.08,2.75-2.64,4.81-.38,1.37,2.28,5.69,4.15,8.92v.01a13.1345,13.1345,0,0,1,1.72,3.58c0,1.51-4.74,8.9-4.74,8.9v3.98l-.07.07-.22.2-.18.15c-1.8,1.42-9.43,6.07-33.27,7.35-28.25,1.51-47.07-7.58-47.07-7.58l1.42-3.89s-1.32-1.13-1.42-1.7c-.09-.57,1.04-1.9,1.04-1.9s-2.84-1.51-2.84-3.41c0-1.89,5.69-7.76,5.5-12.79-.19-5.02-4.55-9.47-5.12-12.31s7.39-9.85,7.39-9.85c-6.82-21.6-8.15-50.59-8.15-50.59l-1.32-1.52s-8.15,18.57-15.54,27.66c-.88,1.08-1.81,2.15-2.77,3.18a80.9762,80.9762,0,0,1-6.36,6.15c-5.12,4.46-9.77,7.39-10.95,7.16-1.9-.38-9.48-15.35-9.13-30.7.16-7.3,4.56-15.47,9.13-22.02.49-.7.98-1.39,1.48-2.06a104.8921,104.8921,0,0,1,7.84-9.45c.58-.62.91-.95.91-.95s-1.04-3.35-1.75-6.26a1.5985,1.5985,0,0,0-.05-.21.3553.3553,0,0,0-.02-.1.3125.3125,0,0,0-.02-.07c-.42-1.79-.68-3.34-.44-3.72.63-1.01,4.3-2.15,4.93-2.9.63-.76,3.28-13.52,5.3-14.91,1.94-1.33,5.35-2.3,16.72-6.77.56-.22,1.13-.44,1.73-.68,12.75-5.05,25.26-11.18,25.26-11.18l4.8-5.9h2.14l-.7,1.5-.03.05c.34,1.52.73,2.98,1.17,4.37a.3582.3582,0,0,0,.04.11c6.6,20.82,23.58,27.53,23.58,27.53,11.8-8.71,11.57-22.54,11.57-22.54v-1.9l2.21.66,1.51,3.6s2.56,3.98,12.7,8.44a60.325,60.325,0,0,1,5.57,2.85c9.28,5.27,19.6,13.42,20.39,15.15a5.6077,5.6077,0,0,1,.27.86v.01c1.09,4.28,3.33,20.31,5.41,26.03a13.0968,13.0968,0,0,0,4.86,6.56c.01.01.01.01.02.01a7.608,7.608,0,0,0,1.94,1.01q.24,1.32.45,2.61C361.25,243.62,352.98,262.23,351.12,263.53Z" transform="translate(-65.2965 -36.9627)" style="fill:url(#e33de774-e3ac-49ac-a1d0-86020e35f43e)"/><path d="M242.29,211.77l-8.24,2.77-1.32-1.52s-8.15,18.57-15.54,27.66c-.88,1.08-1.81,2.15-2.77,3.18a80.9762,80.9762,0,0,1-6.36,6.15l-6.28-27.07-3.19-20.55a104.8921,104.8921,0,0,1,7.84-9.45c.58-.62.91-.95.91-.95s-1.04-3.35-1.75-6.26a1.5985,1.5985,0,0,0-.05-.21.3553.3553,0,0,0-.02-.1.3125.3125,0,0,0-.02-.07c-.42-1.79-.68-3.34-.44-3.72.63-1.01,4.3-2.15,4.93-2.9.63-.76,3.28-13.52,5.3-14.91,0,0-1.32,12.25,5.69,27.79l3.41,4.8,9.98,8.02S238.16,209.46,242.29,211.77Z" transform="translate(-65.2965 -36.9627)" style="opacity:0.5;mix-blend-mode:multiply;fill:url(#b4b530cf-a6b4-4800-98e9-d15f183afce7)"/><path d="M218.45,233.93c-1.77,13.13-21.34,23.24-21.34,23.24-4.36,0-9.23-7.58-13.65-16.93s-4.69-36.21-4.92-37.87c-.24-1.66-2.7-4.98-2.85-6.4-.14-1.42,3.98-4.36,3.98-4.36l-.03-.07-.03-.07c-.43-.92-2.85-6.11-2.68-7.06.19-1.04,4.82-3.31,4.82-3.31l.29,5.11s10.78-2.04,14.43-10.39l.64-2.56,1.8,1.2v10.99s.37,1.71.94,1.71,4.77-2.1,5.65-1.81c.89.29,1.76,6.17,2.94,6.92,1.17.76,4.3,2.94,4.77,3.98a19.0484,19.0484,0,0,1,.25,4.15,42.4,42.4,0,0,0,.41,6.94C214.54,210.27,220.22,220.79,218.45,233.93Z" transform="translate(-65.2965 -36.9627)" style="fill:url(#e892a59a-aa5e-425c-a965-9586a987d9bb)"/><path d="M397.44,222.68c-.88,1.39-5.3,4.3-6.44,5.44-1.14,1.13,0,4.87,0,4.87a153.3478,153.3478,0,0,1-39.88,30.54,1.7753,1.7753,0,0,0-.16.08c-11.66-7.84-10.66-20.75-6.79-31.63a82.0992,82.0992,0,0,1,10.32-19.38l.01-.01.01-.01a24.407,24.407,0,0,1,5.92-1.64,3.5949,3.5949,0,0,1,2.19.68c1.42.88,2.62,2.27,3.78,1.69,1.71-.86,5.53-9.89,8.12-10.14,1.81-.17,4.32,1.67,5.99,2.72.73.46,1.3.77,1.58.69.95-.25,4.17-4.11,4.43-4.21.25-.11,1.72.97,1.72.97l-1.03,1.28a34.987,34.987,0,0,0,6.76,15.22l3.47-5.08S398.33,221.29,397.44,222.68Z" transform="translate(-65.2965 -36.9627)" style="fill:url(#fb07d27a-c75d-4dde-9bdf-953b39897505)"/><path d="M301.51,149.26c-.02.13-.04.26-.05.39a7.7263,7.7263,0,0,1-.19.8.031.031,0,0,1-.01.02c-1.19,4.41-6,8.92-12.07,6.75-6.63-2.37-19.25-29.1-19.25-29.1l1.27-5.71,29.95,24.4.33,2.31Z" transform="translate(-65.2965 -36.9627)" style="fill:#cb4d7a"/><path d="M201.7789,144.3684s-1.8315-10.1052-1.01-17.5579a80.72,80.72,0,0,0-.2117-15.9158,4.0617,4.0617,0,0,0-3.1356,0c-1.3264.7579-4.4211,8.4632-3.0316,14.6527s.3158,21.0315.3158,21.0315h-2.0842l-4.5474-6.2526-2.21-.6316s-12.7264,12-12.5369,19.1369l1.6627,6.3473,15.6742-.5368,10.2315-11.6842Z" transform="translate(-65.2965 -36.9627)" style="fill:#ee8183"/><path d="M185.8632,139.6947a81.4435,81.4435,0,0,0,2.1146,14.779,3.5366,3.5366,0,0,1-3.5673,2.9842l-.8052-.9s-.5685,3.1737-3.4579,3.4105L177.4,157.2211l.71,2.2736a3.8892,3.8892,0,0,1-3.6,2.3211s-4.3579-3.41-4.6421-7.8632l4.3083-3.6473v-2.7948l5.118-3.6.0948-2.0368A12.0216,12.0216,0,0,1,185.8632,139.6947Z" transform="translate(-65.2965 -36.9627)" style="fill:url(#b9099c4c-8d04-436e-b599-bada94ff55e3)"/><path d="M200.9513,124.6715a7.1327,7.1327,0,0,1-1.8566,2.7074,16.0241,16.0241,0,0,1-4.2461,1.3378l-.1433,17.8622h-2.0842l-4.5474-6.2526s2.3052,3.5684,2.4474,6.2526l-1.8.8843-1.5632-5.3527-.7407,3.8523.7365,4.7934a12.58,12.58,0,0,1,7.5753-2.4148l.7342,1.3323s-8.8264,7.31-10.8632,11.621c0,0,4.3579-5.5421,14.3053-11.6526l.9473-2.9368,1.2574-7.0113S199.9184,129.59,200.9513,124.6715Z" transform="translate(-65.2965 -36.9627)" style="opacity:0.6000000000000001;mix-blend-mode:multiply;fill:url(#e485d519-2dc5-461e-863d-c1d738f7476f)"/><path d="M208.35,155.8c-.82,2.46-9.41,12.69-10.36,14.91a30.029,30.029,0,0,0-1.52,5.11c-4.22,9.13-14.43,10.39-14.43,10.39l-.47-8.24s-5.49-3.16-6.42-4.89l-.01-.03-.11-.29a68.804,68.804,0,0,1-.04-7.58l9.61-3.89c4.17-5.4,14.31-11.65,14.31-11.65l.47-2.83c-7.28-3.58-6.06-14.41-4.83-15.74a5.3952,5.3952,0,0,1,3.5-1.32s2.66,8.71,4.36,12.79C204.12,146.61,209.17,153.34,208.35,155.8Z" transform="translate(-65.2965 -36.9627)" style="fill:url(#b5eb173f-f3d3-4975-b88f-1a3a78ab37c8)"/><path d="M179.39,141.8737s1.0737,9.9474,4.2158,14.6842a23.1713,23.1713,0,0,1-4.3106-12.6474Z" transform="translate(-65.2965 -36.9627)" style="fill:#e28183"/><path d="M174.1767,147.5105s1.0444,8.0053,5.9707,12.4579c0,0-4.3624-2.1789-5.9707-9.6631Z" transform="translate(-65.2965 -36.9627)" style="fill:#e28183"/><path d="M199.322,168.5886s-10.8346,10.52-17.752,9.3814l.47,8.24a18.2818,18.2818,0,0,0,15.0653-12.9545A31.05,31.05,0,0,1,199.322,168.5886Z" transform="translate(-65.2965 -36.9627)" style="opacity:0.91;mix-blend-mode:multiply;fill:url(#fc8b668b-1f2c-47ac-8296-7ea41fb59d0e)"/><path d="M428.36,182.89s-9.95,18.19-21.6,23.78h-3.98l-9.19,13.93s-5.94-3.73-6.38-15.98A11.1741,11.1741,0,0,0,389.8,200s-3.28-2.58-4.17-4.47c-.88-1.9-1.2-7.58-1.83-9.92s-6-7.2-7.2-7.83-6.63-.95-6.63-.95-.76-1.96,0-2.9c.76-.95,9.22-4.24,13.83-1.08a20.7665,20.7665,0,0,0,.82,3.67c.51,1.26,4.55,5.74,5.18,5.74s3.35-2.27,4.55-4.04a178.5639,178.5639,0,0,0,8.74-19.32.4951.4951,0,0,1,.04-.13c.02-.07.05-.14.06-.2a.9288.9288,0,0,0,.04-.13c.01-.02.02-.03.02-.05,1.14-3.85,7.77-11.24,11.31-13.26a2.0852,2.0852,0,0,1,2.33,1.51s-2.84,8.09-5.81,12.89c-.5.81-1.04,1.76-1.6,2.78h-.01c-2.53,4.65-5.38,10.74-5.79,11.63l-.05.11,1.58.81,4.27-4.05,4.38-4.15,10.05,10.61-.99,1.26-3.14,4.03,1.59.29,3.7-4.09Z" transform="translate(-65.2965 -36.9627)" style="fill:url(#fa841ee6-5b67-4110-9537-29ec84bfa835)"/><path d="M426.0317,186.7567l-3.1789,4.6723S405.4,177.97,401.61,176.83s-5.18-.38-5.18-.38l-3.91,4.99s7.2,6.38,7.83,14.97c0,0-2.4-10.86-10.55-14.15.63,0,3.35-2.27,4.55-4.04a178.5639,178.5639,0,0,0,8.74-19.32,4.9622,4.9622,0,0,0,.16,3.41c.86,1.59,5.92.09,6.22,0h.01l-5.8,11.63-.05.11,1.58.81,4.27-4.05-2.14,4.97,15.58,2.75-3.14,4.03,1.59.29Z" transform="translate(-65.2965 -36.9627)" style="opacity:0.6000000000000001;mix-blend-mode:multiply;fill:url(#ec7e4617-c616-4b2c-8b97-fcd30ffe505b)"/><path d="M413.8632,166.6632s3.0315-.4421,4.9894,3.4736l-.4421,1.2632s2.9548.5789,5.8106,5.3684a16.1919,16.1919,0,0,1-8.779,6.6948s-2.9053-.8211-3.41-3.2843L412.6,178.6l-2.2737,1.7053s-2.7158.821-3.9158-3.2211Z" transform="translate(-65.2965 -36.9627)" style="fill:url(#af764cc5-d83a-46ae-bf6d-5eced69a1190)"/><path d="M429.2737,181.6316a4.6851,4.6851,0,0,0-2.4632-4.8l-6,6.6316a3.098,3.098,0,0,0,2.779,2.5894S427.6947,184.6632,429.2737,181.6316Z" transform="translate(-65.2965 -36.9627)" style="fill:url(#a2e949c9-8b45-45c8-9948-e64e32a09d16)"/><path d="M385.63,195.53a44.5021,44.5021,0,0,0,17.15,11.14l-4.3953,6.6624-9.1724-11.6474L389.8,200S386.1332,197.2424,385.63,195.53Z" transform="translate(-65.2965 -36.9627)" style="opacity:0.91;mix-blend-mode:multiply;fill:url(#f5f0a0de-7ef2-4056-b16a-4001848f7673)"/><path d="M418.4105,171.4s-2.9052,4.8-5.81,7.2l-.5684,1.5789s5.6393-3.8058,7.7144-8.2029A3.6084,3.6084,0,0,0,418.4105,171.4Z" transform="translate(-65.2965 -36.9627)" style="fill:#e28183"/><path d="M397.44,222.68c-.88,1.39-5.3,4.3-6.44,5.44-1.14,1.13,0,4.87,0,4.87a153.3478,153.3478,0,0,1-39.88,30.54,1.7753,1.7753,0,0,0-.16.08c-1.52.19-8.91-1.89-16.3-16.67-6.7-13.39-8.62-22.33-8.93-23.89l-.04-.24,1.63-2.21,2.42-27.28,1.7,5.49c6.44-7.77,12.51-19.7,12.51-19.7l.27.86v.01c1.09,4.28,3.33,20.31,5.41,26.03a13.0968,13.0968,0,0,0,4.86,6.56l.01.02-.01.01c-5.93,5.41-8.87,13.19-10.32,19.38a53.681,53.681,0,0,0-1.42,10.03,67.4344,67.4344,0,0,1,6.82-16.96,36.5022,36.5022,0,0,1,7.33-8.85,58.8527,58.8527,0,0,1,5.72-4.58c1.42.88,2.62,2.27,3.78,1.69-7.8,11.71-7.61,34.89-.28,30.47,7.32-4.42,8.9958-13.8011,8.9958-13.8011-1.73-11.43-1.2136-24.3215.1764-26.7715,1.6867.0558,6.5178,3.4526,6.7978,3.3726a39.6028,39.6028,0,0,0,5.88,22.43l4.17-6.45a40.0114,40.0114,0,0,1-5.62-20.19c.25-.11,1.72.97,1.72.97l-1.03,1.28a34.987,34.987,0,0,0,6.76,15.22l3.47-5.08S398.33,221.29,397.44,222.68Z" transform="translate(-65.2965 -36.9627)" style="opacity:0.5;mix-blend-mode:multiply;fill:url(#bc353b3e-81c5-4b75-ac31-ad67d977eeec)"/><path d="M317.04,306.81v3.98l-.07.07-.22.2-.18.15c-1.8,1.42-9.43,6.07-33.27,7.35-28.25,1.51-47.07-7.58-47.07-7.58l1.42-3.89s-1.32-1.13-1.42-1.7c-.09-.57,1.04-1.9,1.04-1.9s-2.84-1.51-2.84-3.41c0-1.71,4.64-6.66,5.39-11.31a6.758,6.758,0,0,0,.11-1.48c-.19-5-4.51-9.43-5.11-12.27a.1577.1577,0,0,1-.01-.04c-.57-2.84,7.39-9.85,7.39-9.85-6.82-21.6-8.15-50.59-8.15-50.59l-1.32-1.52s-8.15,18.57-15.54,27.66c-7.39,9.1-18.19,16.87-20.08,16.49-4.36,0-9.23-7.58-13.65-16.93s-4.69-36.21-4.92-37.87c-.24-1.66-2.7-4.98-2.85-6.4,4.74,8.15,12.29,5.75,12.29,5.75-5.47.12-8.31-10.11-8.31-10.11l-.03-.07-.03-.07-2.67-7.05c.3.34,6.55,7.33,12.59,3.02,6.19-4.42,9.38-12.98,9.38-12.98v10.99s.37,1.71.94,1.71a134.15,134.15,0,0,1-2.74,17.29c-2.81,13.13-6.66,25.81-6.66,25.81s10.44-5.68,14.11-20.08a60.737,60.737,0,0,0,1.87-17.24,43.2176,43.2176,0,0,0-.84-7.21,1.5985,1.5985,0,0,0-.05-.21.3553.3553,0,0,0-.02-.1.4331.4331,0,0,0-.01-.05l1.01,2.14,1.92,4.76c2.23,18.48-2.37,46.33-2.37,46.33,6.7-8.34,8.09-26.78,7.8-31.26-.13-2.14-.3-4.78-.41-6.94-.15-2.36-.25-4.15-.25-4.15l13.71,8.18-2.53-8.02,9.98,8.02s8.97,10.8,18.19,12.06c9.22,1.27,43.07.51,43.07.51s-29.43,1.89-38.02,4.42-10.23,5.43-10.23,5.43c6.21,31.59,40.58,42.24,41.65,42.56-31.18-4.68-45.69-31.19-45.69-31.19s-.51,14.91,1.89,20.59,16.55,19.58,34.74,22.48a41.8885,41.8885,0,0,0,4.53.46c15.34.72,28.04-7.12,29.34-7.96a.9322.9322,0,0,1,.11-.07.52.52,0,0,1-.03.05c-.49.75-6.78,9.59-32.18,10.56-1.54.06-3.04.05-4.5-.01h-.02c-23.54-.99-35.53-16.67-35.53-16.67s-8.71,4.68-3.15,11.62c.06.07.12.15.18.22,1.64,1.89,5.25,4.2,9.52,6.58.12.07.24.14.35.2,5.16,2.85,11.21,5.79,15.89,8.22a.4875.4875,0,0,1,.07.03,59.2344,59.2344,0,0,1,6.52,3.73.01.01,0,0,1,.01.01c1.32.96,1.59,1.58.3,1.73-6.57.76-31.45-4.67-32.46-3.16-1.01,1.52,1.23,5.43,1.23,5.43,22.84,11.32,71.71,5.74,73.25,5.57-40.9,10.47-74.36-2.79-74.36-2.79l1.11,3.92a146.3265,146.3265,0,0,0,39.69,6.82c21.48.5,34.87-4.99,34.87-4.99Z" transform="translate(-65.2965 -36.9627)" style="opacity:0.5;mix-blend-mode:multiply;fill:url(#a89bf281-1650-48cb-baed-ec7a2e9e4383)"/><path d="M300.3053,216.8737s16.2676.8841,27.018,3.7263l-5.5444,8.4094A73.751,73.751,0,0,0,300.3053,216.8737Z" transform="translate(-65.2965 -36.9627)" style="opacity:0.5;mix-blend-mode:multiply;fill:url(#a6bec334-1356-403d-8658-de68cf028c31)"/><path d="M315.5061,261.7127s-10.1482,8.4662-20.1272,12.382A67.3754,67.3754,0,0,1,275.8,278.39s5.7372,1.7052,19.853-.5684,18.9457-9.9187,18.9457-9.9187Z" transform="translate(-65.2965 -36.9627)" style="opacity:0.5;mix-blend-mode:multiply;fill:url(#aa1f491f-1bf3-4428-b947-1a41f3f9754c)"/><path d="M320.06,294.32v.01c-18.78,4.85-42.62-2.11-42.42-2.96s6.53.38,21.21-2.56c14.23-2.85,19.39-7.91,19.7-8.22-.12.86-2.08,2.75-2.64,4.81C315.53,286.77,318.19,291.09,320.06,294.32Z" transform="translate(-65.2965 -36.9627)" style="opacity:0.5;mix-blend-mode:multiply;fill:url(#b231ab17-c52b-4e4d-b3c1-5b7dcb79058f)"/><path d="M269.05,219.42c-16.04,1.63-20.36,6.1-20.36,6.1-4.51.57-14.64-10.98-14.64-10.98l-1.32-1.52s-8.15,18.57-15.54,27.66c-.88,1.08-1.81,2.15-2.77,3.18l1.05-2.36s1.72-.82,2.22-9.85c.51-9.02-3.79-22.48-3.82-24.31s-.66-11.09-.66-11.09l13.71,8.18-2.53-8.02,9.98,8.02s3.91,5.88,13.78,10.78C257.46,219.84,267.9,219.47,269.05,219.42Z" transform="translate(-65.2965 -36.9627)" style="opacity:0.5;mix-blend-mode:multiply;fill:url(#b5c6346b-29be-4b1a-a68a-dc7a58b84adf)"/><path d="M232.73,213.02l9.5558-1.2478a71.8324,71.8324,0,0,0,11.4873,5.6511L247.38,226.85s2.536,13.4387,9.8158,21.0122c0,0-19.3207-10.7315-22.0372-19.7548Z" transform="translate(-65.2965 -36.9627)" style="opacity:0.5;mix-blend-mode:multiply;fill:url(#a7a694b2-64a4-43f2-8e11-b6bc069d4af3)"/><path d="M176.94,184.42l2.73,7.19s2.7847,9.7036,8.31,10.11,10.93-16.27,10.93-16.27V174.46s-5.8784,12.6032-12.2258,14.0242S176.94,184.42,176.94,184.42Z" transform="translate(-65.2965 -36.9627)" style="opacity:0.5;mix-blend-mode:multiply;fill:url(#bf0292de-6e55-4dc7-9379-918f7eb611fd)"/><path d="M209.99,178.73s4.9258,9.8489,10.9889,12.8805c0,0-7.21-17.4968-5.6889-27.7905C215.29,163.82,212.64,165.47,209.99,178.73Z" transform="translate(-65.2965 -36.9627)" style="opacity:0.5;mix-blend-mode:multiply;fill:url(#b3a9f3b7-494e-44f7-a889-ff121d657c9b)"/><path d="M329.74,193.32l1.7,5.49,1.7246,45.05a108.6554,108.6554,0,0,1-7.4346-20.81l1.5933-2.45S329.9958,203.619,329.74,193.32Z" transform="translate(-65.2965 -36.9627)" style="opacity:0.76;mix-blend-mode:multiply;fill:url(#b89eb196-9a73-4590-bd7b-2936425bfbef)"/><path d="M382.09,206.58s-.9617,22.13,8.4426,24.0437L391,232.99S378.8327,232.5389,382.09,206.58Z" transform="translate(-65.2965 -36.9627)" style="opacity:0.5;mix-blend-mode:multiply;fill:url(#a8f7a1f1-9ac2-4458-9bbe-6eac1e6acc98)"/><path d="M366.4,213.31s-.36.7931-3.78-1.69c0,0-11.8305,8.3789-16.3884,20.19,0,0,7.2921-10.8506,11.1723-12.025s4.8167,3.1565,4.8167,3.1565S363.7559,216.8408,366.4,213.31Z" transform="translate(-65.2965 -36.9627)" style="opacity:0.30000000000000004;mix-blend-mode:multiply;fill:url(#a34dfa13-0a2c-46fa-bf34-3cce2fc86765)"/><path d="M175.69,195.97s4.5521,8.39,13.0784,5.7573c0,0-5.11,3.4443-10.2284.6427C178.54,202.37,175.3625,196.9174,175.69,195.97Z" transform="translate(-65.2965 -36.9627)" style="opacity:0.5;mix-blend-mode:multiply;fill:url(#ea650ab7-9161-4b3a-8888-23538198787c)"/><path d="M205.5,185.35s6.2582,23.3986-10.0682,40.9769a27.1223,27.1223,0,0,0,13.0075-18.0427A38.7422,38.7422,0,0,0,205.5,185.35Z" transform="translate(-65.2965 -36.9627)" style="opacity:0.5;mix-blend-mode:multiply;fill:url(#e87fb1f3-c60f-43f0-9830-88c89d460861)"/><path d="M317.64,166.6482s-.7048,10.5623-5.7671,18.1413-15.1045,12.6947-15.1045,12.6947,12.6-4.6421,18.379-11.1789S317.64,166.6482,317.64,166.6482Z" transform="translate(-65.2965 -36.9627)" style="opacity:0.5;mix-blend-mode:multiply;fill:url(#bacfedda-44ea-492f-802a-181871281fa9)"/><path d="M253.19,150.7562a66.7889,66.7889,0,0,0,2.8421,17.8324c2.8421,9.0009,27.5117,24.7272,27.5117,24.7272s-25.4275-10.5627-30.3538-20.06S253.19,150.7562,253.19,150.7562Z" transform="translate(-65.2965 -36.9627)" style="opacity:0.5;mix-blend-mode:multiply;fill:url(#bb4d5e91-ff7e-4ece-a2da-b09154292829)"/><path d="M252.901,192.8153V207.2s33.11-.2674,70.2367,2.1922l.8478-12.9468A647.267,647.267,0,0,0,252.901,192.8153Z" transform="translate(-65.2965 -36.9627)" style="fill:url(#b2bec5f5-cd61-435f-b186-6c3411c4643d)"/><path d="M259.04,196.0962q.0111-.3677.355-.3579l6.708.2036a5.0239,5.0239,0,0,1,1.6875.3032,2.82,2.82,0,0,1,1.1094.7471,2.7708,2.7708,0,0,1,.5918,1.1367,5.1118,5.1118,0,0,1,.1519,1.4741l-.0562,1.8423a5.1112,5.1112,0,0,1-.2407,1.4619,2.7635,2.7635,0,0,1-.66,1.1,2.8356,2.8356,0,0,1-1.1528.6787,5.0516,5.0516,0,0,1-1.7027.2l-3.6113-.11-.748-2.1123-.0977-.0029-.0635,2.0878-2.5312-.0771Zm2.3413,6.33,4.2872.1308a1.3884,1.3884,0,0,0,1.0419-.288,1.6237,1.6237,0,0,0,.3409-1.1211l.0454-1.4991a1.59,1.59,0,0,0-.272-1.1455,1.4466,1.4466,0,0,0-1.0229-.332l-4.1036-.125a.1735.1735,0,0,0-.1367.0513.1872.1872,0,0,0-.0527.1274Z" transform="translate(-65.2965 -36.9627)" style="fill:#ebefff"/><path d="M273.2744,199.9346l-.0859-.0025-.0811,2.6783a.1513.1513,0,0,0,.1665.1767l7.543.23-.07,2.3213-9.89-.3a.32.32,0,0,1-.3452-.3789l.249-8.2075a.3206.3206,0,0,1,.3677-.3575l9.6065.292a.3261.3261,0,0,1,.3579.3794l-.0708,2.3223-2.3731.8008-.0986-.003.0361-1.1914c.003-.09-.0366-.1367-.1186-.1391l-5.0733-.1538a.1354.1354,0,0,0-.1308.0507.2435.2435,0,0,0-.0337.1163l-.0337,1.1176,4.1767.1265-.0556,1.8193-3.502-.1064Z" transform="translate(-65.2965 -36.9627)" style="fill:#ebefff"/><path d="M290.04,199.7671l-.0986-.0029.03-.9829a.13.13,0,0,0-.1426-.1519l-4.7178-.1436a.38.38,0,0,0-.4682.4161l-.0069.2211a.4462.4462,0,0,0,.0757.3345.6993.6993,0,0,0,.3291.1211l5.5288.9419a3.7064,3.7064,0,0,1,.8907.2549,1.6982,1.6982,0,0,1,.59.4238,1.4386,1.4386,0,0,1,.3125.6309,3.3611,3.3611,0,0,1,.0723.875l-.0215.7119a3.1987,3.1987,0,0,1-.1651.9726,1.6506,1.6506,0,0,1-.4638.6993,1.95,1.95,0,0,1-.8242.4111,4.4932,4.4932,0,0,1-1.2447.11l-7.9609-.2422.07-2.3213,7.1367.2168a.5731.5731,0,0,0,.4282-.1045.6205.6205,0,0,0,.1163-.4082l.0073-.2451a.5029.5029,0,0,0-.0694-.3282.484.484,0,0,0-.31-.1269l-5.336-.8379a4.2753,4.2753,0,0,1-.9213-.2495,1.7706,1.7706,0,0,1-.6207-.4121,1.4235,1.4235,0,0,1-.3374-.6128,2.8725,2.8725,0,0,1-.0844-.8511l.019-.6265a2.0776,2.0776,0,0,1,.5606-1.4892,2.323,2.323,0,0,1,1.7368-.482l7.9477.2413a.3424.3424,0,0,1,.3692.4043l-.0557,1.8432Z" transform="translate(-65.2965 -36.9627)" style="fill:#ebefff"/><path d="M293.3994,205.7217l.2715-8.9429,2.5312.0767-.2714,8.9433Z" transform="translate(-65.2965 -36.9627)" style="fill:#ebefff"/><path d="M305.3223,202.2471c.0039-.1309.0019-.2676-.0069-.4121s-.0175-.2686-.0312-.376l.0029-.11,2.5059.0762-.1328,4.3857c-.0069.23-.1133.3409-.3174.335l-6.7315-.2041a5.0567,5.0567,0,0,1-1.6884-.3037,2.82,2.82,0,0,1-1.1084-.7471,2.765,2.765,0,0,1-.5928-1.1367,5.1265,5.1265,0,0,1-.1514-1.4736l.0557-1.8433a5.12,5.12,0,0,1,.2412-1.4624,2.7732,2.7732,0,0,1,.66-1.0986,2.8243,2.8243,0,0,1,1.1524-.6778,5.0309,5.0309,0,0,1,1.7031-.2006l6.6943.2031a.3209.3209,0,0,1,.3458.3789l-.0586,1.9292-2.3731.7891-.0986-.0035.0263-.86c.003-.0821-.0322-.1241-.1064-.126l-4.2744-.13a2.4587,2.4587,0,0,0-.6221.0488.8746.8746,0,0,0-.42.2207.9877.9877,0,0,0-.2461.4351,2.7184,2.7184,0,0,0-.0957.68l-.0469,1.5727a1.6253,1.6253,0,0,0,.2725,1.14,1.3926,1.3926,0,0,0,1.0234.3506l4.2383.1289c.09.0019.1357-.0449.1387-.1436Z" transform="translate(-65.2965 -36.9627)" style="fill:#ebefff"/><path d="M313.1436,197.37a.7027.7027,0,0,1,.3974.0982.8029.8029,0,0,1,.2061.2763l3.1963,6.5284a.26.26,0,0,0,.2285.1543l.1347.0048a.1746.1746,0,0,0,.2032-.1914l.2041-6.7319,2.2968.07-.2607,8.5879q-.01.356-.3545.3447l-3.6377-.11a.79.79,0,0,1-.3828-.085.6766.6766,0,0,1-.2324-.29l-3.3184-6.5195a.2445.2445,0,0,0-.2285-.1543l-.123-.0039a.1739.1739,0,0,0-.2022.1909l-.2041,6.72-2.2978-.07.2607-8.5752c.0078-.2451.125-.3648.3545-.3574Z" transform="translate(-65.2965 -36.9627)" style="fill:#ebefff"/><path d="M305.29,152.67c-.78,9.3-3.61,15.78-6.63,20.15-4.16,6-8.66,8.05-8.66,8.05a51.9577,51.9577,0,0,1-11.76-7.09,59.9669,59.9669,0,0,1-19.21-28.5c6.02,14.54,14.86,23.35,21.56,28.31a43.2758,43.2758,0,0,0,9.41,5.52v-4.65a30.8979,30.8979,0,0,1-3.1-1.36c-11.8-5.95-18-18.35-20.9-26.37-.01-.02-.01-.03-.02-.05a56.9669,56.9669,0,0,1-2.18-7.39h2.14l-.7,1.5-.03.05c.34,1.52.73,2.98,1.17,4.37a.3582.3582,0,0,0,.04.11c6.6,20.82,23.58,27.53,23.58,27.53,11.8-8.71,11.57-22.54,11.57-22.54v-1.9l2.21.66Z" transform="translate(-65.2965 -36.9627)" style="opacity:0.5;mix-blend-mode:multiply;fill:url(#f34a8910-dd6e-451b-97ab-5ca34ef9e18e)"/><path d="M375.2922,203.2074s-3.208,10.4768-.1764,26.7715c0,0,1.5158-20.6526,2.6526-22.4526s4.3216-.9463,4.3216-.9463A74.1758,74.1758,0,0,0,375.2922,203.2074Z" transform="translate(-65.2965 -36.9627)" style="opacity:0.30000000000000004;mix-blend-mode:multiply;fill:url(#b9f0ae9c-6bf1-4e7a-9e82-942b261b7f3d)"/><path d="M344.17,260.18c-2.8-2.45-6.16-6.54-9.51-13.24-6.7-13.39-8.62-22.33-8.93-23.89l1.59-2.45,2.13-20.6,1.99-1.19a84.2792,84.2792,0,0,0,12.51-19.7,5.6077,5.6077,0,0,1,.27.86v.01c1.09,4.28,3.33,20.31,5.41,26.03a13.0968,13.0968,0,0,0,4.86,6.56s-12.31,18.26-12.91,31.29C341.05,255.72,343.69,259.58,344.17,260.18Z" transform="translate(-65.2965 -36.9627)" style="opacity:0.5;mix-blend-mode:multiply;fill:url(#a445ca05-d96c-487d-9ebb-b46917d88213)"/><path d="M271.08,298.26s-22.19-3.64-31.25-9.48a.01.01,0,0,1-.01-.01,6.758,6.758,0,0,0,.11-1.48c-.19-5-4.51-9.43-5.11-12.27.1.27.75,1.77,3.9,4.47a66.9432,66.9432,0,0,0,9.52,6.58c.12.07.24.14.35.2,6.4,3.78,11.91,6.34,15.89,8.22a.4875.4875,0,0,1,.07.03c3.58,1.68,5.9,2.79,6.52,3.73A.01.01,0,0,1,271.08,298.26Z" transform="translate(-65.2965 -36.9627)" style="opacity:0.5;mix-blend-mode:multiply;fill:url(#a32537ec-02cb-4287-bff3-60aa43d99695)"/><path d="M318.55,280.59c-.12.86-2.08,2.75-2.64,4.81,0,0-8.14,8.62-38.27,5.97.2-.85,6.53.38,21.21-2.56C313.08,285.96,318.24,280.9,318.55,280.59Z" transform="translate(-65.2965 -36.9627)" style="opacity:0.5;mix-blend-mode:multiply;fill:url(#b66e17f3-48bd-42c6-a5fe-bf83e899ebe6)"/><path d="M323.56,163.96,304.3,170.2l-5.64,2.62-.03.01-3.67.01-4.96.01-3.1.25-1.64.12-4.67.37-2.35.19-23.1-8.36-4.13-1.49-19-6.88c.56-.22,1.13-.44,1.73-.68,12.75-5.05,25.26-11.18,25.26-11.18l4.8-5.9h2.14a71.163,71.163,0,0,0,4-11.17l1.27-5.71c.09-.55.13-.85.13-.85l6.8,3.59,22.93,18.34c-.02,1.25.02,2.37.09,3.32l.33,2.31c.06-.45.08-.71.08-.71l2.21.66,1.51,3.6s2.56,3.98,12.7,8.44A60.325,60.325,0,0,1,323.56,163.96Z" transform="translate(-65.2965 -36.9627)" style="fill:#7a4ac0;opacity:0.5;mix-blend-mode:multiply"/><path d="M308.89,146.39A31.3692,31.3692,0,0,1,290,143.61c-9.91-4.8-18.24-18.95-18.75-22.48-.5-3.54,3.79-12.76,3.79-19.96s-3.53-19.58,2.4-26.28c5.94-6.69,33.22-7.7,42.07.89,0,0,2.74,6.88,2.74,10.77a28.3348,28.3348,0,0,1-.42,3.91c-.08.59-.19,1.22-.29,1.87-.79,4.71-1.88,10.46-1.37,12.98a12.6406,12.6406,0,0,0,.79,2.46v.01c1.09,2.52,2.71,4.53,3,6.71C324.34,117.34,320.52,137.55,308.89,146.39Z" transform="translate(-65.2965 -36.9627)" style="fill:url(#fe764f85-1966-49f5-b167-f243ea59dfd3)"/><path d="M274.9668,99.1368s-2.451-6.1473-8.6089-6.2421c0,0-3.6,1.4211-4.1684,4.1685,0,0,1.3263,9.9473,2.8421,14.5894s7.0744,3.9708,7.0744,3.9708A23.5628,23.5628,0,0,0,274.9668,99.1368Z" transform="translate(-65.2965 -36.9627)" style="fill:url(#ac1b8ff7-4222-4d24-b706-bfd6d9c15d38)"/><path d="M298.6336,119.3915a5.6092,5.6092,0,0,1,2.9348.5032c.8842.6632,4.1053,3.79,8.179,4.6421s6.8061-2.616,7.6737-2.7942,1.8215,1.05,1.8215,1.05a3.4193,3.4193,0,0,0-2.4952-2.0628s-.8591,3.2674-6.7632,2.1493-8.4158-3.7421-8.4158-3.7421l-.3-.5368A15.7,15.7,0,0,0,298.6336,119.3915Z" transform="translate(-65.2965 -36.9627)" style="fill:url(#ae7f1c3f-eaa3-444e-adc9-4a3429ad7e97)"/><path d="M289.92,88.7987l.08-.6316s5.89-10.3355,17.543-10.62,14.2849,7.0181,14.2849,7.0181l2.1576-3.2767-4.9173-9.9941-34.2366-.5684-8.3368,6.7263-1.0533,16.4661,3.7058,21.7385,9.019,4.8059,2.546-2.2577c-.94-7.2789-6.3544-13.93-6.3544-13.93l3.9473-2.7406s10.1369,4.9068,15.9948,3.4384c0,0,4.4053-12.858,4.1526-22.3843C308.4526,82.5894,293.4368,84.8113,289.92,88.7987Z" transform="translate(-65.2965 -36.9627)" style="opacity:0.6000000000000001;mix-blend-mode:multiply;fill:url(#a4926b41-e6e1-4844-9fa2-4454d409eb81)"/><path d="M289.3987,89.5639s.5678-3.7234,6.8534-5.213c6.9992-1.6586,12.686-3.0621,12.686-3.0621s-1.2394,4.0828-3.5725,5.6139c0,0-7.4063-.2692-11.1549.5833S289.3987,89.5639,289.3987,89.5639Z" transform="translate(-65.2965 -36.9627)" style="fill:#38368e"/><path d="M321.8279,84.5655s-3.5542,2.74-5.97,9.2766c0,0,2.321-3.0316,4.4526-2.9842a1.2177,1.2177,0,0,1,1.2268,1.4755A13.6573,13.6573,0,0,0,321.8279,84.5655Z" transform="translate(-65.2965 -36.9627)" style="fill:#38368e"/><path d="M291.7474,100.0947s.3789-7.8631,8.0526-9.8526a16.0814,16.0814,0,0,1,3.0316,7.579S298.7579,97.0632,291.7474,100.0947Z" transform="translate(-65.2965 -36.9627)" style="fill:url(#a4523b79-eb5e-4155-8842-77b9efa24646)"/><path d="M313.7263,103.2211s.6207-6.26,4.2158-8.5737c0,0,2.45,1.8361,2.1963,7.0759C320.1384,101.7233,317.99,100.9474,313.7263,103.2211Z" transform="translate(-65.2965 -36.9627)" style="fill:url(#f3450592-e939-4739-acc8-f56fe6a832ca)"/><path d="M291.7474,100.0947s2.4947,3.0632,9.4737,3.6632a10.9049,10.9049,0,0,0,1.2016-5.9855S296.0105,97.1579,291.7474,100.0947Z" transform="translate(-65.2965 -36.9627)" style="fill:#ffebed"/><path d="M313.7263,103.2211v.9157s1.0737,2.2421,4.9263,2.6211a10.7372,10.7372,0,0,0,1.3464-5.0722S317.5474,101.0737,313.7263,103.2211Z" transform="translate(-65.2965 -36.9627)" style="fill:#ffebed"/><path d="M299.2079,97.61a8.6489,8.6489,0,0,0-1.6106,5.5472,26.4155,26.4155,0,0,0,3.6238.601,9.4188,9.4188,0,0,0,1.2016-5.9855A9.6644,9.6644,0,0,0,299.2079,97.61Z" transform="translate(-65.2965 -36.9627)" style="fill:#7f9ec9"/><path d="M317.3828,101.7933s-1.0039,1.0725-1.1935,4.3649a7.5577,7.5577,0,0,0,2.4633.6,9.14,9.14,0,0,0,1.3464-5.0722A4.4129,4.4129,0,0,0,317.3828,101.7933Z" transform="translate(-65.2965 -36.9627)" style="fill:#7f9ec9"/><path d="M298.6336,103.3928S298,99.1442,300.4316,97.52l1.9911.2529a8.5613,8.5613,0,0,1-1.2016,5.9855S299.2429,103.5329,298.6336,103.3928Z" transform="translate(-65.2965 -36.9627)" style="fill:#38368e"/><path d="M318.2624,101.6051a18.24,18.24,0,0,0-1.3208,4.83,5.51,5.51,0,0,0,1.711.3227,8.2955,8.2955,0,0,0,1.3464-5.0722A4.0923,4.0923,0,0,0,318.2624,101.6051Z" transform="translate(-65.2965 -36.9627)" style="fill:#38368e"/><path d="M291.7474,100.0947s4.6421-2.7,12.5526-1.16l-1.4684-1.1131A13.2279,13.2279,0,0,0,291.7474,100.0947Z" transform="translate(-65.2965 -36.9627)" style="fill:#131163"/><path d="M313.7263,103.2211a12.5349,12.5349,0,0,1,8.063-.9306l-1.7886-1.3241S317.09,100.5211,313.7263,103.2211Z" transform="translate(-65.2965 -36.9627)" style="fill:#131163"/><path d="M296.7684,100.0947a2.7464,2.7464,0,0,1,2.4.8717A2.1876,2.1876,0,0,1,296.7684,100.0947Z" transform="translate(-65.2965 -36.9627)" style="fill:#fff"/><path d="M315.4316,103.7579s1.9795-.3849,2.6634.5181C318.095,104.276,317.0363,105.0041,315.4316,103.7579Z" transform="translate(-65.2965 -36.9627)" style="fill:#fff"/><path d="M292.2144,100.5539a18.19,18.19,0,0,0,9.3856,4.42l.1487-2.1044-.5276.8886S295.6655,103.4289,292.2144,100.5539Z" transform="translate(-65.2965 -36.9627)" style="fill:#c6659c"/><path d="M313.7263,104.1368s.6417,2.3053,5.3419,3.3474l-.1512-1.1286-.2644.4023S315.3132,106.3316,313.7263,104.1368Z" transform="translate(-65.2965 -36.9627)" style="fill:#c6659c"/><path d="M304.3,113.3579a16.7387,16.7387,0,0,1,4.9737,0c3.221.3789,6.8427,1.2632,8.8213,0,0,0-2.6287,2.6317-4.9055,3.0316s-5.7474-1.6-5.7474-1.6l-1.5158.0264A4.1286,4.1286,0,0,1,304.3,113.3579Z" transform="translate(-65.2965 -36.9627)" style="fill:#cb5f7d"/><path d="M306.1479,114.812a2.4131,2.4131,0,0,1,1.4521-.38c.6632.1263,1.3381,1.092,1.3381,1.092A6.6038,6.6038,0,0,0,306.1479,114.812Z" transform="translate(-65.2965 -36.9627)" style="fill:#9f4a8b"/><path d="M318.095,113.3579c.8418-.8211-3.5161-8.5831-5.6-8.8705s-4.0421,8.7021-4.0421,8.7021,2.8989.4063,5.71.7829S318.095,113.3579,318.095,113.3579Z" transform="translate(-65.2965 -36.9627)" style="fill:#ffbcaf"/><path d="M321.21,88.92c-1.18-.15-5.35,4.92-5.35,4.92s-2.65,8.21-2.13,10.64c.52,2.44,6.96,3.73,6.96,3.73l.27-.43v-.01a12.6406,12.6406,0,0,1-.79-2.46c-.51-2.52.58-8.27,1.37-12.98a9.6663,9.6663,0,0,0,.29-1.87C321.86,89.7,321.75,88.98,321.21,88.92Z" transform="translate(-65.2965 -36.9627)" style="opacity:0.6000000000000001;mix-blend-mode:multiply;fill:url(#e758f360-d84a-436d-bcdd-1535bdef2c5e)"/><path d="M321.02,122.26c-1.33-2.78-.51-4.23-12.06-5.74-16.35-2.15-17.75,2.84-20.53,2.08a2.6723,2.6723,0,0,1-.33-.12c-3.01-1.17-10.1-8.14-10.28-17.53-.19-9.76,6.35-16.68,6.35-16.68-2.37-1.99-3.32-7.76-.76-10.23,2.56-2.46,6.92-1.89,17.62-.76,10.71,1.14,10.71.48,10.71.48,3.4.87,5.35,4.06,5.9,5.08.11.2.16.32.16.32l1.33-1.23a17.4156,17.4156,0,0,1,2.94,10.89s5.87-11.94,5.2-13.63a45.3827,45.3827,0,0,0-4.82-7.96l-.01-.01s-.95-9.09-3.79-9.09-14.97,2.74-14.97,2.74a17.2249,17.2249,0,0,0,1.14-6.72l-.05.05c-3.96,3.55-7.83,3.94-13.31,6.48a13.869,13.869,0,0,0-5.13,3.72l-.37.44-.39.47c-.38.48-.77.97-1.24,1.47a.3289.3289,0,0,1-.06.06l-.03.03a15.68,15.68,0,0,1-1.59,1.49c-3.6,2.93-11.52,4.89-12.47,7.99-.95,3.09,1.2,7.32,2.34,11.68a23.733,23.733,0,0,1,.61,8.21,16.1256,16.1256,0,0,1,2.52,11.97c-1.11,6.37-3.54,7.41-3.54,7.41a10.9082,10.9082,0,0,0-.9,6.79c3.5,13.92,17.98,22.21,17.98,22.21,12.88,4.8,21.35,2.71,21.35,2.71l.01-.01c9.37-6.11,12.58-26.33,12.72-27.27C323.11,120.3,321.37,123,321.02,122.26Zm-5.78,12.89c-2.27-.38-2.75-6.13-3.5-6.89-.76-.75-4.87-.44-4.87-.44s-3.79,4.3-5.3,4.42c-1.52.13-9.6-3.16-7.85-8.08,1.74-4.93,7.85-5.56,7.85-5.56a14.8032,14.8032,0,0,0,7.89,2.96c4.74.31,6.45-.56,7.01-.81.57-.26,3.62,1.13,3.54,5.43C319.96,129.17,317.52,135.53,315.24,135.15Z" transform="translate(-65.2965 -36.9627)" style="fill:url(#afbe5d05-bf9c-4bb5-92e4-c4a32828d84a)"/><path d="M314.6513,106.2137s4.0828,5.07,3.6934,6.9758c-.4263,2.0868-5.1552,3.2-5.1552,3.2s3.7919-1.3079,4.5683-3.2A25.1639,25.1639,0,0,0,314.6513,106.2137Z" transform="translate(-65.2965 -36.9627)" style="fill:#d2726c"/><path d="M322.07,88.82a17.4156,17.4156,0,0,0-2.94-10.89,29.0929,29.0929,0,0,0,3.31-10.71l.01.01a36.711,36.711,0,0,1,1.54,7.1l3.28.86C327.94,76.88,322.07,88.82,322.07,88.82Z" transform="translate(-65.2965 -36.9627)" style="opacity:0.6000000000000001;mix-blend-mode:multiply;fill:url(#fb8fd342-e074-49e3-8598-0cb8dba56c04)"/><path d="M317.64,78.84c-.55-1.02-2.5-4.21-5.9-5.08,0,0,0,.66-10.71-.48-10.7-1.13-15.06-1.7-17.62.76-2.56,2.47-1.61,8.24.76,10.23,0,0-6.54,6.92-6.35,16.68.18,9.39,7.27,16.36,10.28,17.53l-.14,1.04s.53,21.5,5.76,23.21c5.22,1.7,16.06.82,17.07,1.83.96.96-.14,2.61-.24,2.76l-.01.01s-8.47,2.09-21.35-2.71c0,0-14.48-8.29-17.98-22.21a10.9082,10.9082,0,0,1,.9-6.79s2.43-1.04,3.54-7.41a16.1256,16.1256,0,0,0-2.52-11.97,23.733,23.733,0,0,0-.61-8.21c-1.14-4.36-3.29-8.59-2.34-11.68a13.6368,13.6368,0,0,0,10.04-2.21s1.06-1.47,5.75-2.23,23.54,1.14,23.54,1.14a16.1959,16.1959,0,0,0-5.87-2.61c-3.76-.99-16.6.16-17.98.27,1.47-.26,16.03-2.76,17.69-2.26,1.76.52,8.06,3.41,8.06,3.41-.57-2.89-6.21-9.85-6.21-9.85a88.4767,88.4767,0,0,0-13.17,1.23,17.0365,17.0365,0,0,0-7.7,3.54l1.24-1.47.39-.47.37-.44,1.82-.31,9.14-3.69c3.07-1.64,7-5.7,7.48-6.2l.05-.05a17.2249,17.2249,0,0,1-1.14,6.72c7.72-.95,10.33-.47,10.33-.47C317.52,65.37,317.64,78.84,317.64,78.84Z" transform="translate(-65.2965 -36.9627)" style="opacity:0.6000000000000001;mix-blend-mode:multiply;fill:url(#aeba1325-5ea4-4ae8-9db8-d6fb174e1c18)"/><path d="M289.19,144.62a48.1439,48.1439,0,0,1,11.8746-.835c7.142.288,11.2469.317,9.4754,3.545C310.54,147.33,301.57,149.3558,289.19,144.62Z" transform="translate(-65.2965 -36.9627)" style="opacity:0.5;mix-blend-mode:multiply;fill:url(#b8a0394a-40fe-47fb-becb-a4dba2eea828)"/><path d="M314.01,60.4s4.3425-1.6938,6.0557-1.4153a3.3545,3.3545,0,0,0-1.3894-1.0952c-.7105-.1895-14.9963,2.98-14.9963,2.98S312.5884,59.8315,314.01,60.4Z" transform="translate(-65.2965 -36.9627)" style="fill:url(#b96db561-37c3-4335-8089-8117c5c0aec7)"/><path d="M305.2,62.01s-.3408,4.7275-1.85,6.44l-17.69,2.26-5.1929-.9155a13.05,13.05,0,0,0,4.2172-3.4345C286.8927,63.7832,298.4263,61.2516,305.2,62.01Z" transform="translate(-65.2965 -36.9627)" style="fill:url(#b01364c1-050d-483a-90ef-ac16506694e6)"/><path d="M322.44,67.22a39.826,39.826,0,0,1,1.55,7.11l3.28.86A23.581,23.581,0,0,0,322.44,67.22Z" transform="translate(-65.2965 -36.9627)" style="fill:url(#a8db3915-fa09-4fe2-b401-c9fc767d1ce7)"/><path d="M274.2368,107.4842s-1.2435-5.968-4.2928-8.9209a7.1688,7.1688,0,0,0-6.5229-2.0054s.9473,11.0684,1.9421,13.7684,2.51,3.41,2.51,3.41a8.5194,8.5194,0,0,1-2.4158-5.5284c-.2842-3.661-.379-8.8249.4263-9.44s4.06,1.7858,4.06,1.7858a10.81,10.81,0,0,0-1.644,4.5211c-.6158,3.2618,1.6579,5.63,2.51,5.5829s-.0473-3.7737.0948-4.8474S272.9421,104.9737,274.2368,107.4842Z" transform="translate(-65.2965 -36.9627)" style="opacity:0.8;mix-blend-mode:multiply;fill:url(#fda85fea-89d6-46d5-9906-01b8ee23b695)"/><path d="M271.1945,100.0652a7.4559,7.4559,0,0,0-2.97,6.6743c.3594,4.4868,2.9234,4.29,2.9319,3.3486s-.4883-3.3662-.2278-4.7377,2.4736-.751,2.4736-.751A32.9523,32.9523,0,0,0,271.1945,100.0652Z" transform="translate(-65.2965 -36.9627)" style="opacity:0.8;mix-blend-mode:multiply;fill:url(#b596fab6-b04d-44a6-be61-92b212c34aa0)"/><path d="M323.27,120.05s-4.1374,18.8731-12.73,27.28C310.54,147.33,320.34,143.4789,323.27,120.05Z" transform="translate(-65.2965 -36.9627)" style="fill:#34c7ff"/><path d="M318.6763,57.89s2.1825,1.6964,2.5974,7.5947S319.13,77.93,319.13,77.93a23.6743,23.6743,0,0,0,3.5963-10.2668C323.0421,62.2947,320.4053,58.5684,318.6763,57.89Z" transform="translate(-65.2965 -36.9627)" style="fill:#34c7ff"/><path d="M292.2432,70.24a51.0507,51.0507,0,0,0,10.5884,2.211c5.54.4886,6.6784.5993,6.6784.5993s-2.2258-2.16-6.9679-2.81A48.0468,48.0468,0,0,0,292.2432,70.24Z" transform="translate(-65.2965 -36.9627)" style="fill:url(#a2a1969e-3800-481b-9572-2045ca290851)"/><path d="M316.6447,120.4631s2.4158,0,3.3669,3.0316a25.2172,25.2172,0,0,1,.9673,4.5l.8556-3.3232s-1.1161-4.2084-2.2767-5.1556c-.8356-.6818-2.2752-1.3749-2.96-1.208Z" transform="translate(-65.2965 -36.9627)" style="fill:url(#ba7e2553-2a63-4dae-b99e-dc59ea4ed455)"/><path d="M310.1316,117.4316l.4084,3.6a12.8463,12.8463,0,0,0,4.8916-.5685l.3486-2.1789A27.2484,27.2484,0,0,0,310.1316,117.4316Z" transform="translate(-65.2965 -36.9627)" style="fill:url(#e0386272-bf13-4bfc-b423-e274fe137b18)"/><path d="M323.56,163.96s17.2255,12.5825,19.4624,16.91,3.1407,17.9032,6.1647,23.776c0,0-2.0664-9.6079-3.5167-17.142s-1.102-7.6408-1.9072-9.4882S330.0905,167.2413,323.56,163.96Z" transform="translate(-65.2965 -36.9627)" style="fill:#34c7ff"/><path d="M320.4737,234.0031s-8.3041,35.5421-7.9263,37.9443,5.7524,7.2992,6.0026,8.6426c0,0-4.1079,5.5027-3.9184,6.72s7.1988,8.9245,7.0105,11.3063c-.0547.6921-4.6021,8.1942-4.6021,8.1942s5.1389-7.3742,5.3916-8.55-6.296-11.0256-6.4884-12.027c-.4978-2.5909,3.2673-4.4962,3.3936-6.2014S314.2421,274.16,314.2,271.38,320.4737,234.0031,320.4737,234.0031Z" transform="translate(-65.2965 -36.9627)" style="fill:#34c7ff"/><path d="M322.16,318.73s17.95,40.635,24.0716,81.27C346.2316,400,345.21,360.3443,322.16,318.73Z" transform="translate(-65.2965 -36.9627)" style="fill:#34c7ff"/><path d="M208.35,155.8s-4.6447-.9928-6.5711-5.0438-.6689-9.9162-.6689-9.9162a102.1233,102.1233,0,0,0,5.4474,9.3571C208.3684,152.5789,208.8552,155.2947,208.35,155.8Z" transform="translate(-65.2965 -36.9627)" style="fill:#ffbcaf"/><path d="M351.6579,134.615l3.22,91.7955a6.764,6.764,0,0,0,6.76,6.5269H519.77a6.7641,6.7641,0,0,0,6.7621-6.6029l2.2128-92.8692a6.764,6.764,0,0,0-6.8066-6.925L358.3734,127.614A6.764,6.764,0,0,0,351.6579,134.615Z" transform="translate(-65.2965 -36.9627)" style="fill:#36d1f7;opacity:0.6000000000000001"/><path d="M519.77,233.1875H361.6377a6.989,6.989,0,0,1-7.01-6.7686l-3.22-91.7954a7.014,7.014,0,0,1,6.9629-7.26L521.9365,126.29a7.0638,7.0638,0,0,1,5.0489,2.0977,6.9562,6.9562,0,0,1,2.01,5.0835L526.7822,226.34A6.9733,6.9733,0,0,1,519.77,233.1875ZM521.9844,126.79h-.044L358.375,127.8638a6.5137,6.5137,0,0,0-6.4668,6.7422l3.22,91.7954a6.49,6.49,0,0,0,6.51,6.2861H519.77a6.5548,6.5548,0,0,0,6.5127-6.3594l2.2129-92.8686a6.5143,6.5143,0,0,0-6.5107-6.6695Z" transform="translate(-65.2965 -36.9627)" style="fill:#744ca2"/><path d="M351.8941,139.29H528.5576l.2838-4.8406a7.4129,7.4129,0,0,0-7.4588-7.8467l-163.5017,1.292a6.1335,6.1335,0,0,0-6.0839,6.2488Z" transform="translate(-65.2965 -36.9627)" style="opacity:0.6000000000000001;mix-blend-mode:multiply;fill:url(#a85afe8e-de60-4461-ba86-737c8bb209f5)"/><polygon points="295.479 109.733 295.479 162.857 349.556 162.857 349.556 109.455 295.479 109.733" style="opacity:0.30000000000000004;mix-blend-mode:multiply;fill:url(#a8e25460-4553-477e-9842-c3cb6d7cc558)"/><rect x="401.815" y="113.2982" width="23.5226" height="23.5226" style="opacity:0.30000000000000004;mix-blend-mode:multiply;fill:url(#b03aa1cb-34ad-4976-b8fd-0b20c012f9f0)"/><rect x="429.5684" y="113.2982" width="23.5227" height="23.5226" style="opacity:0.30000000000000004;mix-blend-mode:multiply;fill:url(#a545a98b-b4eb-4a58-a6c8-324737daf042)"/><rect x="373.5978" y="113.2982" width="23.5226" height="23.5226" style="opacity:0.30000000000000004;mix-blend-mode:multiply;fill:url(#b61c085f-eba5-4d8e-bf13-3dde26771912)"/><rect x="392.9376" y="150.5357" width="60.1535" height="5.6348" style="fill:#d1d4fb;mix-blend-mode:multiply"/><rect x="377.893" y="159.1105" width="75.1981" height="1.744" style="fill:#d1d4fb;mix-blend-mode:multiply"/><rect x="378.6016" y="139.8202" width="14.3861" height="1.7441" style="fill:#d1d4fb;mix-blend-mode:multiply"/><rect x="406.3833" y="139.8202" width="14.3861" height="1.7441" style="fill:#d1d4fb;mix-blend-mode:multiply"/><rect x="434.1367" y="139.8202" width="14.3861" height="1.7441" style="fill:#d1d4fb;mix-blend-mode:multiply"/><rect x="373.5978" y="161.9443" width="24.1899" height="1.7441" style="fill:#d1d4fb;mix-blend-mode:multiply"/><rect x="377.893" y="164.7452" width="75.1981" height="1.7441" style="fill:#d1d4fb;mix-blend-mode:multiply"/><rect x="373.5978" y="167.5461" width="79.4933" height="1.7441" style="fill:#d1d4fb;mix-blend-mode:multiply"/><rect x="373.5978" y="170.347" width="79.4933" height="1.7441" style="fill:#d1d4fb;mix-blend-mode:multiply"/><rect x="377.893" y="181.6704" width="75.1981" height="1.7441" style="fill:#d1d4fb;mix-blend-mode:multiply"/><rect x="373.5978" y="184.4713" width="79.4933" height="1.7441" style="fill:#d1d4fb;mix-blend-mode:multiply"/><rect x="373.5978" y="187.2722" width="79.4933" height="1.744" style="fill:#d1d4fb;mix-blend-mode:multiply"/><rect x="373.5978" y="173.1479" width="76.2952" height="1.7441" style="fill:#d1d4fb;mix-blend-mode:multiply"/><rect x="377.893" y="175.9488" width="75.1981" height="1.7441" style="fill:#d1d4fb;mix-blend-mode:multiply"/><rect x="373.5978" y="178.7497" width="64.4057" height="1.7441" style="fill:#d1d4fb;mix-blend-mode:multiply"/><g style="mix-blend-mode:soft-light"><path d="M375.9268,189.167A15.3836,15.3836,0,1,1,391.31,173.7837,15.4011,15.4011,0,0,1,375.9268,189.167Zm0-29.7671A14.3836,14.3836,0,1,0,390.31,173.7837,14.4,14.4,0,0,0,375.9268,159.4Z" transform="translate(-65.2965 -36.9627)" style="fill:#e0ffff"/></g><circle cx="310.6298" cy="136.8208" r="8.3602" style="fill:#fff"/><g style="mix-blend-mode:soft-light"><path d="M414.8525,161.8008a15.3836,15.3836,0,1,1,15.3829-15.3833A15.401,15.401,0,0,1,414.8525,161.8008Zm0-29.7671a14.3836,14.3836,0,1,0,14.3829,14.3838A14.4,14.4,0,0,0,414.8525,132.0337Z" transform="translate(-65.2965 -36.9627)" style="fill:#e0ffff"/></g><circle cx="414.8521" cy="146.4174" r="7.8668" transform="matrix(0.1554, -0.9878, 0.9878, 0.1554, 140.432, 496.5046)" style="fill:#fff"/><g style="mix-blend-mode:soft-light"><polygon points="292.787 95.118 293.911 93.414 299.989 98.742 299.057 100.04 292.787 95.118" style="fill:#fff"/><polygon points="300.146 95.118 299.021 93.414 292.943 98.742 293.876 100.04 300.146 95.118" style="fill:#fff"/></g><rect x="404.5456" y="94.5711" width="54.4421" height="2.7294" style="fill:#fff"/><polygon points="118.053 55.16 118.053 78.783 146.309 79.025 146.69 54.403 118.053 55.16" style="fill:url(#e21adc13-dbf7-4bdb-b666-cb517f68e237)"/><polygon points="146.69 54.403 148.534 57.506 147.612 79.002 146.309 79.025 146.69 54.403" style="fill:url(#fb88ff77-4f33-4835-8dbb-4a6998965bb3)"/><polygon points="123.099 63.133 125.708 59.346 139.818 71.188 137.654 74.075 123.099 63.133" style="fill:#fff"/><polygon points="140.181 63.133 137.571 59.346 123.461 71.188 125.625 74.075 140.181 63.133" style="fill:#fff"/><path d="M249.2694,370.1808H152.5805a7.9187,7.9187,0,0,1-7.9166-7.7385l-1.8051-79.306a7.9188,7.9188,0,0,1,7.9167-8.0989H251.4444a7.9188,7.9188,0,0,1,7.9158,8.1358l-2.175,79.306A7.9187,7.9187,0,0,1,249.2694,370.1808Z" transform="translate(-65.2965 -36.9627)" style="opacity:0.81;fill:url(#fe2b121e-f088-4535-b26e-2b8e82deeed9)"/><path d="M249.27,370.4307H152.5806a8.2165,8.2165,0,0,1-8.1665-7.9825l-1.8052-79.3056a8.1679,8.1679,0,0,1,8.1665-8.3555H251.4443A8.17,8.17,0,0,1,259.61,283.18l-2.1753,79.3066A8.1261,8.1261,0,0,1,249.27,370.4307Zm-98.4941-95.1436a7.6684,7.6684,0,0,0-7.6665,7.8438l1.8052,79.3056a7.7127,7.7127,0,0,0,7.6665,7.4942H249.27a7.6289,7.6289,0,0,0,7.6656-7.458L259.11,283.166a7.6694,7.6694,0,0,0-7.6661-7.8789Z" transform="translate(-65.2965 -36.9627)" style="fill:#473da2"/><rect x="103.6259" y="254.2957" width="50.8499" height="2.1766" style="fill:#fff"/><rect x="103.6259" y="259.5914" width="25.425" height="2.1765" style="fill:#fff"/><rect x="103.6259" y="264.0124" width="25.425" height="2.1766" style="fill:#fff"/><rect x="131.903" y="264.0124" width="20.2282" height="2.1766" style="fill:#fff"/><rect x="103.6259" y="268.4335" width="40.9895" height="2.1765" style="fill:#fff"/><rect x="103.6259" y="272.8545" width="14.5895" height="2.1766" style="fill:#fff"/><rect x="121.2154" y="286.1177" width="25.2316" height="2.1765" style="fill:#fff"/><rect x="103.6259" y="277.2756" width="45.7264" height="2.1765" style="fill:#fff"/><rect x="103.6259" y="281.6966" width="35.179" height="2.1766" style="fill:#fff"/><rect x="103.6259" y="286.1177" width="16.5474" height="2.1765" style="fill:#fff"/><rect x="103.6259" y="290.5387" width="25.425" height="2.1766" style="fill:#fff"/><rect x="103.6259" y="294.9598" width="7.2948" height="2.1766" style="fill:#fff"/><rect x="113.9207" y="294.9598" width="26.4631" height="2.1766" style="fill:#fff"/><rect x="121.2154" y="299.2502" width="25.2316" height="2.1766" style="fill:#fff"/><rect x="103.6259" y="299.2502" width="16.5474" height="2.1766" style="fill:#fff"/><rect x="103.6259" y="303.6713" width="25.425" height="2.1765" style="fill:#fff"/><rect x="103.6259" y="308.0923" width="7.2948" height="2.1766" style="fill:#fff"/><rect x="113.9207" y="308.0923" width="26.4631" height="2.1766" style="fill:#fff"/><path d="M508.7177,108.84a4.4687,4.4687,0,1,1-4.4686-4.4686A4.4686,4.4686,0,0,1,508.7177,108.84Z" transform="translate(-65.2965 -36.9627)" style="fill:url(#e1452575-b466-44a1-8aad-eb291a285f6d)"/><path d="M89.8174,212.4767a5.5617,5.5617,0,1,1-5.5617-5.5617A5.5617,5.5617,0,0,1,89.8174,212.4767Z" transform="translate(-65.2965 -36.9627)" style="fill:url(#fd314cc9-dedc-4cb6-9a45-6b0aff0b931a)"/><circle cx="452.0777" cy="71.877" r="4.4686" style="fill:url(#b06406f9-bddf-497c-af3d-b92244d7cab2)"/><circle cx="163.9068" cy="102.6031" r="3.1598" style="fill:url(#f5d13719-db44-46c4-a250-d7af4a177126)"/><circle cx="375.5634" cy="242.0407" r="3.1598" style="fill:url(#be69dc3f-a6a4-4d44-b604-3bc1d9ae7329)"/><circle cx="47.0418" cy="273.5452" r="2.8248" style="fill:url(#b3b27e1f-f0c1-4a25-8ef9-daf0e59a128b)"/><path d="M160.4939,282.7714H111.6948a7.2833,7.2833,0,0,1-7.2791-7.0375l-1.0835-32.0961a7.2833,7.2833,0,0,1,7.2791-7.529H161.475a7.2832,7.2832,0,0,1,7.28,7.5058l-.981,32.096A7.2833,7.2833,0,0,1,160.4939,282.7714Z" transform="translate(-65.2965 -36.9627)" style="opacity:0.73;fill:url(#a84219da-94e5-4f19-85cc-556eb42eebbc)"/><path d="M160.4941,283.0215H111.6948a7.5041,7.5041,0,0,1-7.5293-7.2793l-1.0835-32.0957a7.5343,7.5343,0,0,1,7.5293-7.7881h50.8638a7.5334,7.5334,0,0,1,7.53,7.7637l-.981,32.0967A7.4992,7.4992,0,0,1,160.4941,283.0215Zm-49.8828-46.6631a7.0338,7.0338,0,0,0-7.0293,7.27l1.0835,32.0957a7.006,7.006,0,0,0,7.0293,6.7969h48.7993a7.0014,7.0014,0,0,0,7.03-6.8184l.981-32.0967a7.0338,7.0338,0,0,0-7.03-7.248Z" transform="translate(-65.2965 -36.9627)" style="fill:#953da2"/><polygon points="59.408 210.677 47.377 224.624 59.629 235.025 59.629 229.656 52.541 223.52 59.124 216.077 59.408 210.677" style="fill:#fff"/><polygon points="80.558 211.304 92.59 225.25 80.337 235.651 80.337 230.283 87.425 224.146 79.537 215.8 80.558 211.304" style="fill:#fff"/><polygon points="62.029 235.025 72.514 211.93 77.44 211.93 65.566 235.025 62.029 235.025" style="fill:#fff"/><path d="M488.8216,348.8215H427.7747a9.1112,9.1112,0,0,1-9.106-8.8038l-1.3555-40.1517a9.1113,9.1113,0,0,1,9.1061-9.4187h63.63a9.1113,9.1113,0,0,1,9.107,9.39l-1.2273,40.1517A9.1112,9.1112,0,0,1,488.8216,348.8215Z" transform="translate(-65.2965 -36.9627)" style="opacity:0.73;fill:url(#ac2789ce-35d1-4cee-a42a-86528068c8c4)"/><path d="M488.8213,349.0713H427.7744a9.3237,9.3237,0,0,1-9.3555-9.0449l-1.3554-40.1514a9.3617,9.3617,0,0,1,9.3554-9.6777h63.63a9.3622,9.3622,0,0,1,9.3575,9.6474l-1.2276,40.1514A9.3182,9.3182,0,0,1,488.8213,349.0713Zm-62.4024-58.374a8.861,8.861,0,0,0-8.8554,9.16l1.3554,40.1514a8.8245,8.8245,0,0,0,8.8555,8.5625h61.0469a8.821,8.821,0,0,0,8.8574-8.5908l1.2276-40.1514a8.8619,8.8619,0,0,0-8.8575-9.1318Z" transform="translate(-65.2965 -36.9627)" style="fill:#953da2"/><rect x="364.2489" y="259.9485" width="55.9112" height="33.2059" style="fill:#d1d4fb;mix-blend-mode:multiply"/><polygon points="387.254 268.188 387.254 284.915 401.542 275.786 387.254 268.188" style="fill:#fff"/><rect x="364.2489" y="299.2747" width="55.9112" height="3.0363" style="fill:#d1d4fb;mix-blend-mode:multiply"/><rect x="364.2489" y="299.2747" width="14.4743" height="3.0363" style="fill:#fff"/><path d="M388.5846,286.4152l-2.9166,8.3486C387.2781,290.15,389.5969,287.1557,388.5846,286.4152Zm-2.9166,8.3486-2.9243,8.3466C383.48,302.8907,384.05,299.3757,385.668,294.7638Zm2.9166-8.3486-2.9166,8.3486C387.2781,290.15,389.5969,287.1557,388.5846,286.4152Zm-2.9166,8.3486-2.9243,8.3466C383.48,302.8907,384.05,299.3757,385.668,294.7638Zm8.4235,7.232,2.8347,1.6074,3.0594-8.3519-3.2785-.5486c.0584-.31.1169-.62.1576-.9269a21.485,21.485,0,0,0,.2768-4.1624l3.4291-2.152-1.5624-7.3568-3.2864,3.1431a9.5127,9.5127,0,0,0-1.68-2.45,6.5539,6.5539,0,0,0-.5693-.5545l2.01-4.64-5.3477-1.7407h0l-1.2843,4.6766a8.9,8.9,0,0,0-3.6209.8468l-.59-4.4208-5.8881,4.4565,1.36,3.9179a22.2973,22.2973,0,0,0-2.8726,4.1821l-2.8368-1.6-3.06,8.3519,3.2786.5485a22.6838,22.6838,0,0,0-.4344,5.0893l-3.4291,2.152,1.5623,7.3568,3.2865-3.1431a9.2329,9.2329,0,0,0,2.2518,2.9964l-2.012,4.6478,5.2637,2.0525.8149-2.9645.5533-2.0238a8.934,8.934,0,0,0,3.6287-.8447l.5818,4.4186,5.8882-4.4565-1.36-3.9179a21.7877,21.7877,0,0,0,2.3167-3.2036C393.7291,302.6588,393.9092,302.3312,394.0915,301.9958Zm-8.4235-7.232c-1.6178,4.6119.0012,9.3683-2.9243,8.3466-2.9312-1.0317-4-5.5981-2.384-10.2021,1.6179-4.6119,5.2993-7.5149,8.2249-6.4931C391.5179,287.439,387.2781,290.15,385.668,294.7638Zm2.9166-8.3486-2.9166,8.3486C387.2781,290.15,389.5969,287.1557,388.5846,286.4152Zm-2.9166,8.3486-2.9243,8.3466C383.48,302.8907,384.05,299.3757,385.668,294.7638Z" transform="translate(-65.2965 -36.9627)" style="fill-rule:evenodd;fill:url(#fcd04a3d-8505-4b4f-84da-edf6a6a1ad8c)"/><path d="M396.9262,303.6032l3.0594-8.3519-3.1209-1.4755-.5047-.2362.3278-4.6,3.4638-1.6913-1.1434-7.1438-7.5459-2.4569,1.39,3.3148,2.63-5.359-5.3477-1.7407-2.1969-.717-5.2715-2.0545-.9849,3.5956-4.5861-2.1792-5.8881,4.4565,1.7863,4.8182-5.5058,15.2645-2.72,9.9142,5.2278.572-1.7015,3.9291,5.2715,2.0546,7.5446,2.4577-1.211-2.4237-.7627-1.45,2.7886.91,4.7638,1.55,5.8882-4.4565-3.6417-4.29,4.5982-2.8317ZM380.36,292.9083c1.6179-4.6119,5.2993-7.5149,8.2249-6.4931l-2.9166,8.3486-2.9243,8.3466C379.8125,302.0787,378.7439,297.5123,380.36,292.9083Z" transform="translate(-65.2965 -36.9627)" style="fill-rule:evenodd;fill:url(#a5546d20-d594-4c48-923e-85f228096b79)"/><path d="M389.3818,301.1408l3.0578-8.3524-3.28-.5483a22.9061,22.9061,0,0,0,.437-5.0831l3.43-2.1514-1.5636-7.3579-3.288,3.1411a9.18,9.18,0,0,0-2.25-3.0007l2.012-4.6428-5.2691-2.0536-1.3648,4.9863a8.9553,8.9553,0,0,0-3.6235.8449l-.5838-4.4157-5.888,4.4539,1.3558,3.9174a22.633,22.633,0,0,0-2.873,4.1876l-2.8375-1.6009-3.0578,8.3522,3.28.5485a22.9042,22.9042,0,0,0-.437,5.083l-3.43,2.1513,1.5636,7.358,3.2879-3.1411a9.1821,9.1821,0,0,0,2.25,3.0008l-2.012,4.6427,5.269,2.0535,1.3649-4.9861a8.9545,8.9545,0,0,0,3.6234-.8449l.5839,4.4156,5.888-4.4538-1.3558-3.9175a22.633,22.633,0,0,0,2.873-4.1876Zm-14.1879-.4921c-2.9291-1.026-3.9947-5.5943-2.38-10.2035s5.298-7.5141,8.2271-6.4881,3.9947,5.5944,2.38,10.2037S378.1231,301.6748,375.1939,300.6487Z" transform="translate(-65.2965 -36.9627)" style="fill-rule:evenodd;fill:url(#b0f8db83-ec62-4273-8a4e-31f555615081)"/><polygon points="335.274 250.499 327.729 248.043 324.3 250.194 331.845 252.651 335.274 250.499" style="fill:#601734;fill-rule:evenodd;opacity:0.5;mix-blend-mode:multiply"/><polygon points="327.28 273.141 319.731 270.682 318.375 266.765 325.92 269.223 327.28 273.141" style="fill:#b3d9ff;fill-rule:evenodd;mix-blend-mode:soft-light"/><polygon points="320.628 240.825 324.766 242.022 326.166 240.685 328.913 241.579 330.185 238.641 322.64 236.183 320.628 240.825" style="fill:#601734;fill-rule:evenodd;opacity:0.5;mix-blend-mode:multiply"/><path d="M374.9318,308.528l3.9527,1.6449-.3293-2.49A7.0961,7.0961,0,0,1,374.9318,308.528Z" transform="translate(-65.2965 -36.9627)" style="fill:#601734;fill-rule:evenodd;opacity:0.5;mix-blend-mode:multiply"/><path d="M375.5418,285.9037l6.6543,3.5186a10.3374,10.3374,0,0,1,1.7114-1.8124S382.1724,280.2726,375.5418,285.9037Z" transform="translate(-65.2965 -36.9627)" style="fill:#601734;fill-rule:evenodd;opacity:0.5;mix-blend-mode:multiply"/><polygon points="157.492 0 163.907 12.85 159.621 14.799 153.623 2.996 157.492 0" style="fill:#ff1d9c"/><polygon points="13.042 299.342 18.979 305.856 21.31 303.167 15.705 296.997 13.042 299.342" style="fill:#6877ff"/><polygon points="314.818 78.405 308.837 82.034 306.441 77.49 312.979 73.672 314.818 78.405" style="fill:#4f31e0"/><polygon points="344.261 308.122 335.691 314.207 333.295 309.663 341.615 304.804 344.261 308.122" style="fill:#4f31e0"/><polygon points="332.941 47.334 331.493 13.677 375.563 13.677 373.752 47.239 332.941 47.334" style="fill-rule:evenodd;fill:url(#f5fcc2f4-bd8f-43c4-b801-2d037a1806b3)"/><polygon points="331.493 13.677 330.174 15.662 331.493 47.334 332.941 47.334 331.493 13.677" style="fill-rule:evenodd;fill:url(#a63b4f20-4427-492a-9b4b-097aae8caacc)"/><polygon points="346.126 20.397 339.21 19.656 340.158 42.72 346.126 42.134 346.126 39.746 342.668 39.828 342.274 22.044 346.126 22.154 346.126 20.397" style="fill:#fff"/><polygon points="360.289 20.397 367.205 19.656 366.257 42.72 360.289 42.134 360.289 39.746 363.747 39.828 364.142 22.044 360.289 22.154 360.289 20.397" style="fill:#fff"/><polygon points="29.057 121.017 30.044 98.072 0 98.072 1.235 120.952 29.057 121.017" style="fill-rule:evenodd;fill:url(#b9f98cda-2007-4a99-90a4-6f0d532e3146)"/><polygon points="30.044 98.072 30.943 99.425 30.044 121.017 29.057 121.017 30.044 98.072" style="fill-rule:evenodd;fill:url(#fc6f2697-81b1-4557-9d60-47e23037b5dd)"/><path d="M83.7666,139.6513a20.1364,20.1364,0,0,1,3.875.1414c.5813.2676-.1507,5.6353-.1507,5.6353l1.3132,1.2055-1.2271,1.19s.0646,5.4406-.71,5.8927-3.423,0-3.423,0V152.36a7.8685,7.8685,0,0,0,2.5188-.155c.3552-.2906.323-5.044.323-5.044l.5812-.6351-.5812-.6889s.1075-3.3883.0429-4.318c-.0429-.6191-2.5617-.6514-2.5617-.6514Z" transform="translate(-65.2965 -36.9627)" style="fill:#fff"/><path d="M76.221,139.6513a20.1376,20.1376,0,0,0-3.8751.1414c-.5813.2676.1507,5.6353.1507,5.6353l-1.3132,1.2055,1.2271,1.19s-.0646,5.4406.71,5.8927,3.423,0,3.423,0V152.36a7.8685,7.8685,0,0,1-2.5188-.155c-.3552-.2906-.3229-5.044-.3229-5.044l-.5813-.6351.5813-.6889s-.1075-3.3883-.043-4.318c.043-.6191,2.5618-.6514,2.5618-.6514Z" transform="translate(-65.2965 -36.9627)" style="fill:#fff"/><path d="M347.8584,87.3306l-7.3623-19.2681L359.5889,72.05Zm-6.5693-18.5913,6.7177,17.5776,10.7012-13.94Z" transform="translate(-65.2965 -36.9627)" style="fill:#744ca2"/><rect x="398.1901" y="355.712" width="10.9381" height="0.4989" transform="translate(-187.3721 434.1171) rotate(-53.758)" style="fill:#744ca2"/><polygon points="274.619 242.197 267.673 233.552 268.064 233.239 275.009 241.884 274.619 242.197" style="fill:#744ca2"/><polygon points="60.289 302.917 46.423 292.859 46.717 292.454 60.583 302.513 60.289 302.917" style="fill:#744ca2"/><rect x="110.2346" y="334.3991" width="17.1299" height="0.4997" transform="translate(-284.6948 189.4022) rotate(-52.7013)" style="fill:#744ca2"/><rect x="98.5907" y="184.7227" width="0.4997" height="10.1386" transform="translate(-180.4416 152.0484) rotate(-62.2811)" style="fill:#744ca2"/><polygon points="382.754 34.407 382.379 34.077 392.75 22.248 393.125 22.578 382.754 34.407" style="fill:#744ca2"/><rect x="248.4328" y="99.5502" width="0.4996" height="10.406" transform="translate(-85.9244 84.7644) rotate(-26.4488)" style="fill:#744ca2"/><rect x="171.1268" y="261.7338" width="15.5428" height="0.4992" transform="translate(-191.7112 138.8588) rotate(-39.9128)" style="fill:#744ca2"/></g></g></g></g></svg>