<svg xmlns="http://www.w3.org/2000/svg" xmlns:xlink="http://www.w3.org/1999/xlink" viewBox="0 0 973.2 606.68"><defs><style>.cls-1{fill:#288795;}.cls-2{opacity:0.4;}.cls-3{fill:#eac4f9;}.cls-4{fill:url(#linear-gradient);}.cls-15,.cls-17,.cls-18,.cls-22,.cls-23,.cls-33,.cls-37,.cls-5{fill:#fff;}.cls-6{fill:url(#linear-gradient-2);}.cls-23,.cls-7{opacity:0.7;}.cls-8{fill:url(#linear-gradient-3);}.cls-9{fill:#222669;}.cls-10{fill:url(#linear-gradient-4);}.cls-11{fill:url(#linear-gradient-5);}.cls-12{fill:url(#linear-gradient-6);}.cls-13{fill:url(#linear-gradient-7);}.cls-14{fill:url(#Degradado_sin_nombre_18);}.cls-15{opacity:0.65;}.cls-16{fill:url(#linear-gradient-8);}.cls-17{opacity:0.3;}.cls-18{opacity:0.6;}.cls-19{fill:url(#linear-gradient-9);}.cls-20{fill:#2b364f;}.cls-21{fill:#fdf53f;stroke:#000;opacity:0.44;}.cls-21,.cls-81{stroke-miterlimit:10;}.cls-22{opacity:0.91;}.cls-24,.cls-81{fill:#009245;}.cls-25{fill:#f0933a;}.cls-26{fill:#c1272d;}.cls-27{fill:url(#linear-gradient-10);}.cls-28{fill:url(#linear-gradient-11);}.cls-29{fill:url(#linear-gradient-12);}.cls-30{opacity:0.73;}.cls-31{fill:url(#linear-gradient-13);}.cls-32{fill:url(#Degradado_sin_nombre_5);}.cls-33{opacity:0.5;}.cls-34{fill:url(#linear-gradient-14);}.cls-35{fill:#0000f7;}.cls-36{fill:url(#linear-gradient-15);}.cls-37{opacity:0.64;}.cls-38{opacity:0.2;fill:url(#linear-gradient-16);}.cls-39{fill:url(#linear-gradient-17);}.cls-40{fill:url(#linear-gradient-18);}.cls-41{fill:url(#linear-gradient-19);}.cls-42{fill:url(#linear-gradient-20);}.cls-43{fill:url(#linear-gradient-21);}.cls-44{fill:url(#linear-gradient-22);}.cls-45{fill:url(#linear-gradient-23);}.cls-46{fill:url(#linear-gradient-24);}.cls-47{fill:url(#linear-gradient-25);}.cls-48{fill:url(#linear-gradient-26);}.cls-49{fill:url(#linear-gradient-27);}.cls-50{fill:url(#linear-gradient-28);}.cls-51{fill:url(#linear-gradient-29);}.cls-52{fill:url(#linear-gradient-30);}.cls-53{fill:#5cb30b;}.cls-54{fill:url(#linear-gradient-31);}.cls-55{fill:url(#linear-gradient-32);}.cls-56{fill:url(#linear-gradient-33);}.cls-57{fill:url(#linear-gradient-34);}.cls-58{fill:url(#linear-gradient-35);}.cls-59{fill:url(#linear-gradient-36);}.cls-60{fill:url(#linear-gradient-37);}.cls-61{fill:url(#linear-gradient-38);}.cls-62{fill:url(#linear-gradient-39);}.cls-63{fill:url(#linear-gradient-40);}.cls-64{fill:url(#linear-gradient-41);}.cls-65{fill:url(#linear-gradient-42);}.cls-66{fill:url(#linear-gradient-43);}.cls-67{fill:url(#linear-gradient-44);}.cls-68{fill:url(#linear-gradient-45);}.cls-69{fill:url(#linear-gradient-46);}.cls-70{fill:url(#linear-gradient-47);}.cls-71{fill:url(#linear-gradient-48);}.cls-72{fill:url(#linear-gradient-49);}.cls-73{fill:#1e2162;}.cls-74{fill:#9ec3f6;}.cls-75{fill:#9abff6;}.cls-76{fill:#699dee;}.cls-77{fill:#c0d8fb;}.cls-78{fill:#2b478b;}.cls-79{fill:#f99746;}.cls-80{fill:#ed7d2b;}.cls-81{stroke:#009245;}</style><linearGradient id="linear-gradient" x1="-1997.99" y1="-3766.39" x2="-1888.85" y2="-3766.39" gradientTransform="matrix(-0.96, 0.26, -0.26, -0.96, -2016.34, -2645.39)" gradientUnits="userSpaceOnUse"><stop offset="0" stop-color="#53d8ff"/><stop offset="1" stop-color="#3840f7"/></linearGradient><linearGradient id="linear-gradient-2" x1="-2018.77" y1="-3895.64" x2="-2004.97" y2="-3793.32" xlink:href="#linear-gradient"/><linearGradient id="linear-gradient-3" x1="143.29" y1="-108.68" x2="499.29" y2="521.31" gradientTransform="translate(-35.23 5.21) rotate(1.44)" gradientUnits="userSpaceOnUse"><stop offset="0" stop-color="#102792"/><stop offset="1" stop-color="#3ea7c4"/></linearGradient><linearGradient id="linear-gradient-4" x1="-4306.06" y1="354.78" x2="-4111.93" y2="354.78" gradientTransform="matrix(-1, 0.07, 0.07, 1, -3429.49, 282.12)" gradientUnits="userSpaceOnUse"><stop offset="0" stop-color="#9f5699"/><stop offset="1" stop-color="#202278"/></linearGradient><linearGradient id="linear-gradient-5" x1="736.73" y1="254.46" x2="836.73" y2="254.46" gradientUnits="userSpaceOnUse"><stop offset="0" stop-color="#2b3582"/><stop offset="1" stop-color="#150e42"/></linearGradient><linearGradient id="linear-gradient-6" x1="499.04" y1="621.46" x2="491.78" y2="477.81" xlink:href="#linear-gradient-5"/><linearGradient id="linear-gradient-7" x1="145.15" y1="297.32" x2="815.45" y2="297.32" xlink:href="#linear-gradient-5"/><linearGradient id="Degradado_sin_nombre_18" x1="330.61" y1="406.14" x2="945.78" y2="-106.51" gradientUnits="userSpaceOnUse"><stop offset="0.3" stop-color="#dbdbdb"/><stop offset="0.47" stop-color="#e4e2b4"/><stop offset="1" stop-color="#fdf53f"/></linearGradient><linearGradient id="linear-gradient-8" x1="499.49" y1="567.26" x2="432.74" y2="713.81" xlink:href="#linear-gradient-5"/><linearGradient id="linear-gradient-9" x1="776.98" y1="193.63" x2="898.6" y2="367.66" gradientUnits="userSpaceOnUse"><stop offset="0" stop-color="#9cfffb"/><stop offset="1" stop-color="#9bfffa"/></linearGradient><linearGradient id="linear-gradient-10" x1="291.5" y1="307.55" x2="-149.84" y2="844.97" gradientTransform="matrix(1, 0, 0, 1, 0, 0)" xlink:href="#linear-gradient"/><linearGradient id="linear-gradient-11" x1="-3833.86" y1="187.54" x2="-3852.23" y2="313.91" gradientTransform="matrix(-1, 0, 0, 1, -3594.98, 0)" gradientUnits="userSpaceOnUse"><stop offset="0" stop-color="#cb236d"/><stop offset="1" stop-color="#4c246d"/></linearGradient><linearGradient id="linear-gradient-12" x1="178.07" y1="86.25" x2="72.07" y2="218.25" gradientUnits="userSpaceOnUse"><stop offset="0" stop-color="#a737d5"/><stop offset="1" stop-color="#ef497a"/></linearGradient><linearGradient id="linear-gradient-13" x1="667.94" y1="509.3" x2="460.95" y2="603.79" xlink:href="#linear-gradient-5"/><linearGradient id="Degradado_sin_nombre_5" x1="704.06" y1="438.58" x2="868.42" y2="438.58" gradientUnits="userSpaceOnUse"><stop offset="0.36" stop-color="#4485fb"/><stop offset="0.53" stop-color="#468efc"/><stop offset="0.8" stop-color="#4ba8fd"/><stop offset="0.97" stop-color="#4ebafe"/></linearGradient><linearGradient id="linear-gradient-14" x1="695.09" y1="67.97" x2="890.76" y2="347.94" gradientTransform="matrix(1, 0, 0, 1, 0, 0)" xlink:href="#linear-gradient"/><linearGradient id="linear-gradient-15" x1="423.72" y1="108.67" x2="143.72" y2="282.67" xlink:href="#linear-gradient-9"/><linearGradient id="linear-gradient-16" x1="1652.15" y1="1117.73" x2="1688.36" y2="1117.73" gradientTransform="translate(-1632.29 -230.43) rotate(-25.51)" xlink:href="#linear-gradient"/><linearGradient id="linear-gradient-17" x1="9640.76" y1="-3576.13" x2="9561.45" y2="-3624.2" gradientTransform="matrix(-1, 0.07, 0.24, 0.9, 10566.56, 2768.03)" xlink:href="#linear-gradient"/><linearGradient id="linear-gradient-18" x1="3097.53" y1="252.15" x2="3115.27" y2="86.05" gradientTransform="translate(-2952.75)" xlink:href="#linear-gradient"/><linearGradient id="linear-gradient-19" x1="9634.97" y1="-3576.93" x2="9560.88" y2="-3621.83" gradientTransform="matrix(-1, 0.07, 0.24, 0.9, 10566.56, 2768.03)" xlink:href="#linear-gradient"/><linearGradient id="linear-gradient-20" x1="-12861.22" y1="-3200.7" x2="-12827.37" y2="-3210.51" gradientTransform="translate(13173.26 2500.81) rotate(-4.14)" xlink:href="#linear-gradient"/><linearGradient id="linear-gradient-21" x1="567.98" y1="151.47" x2="262.25" y2="523.76" gradientTransform="matrix(1, 0, 0, 1, 0, 0)" xlink:href="#linear-gradient"/><linearGradient id="linear-gradient-22" x1="281.73" y1="597.9" x2="315.3" y2="597.9" xlink:href="#linear-gradient-5"/><linearGradient id="linear-gradient-23" x1="222.76" y1="597.98" x2="238.48" y2="597.98" xlink:href="#linear-gradient-5"/><linearGradient id="linear-gradient-24" x1="229.4" y1="587.15" x2="239.6" y2="587.15" gradientUnits="userSpaceOnUse"><stop offset="0" stop-color="#f9b776"/><stop offset="1" stop-color="#f47960"/></linearGradient><linearGradient id="linear-gradient-25" x1="283.44" y1="586.48" x2="291.94" y2="586.48" xlink:href="#linear-gradient-24"/><linearGradient id="linear-gradient-26" x1="345.13" y1="455.33" x2="180.87" y2="624.79" gradientTransform="matrix(1, 0, 0, 1, 0, 0)" xlink:href="#linear-gradient-11"/><linearGradient id="linear-gradient-27" x1="304.58" y1="455.79" x2="269.78" y2="500.77" gradientTransform="matrix(1, 0, 0, 1, 0, 0)" xlink:href="#linear-gradient-11"/><linearGradient id="linear-gradient-28" x1="330.67" y1="365.03" x2="154.77" y2="633.56" gradientUnits="userSpaceOnUse"><stop offset="0" stop-color="#fdf53f"/><stop offset="1" stop-color="#d93c65"/></linearGradient><linearGradient id="linear-gradient-29" x1="402.37" y1="315.86" x2="359.96" y2="382.46" xlink:href="#linear-gradient-24"/><linearGradient id="linear-gradient-30" x1="309.23" y1="373.41" x2="313.21" y2="348.89" xlink:href="#linear-gradient-24"/><linearGradient id="linear-gradient-31" x1="301.79" y1="346.11" x2="125.88" y2="614.64" xlink:href="#linear-gradient-28"/><linearGradient id="linear-gradient-32" x1="244.76" y1="443.57" x2="269.32" y2="443.57" xlink:href="#linear-gradient-24"/><linearGradient id="linear-gradient-33" x1="322.34" y1="333.23" x2="295.25" y2="353.96" xlink:href="#linear-gradient-24"/><linearGradient id="linear-gradient-34" x1="303.31" y1="316.86" x2="327.84" y2="348.45" xlink:href="#linear-gradient-5"/><linearGradient id="linear-gradient-35" x1="318.98" y1="328.84" x2="291.89" y2="349.56" xlink:href="#linear-gradient-24"/><linearGradient id="linear-gradient-36" x1="390.09" y1="308.04" x2="347.68" y2="374.64" xlink:href="#linear-gradient-24"/><linearGradient id="linear-gradient-37" x1="612.84" y1="313.94" x2="591.38" y2="379.73" xlink:href="#linear-gradient-24"/><linearGradient id="linear-gradient-38" x1="608.3" y1="547.74" x2="653.53" y2="547.74" xlink:href="#linear-gradient-24"/><linearGradient id="linear-gradient-39" x1="670.47" y1="446.6" x2="648.07" y2="592.19" gradientTransform="matrix(1, 0, 0, 1, 0, 0)" xlink:href="#linear-gradient"/><linearGradient id="linear-gradient-40" x1="623.07" y1="439.31" x2="600.67" y2="584.9" gradientTransform="matrix(1, 0, 0, 1, 0, 0)" xlink:href="#linear-gradient"/><linearGradient id="linear-gradient-41" x1="580.85" y1="551.11" x2="607.04" y2="551.11" xlink:href="#linear-gradient-24"/><linearGradient id="linear-gradient-42" x1="524.44" y1="354.61" x2="575.71" y2="354.61" xlink:href="#linear-gradient-24"/><linearGradient id="linear-gradient-43" x1="580.62" y1="382.48" x2="676.75" y2="572.86" xlink:href="#linear-gradient-28"/><linearGradient id="linear-gradient-44" x1="557.73" y1="432.79" x2="641.72" y2="527.51" gradientTransform="matrix(1, 0, 0, 1, 0, 0)" xlink:href="#linear-gradient-11"/><linearGradient id="linear-gradient-45" x1="588.79" y1="379.78" x2="604.82" y2="379.78" xlink:href="#linear-gradient-24"/><linearGradient id="linear-gradient-46" x1="614.27" y1="359.07" x2="730.92" y2="367" xlink:href="#linear-gradient-24"/><linearGradient id="linear-gradient-47" x1="633.44" y1="352.04" x2="592.38" y2="434.16" xlink:href="#linear-gradient-5"/><linearGradient id="linear-gradient-48" x1="281.59" y1="604.01" x2="315.16" y2="604.01" gradientTransform="matrix(1, 0, 0, 1, 0, 0)" xlink:href="#linear-gradient"/><linearGradient id="linear-gradient-49" x1="222.76" y1="605.11" x2="238.01" y2="605.11" gradientTransform="matrix(1, 0, 0, 1, 0, 0)" xlink:href="#linear-gradient"/></defs><g id="Capa_2" data-name="Capa 2"><g id="Illustration"><path class="cls-1" d="M472,575s-324.51,3.55-414.9-76.28S.75,339.3,70,316.75s81-46,43.78-77.61-84.54-96.53-6-161.77,168.15,28.47,238.34,16S388.46,39.05,480.77,68s72-55.32,146.16-63,66.6,87.64,142.93,51.68,138.77-31,171.58,26.11S960,216.86,888,262.71s-64.27,42.72-37.36,87.77,51,193.19-71.45,214.35S472,575,472,575Z"/><g class="cls-2"><path class="cls-3" d="M807.48,420.42a1,1,0,0,1-.76-.35,1,1,0,0,1,.12-1.41c1-.88,2.09-1.73,3.16-2.54a1,1,0,0,1,1.21,1.59c-1.05.79-2.08,1.62-3.08,2.47A1,1,0,0,1,807.48,420.42Z"/><path class="cls-3" d="M923.71,470a1,1,0,0,1-1-.94,71.67,71.67,0,0,0-1-8.12,1,1,0,0,1,2-.35,71,71,0,0,1,1,8.35,1,1,0,0,1-.94,1.06Zm-4.62-21.19a1,1,0,0,1-.94-.64,70.38,70.38,0,0,0-3.37-7.45,1,1,0,0,1,.41-1.35,1,1,0,0,1,1.36.42,74.43,74.43,0,0,1,3.47,7.66,1,1,0,0,1-.57,1.29A1.15,1.15,0,0,1,919.09,448.84ZM908.28,430a1,1,0,0,1-.78-.37A69.84,69.84,0,0,0,902,423.6a1,1,0,1,1,1.4-1.42,69.36,69.36,0,0,1,5.64,6.23,1,1,0,0,1-.15,1.4A1,1,0,0,1,908.28,430Zm-16-14.61a1,1,0,0,1-.55-.16,70.13,70.13,0,0,0-7.06-4.11,1,1,0,0,1,.9-1.79,74.34,74.34,0,0,1,7.27,4.23,1,1,0,0,1-.56,1.83Zm-70.18-4.55a1,1,0,0,1-.45-1.9,75.71,75.71,0,0,1,7-3l.71-.25a1,1,0,0,1,1.28.61,1,1,0,0,1-.62,1.28l-.69.24a70.08,70.08,0,0,0-6.85,2.92A1,1,0,0,1,822.08,410.87Zm50.49-4.53a1.33,1.33,0,0,1-.28,0,70.7,70.7,0,0,0-8-1.79,1,1,0,0,1,.32-2,72.06,72.06,0,0,1,8.21,1.83,1,1,0,0,1-.27,2Zm-29.79-1.94a1,1,0,0,1-.15-2,71.46,71.46,0,0,1,8.38-.75,1,1,0,0,1,.06,2,69.53,69.53,0,0,0-8.14.73Z"/><path class="cls-3" d="M922.59,487.47h-.19a1,1,0,0,1-.8-1.17c.25-1.29.46-2.6.63-3.89a1,1,0,0,1,2,.26c-.18,1.34-.4,2.68-.65,4A1,1,0,0,1,922.59,487.47Z"/><path class="cls-3" d="M890.89,534a1,1,0,0,1-.85-.47,1,1,0,0,1,.32-1.38c1.1-.69,2.21-1.43,3.27-2.19a1,1,0,1,1,1.16,1.63c-1.09.78-2.23,1.54-3.37,2.26A1,1,0,0,1,890.89,534Z"/><path class="cls-3" d="M853.21,544.9c-1,0-2.1,0-3.16-.07a1,1,0,0,1-.95-1,1,1,0,0,1,1-1,69.7,69.7,0,0,0,8.05-.11,1,1,0,0,1,1.07.92,1,1,0,0,1-.93,1.07C856.63,544.84,854.91,544.9,853.21,544.9ZM837,543l-.23,0a70,70,0,0,1-7.92-2.37,1,1,0,0,1-.6-1.28,1,1,0,0,1,1.28-.6,71,71,0,0,0,7.7,2.31,1,1,0,0,1-.23,2Zm34.34-.48a1,1,0,0,1-1-.74,1,1,0,0,1,.71-1.23c2-.53,4-1.16,6-1.88.56-.2,1.11-.41,1.66-.63a1,1,0,1,1,.73,1.86c-.56.23-1.13.44-1.7.65-2,.74-4.09,1.39-6.15,1.94ZM817.19,535a1,1,0,0,1-.51-.14,73.37,73.37,0,0,1-6.86-4.61,1,1,0,0,1-.19-1.4,1,1,0,0,1,1.4-.19,71.24,71.24,0,0,0,6.67,4.48,1,1,0,0,1-.51,1.86Zm-16.5-13.51a1,1,0,0,1-.75-.33,71.23,71.23,0,0,1-5.16-6.46,1,1,0,0,1,1.63-1.15,70,70,0,0,0,5,6.27,1,1,0,0,1-.08,1.41A1,1,0,0,1,800.69,521.5ZM789,503.66a1,1,0,0,1-.91-.58c-.78-1.73-1.51-3.51-2.16-5.29-.3-.81-.57-1.61-.84-2.42a1,1,0,0,1,1.9-.62c.26.79.53,1.57.82,2.35.63,1.74,1.34,3.47,2.1,5.15a1,1,0,0,1-.49,1.32A1.06,1.06,0,0,1,789,503.66Zm-5.86-20.52a1,1,0,0,1-1-.88,71,71,0,0,1-.57-8.25,1,1,0,0,1,1-1h0a1,1,0,0,1,1,1,71.7,71.7,0,0,0,.55,8,1,1,0,0,1-.86,1.12Z"/><path class="cls-3" d="M783.69,461.76h-.18a1,1,0,0,1-.8-1.17c.23-1.31.51-2.65.83-4a1,1,0,0,1,1.94.46c-.3,1.28-.57,2.58-.81,3.86A1,1,0,0,1,783.69,461.76Z"/><path class="cls-4" d="M802.45,454.1a.87.87,0,0,0,.15,1l7.19,7.4a44.82,44.82,0,0,0-1.1,14.51l-8.21,6.24a.85.85,0,0,0-.29.94l3.86,11.75a.86.86,0,0,0,.8.59l10.3.15a45.26,45.26,0,0,0,9.5,11l-1.39,10.22a.84.84,0,0,0,.45.87l11,5.58a.85.85,0,0,0,1-.15l7.4-7.19a44.88,44.88,0,0,0,14.52,1.1l6.23,8.21a.84.84,0,0,0,.94.29l11.76-3.86a.85.85,0,0,0,.58-.8l.15-10.3a45.07,45.07,0,0,0,11-9.5l10.22,1.39a.86.86,0,0,0,.88-.45L905,492.05a.83.83,0,0,0-.14-1l-7.19-7.4a44.88,44.88,0,0,0,1.09-14.52l8.21-6.23a.86.86,0,0,0,.3-.94l-3.87-11.76a.85.85,0,0,0-.79-.58l-10.31-.15a44.86,44.86,0,0,0-9.5-11l1.4-10.22a.87.87,0,0,0-.46-.88l-11-5.57a.85.85,0,0,0-1,.14l-7.4,7.19A44.82,44.82,0,0,0,849.82,428l-6.24-8.21a.86.86,0,0,0-.94-.3l-11.75,3.87a.85.85,0,0,0-.59.79l-.14,10.31a44.91,44.91,0,0,0-11,9.5l-10.22-1.4a.85.85,0,0,0-.87.46Z"/><path class="cls-5" d="M853.75,485.56a12.47,12.47,0,1,1,6.67-1.93A12.49,12.49,0,0,1,853.75,485.56Zm0-22a9.49,9.49,0,1,0,8,4.41A9.49,9.49,0,0,0,853.72,463.59Z"/><path class="cls-5" d="M854,504.54A31.4,31.4,0,0,1,824.19,483h0a31.06,31.06,0,0,1-1.35-6v0l-.06-.49,3-.32A28,28,0,0,0,827,482l0,.11a28.41,28.41,0,0,0,29.81,19.25h0a28.12,28.12,0,0,0,5.7-1.2l.2-.06a28.41,28.41,0,0,0,19.51-27,28.37,28.37,0,0,0-37.22-26.92,28.38,28.38,0,0,0-12.58,8.36l-2.27-2A31.36,31.36,0,1,1,854,504.54Z"/><path class="cls-6" d="M905.87,510.36l4.35,3.81a25.11,25.11,0,0,0,0,8.16l-4.31,3.85a.47.47,0,0,0-.12.54l2.68,6.39a.48.48,0,0,0,.47.29l5.76-.37a25.27,25.27,0,0,0,5.8,5.74l-.33,5.77a.47.47,0,0,0,.3.46l6.41,2.63a.46.46,0,0,0,.54-.13l3.81-4.34a25.11,25.11,0,0,0,8.16,0l3.85,4.31a.47.47,0,0,0,.54.12l6.39-2.68a.48.48,0,0,0,.29-.47l-.38-5.76a25.31,25.31,0,0,0,5.75-5.8l5.77.33a.47.47,0,0,0,.46-.3l2.63-6.41a.48.48,0,0,0-.13-.54l-4.34-3.81a25.39,25.39,0,0,0,0-8.16l4.31-3.85a.47.47,0,0,0,.12-.54L962,503.18a.48.48,0,0,0-.47-.29l-5.77.37a25.22,25.22,0,0,0-5.79-5.74l.32-5.77a.45.45,0,0,0-.29-.46l-6.42-2.63a.45.45,0,0,0-.53.13l-3.82,4.34a25.05,25.05,0,0,0-8.15,0l-3.85-4.31a.48.48,0,0,0-.54-.12l-6.39,2.68a.47.47,0,0,0-.29.47l.37,5.77a25.22,25.22,0,0,0-5.74,5.79l-5.77-.33a.49.49,0,0,0-.47.3l-2.62,6.41A.47.47,0,0,0,905.87,510.36Z"/><path class="cls-5" d="M935.24,525.8a7.66,7.66,0,0,1-6.13-3.06h0a7.65,7.65,0,1,1,12.24-9.19,7.65,7.65,0,0,1-6.11,12.25Zm-3.73-4.86a4.66,4.66,0,1,0,.93-6.52,4.66,4.66,0,0,0-.93,6.52Z"/><path class="cls-3" d="M904,499a1,1,0,0,1-.84-1.54,37.58,37.58,0,0,1,2.41-3.33,1,1,0,0,1,1.56,1.26,33.63,33.63,0,0,0-2.28,3.15A1,1,0,0,1,904,499Z"/><path class="cls-3" d="M965.93,498.18a1,1,0,0,1-.83-.44c-.3-.44-.62-.88-.94-1.32a36.55,36.55,0,0,0-4.67-5.11,1,1,0,1,1,1.35-1.48,38.78,38.78,0,0,1,4.92,5.39c.34.46.67.93,1,1.4a1,1,0,0,1-.26,1.39A1,1,0,0,1,965.93,498.18Zm-48.72-11.54a1,1,0,0,1-.49-1.87,37.75,37.75,0,0,1,8.33-3.42,1,1,0,0,1,.54,1.93,36,36,0,0,0-7.9,3.24A1,1,0,0,1,917.21,486.64Zm30.8-2.4a1,1,0,0,1-.34-.06,36.45,36.45,0,0,0-8.31-2,1,1,0,1,1,.23-2,38.14,38.14,0,0,1,8.76,2.07,1,1,0,0,1-.34,1.94Z"/><path class="cls-3" d="M972.2,515.19a1,1,0,0,1-1-.89,37.91,37.91,0,0,0-.62-3.84,1,1,0,0,1,.76-1.19,1,1,0,0,1,1.19.76,39.91,39.91,0,0,1,.66,4.06,1,1,0,0,1-.89,1.1Z"/><path class="cls-3" d="M962.07,544.87a1,1,0,0,1-.69-.28,1,1,0,0,1,0-1.41,35.32,35.32,0,0,0,2.54-2.95,1,1,0,0,1,1.59,1.22,38,38,0,0,1-2.69,3.11A1,1,0,0,1,962.07,544.87Z"/><path class="cls-3" d="M928.52,555.7l-.18,0a38.41,38.41,0,0,1-8.47-2.59,1,1,0,1,1,.81-1.83,36.11,36.11,0,0,0,8,2.45,1,1,0,0,1-.18,2Zm14-.09a1,1,0,0,1-.2-2,36.19,36.19,0,0,0,8-2.58,1,1,0,0,1,.83,1.82,37.89,37.89,0,0,1-8.43,2.72Zm-33.7-10.36a1,1,0,0,1-.71-.3,38.58,38.58,0,0,1-3.34-3.88c-.75-1-1.46-2-2.1-3.1a1,1,0,0,1,1.7-1c.62,1,1.29,2,2,2.94a38.39,38.39,0,0,0,3.17,3.68,1,1,0,0,1,0,1.41A.94.94,0,0,1,908.78,545.25Z"/><path class="cls-3" d="M898.59,525.35a1,1,0,0,1-1-.83,39.78,39.78,0,0,1-.46-4.08,1,1,0,1,1,2-.12,33.7,33.7,0,0,0,.44,3.87,1,1,0,0,1-.82,1.15Z"/><path class="cls-5" d="M935.38,536.43a18.29,18.29,0,0,1-16.82-11.19c0-.06,0-.12-.07-.19a18.67,18.67,0,0,1-1-3.19v0l0-.11v0l0-.17,2.95-.55a15.65,15.65,0,0,0,.93,3.11c0,.13.11.26.17.39a15.23,15.23,0,0,0,19.76,7.76,15.22,15.22,0,1,0-18.15-23.07l-2.42-1.78a18.22,18.22,0,1,1,14.69,29Z"/></g><g class="cls-7"><path class="cls-8" d="M256.14,284.81S260,224,232.6,206.61s-80.29-29.67-78.85-117.14c.85-51.21.47-73.63,0-83.42A5.76,5.76,0,0,1,160.8.15c26.35,6.05,111.78,30,127.55,89.61C307,160.39,256.14,284.81,256.14,284.81Z"/><path class="cls-9" d="M180.46,25.19c15.67,15.45,29.13,32.86,41.26,51.17,2.95,4.63,5.95,9.24,8.68,14,1.38,2.37,2.85,4.7,4.14,7.12l4,7.23c.67,1.2,1.3,2.42,1.91,3.66l1.85,3.68,1.85,3.69c.62,1.22,1.23,2.46,1.79,3.72,2.26,5,4.68,9.93,6.7,15.13,1,2.57,2,5.19,2.92,7.79s1.81,5.25,2.56,7.92c1.65,5.3,3,10.69,4.16,16.09a229.26,229.26,0,0,1,4.51,32.84,250,250,0,0,1,0,33.07q-.57,8.24-1.66,16.44c-.72,5.47-1.62,10.86-2.9,16.33a2.16,2.16,0,0,1-4.23-.83l0-.1A245.37,245.37,0,0,0,261,232a280.43,280.43,0,0,0-.79-32.29,245.36,245.36,0,0,0-4.74-31.85,204.44,204.44,0,0,0-9.29-30.72,407.93,407.93,0,0,0-29.32-57.71c-2.88-4.58-5.73-9.18-8.77-13.67-1.46-2.27-3-4.5-4.55-6.72l-2.31-3.35-2.38-3.29-2.37-3.3L194,45.86c-1.6-2.19-3.28-4.32-4.94-6.46s-3.38-4.24-5.12-6.32-3.48-4.17-5.26-6.17l0,0a1.22,1.22,0,0,1,1.77-1.69Z"/></g><g class="cls-7"><path class="cls-10" d="M711.92,543.07c-4.85,4.33,33.42-86.17,19.45-207.67-6.58-57.25-25.61-126-1.76-161.16,19.86-29.27,112.19-40,142.61-42.79a4.5,4.5,0,0,1,4.13,7c-10.63,15.53-32.66,51.3-32.67,81.16,0,39.37-28.27,72.27-57.61,87.22s-44.93,25.87-46.22,79.81S725.73,530.78,711.92,543.07Z"/><path class="cls-11" d="M836.27,159.66s-.83.29-2.39.92-3.81,1.61-6.66,2.92-6.25,3-10.06,5.15-8,4.7-12.46,7.68a146.42,146.42,0,0,0-13.7,10.5,126.42,126.42,0,0,0-13.52,13.64,101.79,101.79,0,0,0-20,36l-.74,2.54-.38,1.26L756,241.6c-.38,1.72-.82,3.44-1.16,5.15q-1,5.3-2,10.53t-2,10.36c-.65,3.41-1.21,6.79-1.8,10.11-1.17,6.64-2.31,13.06-3.26,19.17-.49,3.05-1,6-1.44,8.89s-.86,5.66-1.26,8.33-.78,5.23-1.14,7.66-.67,4.75-1,6.92c-.63,4.35-1.1,8.14-1.48,11.27s-.67,5.58-.87,7.25-.28,2.57-.28,2.57v0a.84.84,0,0,1-.93.74.85.85,0,0,1-.75-.88l.14-2.6c.11-1.69.21-4.18.5-7.32s.56-7,1-11.36q.32-3.29.68-7c.29-2.45.6-5,.92-7.72s.62-5.49,1-8.39.83-5.88,1.26-8.95.83-6.24,1.36-9.45,1.06-6.51,1.6-9.86,1.08-6.75,1.69-10.18,1.28-6.88,1.93-10.36,1.3-7,2-10.54c.36-1.81.8-3.58,1.21-5.38l.32-1.34.39-1.32.79-2.65a100,100,0,0,1,8.79-20.07A109.26,109.26,0,0,1,774.67,198a123,123,0,0,1,14.22-13.7A146.32,146.32,0,0,1,803.15,174a144.66,144.66,0,0,1,12.93-7.36c3.94-2,7.46-3.58,10.39-4.8s5.28-2.07,6.89-2.63,2.49-.81,2.49-.81h0a.67.67,0,0,1,.84.46A.68.68,0,0,1,836.27,159.66Z"/></g><g class="cls-7"><path class="cls-9" d="M39.24,382a99.92,99.92,0,0,1,7.93-7.88c2.76-2.48,5.63-4.88,8.64-7.09a92.05,92.05,0,0,1,19.46-11.28,63.61,63.61,0,0,1,10.87-3.44,47.56,47.56,0,0,1,11.5-1c1,.08,2,.08,2.91.22s2,.23,2.89.42l5.54,1.21,5.45,1.6,5.33,2a64.92,64.92,0,0,1,19,12.41,80.42,80.42,0,0,1,14,17.72l1.45,2.41c.49.8.87,1.65,1.32,2.48.84,1.66,1.74,3.31,2.54,5l2.26,5.11c.8,1.69,1.36,3.47,2,5.2a192.87,192.87,0,0,1,6.54,21.25.73.73,0,0,1-.54.91.74.74,0,0,1-.89-.48v0c-2.34-7-4.61-14-7.57-20.66-1.37-3.39-3-6.65-4.59-9.94-.82-1.62-1.74-3.19-2.61-4.79-.46-.79-.85-1.61-1.35-2.37l-1.47-2.29A82,82,0,0,0,136.11,372a63.06,63.06,0,0,0-18-11.44l-5-1.87-5.16-1.49-5.27-1.12c-.88-.17-1.73-.26-2.59-.39s-1.74-.14-2.6-.21a43.09,43.09,0,0,0-10.48.87,60.09,60.09,0,0,0-10.25,3,100.64,100.64,0,0,0-19.13,10.16c-3,2-6,4.14-8.88,6.4S43,380.58,40.37,383l0,0A.78.78,0,0,1,39.24,382Z"/></g><polygon class="cls-12" points="438.41 458.38 426.36 566.45 566.16 566.45 547.95 458.38 438.41 458.38"/><path class="cls-13" d="M145.15,138.56v297.3a45.1,45.1,0,0,0,43.94,45.08c108.59,2.8,488.37,9.59,591.74,8.07a33.19,33.19,0,0,0,32.67-32.24c2-69.07,5.23-235.15-6.75-312.25a34.15,34.15,0,0,0-32.65-28.91c-91-2.91-493.58-12.15-596.9-9.83A32.79,32.79,0,0,0,145.15,138.56Z"/><path class="cls-14" d="M163.81,137.11V419.57a26.13,26.13,0,0,0,25.74,26.12L766,452.81a25.43,25.43,0,0,0,25.81-25.33l1-279.93a18.6,18.6,0,0,0-18.14-18.66L184.45,117A20.14,20.14,0,0,0,163.81,137.11Z"/><path class="cls-15" d="M796.11,464.59h0l-632.3-10.77a1,1,0,0,1-1-1,1,1,0,0,1,1-1l632.3,10.77a1,1,0,0,1,0,2Z"/><path class="cls-15" d="M486.19,477.75a7.58,7.58,0,1,1,7.58-7.58A7.59,7.59,0,0,1,486.19,477.75Zm0-13.16a5.58,5.58,0,1,0,5.58,5.58A5.58,5.58,0,0,0,486.19,464.59Z"/><path class="cls-16" d="M596.27,588.56H391.66c-5.55,0-9.73-3.95-8.65-8.2L385.63,570c.79-3.12,4.23-5.41,8.31-5.54l197.25-6.16c4.26-.13,8,2.13,9,5.38l4.74,16.54C606.12,584.49,601.92,588.56,596.27,588.56Z"/><path class="cls-5" d="M501.81,567.58a1,1,0,0,1-1-1,1,1,0,0,1,1-1l8.45-.13a1,1,0,0,1,1,1,1,1,0,0,1-1,1l-8.46.13Z"/><path class="cls-5" d="M390.58,583.17h-.16a1,1,0,0,1-.83-1.15l1.21-7.55a8.76,8.76,0,0,1,8.53-7.39L489,565.76h0a1,1,0,0,1,1,1,1,1,0,0,1-1,1l-89.65,1.31a6.76,6.76,0,0,0-6.59,5.71l-1.2,7.55A1,1,0,0,1,390.58,583.17Z"/><path class="cls-17" d="M752.11,148.89l-550.82-6.48a15.51,15.51,0,0,0-15.85,15.18L181.9,402.87a15.58,15.58,0,0,0,15.22,15.62l554,18.74a28,28,0,0,0,20.43-7.8,27.24,27.24,0,0,0,8.36-20V176.7A27.84,27.84,0,0,0,752.11,148.89Z"/><path class="cls-18" d="M729.07,218.86l2.07,39.67c.08,2.14,1.51,3.81,3.23,3.77l148.27-1.91c1.73,0,3.11-1.79,3.11-3.95V224.16c0-2.11-1.32-3.84-3-3.95L732.4,214.73C730.53,214.62,729,216.53,729.07,218.86Z"/><path class="cls-18" d="M736,224.08v4a2.3,2.3,0,0,0,2.07,2.52l136.34-1.52a2.33,2.33,0,0,0,2-2.53h0a2.32,2.32,0,0,0-2-2.52l-136.34-2.49A2.31,2.31,0,0,0,736,224.08Z"/><path class="cls-19" d="M721.19,213,722,257.5c.07,4.7,3.14,8.47,6.91,8.47H885.7c3.82,0,6.91-3.86,6.91-8.61V216.7c0-4.65-3-8.46-6.69-8.61l-157.6-3.87C724.37,204.06,721.12,208.05,721.19,213Z"/><path class="cls-18" d="M737.11,239.21v3.68a2.3,2.3,0,0,0,2.1,2.53L872,242.32a2.33,2.33,0,0,0,2-2.52v-1.15a2.31,2.31,0,0,0-2-2.53l-132.78.57A2.31,2.31,0,0,0,737.11,239.21Z"/><path class="cls-20" d="M734.5,220.22H217.86a2,2,0,0,1,0-4H734.5a2,2,0,0,1,0,4Z"/><path class="cls-20" d="M705.05,431.55h-.32l-474.38-3.72c-8.79-.07-16.88-3.07-21.66-8a14,14,0,0,1-4.26-10.17l12.21-218.07c.28-9.65,12-17.41,26.22-17.41h.5l473.56,6c8.72.11,16.75,3.12,21.48,8a14,14,0,0,1,4.25,10.12v0L731.26,414.11C731,423.91,719.51,431.55,705.05,431.55ZM242.84,178.16c-12.07,0-22,6-22.21,13.58L208.42,409.81a10.11,10.11,0,0,0,3.15,7.23c4.05,4.19,11.08,6.73,18.81,6.79l474.38,3.72c12.18.06,22.3-6,22.51-13.6l11.38-215.74a10.1,10.1,0,0,0-3.13-7.22c-4-4.17-11-6.71-18.65-6.81l-473.56-6Zm497.81,20.13h0Z"/><path class="cls-21" d="M719.43,274.92,717.27,250c-.45-5.15-4.39-9.11-9.18-9.23L252.45,229.65a21.38,21.38,0,0,0-15.74,6.51,24.26,24.26,0,0,0-6.83,16.35V270.6a24.26,24.26,0,0,0,6.78,16.29,20.86,20.86,0,0,0,15.41,6.57l458-7.41a9.28,9.28,0,0,0,7-3.38A10.71,10.71,0,0,0,719.43,274.92Z"/><path class="cls-22" d="M702.77,384.74l-192-4.28a9.09,9.09,0,0,1-9-9V321.12a9.09,9.09,0,0,1,9.18-9H703a9.09,9.09,0,0,1,9.19,9v54.61A9.11,9.11,0,0,1,702.77,384.74Z"/><path class="cls-23" d="M500.37,428.25l213.25,1.6-.76-22.94a8.17,8.17,0,0,0-7.92-7.3L509.81,393a8.19,8.19,0,0,0-8.52,7.6Z"/><path class="cls-23" d="M233.43,425.67l227,1.21-1.84-103.35A11.84,11.84,0,0,0,446.76,312l-196.7-1.65A13.84,13.84,0,0,0,236,323.8Z"/><path class="cls-24" d="M628,207.88a7.5,7.5,0,1,1,7.5-7.5A7.51,7.51,0,0,1,628,207.88Z"/><path class="cls-25" d="M665,207.88a7.5,7.5,0,1,1,7.5-7.5A7.51,7.51,0,0,1,665,207.88Z"/><path class="cls-26" d="M703.22,207.78a7.5,7.5,0,1,1,6.13-6.12A7.51,7.51,0,0,1,703.22,207.78Z"/><path class="cls-27" d="M319.77,587.31H17.46C7.82,587.31,0,581.08,0,573.41V341c0-7.67,7.79-13.88,17.41-13.9l304.73-.65c9.7,0,17.56,6.25,17.51,14l-2.42,233.09C337.18,581.13,329.38,587.31,319.77,587.31Z"/><path class="cls-18" d="M305,344.21,34.64,345.53c-9.77.05-17.65,6.39-17.6,14.17l1.88,195.5c0,7.66,7.77,13.89,17.39,14L299,573.05c9.81.14,17.9-6.09,18-13.91l5.79-200.63C322.92,350.61,314.88,344.16,305,344.21Z"/><path class="cls-18" d="M294,362.34v1.48c0,2.33-2.37,4.22-5.3,4.22H80.39c-2.93,0-5.3-1.89-5.3-4.22v-1.48c0-2.33,2.37-4.22,5.3-4.22H288.67C291.6,358.12,294,360,294,362.34Z"/><path class="cls-18" d="M270.73,381h0c-.15,2.21-2.42,3.95-5.19,4L83.38,387.64c-3,0-5.39-1.86-5.39-4.22v-.35c0-2.3,2.32-4.18,5.21-4.21l182.15-2.3C268.43,376.52,270.9,378.56,270.73,381Z"/><path class="cls-5" d="M289.32,562h-.17L42.78,559.64a15.85,15.85,0,0,1-11.24-4.52,10.77,10.77,0,0,1-3.17-7.74l6.34-138.06c.15-6.58,6.79-11.83,14.86-11.74l245.94,3.81a15.87,15.87,0,0,1,11.16,4.54,10.75,10.75,0,0,1,3.14,7.71v0L303.9,550.24C303.76,556.73,297.23,562,289.32,562Zm-240-160.41c-5.74,0-10.47,3.5-10.57,7.88L32.37,547.52a6.7,6.7,0,0,0,2,4.82,11.84,11.84,0,0,0,8.41,3.3L289.19,558h.13c5.75,0,10.49-3.52,10.58-7.89l5.92-136.57a6.7,6.7,0,0,0-2-4.82,11.79,11.79,0,0,0-8.33-3.32L49.5,401.58Zm258.53,12h0Z"/><path class="cls-5" d="M304.62,428.21H36.31a2,2,0,0,1,0-4H304.62a2,2,0,0,1,0,4Z"/><path class="cls-28" d="M271.78,330.79s-99.19-49-66.75-85.08,92.91-21.66,96,16.31S230.46,291.09,271.78,330.79Z"/><path class="cls-5" d="M257.19,256H213.42a1,1,0,1,1,0-2h43.77a1,1,0,1,1,0,2Z"/><path class="cls-5" d="M283.18,256h-13a1,1,0,0,1,0-2h13a1,1,0,0,1,0,2Z"/><path class="cls-5" d="M228.38,264.89H212a1,1,0,0,1,0-2h16.43a1,1,0,0,1,0,2Z"/><path class="cls-5" d="M281.7,264.89H252.5a1,1,0,0,1,0-2h29.2a1,1,0,0,1,0,2Z"/><path class="cls-5" d="M254.16,273.75H210.47a1,1,0,0,1,0-2h43.69a1,1,0,0,1,0,2Z"/><path class="cls-5" d="M280.23,273.75H265.1a1,1,0,0,1,0-2h15.13a1,1,0,0,1,0,2Z"/><path class="cls-29" d="M99.37,44.1,97.69,147.94a11.77,11.77,0,0,0,11.76,12H229a11.77,11.77,0,0,0,11.77-11.77V44.29A11.77,11.77,0,0,0,229,32.52H111.13A11.77,11.77,0,0,0,99.37,44.1Z"/><g class="cls-30"><path class="cls-5" d="M169.69,143.88c-.86,0-1.71,0-2.58-.06-29.5-1.3-52.52-24.79-51.31-52.36A48.1,48.1,0,0,1,133.11,56.7a55.24,55.24,0,0,1,38.38-12.89C201,45.11,224,68.6,222.8,96.17h0a48.06,48.06,0,0,1-17.31,34.75A54.94,54.94,0,0,1,169.69,143.88Zm-.78-93.07a47.9,47.9,0,0,0-31.22,11.27,41.13,41.13,0,0,0-14.84,29.69c-1,23.68,19,43.87,44.57,45a48.18,48.18,0,0,0,33.49-11.22,41.13,41.13,0,0,0,14.84-29.69c1-23.68-19-43.87-44.57-45C170.42,50.83,169.66,50.81,168.91,50.81Z"/><path class="cls-5" d="M182.08,94a140.94,140.94,0,0,1-2,24.52c-.37,2-.79,4-1.29,6a58,58,0,0,1-1.81,5.89,27.42,27.42,0,0,1-2.69,5.56,10.84,10.84,0,0,1-2,2.36,5.56,5.56,0,0,1-1.32.86,3.9,3.9,0,0,1-1.54.36,4,4,0,0,1-1.56-.28,5.76,5.76,0,0,1-1.35-.81,10.38,10.38,0,0,1-2.06-2.33,26.17,26.17,0,0,1-2.73-5.54,54.75,54.75,0,0,1-1.82-5.88c-.51-2-.94-4-1.31-6-.73-4-1.23-8.12-1.57-12.21s-.5-8.19-.52-12.3c0-2,0-4.1.11-6.15s.19-4.1.34-6.15c.31-4.09.76-8.18,1.43-12.23.34-2,.73-4,1.2-6a61.47,61.47,0,0,1,1.71-5.92c.34-1,.72-1.92,1.14-2.86a21.49,21.49,0,0,1,1.47-2.71,10,10,0,0,1,2-2.34,5.32,5.32,0,0,1,1.33-.81,3.85,3.85,0,0,1,1.54-.27,3.94,3.94,0,0,1,1.51.36,6,6,0,0,1,1.32.82,11.54,11.54,0,0,1,2.06,2.3,28.36,28.36,0,0,1,2.83,5.47,54.84,54.84,0,0,1,1.93,5.85c.55,2,1,4,1.41,6A128.94,128.94,0,0,1,182.08,94Zm-.61,0c0-4.09-.14-8.18-.48-12.25a118.25,118.25,0,0,0-1.59-12.16c-.38-2-.82-4-1.34-6a56.44,56.44,0,0,0-1.86-5.83,27.54,27.54,0,0,0-2.74-5.45,11.13,11.13,0,0,0-2-2.28,5.83,5.83,0,0,0-1.27-.81,3.76,3.76,0,0,0-1.44-.35,3.43,3.43,0,0,0-1.45.27A5,5,0,0,0,166,50a10,10,0,0,0-1.94,2.31,19.85,19.85,0,0,0-1.42,2.7q-.61,1.39-1.11,2.85a59.86,59.86,0,0,0-1.63,5.9c-.45,2-.82,4-1.13,6-.63,4-1,8.12-1.29,12.2s-.35,8.17-.34,12.26.12,8.18.43,12.26.77,8.14,1.47,12.17c.35,2,.76,4,1.25,6a56.44,56.44,0,0,0,1.76,5.86,26.65,26.65,0,0,0,2.65,5.48,10.17,10.17,0,0,0,2,2.26A5.46,5.46,0,0,0,168,139a3.37,3.37,0,0,0,1.43.27,3.45,3.45,0,0,0,1.41-.35,5.3,5.3,0,0,0,1.24-.81,10.67,10.67,0,0,0,1.93-2.3,27.71,27.71,0,0,0,2.61-5.5,57.07,57.07,0,0,0,1.74-5.86c.49-2,.89-4,1.24-6,.69-4,1.15-8.1,1.46-12.18S181.48,98.13,181.47,94Z"/><path class="cls-5" d="M169.28,140.81a5.2,5.2,0,0,1-1.88-.37,6.34,6.34,0,0,1-1.65-1,11.39,11.39,0,0,1-2.31-2.58,28.63,28.63,0,0,1-2.86-5.79,57.7,57.7,0,0,1-1.86-6c-.49-1.92-.92-3.91-1.32-6.1-.7-3.88-1.22-7.91-1.59-12.33-.33-4-.5-8.19-.53-12.39,0-2.2.06-4.37.12-6.21.08-2.08.2-4.17.35-6.19.32-4.45.79-8.48,1.43-12.33.37-2.2.77-4.2,1.22-6.12a57.7,57.7,0,0,1,1.75-6c.38-1.1.77-2.07,1.18-3a23,23,0,0,1,1.55-2.87,11.26,11.26,0,0,1,2.27-2.61,6.23,6.23,0,0,1,1.65-1,4.8,4.8,0,0,1,2-.35,5.08,5.08,0,0,1,1.95.45,7,7,0,0,1,1.59,1,12.23,12.23,0,0,1,2.28,2.54,28.27,28.27,0,0,1,3,5.72,57.2,57.2,0,0,1,2,6c.53,1.93,1,3.92,1.43,6.08A129.84,129.84,0,0,1,183.27,94h0a141.43,141.43,0,0,1-2,24.73c-.4,2.18-.82,4.18-1.31,6.1a61.23,61.23,0,0,1-1.84,6,29.64,29.64,0,0,1-2.81,5.8,12,12,0,0,1-2.25,2.62,7.1,7.1,0,0,1-1.6,1,5,5,0,0,1-2,.47Zm-.62-90.69a2.38,2.38,0,0,0-.9.19,3.82,3.82,0,0,0-1,.6,8.69,8.69,0,0,0-1.7,2,18.5,18.5,0,0,0-1.33,2.53c-.37.83-.72,1.73-1.07,2.76a56.47,56.47,0,0,0-1.6,5.77c-.42,1.87-.78,3.81-1.11,5.95-.59,3.78-1,7.73-1.28,12.08-.24,3.72-.35,7.71-.34,12.19,0,4.13.13,8.22.43,12.17.32,4.32.8,8.27,1.45,12,.37,2.12.78,4,1.24,5.91a54.51,54.51,0,0,0,1.72,5.74,25.83,25.83,0,0,0,2.52,5.23,9,9,0,0,0,1.73,2,3.62,3.62,0,0,0,1,.59,2.54,2.54,0,0,0,.94.19,2.51,2.51,0,0,0,1-.24,4.57,4.57,0,0,0,1-.64,9.53,9.53,0,0,0,1.71-2.05,26.43,26.43,0,0,0,2.48-5.25,57.91,57.91,0,0,0,1.71-5.74c.45-1.85.85-3.79,1.21-5.92.65-3.75,1.13-7.69,1.45-12.05.3-3.94.46-8,.45-12.17h0c0-4.13-.15-8.22-.48-12.16a116.55,116.55,0,0,0-1.57-12c-.4-2.09-.83-4-1.32-5.89a54.4,54.4,0,0,0-1.82-5.71A26.51,26.51,0,0,0,172.48,53a10.24,10.24,0,0,0-1.77-2,4.92,4.92,0,0,0-1-.64,2.47,2.47,0,0,0-1-.24Z"/><path class="cls-5" d="M202.7,94a60.14,60.14,0,0,1-2.11,15.67,50.83,50.83,0,0,1-6.53,14.36,41.38,41.38,0,0,1-5,6.13,35.29,35.29,0,0,1-6.14,5,29.21,29.21,0,0,1-7.16,3.29,26.63,26.63,0,0,1-15.58,0,29.8,29.8,0,0,1-7.17-3.28,35.29,35.29,0,0,1-6.14-5,41.44,41.44,0,0,1-5-6.13,50.94,50.94,0,0,1-6.55-14.37,58.78,58.78,0,0,1-1.58-7.77,61.58,61.58,0,0,1-.53-7.91,63.3,63.3,0,0,1,.53-7.91,58.81,58.81,0,0,1,1.59-7.77A50.91,50.91,0,0,1,141.9,64a41.36,41.36,0,0,1,5-6.12,34.78,34.78,0,0,1,6.14-5,29.77,29.77,0,0,1,7.17-3.27,26.53,26.53,0,0,1,15.55,0,29.63,29.63,0,0,1,7.15,3.27,35.23,35.23,0,0,1,6.14,5A41.38,41.38,0,0,1,194,64a50.67,50.67,0,0,1,6.54,14.35A60.09,60.09,0,0,1,202.7,94ZM202,94a59.58,59.58,0,0,0-2-15.5,50.41,50.41,0,0,0-6.32-14.27,41,41,0,0,0-4.88-6.11,33.74,33.74,0,0,0-6-5,29,29,0,0,0-7.07-3.28,26.09,26.09,0,0,0-7.7-1.17,26.75,26.75,0,0,0-7.69,1.17,28.81,28.81,0,0,0-7.07,3.29,34.16,34.16,0,0,0-6,5,40.94,40.94,0,0,0-4.87,6.11A50.3,50.3,0,0,0,136,78.55a57.31,57.31,0,0,0-1.52,7.68A63.74,63.74,0,0,0,134,94a61.84,61.84,0,0,0,.52,7.81,57.48,57.48,0,0,0,1.52,7.67,50.14,50.14,0,0,0,6.31,14.25,40.44,40.44,0,0,0,4.87,6.11,33.67,33.67,0,0,0,6,5,29.23,29.23,0,0,0,7.06,3.27,26.3,26.3,0,0,0,7.68,1.18,26.75,26.75,0,0,0,7.69-1.17,29.23,29.23,0,0,0,7.06-3.27,34.11,34.11,0,0,0,6-4.95,41,41,0,0,0,4.88-6.11A50.53,50.53,0,0,0,200,109.53,59.57,59.57,0,0,0,202,94Z"/><path class="cls-5" d="M168,140.81a27.85,27.85,0,0,1-8.13-1.21,30.69,30.69,0,0,1-7.46-3.41,36.78,36.78,0,0,1-6.36-5.13,42.6,42.6,0,0,1-5.14-6.3,51.59,51.59,0,0,1-6.7-14.72,58,58,0,0,1-1.62-7.93,59.48,59.48,0,0,1,0-16.14A58.05,58.05,0,0,1,134.2,78a51.67,51.67,0,0,1,6.71-14.71,43.66,43.66,0,0,1,5.14-6.3,36.65,36.65,0,0,1,6.36-5.11,30.87,30.87,0,0,1,7.45-3.41A28.08,28.08,0,0,1,168,47.3a28.43,28.43,0,0,1,8.12,1.22,30.8,30.8,0,0,1,7.44,3.41,35.47,35.47,0,0,1,6.35,5.12,42.6,42.6,0,0,1,5.14,6.3,51.57,51.57,0,0,1,6.69,14.7,60.91,60.91,0,0,1,2.17,16v0a60.77,60.77,0,0,1-2.16,16,51.67,51.67,0,0,1-6.68,14.72,43.22,43.22,0,0,1-5.14,6.31,36.74,36.74,0,0,1-6.34,5.13,31.11,31.11,0,0,1-7.46,3.42A28.09,28.09,0,0,1,168,140.81Zm0-90.87a25.37,25.37,0,0,0-7.35,1.13,27.83,27.83,0,0,0-6.77,3.15A32.82,32.82,0,0,0,148.05,59,39.37,39.37,0,0,0,143.33,65a48.79,48.79,0,0,0-6.15,13.92,55.75,55.75,0,0,0-1.49,7.51A60.59,60.59,0,0,0,135.2,94a58.63,58.63,0,0,0,.5,7.65,55.75,55.75,0,0,0,1.49,7.51,48.81,48.81,0,0,0,6.16,13.92,40.31,40.31,0,0,0,4.72,5.93,33.19,33.19,0,0,0,5.81,4.78,28,28,0,0,0,6.76,3.14A25.26,25.26,0,0,0,168,138.1a25.56,25.56,0,0,0,7.33-1.12,28.09,28.09,0,0,0,6.78-3.14,32.67,32.67,0,0,0,5.81-4.78,39.21,39.21,0,0,0,4.73-5.93,48.72,48.72,0,0,0,6.18-13.92,58.71,58.71,0,0,0,0-30.35,49.17,49.17,0,0,0-6.17-13.93A39.21,39.21,0,0,0,187.93,59a32.52,32.52,0,0,0-5.82-4.79,27.72,27.72,0,0,0-6.78-3.15A25.59,25.59,0,0,0,168,49.94Z"/><path class="cls-5" d="M127.47,76l10.42-.08,10.43,0,20.85,0,20.86,0,10.42.06,10.43.09a0,0,0,0,1,0,0s0,0,0,0l-10.43.09-10.42,0-20.86,0-20.85,0-10.43,0-10.42-.09a.08.08,0,0,1,0,0S127.44,76,127.47,76Z"/><polygon class="cls-5" points="169.18 77.46 137.89 77.38 126.96 77.28 126.23 76.56 126.23 76.02 126.26 74.85 127.46 74.81 148.31 74.67 169.17 74.64 200.46 74.73 212.07 74.83 212.1 77.24 210.88 77.28 190.03 77.42 169.18 77.46"/><path class="cls-5" d="M139.56,58.47c2.47,0,4.94,0,7.41-.08l7.4,0c2.47,0,4.93,0,7.4,0l7.4,0,14.81,0,7.4.06c2.47,0,4.94.05,7.4.09h0s0,0,0,0c-2.46,0-4.93.06-7.4.09l-7.4,0-14.81,0h-7.4c-2.47,0-4.93,0-7.4,0l-7.4-.05-7.41-.09a0,0,0,0,1,0,0A0,0,0,0,1,139.56,58.47Z"/><path class="cls-5" d="M169.18,59.93l-9.33,0c-1.83,0-3.66,0-5.49,0l-9.87-.07c-1.65,0-3.3,0-4.94-.06l-1.18,0,0-2.42,1.22,0c1.59,0,3.18,0,4.78-.06l10-.08,5.22,0h9.59l24.91.12c1.58,0,3.15,0,4.72.06l1.22,0-.06,2.4-1.18,0-4.92.07-9.87.08Z"/><path class="cls-5" d="M123.84,93.53l11.34-.08,11.33,0,22.66,0,22.67,0,11.33,0,11.33.09a0,0,0,0,1,0,0s0,0,0,0l-11.33.09-11.33,0-22.67,0-22.66,0-11.33-.05-11.34-.08s0,0,0,0A0,0,0,0,1,123.84,93.53Z"/><polygon class="cls-5" points="169.18 94.99 135.17 94.91 122.65 94.81 122.61 92.38 123.84 92.34 146.5 92.21 169.17 92.17 203.18 92.26 215.01 92.36 215.73 93.09 215.69 94.78 214.5 94.81 191.84 94.95 169.18 94.99"/><path class="cls-5" d="M127.47,111.06l10.42-.08,10.43,0,20.85,0,20.86,0,10.42,0,10.43.09h0s0,0,0,0l-10.43.09-10.42,0-20.86,0-20.85,0-10.43-.05-10.42-.08a0,0,0,0,1,0,0S127.44,111.07,127.47,111.06Z"/><polygon class="cls-5" points="169.18 112.52 137.89 112.44 126.96 112.35 126.23 111.62 126.23 111.08 126.26 109.91 127.46 109.87 148.31 109.74 169.17 109.7 200.46 109.79 212.07 109.89 212.1 112.31 210.88 112.34 190.03 112.48 169.18 112.52"/><path class="cls-5" d="M200.28,128.8H141.06a.16.16,0,1,1,0-.32h59.22a.16.16,0,0,1,0,.32Z"/><path class="cls-5" d="M200.27,130H141.06a1.36,1.36,0,0,1,0-2.71h59.21a1.36,1.36,0,1,1,0,2.71Z"/></g><path class="cls-31" d="M696.41,327.54c-1,45.63-4.1,203-2.61,258.81.16,5.91,4.21,10.65,9.26,10.84,25,1,116.57,3.38,157.43,1.38,8.51-.42,15.28-8.48,15.45-18.45.85-47.89,2.73-182.6-1.73-244.31-.53-7.4-5.49-13.29-11.8-14-27.21-3.19-119.18-11-154.49-8.29C701.56,314,696.57,320.08,696.41,327.54Z"/><path class="cls-32" d="M708.56,334.54c-1.35,36.83-5.59,159.36-4.24,204.67.19,6.62,4.66,12,10.31,12.36,23.28,1.6,102.71,5.11,136.86,1.91,6.15-.57,11-6.39,11.31-13.6,1.73-37.57,6.7-151.66,5.41-196.46-.21-7.15-4.94-13-11-13.62-25.19-2.65-109.59-8.94-138.61-7.09C713.12,323.06,708.79,328.17,708.56,334.54Z"/><path class="cls-15" d="M782.94,591.22c-6.19,0-11.24-5.82-11.24-13s5-13,11.24-13,11.24,5.82,11.24,13S789.14,591.22,782.94,591.22Zm0-24c-5.09,0-9.24,4.93-9.24,11s4.15,11,9.24,11,9.24-4.93,9.24-11S788,567.26,782.94,567.26Z"/><path class="cls-33" d="M759.15,314.47h0a2.48,2.48,0,0,0,2.13,2.63c5.9.36,22.52,1.38,30,1.89,1.46.1,2.61-1.44,2.34-3.13l-.05-.29a2.42,2.42,0,0,0-2-2.12c-5-.54-20.18-2-30.22-1.61A2.48,2.48,0,0,0,759.15,314.47Z"/><path class="cls-5" d="M853.27,398.34l.29-43.28c0-5.21-3.31-9.63-7.63-10l-112-8.48c-4.55-.34-8.52,3.85-8.72,9.33,0,0-5.34,129.93-5.34,131.51h0l-1.62,51c-.2,5.49,3.5,10.1,8.06,10.24l117.61,3.6c4.55.14,8.34-4.33,8.38-9.81l.58-80.16h0l.36-54Z"/><path class="cls-34" d="M605.33,99.08l1.31,71.64c.1,7.56,5.05,13.62,11.12,13.62H870c6.14,0,11.12-6.2,11.12-13.85V105.08c0-7.48-4.76-13.6-10.76-13.84L616.81,85C610.45,84.74,605.22,91.16,605.33,99.08Z"/><path class="cls-18" d="M618,108.56l3.32,63.82c.13,3.43,2.43,6.12,5.19,6.06l238.54-3.06c2.78-.06,5-2.89,5-6.36V117.08c0-3.39-2.13-6.18-4.85-6.35l-241.86-8.81C620.36,101.73,617.88,104.81,618,108.56Z"/><path class="cls-18" d="M629.15,117v6.45c0,2.27,1.49,4.1,3.32,4.07L851.82,125c1.78,0,3.21-1.85,3.21-4.07h0c0-2.2-1.41-4-3.18-4.07l-219.35-4C630.66,112.82,629.15,114.66,629.15,117Z"/><path class="cls-18" d="M631,141.3v5.91c0,2.31,1.53,4.15,3.37,4.07l213.63-5c1.76-.07,3.15-1.87,3.15-4.06v-1.85c0-2.25-1.47-4.08-3.28-4.06l-213.63.9C632.4,137.25,631,139.06,631,141.3Z"/><path class="cls-35" d="M815.06,141.38a13.33,13.33,0,1,1,13.33-13.33A13.35,13.35,0,0,1,815.06,141.38Zm0-21.37a8,8,0,1,0,8,8A8,8,0,0,0,815.06,120Z"/><path class="cls-35" d="M815.06,99.61a28.47,28.47,0,0,1,28.44,28.44,27.15,27.15,0,0,1-.16,2.87,2,2,0,0,0,2.21,2.16l4.14-.62a2,2,0,0,0,1.64-1.8c.07-.86.1-1.73.1-2.61a36.42,36.42,0,0,0-36.37-36.38,36.94,36.94,0,0,0-4.49.28,2,2,0,0,0-1.68,2.26l.68,4a1.92,1.92,0,0,0,2.14,1.59A26.43,26.43,0,0,1,815.06,99.61Z"/><path class="cls-35" d="M815.06,79.1a49,49,0,0,1,48.94,49v0a1.92,1.92,0,0,0,2.2,1.92l4.06-.61,1.67-1.93a56.85,56.85,0,0,0-64.88-55.71A1.94,1.94,0,0,0,805.44,74l.69,4a1.91,1.91,0,0,0,2.15,1.59A48.74,48.74,0,0,1,815.06,79.1Z"/><path class="cls-35" d="M815.06,58.6a69.53,69.53,0,0,1,69.37,66.48,1.94,1.94,0,0,0,2.21,1.86l4-.6a1.94,1.94,0,0,0,1.66-2,77.24,77.24,0,0,0-88.72-72.81,1.93,1.93,0,0,0-1.6,2.24l.68,4a1.93,1.93,0,0,0,2.21,1.58A69.32,69.32,0,0,1,815.06,58.6Z"/><path class="cls-36" d="M328.89,56.62C373,56,591.18,52.15,636,51.36a7.9,7.9,0,0,1,8,7.9V79.69a7.91,7.91,0,0,1-7.9,7.91H329a7.91,7.91,0,0,1-7.9-7.91V64.52A7.89,7.89,0,0,1,328.89,56.62Z"/><path class="cls-37" d="M384.5,72.35h0a8,8,0,0,0,8.09,8l177.93-3.09a7.94,7.94,0,0,0,7.59-9.84l-.81-3.3a8,8,0,0,0-8-6.06L392.17,64.4A8,8,0,0,0,384.5,72.35Z"/><path d="M344.76,73.45,317.41,101.3a2.81,2.81,0,0,0,.19,4.12l.21.18a2.61,2.61,0,0,0,3.69-.34l25.05-30.21Z"/><path class="cls-38" d="M372.86,51.15a18.11,18.11,0,1,1-24-8.25A17.94,17.94,0,0,1,372.86,51.15Z"/><path d="M348,41.09a19.79,19.79,0,1,0,26.71,9.18A20,20,0,0,0,348,41.09Zm15.79,33.09A16.88,16.88,0,1,1,372,51.54,17,17,0,0,1,363.79,74.18Z"/><path class="cls-5" d="M338.46,64.5a.5.5,0,0,1-.48-.37,18.36,18.36,0,0,1-.64-3.9.5.5,0,1,1,1,0,17.87,17.87,0,0,0,.6,3.69.5.5,0,0,1-.35.61Z"/><path class="cls-5" d="M322.34,97.93a.49.49,0,0,1-.34-.14.5.5,0,0,1,0-.7l.42-.45a.5.5,0,0,1,.71,0,.49.49,0,0,1,0,.7l-.42.45A.46.46,0,0,1,322.34,97.93Z"/><path class="cls-20" d="M739.47,321.63l-1.89-2.29,0,0a.52.52,0,0,1,.07-.74.53.53,0,0,1,.75.07h0l1.88,2.38a.49.49,0,0,1-.08.7.5.5,0,0,1-.69-.07Z"/><path class="cls-20" d="M732.63,314.52l-2.34-1.82,0,0a.65.65,0,0,1-.11-.89.63.63,0,0,1,.89-.11h0l2.36,1.92a.59.59,0,0,1,.09.84.6.6,0,0,1-.84.1Z"/><path class="cls-20" d="M724.44,309.05l-2.65-1.31,0,0a.74.74,0,0,1,.66-1.32h0l2.7,1.41a.71.71,0,0,1-.64,1.26Z"/><path class="cls-20" d="M715.35,305.24l-2.83-.86h0a.83.83,0,1,1,.48-1.59h0l2.9.92a.81.81,0,0,1-.48,1.55Z"/><path class="cls-20" d="M705.77,302.87l-2.93-.47h0a.91.91,0,1,1,.28-1.8h0l3,.52a.89.89,0,0,1,.72,1,.87.87,0,0,1-1,.72Z"/><path class="cls-20" d="M696,301.71l-3-.15h0a1,1,0,1,1,.1-2h0l3,.19a1,1,0,0,1-.11,1.93Z"/><path class="cls-20" d="M686,301.52l-3,.1h0a1.06,1.06,0,0,1-.08-2.12h0l3-.06a1,1,0,0,1,.06,2.08Z"/><path class="cls-20" d="M676.13,302.12l-3,.31h0a1.14,1.14,0,0,1-.24-2.27h0l3-.27a1.12,1.12,0,0,1,.22,2.23Z"/><path class="cls-20" d="M666.28,303.36l-2.94.49h0a1.22,1.22,0,1,1-.39-2.41h0l3-.44a1.2,1.2,0,0,1,1.36,1,1.21,1.21,0,0,1-1,1.36Z"/><path class="cls-20" d="M656.5,305.15l-2.92.61h0a1.3,1.3,0,0,1-1.54-1,1.31,1.31,0,0,1,1-1.54h0l3-.57a1.27,1.27,0,0,1,.5,2.49Z"/><path class="cls-20" d="M646.76,307.26l-2.91.68h0a1.37,1.37,0,1,1-.62-2.67h0l2.94-.63a1.35,1.35,0,0,1,.59,2.63Z"/><path class="cls-20" d="M637.07,309.59l-2.9.74h0a1.45,1.45,0,0,1-.72-2.81h0l2.93-.7a1.42,1.42,0,0,1,1.72,1.05,1.44,1.44,0,0,1-1,1.72Z"/><path class="cls-5" d="M627.42,312.12l-2.88.79h0a1.51,1.51,0,1,1-.8-2.92h0l2.91-.77a1.5,1.5,0,0,1,.78,2.89Z"/><path class="cls-5" d="M617.83,314.82l-2.87.84h0a1.56,1.56,0,1,1-.88-3h0l2.89-.82a1.54,1.54,0,0,1,.86,3Z"/><path class="cls-5" d="M608.28,317.7l-2.85.9h0a1.61,1.61,0,0,1-1-3.06h0l2.88-.88a1.59,1.59,0,0,1,.94,3Z"/><path class="cls-5" d="M598.8,320.76l-2.84,1h0a1.66,1.66,0,0,1-1.05-3.14h0l2.86-.93a1.64,1.64,0,0,1,1,3.11Z"/><path class="cls-20" d="M589.36,324l-2.82,1h0a1.7,1.7,0,1,1-1.14-3.21h0l2.85-1a1.68,1.68,0,0,1,1.11,3.18Z"/><path class="cls-20" d="M580,327.38l-2.8,1.05h0a1.75,1.75,0,0,1-1.22-3.27h0l2.83-1a1.73,1.73,0,0,1,1.19,3.25Z"/><path class="cls-20" d="M570.66,330.92,567.87,332h0a1.79,1.79,0,1,1-1.31-3.34h0l2.81-1.06a1.78,1.78,0,0,1,1.28,3.32Z"/><path class="cls-20" d="M561.39,334.6l-2.77,1.12h0a1.84,1.84,0,0,1-1.39-3.41h0L560,331.2a1.83,1.83,0,0,1,1.37,3.39Z"/><path class="cls-20" d="M552.17,338.4l-2.76,1.17h0a1.89,1.89,0,1,1-1.47-3.48h0l2.78-1.14a1.88,1.88,0,0,1,1.45,3.46Z"/><path class="cls-5" d="M543,342.33l-2.74,1.19h0A1.94,1.94,0,1,1,538.7,340h0l2.76-1.18a1.92,1.92,0,0,1,1.53,3.53Z"/><path class="cls-20" d="M533.87,346.36l-2.73,1.23h0a2,2,0,1,1-1.63-3.61h0l2.75-1.21a2,2,0,0,1,1.6,3.6Z"/><path class="cls-20" d="M524.79,350.5l-2.71,1.26h0a2,2,0,0,1-1.71-3.69h0l2.74-1.24a2,2,0,0,1,1.68,3.66Z"/><path class="cls-20" d="M515.75,354.72l-2.7,1.29h0a2.08,2.08,0,1,1-1.78-3.75h0L514,351a2.06,2.06,0,0,1,1.76,3.73Z"/><path class="cls-20" d="M506.75,359l-2.69,1.3h0a2.13,2.13,0,0,1-1.86-3.83h0l2.72-1.29a2.11,2.11,0,0,1,1.82,3.8Z"/><path class="cls-20" d="M497.78,363.42l-2.68,1.33a2.17,2.17,0,0,1-1.94-3.89h0l2.71-1.31a2.16,2.16,0,0,1,1.89,3.88Z"/><path class="cls-20" d="M488.83,367.85l-2.68,1.34a2.19,2.19,0,0,1-2-3.91h0l2.69-1.34a2.18,2.18,0,1,1,1.94,3.91Z"/><path class="cls-20" d="M479.91,372.33l-2.67,1.36a2.2,2.2,0,0,1-2-3.93h0l2.68-1.35a2.2,2.2,0,0,1,2,3.92Z"/><path class="cls-20" d="M471,376.86l-2.66,1.37a2.22,2.22,0,1,1-2-3.94h0l2.67-1.36a2.21,2.21,0,1,1,2,3.94Z"/><path class="cls-20" d="M462.13,381.43l-2.66,1.38a2.23,2.23,0,0,1-2.06-4h0l2.67-1.38a2.23,2.23,0,0,1,2,4Z"/><path class="cls-20" d="M453.26,386l-2.66,1.39a2.25,2.25,0,0,1-2.08-4h0l2.67-1.38a2.24,2.24,0,1,1,2.07,4Z"/><path class="cls-20" d="M444.4,390.68l-2.65,1.39a2.27,2.27,0,0,1-2.11-4h0l2.66-1.39a2.26,2.26,0,0,1,2.09,4Z"/><path class="cls-20" d="M435.55,395.32l-2.65,1.4a2.28,2.28,0,0,1-2.13-4h0l2.66-1.38a2.27,2.27,0,1,1,2.11,4Z"/><path class="cls-20" d="M426.71,400l-2.66,1.4a2.29,2.29,0,0,1-2.14-4.06h0l2.66-1.39a2.29,2.29,0,0,1,2.13,4.05Z"/><path class="cls-20" d="M417.86,404.65,415.2,406a2.31,2.31,0,1,1-2.15-4.09h0l2.65-1.39a2.31,2.31,0,0,1,2.15,4.09Z"/><path class="cls-20" d="M409,409.3l-2.65,1.4a2.33,2.33,0,0,1-2.17-4.12h0l2.66-1.38A2.32,2.32,0,1,1,409,409.3Z"/><path class="cls-20" d="M400.14,413.94l-2.66,1.39a2.34,2.34,0,0,1-2.17-4.15h0L398,409.8a2.33,2.33,0,0,1,2.16,4.14Z"/><path class="cls-20" d="M391.27,418.57,388.6,420a2.36,2.36,0,1,1-2.17-4.19h0l2.67-1.37a2.35,2.35,0,0,1,2.16,4.18Z"/><path class="cls-20" d="M382.37,423.16l-2.67,1.37a2.37,2.37,0,0,1-2.17-4.22h0l2.67-1.36a2.37,2.37,0,0,1,2.16,4.22Z"/><path class="cls-20" d="M373.46,427.71l-2.68,1.36a2.39,2.39,0,0,1-2.16-4.26h0l2.68-1.35a2.38,2.38,0,0,1,2.15,4.25Z"/><path class="cls-20" d="M364.52,432.22l-2.69,1.35a2.4,2.4,0,1,1-2.15-4.3h0l2.69-1.33a2.4,2.4,0,0,1,2.14,4.29Z"/><path class="cls-20" d="M355.55,436.68l-2.7,1.33a2.42,2.42,0,1,1-2.13-4.35h0l2.69-1.32h0a2.42,2.42,0,0,1,2.13,4.34Z"/><path class="cls-5" d="M346.55,441.08l-2.71,1.3a2.43,2.43,0,1,1-2.12-4.38h0l2.7-1.29h0a2.44,2.44,0,0,1,2.11,4.39Z"/><path class="cls-5" d="M337.51,445.4l-2.72,1.29a2.45,2.45,0,0,1-2.09-4.44h0l2.71-1.27h0a2.44,2.44,0,1,1,2.08,4.42Z"/><path class="cls-5" d="M328.43,449.65l-2.73,1.26a2.47,2.47,0,1,1-2.06-4.48h0l2.72-1.24h0a2.46,2.46,0,1,1,2.05,4.47Z"/><path class="cls-5" d="M319.31,453.81,316.56,455a2.48,2.48,0,1,1-2-4.52h0l2.73-1.22h0a2.48,2.48,0,0,1,2,4.52Z"/><path class="cls-5" d="M310.13,457.86l-2.77,1.19a2.47,2.47,0,0,1-1.95-4.53h0l2.75-1.19h0a2.47,2.47,0,1,1,2,4.52Z"/><path class="cls-5" d="M300.9,461.79,298.12,463a2.45,2.45,0,1,1-1.88-4.52h0l2.76-1.16h0a2.46,2.46,0,0,1,1.9,4.53Z"/><path class="cls-5" d="M291.62,465.61l-2.79,1.13a2.44,2.44,0,0,1-1.82-4.53h0l2.78-1.12h0a2.44,2.44,0,0,1,1.84,4.52Z"/><path class="cls-5" d="M282.29,469.31l-2.81,1.08a2.42,2.42,0,1,1-1.74-4.52h0l2.79-1.08h0a2.43,2.43,0,1,1,1.76,4.52Z"/><path class="cls-5" d="M272.91,472.87l-2.83,1.05a2.41,2.41,0,0,1-1.66-4.52h0l2.8-1h0a2.41,2.41,0,0,1,1.69,4.52Z"/><path class="cls-20" d="M263.47,476.3l-2.84,1a2.39,2.39,0,1,1-1.58-4.51h0l2.82-1h0a2.4,2.4,0,0,1,1.6,4.52Z"/><path class="cls-20" d="M254,479.56l-2.86.95a2.38,2.38,0,1,1-1.5-4.52h0l2.83-.95h0a2.38,2.38,0,1,1,1.51,4.52Z"/><path class="cls-20" d="M244.41,482.65l-2.88.89a2.37,2.37,0,0,1-1.39-4.53h0l2.85-.88h0a2.37,2.37,0,0,1,1.4,4.53Z"/><path class="cls-20" d="M234.77,485.52l-2.91.81a2.35,2.35,0,0,1-1.26-4.53h0l2.87-.81h0a2.36,2.36,0,0,1,1.28,4.54Z"/><path class="cls-20" d="M225.05,488.13l-2.94.72a2.34,2.34,0,1,1-1.12-4.54h0l2.88-.72h0a2.34,2.34,0,1,1,1.13,4.54Z"/><path class="cls-20" d="M215.24,490.44l-3,.62a2.32,2.32,0,1,1-1-4.54h0l2.91-.62h0a2.33,2.33,0,0,1,1,4.55Z"/><path class="cls-20" d="M205.35,492.4l-3,.52a2.31,2.31,0,1,1-.78-4.55h0l2.92-.51h0a2.31,2.31,0,0,1,.8,4.56Z"/><path class="cls-20" d="M195.38,494l-3,.39a2.29,2.29,0,1,1-.59-4.55h0l2.95-.4h0a2.3,2.3,0,0,1,.6,4.56Z"/><path class="cls-20" d="M185.34,495.13l-3,.25a2.28,2.28,0,1,1-.38-4.55h0l2.95-.26h0a2.28,2.28,0,1,1,.39,4.55Z"/><path class="cls-20" d="M175.25,495.79l-3,.1a2.27,2.27,0,1,1-.15-4.53h0l3-.1h0a2.27,2.27,0,1,1,.16,4.54Z"/><path class="cls-20" d="M165.13,495.93l-3-.07a2.25,2.25,0,1,1,.1-4.5h0l3,.05h0a2.26,2.26,0,0,1-.09,4.52Z"/><path class="cls-20" d="M155,495.5l-3-.26a2.24,2.24,0,1,1,.37-4.46h0l2.94.24h0a2.25,2.25,0,0,1-.36,4.48Z"/><path class="cls-20" d="M144.92,494.42l-3-.45a2.22,2.22,0,0,1,.66-4.4h0l2.92.43h0a2.23,2.23,0,1,1-.64,4.41Z"/><path class="cls-20" d="M134.93,492.69l-3-.64a2.21,2.21,0,1,1,.94-4.32h0l2.89.62h0a2.22,2.22,0,0,1-.93,4.34Z"/><path class="cls-20" d="M125.06,490.3l-2.92-.86a2.2,2.2,0,1,1,1.23-4.22l0,0,2.83.81.05,0a2.2,2.2,0,0,1-1.22,4.23Z"/><path class="cls-20" d="M115.39,487.21l-2.86-1.06a2.19,2.19,0,0,1,1.52-4.1l0,0,2.77,1,0,0a2.19,2.19,0,1,1-1.52,4.1Z"/><path class="cls-20" d="M106,483.42l-2.77-1.29A2.17,2.17,0,1,1,105,478.2l0,0,2.68,1.23,0,0a2.17,2.17,0,1,1-1.81,3.95Z"/><path class="cls-20" d="M96.86,478.87l-2.66-1.51a2.12,2.12,0,0,1,2.08-3.7l0,0,2.58,1.44,0,0a2.14,2.14,0,1,1-2.08,3.73Z"/><path class="cls-20" d="M88.16,473.57l-2.51-1.73A2.08,2.08,0,0,1,88,468.4l0,0,2.43,1.65,0,0a2.1,2.1,0,0,1-2.35,3.47Z"/><path class="cls-20" d="M80,467.52l-2.35-2a2,2,0,0,1,2.61-3.14l0,0,2.28,1.87,0,0A2.06,2.06,0,0,1,80,467.54Z"/><path class="cls-20" d="M72.37,460.73l-2.14-2.18a2,2,0,0,1,2.84-2.82l0,0,2.08,2.07,0,0a2,2,0,1,1-2.84,2.85Z"/><path class="cls-20" d="M65.49,453.21l-1.91-2.39a2,2,0,0,1,3-2.46l0,.05,1.85,2.28,0,.05a2,2,0,0,1-3,2.48Z"/><path class="cls-20" d="M59.4,445l-1.66-2.57A1.92,1.92,0,0,1,61,440.37l0,.05,1.62,2.46,0,0A1.93,1.93,0,0,1,59.41,445Z"/><path class="cls-20" d="M54.17,436.29l-1.4-2.71a1.87,1.87,0,0,1,3.31-1.73l0,0,1.37,2.6,0,.05a1.88,1.88,0,1,1-3.33,1.76Z"/><path class="cls-20" d="M49.8,427.11l-1.14-2.83A1.83,1.83,0,0,1,52,422.9l0,0,1.13,2.73,0,.05a1.84,1.84,0,0,1-3.4,1.41Z"/><path class="cls-20" d="M46.29,417.58l-.89-2.91a1.79,1.79,0,0,1,3.41-1.06l0,0,.88,2.82,0,0a1.8,1.8,0,0,1-3.44,1.08Z"/><path class="cls-20" d="M43.62,407.79l-.64-3a1.74,1.74,0,0,1,3.4-.76v.05L47,407v0a1.76,1.76,0,0,1-3.43.77Z"/><path class="cls-20" d="M41.76,397.82l-.4-3a1.7,1.7,0,0,1,3.37-.46v0l.42,2.93v0a1.72,1.72,0,0,1-3.4.48Z"/><path class="cls-20" d="M40.69,387.75l-.17-3a1.66,1.66,0,0,1,3.31-.2v0l.19,2.95v0a1.67,1.67,0,0,1-3.34.22Z"/><path class="cls-20" d="M40.39,377.64l0-3a1.62,1.62,0,0,1,3.23,0v0l0,3v0a1.63,1.63,0,1,1-3.26,0Z"/><path class="cls-20" d="M40.83,367.53l.27-3a1.58,1.58,0,0,1,3.14.27v0l-.24,3v0a1.59,1.59,0,0,1-3.17-.26Z"/><path class="cls-20" d="M42,357.49l.49-3a1.53,1.53,0,0,1,3,.48v0l-.45,2.93v0a1.54,1.54,0,0,1-3-.47Z"/><path class="cls-20" d="M43.87,347.55l.7-2.95a1.49,1.49,0,0,1,2.9.68v0l-.66,2.9v0a1.5,1.5,0,1,1-2.92-.67Z"/><path class="cls-20" d="M46.48,337.79l.92-2.89a1.42,1.42,0,0,1,2.71.85v0l-.86,2.85v0a1.44,1.44,0,1,1-2.76-.84Z"/><path class="cls-20" d="M49.76,328.25l1.1-2.82a1.36,1.36,0,0,1,1.75-.77,1.35,1.35,0,0,1,.77,1.73v0l-1.05,2.78v0a1.37,1.37,0,0,1-2.57-1Z"/><path class="cls-20" d="M53.63,318.94l1.27-2.74a1.28,1.28,0,0,1,2.33,1.06v0L56,320v0A1.3,1.3,0,1,1,53.62,319Z"/><path class="cls-20" d="M58.05,309.89l1.43-2.66a1.2,1.2,0,0,1,1.64-.5,1.21,1.21,0,0,1,.5,1.62v0L60.24,311v0A1.23,1.23,0,0,1,58,309.9Z"/><path class="cls-20" d="M63,301.11l1.57-2.58a1.14,1.14,0,0,1,2,1.17v0L65,302.29h0a1.17,1.17,0,1,1-2-1.18Z"/><path class="cls-20" d="M68.35,292.61l1.7-2.49a1.07,1.07,0,0,1,1.78,1.19v0l-1.64,2.49h0a1.1,1.1,0,1,1-1.83-1.21Z"/><path class="cls-20" d="M74.15,284.4,76,282a1,1,0,0,1,1.61,1.2h0l-1.77,2.41h0a1,1,0,0,1-1.66-1.21Z"/><path class="cls-20" d="M80.33,276.48l1.91-2.32a.93.93,0,0,1,1.45,1.18h0l-1.87,2.33h0a1,1,0,0,1-1.35.14,1,1,0,0,1-.14-1.34Z"/><path class="cls-20" d="M86.83,268.85l2-2.24a.86.86,0,0,1,1.29,1.15h0l-2,2.25h0a.88.88,0,1,1-1.33-1.16Z"/><path class="cls-20" d="M93.66,261.49l2.1-2.16a.8.8,0,0,1,1.12,0,.79.79,0,0,1,0,1.11h0l-2.06,2.17h0a.81.81,0,1,1-1.18-1.12Z"/><path class="cls-20" d="M100.77,254.41l2.19-2.06a.69.69,0,0,1,1,0,.7.7,0,0,1,0,1h0l-2.13,2.09h0a.73.73,0,0,1-1,0,.74.74,0,0,1,0-1Z"/><path class="cls-20" d="M108.14,247.61l2.25-2a.61.61,0,0,1,.81.9h0l-2.2,2h0a.63.63,0,1,1-.85-.93Z"/><path class="cls-20" d="M115.73,241.07l2.32-1.92a.51.51,0,0,1,.72.07.53.53,0,0,1-.07.72l-2.27,1.95h0a.53.53,0,0,1-.76-.06.54.54,0,0,1,.06-.76Z"/><polygon class="cls-39" points="122.49 219.8 126.66 237.24 136.68 226.92 122.49 219.8"/><path class="cls-40" d="M198.51,191,161.3,243.61a4.53,4.53,0,0,1-6.47,1l-51.37-39.35a1.82,1.82,0,0,1,.9-3.25Z"/><polygon class="cls-41" points="122.49 219.81 198.51 191.04 130.76 226.18 131.72 231.07 122.49 219.81"/><polygon class="cls-42" points="135.7 229.93 126.66 237.24 130.76 226.18 135.7 229.93"/><path class="cls-43" d="M613,321.3H352.56c-8.31,0-15-3.17-15-7.07V196.15c0-3.89,6.71-7.05,15-7.06l262.56-.33c8.36,0,15.13,3.17,15.08,7.09l-2.08,118.42C628,318.16,621.32,321.3,613,321.3Z"/><path class="cls-18" d="M600.28,197.79l-232.92.68c-8.42,0-15.2,3.24-15.17,7.2L353.82,305c0,3.9,6.69,7.06,15,7.13l226.31,1.94c8.45.07,15.42-3.09,15.54-7.06l5-101.93C615.75,201.05,608.82,197.77,600.28,197.79Z"/><path class="cls-18" d="M590.81,207v.76c0,1.18-2,2.14-4.57,2.14H406.78c-2.52,0-4.56-1-4.56-2.14V207c0-1.18,2-2.14,4.56-2.14H586.24C588.76,204.86,590.81,205.82,590.81,207Z"/><path class="cls-18" d="M570.78,216.49h0c-.13,1.12-2.08,2-4.47,2l-156.95,1.35c-2.55,0-4.65-1-4.65-2.15v-.17c0-1.17,2-2.13,4.5-2.14l156.94-1.17C568.8,214.21,570.93,215.25,570.78,216.49Z"/><path class="cls-5" d="M586.83,309.42h-.17l-212.28-1.2c-4.8,0-9.09-1.42-11.2-3.63a5,5,0,0,1-1.5-3.64l5.47-70.19c.16-3.93,5.79-6.87,13.06-6.83l211.91,1.93c4.77,0,9,1.44,11.12,3.63a4.94,4.94,0,0,1,1.49,3.63v.07l-5.09,69.37C599.51,306,595.07,309.42,586.83,309.42ZM380,227.92c-5.41,0-8.79,2-8.84,3.08l-5.46,70.19c0,.18.24.48.39.64,1.12,1.17,4.13,2.37,8.33,2.39l212.28,1.2h.13c5.41,0,8.79-2,8.83-3.08l5.1-69.39a1.32,1.32,0,0,0-.39-.69c-1.11-1.17-4.1-2.36-8.26-2.4l-211.91-1.93ZM602.74,233h0Z"/><path class="cls-5" d="M600,241.45H368.8a2,2,0,0,1,0-4H600a2,2,0,0,1,0,4Z"/><path class="cls-44" d="M294.35,604.67c7.82.36,15.39.13,20.44-.13-4.6-3.27-15.2-10.4-24.07-13.23l-6.09-.37s-2.06,3.14-2.79,10.32C282.84,602.52,285.79,604.27,294.35,604.67Z"/><path class="cls-45" d="M238.44,602.58c-.57-3.67-1.49-9-2.2-10.34-1.11-2.12-4.92,0-4.92,0a10.12,10.12,0,0,0-3.91,3.33c-.78,1.32-2.95,5.09-4.42,7.65a1.71,1.71,0,0,0-.23.91l15.25.54A3.06,3.06,0,0,0,238.44,602.58Z"/><path class="cls-46" d="M239.6,580.05c-.13.44-2.1,10-3,14.18a2.4,2.4,0,0,1-2.47,1.92c-.64,0-1.39-.09-2.18-.19a2.89,2.89,0,0,1-2.51-2.76c-.14-3.67-.21-10.73,1.14-13.46C232.48,576,239.6,580.05,239.6,580.05Z"/><path class="cls-47" d="M283.44,582.78c.84,0-.34,4.37.94,8.68a2.21,2.21,0,0,0,2,1.75c.66,0,1.44,0,2.23-.06a2.46,2.46,0,0,0,2.26-2.21l1-11.2Z"/><path class="cls-48" d="M307.08,463.78c-.38,1.83-13.69,79.51-14.5,119.7a1.37,1.37,0,0,1-1.18,1.34,27.14,27.14,0,0,1-8.17-.06,1,1,0,0,1-.8-.88c-.46-7.49-4.21-70.82.38-100.64,0,0-37.87,79.7-43.61,101.67a1.15,1.15,0,0,1-1.18.87,28.67,28.67,0,0,1-7.67-1.37,2,2,0,0,1-1.27-2.35c3.21-13.15,25.69-103.76,40.94-123.72Z"/><path class="cls-49" d="M282.81,483.74a.52.52,0,0,1-.35-.14.49.49,0,0,1,0-.7l5.07-5.19a.51.51,0,0,1,.71,0,.5.5,0,0,1,0,.71l-5.07,5.18A.47.47,0,0,1,282.81,483.74Z"/><path class="cls-50" d="M354,366.48a48,48,0,0,1-25.18.06c-11.08-2.91-32.92-7.71-47.8-5l-1.23,38.91,50.84,5.81.46-10.33s30.91-4.46,47.64-24.79a82.41,82.41,0,0,1-9.35-12.66A39.77,39.77,0,0,1,354,366.48Z"/><path class="cls-51" d="M387.66,328.13l-3.92-1.72s.2,19.58-14.4,32a82.41,82.41,0,0,0,9.35,12.66C386.93,361.09,391.72,347.22,387.66,328.13Z"/><path class="cls-52" d="M305.33,339.88S302.38,357.49,302,363c0,0,14.26,3.94,18,1.82l-.47-21.3Z"/><path class="cls-53" d="M224.38,392.67,350,391.83a5.16,5.16,0,0,1,5.19,5.19l-.53,69.4a5.15,5.15,0,0,1-5.31,5.11L225.09,467.8a5.17,5.17,0,0,1-5-5.09l-.83-64.82A5.15,5.15,0,0,1,224.38,392.67Z"/><path class="cls-5" d="M349.53,467.36l-124.31-3.74a1,1,0,0,1-.95-1l-.83-64.81a1,1,0,0,1,.28-.7.93.93,0,0,1,.69-.29L350.05,396a1,1,0,0,1,1,1l-.53,69.39A1,1,0,0,1,349.53,467.36Zm-124.26-4.74,124.27,3.74L350,397l-125.61.87Z"/><path class="cls-5" d="M231.63,404.79h0c0,2.24,1.3,4,2.91,4H341.4c1.61,0,2.91-1.81,2.91-4h0c0-2.24-1.3-4.05-2.91-4.05H234.54C232.93,400.74,231.63,402.55,231.63,404.79Z"/><path class="cls-5" d="M232.15,414.84h45a2.88,2.88,0,0,1,2.89,2.88v37.15a2.88,2.88,0,0,1-3,2.88L233,456.53a2.88,2.88,0,0,1-2.8-2.81l-.92-35.92A2.89,2.89,0,0,1,232.15,414.84Z"/><path class="cls-5" d="M289.42,415.75h50.22a2.24,2.24,0,0,1,2,2.43h0a2.23,2.23,0,0,1-2,2.43H289.42a2.23,2.23,0,0,1-2-2.43h0A2.24,2.24,0,0,1,289.42,415.75Z"/><path class="cls-5" d="M287.44,428.59h0a2.23,2.23,0,0,0,2,2.42h50.23a2.23,2.23,0,0,0,2-2.42v-1.5a2.23,2.23,0,0,0-2-2.43l-50.23,1.5A2.25,2.25,0,0,0,287.44,428.59Z"/><path class="cls-54" d="M293.46,382.51l-12.48-21S254.89,383.86,247,415l13.84,8.69C266.52,413.5,276.41,400,293.46,382.51Z"/><path class="cls-55" d="M266.17,469.77a3.39,3.39,0,0,1-3-2c-1.42-3.08-4.2-8.94-5.65-10.83a7.12,7.12,0,0,1,4.44-.12c2.83.66,5.24-.5,5.32-2.07L254,449.09c-.48-1.35-2.41-8.95,6.83-25.45L247,415a66.16,66.16,0,0,0,1.11,37.87S250.72,468,256,471.08s13.32-1.25,13.32-1.25Z"/><path class="cls-56" d="M321.35,323.65s4.74,10.88,5.06,16.59,1.55,9.43-5.06,10.58-12.17-2.14-15.19-7.84c0,0-4.72-8.77-3.66-12.36S321.35,323.65,321.35,323.65Z"/><path class="cls-57" d="M308.42,338.89h.84s-3.45-7.06-.42-8.3,15-3.68,17.58-7.93.27-9.39-3.05-10.87a.46.46,0,0,0-.57.21l-.27.52a.45.45,0,0,1-.83-.08h0a.45.45,0,0,0-.8-.13c-.8,1.27-2.94,3.34-8.68,4.4-8.15,1.51-13.54,4.8-13.68,10.44a.45.45,0,0,1-.69.37c-.6-.37-1.56-.54-2.85.54-2.24,1.88-1.32,6.76,3.58,10.78a.44.44,0,0,1,0,.72c-.89.58-2.21,2,1.22,3.79s5.6,1.68,6.38,1.47a.44.44,0,0,0,.34-.46l-.31-5a.46.46,0,0,1,.45-.48Z"/><path class="cls-58" d="M308.63,339.94s-1.81-7-4.93-5,1.62,7.79,4.12,8.05Z"/><path class="cls-59" d="M372.93,311.8v7.86s6.4,8.15,14.73,8.47c0,0,7.35-.49,7.1-5.92L383,320a56.91,56.91,0,0,1-6.31-2.2S375.69,312.05,372.93,311.8Z"/><path class="cls-60" d="M591.94,318.8s-29.86,38.24,4.21,77.12L609,394.73s-24.66-39.59-13.67-71.15l18.14,1.32,10-6.54Z"/><path class="cls-61" d="M608.3,506s24.19,52.73,36.89,74.57c0,0,2.52,13.75,0,18.07l-2.15,1,10-.29s.89-18.49.19-19.52a2.55,2.55,0,0,0-2.09-1s-4.3-34.06-16.75-41.33L622.35,495.9Z"/><path class="cls-62" d="M638.76,602.17c0,.24,7.83.13,12.09.06a3.4,3.4,0,0,0,3.25-2.68l3.22-16.9a3.06,3.06,0,0,0-2.31-3.54l-1.8-.41s-2.56,3.52-1.76,6.83,1.53,11.88-.51,12.88-7.9,1.17-7.9,1.17S638.89,600,638.76,602.17Z"/><path class="cls-63" d="M585.37,602.48a.88.88,0,0,0,.44,1.65c7.14-.07,23.12-.29,24.54-.88,1.83-.77-.67-7.35-3.31-9.58l-14.53,4.74Z"/><path class="cls-64" d="M580.85,502.63s15.64,75.63,20.06,90.39l-10.46,6.56s5.24-.89,9.13-1.17,7.46-4.74,7.46-4.74l-1.25-2s-3.92-75.23-3-83.77Z"/><path class="cls-65" d="M542,326.21s-2.15,39.34,33.67,59.45l-8.63,19.67s-32.43-19.62-31.23-73.12a6.19,6.19,0,0,0-1.52-4.19l-6.89-8a12.34,12.34,0,0,1-2.63-11.08l.9-3.63a1.89,1.89,0,0,1,2.77-1.17l.72.42a12.73,12.73,0,0,1,5.2,5.78l3.38,7.56a7.27,7.27,0,0,0,7.27,4.28l2.09-.18Z"/><path class="cls-66" d="M574.46,382.71c6,1.66,26.3,7,39,6.78l-7.78,43.92.62,7.16-25.37-.11s-7.15-16.59-12.78-24.86c-1.63-2.39-.42-5.24.5-8l-1.26-.84a3.46,3.46,0,0,1-1.37-3.95l6.18-18.9A1.88,1.88,0,0,1,574.46,382.71Z"/><path class="cls-67" d="M578.86,436.71l.5,4.34s-7.17,21.47,3.59,71.63c0,0,23.29,6.59,42.44-9.2,0,0-5.4-47.33-6.88-49.54-7.35-11-12.24-13.37-12.24-13.37l-.22-4.74S585.57,439.53,578.86,436.71Z"/><path class="cls-68" d="M588.8,386.25c-.09-.12,5.29-16.26,5.29-16.26l7.72.7,3,18.31S592.73,391.44,588.8,386.25Z"/><path class="cls-69" d="M600,344.53c-.51.32-16.49,6.92-13.05,23.5a3.1,3.1,0,0,0,1.77,2.22,27.15,27.15,0,0,0,13.42,2.22c8.37-.85,13.85-15.45,13.62-19.7S605.06,341.35,600,344.53Z"/><path class="cls-70" d="M604.82,338.08c-.42.06-9.23,3.12-4.86,9.51s6,10.14,3.94,12.94c-1.88,2.56-6,1.1-5.69,6.42a3,3,0,0,1-1.27,2.69c-3.93,2.66-13.52,10.85-4,22.52a3,3,0,0,1,.34,3.33c-2.78,5-8.63,19.61,12.53,27.72,20.91,8,28.46-5.65,30.57-11.11a2.9,2.9,0,0,1,2.88-1.85c2.3.11,5.56-.27,5.41-3.34A7.73,7.73,0,0,0,642,402a2.91,2.91,0,0,1,.56-4.59,5.66,5.66,0,0,0,2.81-3.54c1.27-4.69-1.26-18.73-14.71-21.11a3.19,3.19,0,0,1-2.47-2.38v-.05a2.89,2.89,0,0,1,1.08-2.86c2.15-1.58,4.9-4.75,2.66-9.84a11,11,0,0,0-8.62-6.52,2.94,2.94,0,0,1-2.4-3.51C621.88,343.14,621.05,336,604.82,338.08Z"/><path class="cls-71" d="M314.71,604.66l-.06,0c-5.06.25-12.62.48-20.44.12-8.56-.39-11.51-2.15-12.52-3.41,0,.33-.06.66-.09,1a2.85,2.85,0,0,0,2.62,3.08c6.4.48,22.27,1.58,29.93,1.18A1.07,1.07,0,0,0,314.71,604.66Z"/><path class="cls-72" d="M222.76,604.11a1.73,1.73,0,0,0,1.69,1.69l10.86.3a3.06,3.06,0,0,0,2.7-1.45Z"/><path class="cls-15" d="M517.16,478.2a7.58,7.58,0,1,1,7.58-7.58A7.59,7.59,0,0,1,517.16,478.2Z"/><path class="cls-73" d="M518.44,464.67a5.58,5.58,0,1,0,4.16,4.15A5.59,5.59,0,0,0,518.44,464.67Z"/><path class="cls-15" d="M453.16,478.2a7.58,7.58,0,1,1,7.58-7.58A7.59,7.59,0,0,1,453.16,478.2Z"/><path class="cls-73" d="M453.16,465a5.58,5.58,0,1,0,5.58,5.58A5.59,5.59,0,0,0,453.16,465Z"/><path class="cls-35" d="M821.6,121.63c-9.06-7-19.39,3.37-12.43,12.43h0C818.23,141,828.56,130.68,821.6,121.63Z"/><polygon class="cls-74" points="656.09 35.82 595.11 43.88 635.54 18.07 637.61 26.37 652.45 28.91 656.09 35.82"/><polygon class="cls-5" points="595.11 43.88 645.82 19.42 695.57 17.16 595.11 43.88"/><polygon class="cls-5" points="635.54 18.07 595.11 43.88 626.37 3.5 635.54 18.07"/><rect class="cls-75" x="746.69" y="353.82" width="79.75" height="32.11" rx="14.46" transform="translate(35.23 -67.15) rotate(5)"/><rect class="cls-76" x="761.74" y="359.88" width="23.71" height="3.32" rx="1.66" transform="translate(34.45 -66.05) rotate(5)"/><path class="cls-76" d="M783.45,372.59,762,370.71a1.08,1.08,0,0,1-1-1.17h0a1.1,1.1,0,0,1,1.17-1l21.48,1.88a1.08,1.08,0,0,1,1,1.17h0A1.08,1.08,0,0,1,783.45,372.59Z"/><rect class="cls-76" x="760.52" y="374.16" width="13.91" height="2.16" rx="1.08" transform="translate(35.63 -65.46) rotate(5)"/><rect class="cls-76" x="777.68" y="376.01" width="21.88" height="2.16" rx="1.08" transform="translate(35.87 -67.3) rotate(5)"/><rect class="cls-76" x="788.29" y="361.93" width="17.39" height="3.32" rx="1.66" transform="translate(34.72 -68.08) rotate(5)"/><rect class="cls-76" x="735.27" y="392.17" width="97.28" height="34" rx="16.16" transform="translate(38.64 -66.77) rotate(5)"/><path class="cls-77" d="M832.23,376.57a9,9,0,0,0,2.38,7,8.14,8.14,0,0,0,5.2,2.58,8,8,0,0,0,5.11-1.29,8.89,8.89,0,0,0,1.76-1.54,9.08,9.08,0,0,0,2.17-5.22,8.68,8.68,0,0,0-7.58-9.57A8.5,8.5,0,0,0,832.23,376.57Z"/><path class="cls-5" d="M767.9,405.7a8.92,8.92,0,0,1-3.06,5.87,11.18,11.18,0,0,1-1.91,1.37,13.85,13.85,0,0,1-8.07,1.68,14,14,0,0,1-7.09-2.61,11.14,11.14,0,0,1-2.2-2.13,8.87,8.87,0,0,1-2-6.31c.49-5.51,6.32-9.5,13-8.91S768.38,400.19,767.9,405.7Z"/><path class="cls-78" d="M760.21,409.78l-.09-.09a1.89,1.89,0,0,0-.82-.3l-1.23-.25-.19,0-.14,0c-.15-.09-.15-.64-.09-1.22a.57.57,0,0,1,0-.13c0-.22.05-.43.08-.63v0l.58.07c.65,0,1.18-1.38,1.42-2.52a3.26,3.26,0,0,0,.44-1.28,1.51,1.51,0,0,0-.32-1.14,1.4,1.4,0,0,0-.43-.37l-.11-.11c-.56-.6-2.83-2.87-4.54-1.82,0-.12-.44-1.51-3-1.29.16,0,1.29,0,1.58.41a2.49,2.49,0,0,0-1.64-.2,1.24,1.24,0,0,0-.63.7h0s0,.08,0,.13h0a1.75,1.75,0,0,0-.1.79c.07.33.68,1.36,1.14,1.4a1.41,1.41,0,0,0,.54-.06c-.08.17-.16.35-.24.55-.65,1.86.76,3.44,1.59,3.15.53-.18.85.59.85.59h0a3.62,3.62,0,0,1-1.11,2.45c-.13,0-.4,0-.73,0h0a10,10,0,0,0-2.11.24h0a2.51,2.51,0,0,0-.53.18h0a.83.83,0,0,0-.17.12l-.06.06a10.15,10.15,0,0,0-1.06,1.92,12.18,12.18,0,0,0,12.85.79A5.59,5.59,0,0,0,760.21,409.78Z"/><rect class="cls-5" x="775.85" y="400.23" width="15.62" height="1.78" rx="0.89" transform="translate(37.94 -66.77) rotate(5)"/><path class="cls-5" d="M790.1,409l-14.16-1.24a.65.65,0,0,1-.65-.64h0a.66.66,0,0,1,.76-.51l14.15,1.24a.65.65,0,0,1,.65.63h0A.66.66,0,0,1,790.1,409Z"/><rect class="cls-5" x="775.04" y="409.66" width="9.16" height="1.16" rx="0.58" transform="translate(38.72 -66.39) rotate(5)"/><rect class="cls-5" x="786.34" y="410.88" width="14.42" height="1.16" rx="0.58" transform="translate(38.88 -67.6) rotate(5)"/><path class="cls-5" d="M812.4,410.94l-18.56-1.62a.65.65,0,0,1-.65-.64h0a.66.66,0,0,1,.75-.52l18.56,1.63a.64.64,0,0,1,.65.64h0A.65.65,0,0,1,812.4,410.94Z"/><path class="cls-5" d="M789.62,414.45l-14.15-1.24a.66.66,0,0,1-.66-.63h0a.66.66,0,0,1,.76-.52l14.15,1.24a.64.64,0,0,1,.65.64h0A.64.64,0,0,1,789.62,414.45Z"/><path class="cls-5" d="M811.92,416.4l-18.56-1.62a.65.65,0,0,1-.65-.64h0a.65.65,0,0,1,.75-.51L812,415.25a.64.64,0,0,1,.65.64h0A.63.63,0,0,1,811.92,416.4Z"/><rect class="cls-5" x="793.34" y="401.58" width="11.46" height="1.78" rx="0.89" transform="translate(38.12 -68.11) rotate(5)"/><path class="cls-79" d="M844.37,382.72l0-.07a.61.61,0,0,0-.12-.16h0a1.57,1.57,0,0,0-.39-.28h0a6.67,6.67,0,0,0-1.63-.6h0a5.45,5.45,0,0,0-.57-.14,1.19,1.19,0,0,1-.19-.31h0a6,6,0,0,1-.31-2.39h0s.38-.73.77-.46c.61.44,2-.95,1.75-3,0-.22-.06-.42-.1-.6a1.07,1.07,0,0,0,.41.15c.38,0,1-.93,1.13-1.26s.11-1.46-.37-1.83-1.3-.07-1.33-.06c.29-.35,1.15-.2,1.31-.17-2-.63-2.54.71-2.58.83-1.19-1.35-3.35.61-3.88,1.13l-.11.09a1.44,1.44,0,0,0-.39.32,1.8,1.8,0,0,0-.43,1.11,4.3,4.3,0,0,0,.14,1.39c0,1.21.22,2.73.74,2.82,0,0,.19,0,.47,0v0c0,.2,0,.43,0,.65v.14c-.05.6-.13,1.17-.27,1.23h-.26l-1,.06a1.43,1.43,0,0,0-.7.17l-.08.08a5.42,5.42,0,0,0-1.64,1.92l.22.23,0,0,.17.16a.69.69,0,0,0,.13.11.69.69,0,0,0,.13.11l.19.16.13.11.16.12.19.14H836l.15.1h0l0,0,.09.05.08.06.2.11.19.11.09,0,.09,0,.19.09.2.09.16.07h0l.1.05.6.2.26.08h.09l.18,0h.06l.16,0h0l.05,0,.29,0h0l.09,0h.06l.29,0a8,8,0,0,0,5.11-1.29A13.26,13.26,0,0,0,844.37,382.72Z"/><rect class="cls-79" x="749.61" y="447.94" width="81.28" height="32.96" rx="16.48" transform="matrix(1, 0.09, -0.09, 1, 43.48, -67.11)"/><rect class="cls-80" x="758.15" y="451.95" width="18.63" height="2.34" rx="1.17" transform="translate(42.41 -65.17) rotate(5)"/><path class="cls-80" d="M775.28,461,758.4,459.5a.8.8,0,0,1-.77-.83h0a.81.81,0,0,1,.91-.68l16.88,1.47a.82.82,0,0,1,.77.84h0A.82.82,0,0,1,775.28,461Z"/><rect class="cls-80" x="757.3" y="461.98" width="10.93" height="1.52" rx="0.76" transform="translate(43.23 -64.72) rotate(5)"/><rect class="cls-80" x="770.78" y="463.43" width="17.19" height="1.52" rx="0.76" transform="matrix(1, 0.09, -0.09, 1, 43.42, -66.16)"/><path class="cls-80" d="M801.88,463.31l-22.13-1.94a.8.8,0,0,1-.77-.83h0a.8.8,0,0,1,.9-.69L802,461.79a.82.82,0,0,1,.78.83h0A.82.82,0,0,1,801.88,463.31Z"/><path class="cls-80" d="M774.65,468.16l-16.87-1.47a.81.81,0,0,1-.78-.83h0a.82.82,0,0,1,.91-.69l16.88,1.48a.8.8,0,0,1,.77.83h0A.8.8,0,0,1,774.65,468.16Z"/><path class="cls-80" d="M801.25,470.49l-22.13-1.93a.81.81,0,0,1-.77-.84h0a.8.8,0,0,1,.9-.68L801.38,469a.82.82,0,0,1,.78.84h0A.82.82,0,0,1,801.25,470.49Z"/><path class="cls-80" d="M774.33,471.9l-16.88-1.47a.81.81,0,0,1-.77-.84h0a.8.8,0,0,1,.9-.68l16.88,1.48a.8.8,0,0,1,.77.83h0A.79.79,0,0,1,774.33,471.9Z"/><path class="cls-80" d="M800.92,474.23l-22.13-1.94a.8.8,0,0,1-.77-.83h0a.8.8,0,0,1,.91-.68l22.13,1.93a.81.81,0,0,1,.77.84h0A.81.81,0,0,1,800.92,474.23Z"/><rect class="cls-80" x="779.02" y="453.56" width="13.67" height="2.34" rx="1.17" transform="translate(42.62 -66.76) rotate(5)"/><path class="cls-77" d="M728.4,457.66a6.21,6.21,0,0,0,1.17,4.17,6.84,6.84,0,0,0,1,1.11,7.7,7.7,0,0,0,1.21.89,7.89,7.89,0,0,0,3.38,1.09,7.8,7.8,0,0,0,4.3-.83l.19-.1a6.73,6.73,0,0,0,1.54-1.15,6.18,6.18,0,0,0,1.87-3.9c.32-3.66-2.69-6.91-6.74-7.26S728.72,454,728.4,457.66Z"/><path class="cls-76" d="M737.33,462.72l-.62-.6h-.17c-.12-.08-.24-.17-.38-.25.07-.25.13-.47.17-.67a8,8,0,0,0,.22-1.19h.61c.68-.09.9-2.17.84-3.27a1.22,1.22,0,0,0,.38,0c.53-.16.62-.86.62-.86a.93.93,0,0,1-.39.3s.94-1,0-1.8-2-.43-2.55-.45c-1.27,0-2.09,0-2.57.67a3.88,3.88,0,0,0,.22,3.58,1.49,1.49,0,0,1,0,.21,1.4,1.4,0,0,0,.25.69,4.6,4.6,0,0,1-1.1,1.89,3.32,3.32,0,0,0-.73.59h0a6.59,6.59,0,0,0-1.11,1.8h0a7.08,7.08,0,0,0,1.27.78l.09,0h0l.15.07.36.15.39.14.18.06.16,0h0l.11,0,.25.06h.06l.14,0,.2,0,.23,0,.22,0,.23,0,.25,0h.45a8,8,0,0,0,2.82-.51A7,7,0,0,0,737.33,462.72Z"/><path class="cls-75" d="M794.56,531.27,747.47,527c-9.39-.86-16.34-9.52-15.52-19.34h0c.82-9.81,9.11-17.08,18.5-16.22l47.09,4.31c9.39.86,16.34,9.51,15.52,19.33h0C812.24,524.87,804,532.13,794.56,531.27Z"/><path class="cls-76" d="M770.84,502.54l-17.68-1.62a1.64,1.64,0,0,1-1.44-1.79h0a1.61,1.61,0,0,1,1.71-1.51l17.69,1.62a1.63,1.63,0,0,1,1.44,1.79h0A1.61,1.61,0,0,1,770.84,502.54Z"/><path class="cls-76" d="M770.77,511.06l-19-1.73a1,1,0,0,1-.85-1.17h0a1,1,0,0,1,1-1l19,1.73a1,1,0,0,1,.85,1.17h0A1,1,0,0,1,770.77,511.06Z"/><path class="cls-76" d="M761.64,515.36l-10.17-.93a1.08,1.08,0,0,1-.94-1.17h0a1.06,1.06,0,0,1,1.12-1l10.17.93a1.07,1.07,0,0,1,.94,1.17h0A1.05,1.05,0,0,1,761.64,515.36Z"/><path class="cls-76" d="M783.81,517.39l-17.18-1.57a1.07,1.07,0,0,1-.94-1.17h0a1.05,1.05,0,0,1,1.12-1L784,515.23a1.08,1.08,0,0,1,.94,1.18h0A1.05,1.05,0,0,1,783.81,517.39Z"/><path class="cls-76" d="M800.65,513.79l-24.86-2.27a1,1,0,0,1-.85-1.17h0a1,1,0,0,1,1-1l24.86,2.28a1,1,0,0,1,.85,1.16h0A1,1,0,0,1,800.65,513.79Z"/><path class="cls-76" d="M769.92,521.26l-19-1.74a1,1,0,0,1-.86-1.16h0a1,1,0,0,1,1-1l19,1.73a1,1,0,0,1,.85,1.17h0A1,1,0,0,1,769.92,521.26Z"/><path class="cls-76" d="M799.8,524l-24.86-2.27a1,1,0,0,1-.86-1.17h0a1,1,0,0,1,1-1L800,521.83a1,1,0,0,1,.85,1.17h0A1,1,0,0,1,799.8,524Z"/><path class="cls-76" d="M788.72,504.17l-12.13-1.1a1.66,1.66,0,0,1-1.45-1.8h0a1.62,1.62,0,0,1,1.72-1.51L789,500.87a1.65,1.65,0,0,1,1.44,1.8h0A1.61,1.61,0,0,1,788.72,504.17Z"/><path class="cls-77" d="M823.35,517.22a9.06,9.06,0,0,0,1.53,6,9.71,9.71,0,0,0,1.35,1.59,10.39,10.39,0,0,0,6.39,2.77,10.81,10.81,0,0,0,6.31-1.44,10.31,10.31,0,0,0,2.18-1.7,9.52,9.52,0,0,0,2.73-5.71c.54-5.31-3.61-10-9.26-10.39S823.89,511.91,823.35,517.22Z"/><path class="cls-79" d="M838.27,523.84a.3.3,0,0,0,0-.08.76.76,0,0,0-.15-.17h0a2.1,2.1,0,0,0-.48-.31h0a8.18,8.18,0,0,0-2-.64c-.33-.08-.59-.13-.71-.15a4.28,4.28,0,0,1-.59-2.94h0s.47-.81,1-.51c.75.47,2.45-1.06,2.18-3.26a5.4,5.4,0,0,0-.12-.65,1.89,1.89,0,0,0,.51.16c.46,0,1.27-1,1.4-1.38s.15-1.59-.44-2a2.24,2.24,0,0,0-1.64-.06c.36-.39,1.42-.22,1.61-.19-2.45-.67-3.12.8-3.18.93-1.46-1.47-4.13.68-4.79,1.26l-.14.1a1.59,1.59,0,0,0-.48.34,1.93,1.93,0,0,0-.55,1.22,4.32,4.32,0,0,0,.17,1.52c0,1.32.25,3,.89,3.07,0,0,.23,0,.57,0v0c0,.22,0,.47-.05.72l0,.14c-.06.66-.17,1.28-.33,1.35h-.33c-.57,0-1,.05-1.26.07a1.83,1.83,0,0,0-.86.19l-.1.09a6.22,6.22,0,0,0-2,2.1,10.38,10.38,0,0,0,6.38,2.77,10.83,10.83,0,0,0,6.32-1.44A12.09,12.09,0,0,0,838.27,523.84Z"/><polygon class="cls-24" points="766.33 428.29 784.57 462.65 815.19 402.22 782.55 437.99 766.33 428.29"/><path class="cls-81" d="M806.6,477.81l-44.53-3.9a22.29,22.29,0,0,1-20.24-24.12l3.9-44.53A22.29,22.29,0,0,1,769.85,385l44.53,3.89A22.29,22.29,0,0,1,834.62,413l-3.9,44.54A22.29,22.29,0,0,1,806.6,477.81ZM769.67,387a20.29,20.29,0,0,0-21.95,18.42L743.82,450a20.29,20.29,0,0,0,18.42,22l44.54,3.89a20.28,20.28,0,0,0,22-18.42l3.9-44.53a20.29,20.29,0,0,0-18.42-21.95Z"/></g></g></svg>