<svg xmlns="http://www.w3.org/2000/svg" viewBox="0 0 500 405.5"><defs><style>.cls-1{fill:#ebebeb;}.cls-2,.cls-8,.cls-9{fill:#fff;}.cls-3{fill:#e6e6e6;}.cls-4{fill:#f5f5f5;}.cls-5{fill:#407bff;}.cls-6{fill:#263238;}.cls-7{opacity:0.1;}.cls-8{opacity:0.6;}.cls-9{opacity:0.2;}</style></defs><g id="Capa_2" data-name="Capa 2"><g id="Background_Complete" data-name="Background Complete"><rect class="cls-1" y="360.34" width="500" height="0.25"/><rect class="cls-1" x="416.78" y="376.44" width="33.12" height="0.25"/><rect class="cls-1" x="260.33" y="373.3" width="12.89" height="0.25"/><rect class="cls-1" x="322.53" y="374.36" width="27.14" height="0.25"/><rect class="cls-1" x="359.67" y="367.15" width="56.11" height="0.25"/><rect class="cls-1" x="52.46" y="378.72" width="26.53" height="0.25"/><rect class="cls-1" x="87.89" y="378.72" width="23" height="0.25"/><rect class="cls-1" x="131" y="373.18" width="60.81" height="0.25"/><path class="cls-1" d="M237,315.74H43.91a5.71,5.71,0,0,1-5.7-5.71V38.6a5.71,5.71,0,0,1,5.7-5.71H237a5.71,5.71,0,0,1,5.71,5.71V310A5.71,5.71,0,0,1,237,315.74ZM43.91,33.14a5.46,5.46,0,0,0-5.45,5.46V310a5.46,5.46,0,0,0,5.45,5.46H237a5.47,5.47,0,0,0,5.46-5.46V38.6A5.47,5.47,0,0,0,237,33.14Z"/><path class="cls-1" d="M453.31,315.74H260.21A5.72,5.72,0,0,1,254.5,310V38.6a5.72,5.72,0,0,1,5.71-5.71h193.1A5.71,5.71,0,0,1,459,38.6V310A5.71,5.71,0,0,1,453.31,315.74ZM260.21,33.14a5.47,5.47,0,0,0-5.46,5.46V310a5.47,5.47,0,0,0,5.46,5.46h193.1a5.47,5.47,0,0,0,5.46-5.46V38.6a5.47,5.47,0,0,0-5.46-5.46Z"/><path class="cls-1" d="M467.06,172.11a53.79,53.79,0,0,0-1-33,46.49,46.49,0,0,0-21-69.85A80.24,80.24,0,0,0,318.17,15.55a41,41,0,0,0-70.69,27.93,61.91,61.91,0,0,0-35.12,100.65,46.59,46.59,0,0,0,27.83,67.36,46.39,46.39,0,0,0,24.11.46,71.94,71.94,0,0,0,96.82,18.46c7.53,17.49,13.71,43.73.4,69.46,48.35-4.74,83.26-51.11,76.14-93.6A54,54,0,0,0,467.06,172.11Z"/><path class="cls-2" d="M374.32,290.27a1,1,0,0,1-.71-.29,1,1,0,0,1-.25-1c6.81-23.72.6-46.46-5.8-61.36l-3.25-7.55-6.94,4.41A64.92,64.92,0,0,1,270,207.84L267.19,204l-4.58,1.14a39.56,39.56,0,0,1-44.12-57.63l2.33-4.22-3.11-3.68a54.91,54.91,0,0,1,31.15-89.28l5.56-1.12.06-5.66a34.05,34.05,0,0,1,34-33.69,34.16,34.16,0,0,1,24.61,10.52l4.24,4.43,5-3.62a73.24,73.24,0,0,1,115.85,49l.57,4,3.79,1.5a39.47,39.47,0,0,1,17.81,59.33L458.27,138l1.21,3.4a47.07,47.07,0,0,1-24.74,58.5l-4.87,2.24.89,5.28c3,18.13-2.43,37.93-15,54.33a81,81,0,0,1-41.18,28.47A.9.9,0,0,1,374.32,290.27Zm-9.55-72.65a1,1,0,0,1,.29,0,1,1,0,0,1,.62.56l3.71,8.62c6.38,14.83,12.55,37.3,6.37,60.94a79.22,79.22,0,0,0,38.43-27.25c12.22-16,17.54-35.2,14.6-52.78l-1-6a1,1,0,0,1,.56-1.08l5.56-2.55a45.05,45.05,0,0,0,23.69-56l-1.38-3.88a1,1,0,0,1,.13-.91l2.35-3.37a37.48,37.48,0,0,0-16.9-56.33l-4.34-1.71a1,1,0,0,1-.62-.79l-.65-4.62A71.21,71.21,0,0,0,323.49,22.81L317.82,27a1,1,0,0,1-1.31-.12l-4.85-5.07a32,32,0,0,0-53.93,13.28,32.28,32.28,0,0,0-1.25,8.53l-.07,6.48a1,1,0,0,1-.8,1l-6.35,1.27a52.91,52.91,0,0,0-30,86l3.55,4.21a1,1,0,0,1,.11,1.13l-2.66,4.82A38,38,0,0,0,217,156.3a37.59,37.59,0,0,0,45.15,46.91l5.24-1.3a1,1,0,0,1,1.05.39l3.17,4.36a62.39,62.39,0,0,0,33.49,23.52,62.75,62.75,0,0,0,51.22-7.37l7.93-5A1,1,0,0,1,364.77,217.62Z"/><path class="cls-2" d="M304.19,124.13,277.39,120l.41-2.68a33.69,33.69,0,0,1,3.28-10.87,25.17,25.17,0,0,1,5.84-7.08q3.61-3,15.72-10.26,6.44-3.76,7-7.65A8,8,0,0,0,308.33,75c-1.3-1.67-3.51-2.75-6.61-3.23a11.35,11.35,0,0,0-8.81,2c-2.53,1.88-4.53,5.51-6,10.92l-26.84-7.65q3.76-14.86,14.76-22.59t30.74-4.64q15.38,2.4,23.83,10.28,11.48,10.68,9.23,25.14a22.61,22.61,0,0,1-5.11,11q-4.18,5.06-15.67,11.5-8,4.55-10.4,7.67A18.78,18.78,0,0,0,304.19,124.13Zm-28.83,2.81,28.71,4.47-3.94,25.32-28.71-4.47Z"/><path class="cls-2" d="M372.59,163.37l-14.88-12.06,1.21-1.49a23.85,23.85,0,0,1,5.85-5.47,17.83,17.83,0,0,1,6.07-2.25,103.76,103.76,0,0,1,13.24-.69q5.26,0,7-2.17a5.55,5.55,0,0,0,1.44-4.37,7,7,0,0,0-2.89-4.32,8,8,0,0,0-6.09-1.89q-3.32.36-7.53,4.53L362.35,119q7.56-7.76,17-8.56t20.42,8.07q8.54,6.92,10.89,14.73,3.22,10.59-3.27,18.62a16,16,0,0,1-7,4.93q-4.35,1.6-13.64,1.46-6.49-.06-9.07,1A13.34,13.34,0,0,0,372.59,163.37ZM354,154.86l15.94,12.91-11.39,14-15.94-12.91Z"/><path class="cls-2" d="M376.75,76.75,370.31,68l.88-.64a13.35,13.35,0,0,1,4-2.16,9.8,9.8,0,0,1,3.67-.36,58.74,58.74,0,0,1,7.38,1.54c1.94.5,3.33.45,4.18-.18a3.21,3.21,0,0,0,1.43-2.2,4,4,0,0,0-1-2.79,4.55,4.55,0,0,0-3.08-1.93c-1.25-.18-2.85.28-4.8,1.41l-5.47-9.8a15.2,15.2,0,0,1,10.61-2.24q5.32.93,10.07,7.41,3.69,5,3.86,9.69a10.89,10.89,0,0,1-4.51,9.77A9.09,9.09,0,0,1,393,77.16,23.06,23.06,0,0,1,385.27,76a15,15,0,0,0-5.14-.78A7.52,7.52,0,0,0,376.75,76.75Zm-9-7.39,6.9,9.42-8.31,6.09-6.9-9.42Z"/><path class="cls-3" d="M128.34,201.52a47,47,0,0,1-24-6.66c-10.15-6.05-17.32-15.42-19.76-25.79a29.06,29.06,0,0,1-27-27.45,25.11,25.11,0,0,1-3.46-38.69,42.76,42.76,0,0,1,51.66-51.37,22.26,22.26,0,0,1,38-4.69,22.5,22.5,0,0,1,2.75,4.6,33.16,33.16,0,0,1,37,42.7,25.16,25.16,0,0,1-12.36,44,38,38,0,0,1-13.54,20.4,38.47,38.47,0,0,1-29.79,7.58c-.1,9.71,2.15,22.88,13,32.3a.8.8,0,0,1,.25.76.79.79,0,0,1-.55.59A44.86,44.86,0,0,1,128.34,201.52ZM95.73,51.92A41.22,41.22,0,0,0,55.83,103a.77.77,0,0,1-.23.76,23.44,23.44,0,0,0-2.41,31.55,23.68,23.68,0,0,0,5.66,5.23.79.79,0,0,1,.36.62A27.49,27.49,0,0,0,85.3,167.54a.78.78,0,0,1,.72.62c2.21,10.17,9.2,19.41,19.16,25.35a44.58,44.58,0,0,0,33.63,5.14c-10.73-10-12.73-23.66-12.47-33.46a.79.79,0,0,1,.29-.59.78.78,0,0,1,.64-.16,36.86,36.86,0,0,0,42.56-27.17.78.78,0,0,1,.65-.59A23.59,23.59,0,0,0,182.17,95a.78.78,0,0,1-.25-.85,31.59,31.59,0,0,0-35.69-41.07.78.78,0,0,1-.87-.47,20.69,20.69,0,0,0-38.31.13.79.79,0,0,1-.92.47A41.73,41.73,0,0,0,95.73,51.92Z"/><path class="cls-1" d="M100.59,117.9l-13.81,3.25-.32-1.38a17.3,17.3,0,0,1-.55-5.91,13,13,0,0,1,1.43-4.58,76.09,76.09,0,0,1,5.6-8.07q2.39-3.09,1.91-5.09a4.13,4.13,0,0,0-1.91-2.83A5.15,5.15,0,0,0,89.1,93a6,6,0,0,0-3.87,2.71q-1.29,2.11-.76,6.48L70,103.78a19.75,19.75,0,0,1,2.71-13.85q3.81-5.91,14-8.3,7.92-1.87,13.57.29,7.66,2.92,9.42,10.37a11.74,11.74,0,0,1-.3,6.36q-1,3.28-5.33,8.66-3,3.78-3.53,5.76A9.83,9.83,0,0,0,100.59,117.9Zm-13.42,7,14.8-3.48,3.07,13L90.25,138Z"/><path class="cls-1" d="M135.75,88.73l-9.58-2.91.29-1a12.57,12.57,0,0,1,1.76-3.81,9.26,9.26,0,0,1,2.5-2.28A52.81,52.81,0,0,1,137,75.83q2.55-1,3-2.43a2.92,2.92,0,0,0-.16-2.41,3.64,3.64,0,0,0-2.25-1.52,4.15,4.15,0,0,0-3.32.28,7.18,7.18,0,0,0-2.76,3.68l-9.42-4.19a13.94,13.94,0,0,1,6.56-7.49q4.42-2.25,11.48-.11,5.51,1.68,8.18,5a10,10,0,0,1,2.08,9.67,8.32,8.32,0,0,1-2.44,3.77,21.52,21.52,0,0,1-6.33,3.4,13.78,13.78,0,0,0-4.2,2.26A7,7,0,0,0,135.75,88.73Zm-10.68-.47,10.26,3.13-2.75,9-10.27-3.12Z"/></g><g id="Shadow"><ellipse id="_Path_" data-name="&lt;Path&gt;" class="cls-4" cx="250" cy="394.18" rx="193.89" ry="11.32"/></g><g id="Question_Marks" data-name="Question Marks"><path class="cls-5" d="M157.61,225.38l-.92-.39a18,18,0,0,0,1.45-5l1,.11A18.94,18.94,0,0,1,157.61,225.38Zm-.39-11.45a13.32,13.32,0,0,0-10.43-7.78l.16-1a14.33,14.33,0,0,1,11.18,8.35Z"/><path class="cls-5" d="M152,235.44l-9.84,4.48-.44-1a13.27,13.27,0,0,1-1.29-4.33,10,10,0,0,1,.39-3.64,58.94,58.94,0,0,1,3-6.86c.88-1.77,1.1-3.14.67-4.08a3.21,3.21,0,0,0-1.85-1.84,4,4,0,0,0-2.91.38,4.51,4.51,0,0,0-2.49,2.6q-.65,1.76.4,5L127,229.44a15.05,15.05,0,0,1,0-10.76q2-5,9.22-8.27c3.76-1.72,7.16-2.31,10.19-1.8a10.78,10.78,0,0,1,8.57,6.35,9,9,0,0,1,.72,4.8A23,23,0,0,1,153,227a14.65,14.65,0,0,0-1.78,4.83A7.47,7.47,0,0,0,152,235.44Zm-9,7.25,10.54-4.8,4.23,9.29L147.23,252Z"/><path class="cls-5" d="M127.64,257.67l-5,6.8L122,264a10.45,10.45,0,0,1-2.53-2.47,7.59,7.59,0,0,1-1.11-2.63,42.28,42.28,0,0,1-.57-5.81c-.08-1.55-.45-2.56-1.1-3a2.46,2.46,0,0,0-2-.55,3.08,3.08,0,0,0-1.84,1.36,3.54,3.54,0,0,0-.71,2.72,6.14,6.14,0,0,0,2.15,3.23l-6,6.3a11.79,11.79,0,0,1-4.11-7.32q-.55-4.14,3.14-9.15a13.7,13.7,0,0,1,6.26-5.09,8.4,8.4,0,0,1,8.26,1.07,6.92,6.92,0,0,1,2.32,3,18,18,0,0,1,.92,6,11.36,11.36,0,0,0,.62,4A5.68,5.68,0,0,0,127.64,257.67ZM124.27,266l5.36-7.28,6.42,4.73-5.36,7.28Z"/></g><g id="Character"><path class="cls-5" d="M234.09,390.58a4.5,4.5,0,0,1-4-2.43c-4-7.76-9.07-16.87-18.15-26.73a4.45,4.45,0,0,1-1-4.28c3.37-11.71,8.67-27.72,8.72-27.88a4.49,4.49,0,1,1,8.52,2.82c-.05.15-4.62,13.94-7.93,25.16A126.25,126.25,0,0,1,238.07,384a4.48,4.48,0,0,1-1.92,6A4.39,4.39,0,0,1,234.09,390.58Z"/><polygon class="cls-6" points="241.56 394.18 206.77 394.18 225.21 383.72 240.66 384.32 241.56 394.18"/><ellipse class="cls-6" cx="230.8" cy="328.28" rx="30.04" ry="24.9" transform="translate(-87.43 83.8) rotate(-17.36)"/><path class="cls-6" d="M151.65,311.92a4.49,4.49,0,0,1-1.72-8.63,5,5,0,0,0,3-3.77,4.48,4.48,0,0,1,3.67-4,33.55,33.55,0,0,0,3.3-.85c6.08-1.77,13.61-4,37.31,2.66,23.38-13.07,23.65-37.59,23.65-38.65a4.49,4.49,0,0,1,4.47-4.49h0a4.48,4.48,0,0,1,4.49,4.44c0,1.31-.14,32.09-30,47.5a4.45,4.45,0,0,1-3.3.33c-22.6-6.53-29-4.67-34.07-3.18l-1.38.4a13.83,13.83,0,0,1-7.64,7.89A4.51,4.51,0,0,1,151.65,311.92Z"/><path class="cls-5" d="M204.08,279.83C195.57,246,172.9,158.77,245.55,153.44c65.18-4.79,83.06,82,87.41,112a351.65,351.65,0,0,1,3.54,45.82,33.31,33.31,0,0,1-26.76,33c-35.51,7.21-69.11,8.23-91.75-.7a14.85,14.85,0,0,1-9.23-15.2C209.63,318.68,209.65,302,204.08,279.83Z"/><path class="cls-7" d="M333,265.46c-4.1-28.32-20.22-107-76.66-112A16.39,16.39,0,0,0,240.23,162c-2.52,4.87-2.44,10.79,1.33,16.63,12.44,19.29,42.11,86,37.63,122.29-2,16.53-12.41,29.73-3.39,48.31a291.16,291.16,0,0,0,33.94-5,33.29,33.29,0,0,0,26.76-33A351.65,351.65,0,0,0,333,265.46Z"/><path class="cls-6" d="M323.24,311.73a.45.45,0,0,1-.45-.44,348.71,348.71,0,0,0-3.53-45.76c-10.8-74.65-39.87-112.41-84.1-109.15a.45.45,0,0,1-.48-.42.46.46,0,0,1,.42-.48c44.75-3.3,74.17,34.73,85,109.92a352.28,352.28,0,0,1,3.54,45.88.45.45,0,0,1-.45.45Z"/><ellipse class="cls-6" cx="315.12" cy="330.67" rx="30.04" ry="24.9" transform="translate(-84.3 109.07) rotate(-17.36)"/><path class="cls-5" d="M325.3,390.58a4.49,4.49,0,0,1-4-2.43c-4-7.76-9.07-16.87-18.16-26.73a4.5,4.5,0,0,1-1-4.28c3.38-11.71,8.67-27.72,8.73-27.88a4.48,4.48,0,1,1,8.51,2.82c-.05.15-4.61,13.94-7.92,25.16A125.78,125.78,0,0,1,329.27,384a4.48,4.48,0,0,1-1.92,6A4.35,4.35,0,0,1,325.3,390.58Z"/><path class="cls-6" d="M315.88,253.85a4.48,4.48,0,0,1-2.1-8.45h0c.86-.46,20.39-11.14,25.87-36.77-13-5.45-36.42-17.74-41.54-23.92a4.62,4.62,0,0,1-1-2.08,22.33,22.33,0,0,1,1-11l-2.36-4.57a4.49,4.49,0,0,1,8-4.12l3.39,6.56a4.46,4.46,0,0,1-.17,4.43,11,11,0,0,0-1.12,5.91c5.77,5.21,29,17.55,40.43,21.77a4.48,4.48,0,0,1,2.87,4.89c-5.07,32.77-30.14,46.27-31.2,46.83A4.48,4.48,0,0,1,315.88,253.85Z"/><path class="cls-6" d="M301.57,184.09a2.29,2.29,0,0,1-1.23-.36,2.24,2.24,0,0,1-.65-3.11c.16-.24,3.86-5.83,9.5-7.34a2.24,2.24,0,1,1,1.16,4.33c-3.93,1.06-6.88,5.42-6.9,5.46A2.24,2.24,0,0,1,301.57,184.09Z"/><polygon class="cls-6" points="332.77 394.18 297.98 394.18 316.42 383.72 331.87 384.32 332.77 394.18"/><ellipse class="cls-2" cx="258.01" cy="238.76" rx="23.92" ry="21.53" transform="translate(-20.04 23.67) rotate(-5.06)"/><ellipse class="cls-6" cx="252.18" cy="240.86" rx="6.57" ry="11.96" transform="translate(-56.35 78.33) rotate(-15.9)"/><path class="cls-6" d="M230.8,242.8c15.1-1.94,45-10.46,49.93-13.9-3.88-11.37-22-21.09-38.12-15.61C228,218.22,230.8,242.8,230.8,242.8Z"/><path class="cls-6" d="M233.73,250.1c18.75-3.56,43.12-9.54,50.09-13.37-.43,12.23-4,24.61-23.12,28.8C245.06,269,233.73,250.1,233.73,250.1Z"/><ellipse class="cls-2" cx="208.01" cy="246.3" rx="14.72" ry="18.63" transform="translate(-101.38 155.68) rotate(-33.49)"/><path class="cls-6" d="M208.34,246.62c1.13,5.36.15,9.83-2.2,10s-5.17-4.06-6.31-9.42-.15-9.82,2.19-10S207.2,241.26,208.34,246.62Z"/><path class="cls-6" d="M189.75,244.57c10.13,1.2,30.25-.14,33.59-2-2.47-9.7-14.45-20.67-25.34-19.26C188.18,224.61,189.75,244.57,189.75,244.57Z"/><path class="cls-6" d="M191.63,250.88c12.59.58,29,.25,33.68-1.52-.43,9.61-2.95,18.77-15.81,18.62C199,267.86,191.63,250.88,191.63,250.88Z"/><path class="cls-6" d="M264.09,207.24a56.43,56.43,0,0,1-32.06-9.8,4.48,4.48,0,0,1,5.41-7.15,49,49,0,0,0,35.84,7.11,4.48,4.48,0,1,1,1.67,8.81A58.41,58.41,0,0,1,264.09,207.24Z"/><path class="cls-6" d="M183.88,199.51a4.49,4.49,0,0,1-4.22-6c2.37-6.62,6.32-10.92,11.72-12.78,9.78-3.37,20.32,3.18,20.77,3.47a4.48,4.48,0,0,1-4.78,7.59c-2-1.27-8.37-4.21-13.1-2.57-2.72.95-4.74,3.34-6.17,7.32A4.49,4.49,0,0,1,183.88,199.51Z"/><path class="cls-6" d="M219.23,275.19a1.19,1.19,0,0,1-.37-.06,1.33,1.33,0,0,1-.92-1.64,8.74,8.74,0,0,1,4.56-4.93c5.14-2.65,13-2.1,23.31,1.63a1.35,1.35,0,0,1-.92,2.54c-11.83-4.29-18-3.36-21-1.83a6.29,6.29,0,0,0-3.32,3.33A1.35,1.35,0,0,1,219.23,275.19Z"/><path class="cls-5" d="M176.88,270.26a119.44,119.44,0,0,0-44.78,13.15c7.72-1.46,35.35,32.73,42.45,59.1,13.11-4.86,28.39-8.17,44.68-10.75C209.36,304.58,191.31,273.79,176.88,270.26Z"/><path class="cls-8" d="M176.88,270.26a119.44,119.44,0,0,0-44.78,13.15c7.72-1.46,35.35,32.73,42.45,59.1,13.11-4.86,28.39-8.17,44.68-10.75C209.36,304.58,191.31,273.79,176.88,270.26Z"/><path class="cls-5" d="M176.88,270.26c-17.08-1.93-44.81,12.37-44.81,12.37-4.91,3.14-3.58,9-.9,11.49,2.57-3.69,31.23-13.29,42-14.58C167.82,274.58,172.8,271,176.88,270.26Z"/><path class="cls-9" d="M176.88,270.26c-17.08-1.93-44.81,12.37-44.81,12.37-4.91,3.14-3.58,9-.9,11.49,2.57-3.69,31.23-13.29,42-14.58C167.82,274.58,172.8,271,176.88,270.26Z"/><path class="cls-6" d="M151.66,311.92a4.49,4.49,0,0,1-3.77-2c-3.25-5-1.22-12.59-.78-14.07a4.49,4.49,0,0,1,8.6,2.56c-.73,2.51-.88,5.72-.3,6.61a4.48,4.48,0,0,1-1.31,6.2A4.38,4.38,0,0,1,151.66,311.92Z"/></g><g id="_400_ERROR" data-name="400 ERROR"><path class="cls-5" d="M136.33,115.89H121.19v-6.84l15.14-18h7.24v18.38h3.75v6.45h-3.75v5.58h-7.24Zm0-6.45V100l-8,9.41Z"/><path class="cls-5" d="M149.91,106.4q0-8.52,3.07-11.93t9.35-3.41a13.92,13.92,0,0,1,5,.75,9.19,9.19,0,0,1,3.16,1.93,10.75,10.75,0,0,1,1.93,2.51,13.28,13.28,0,0,1,1.13,3.07,28.57,28.57,0,0,1,.83,7q0,8.13-2.75,11.91T162.11,122a13.31,13.31,0,0,1-6.1-1.2,9.93,9.93,0,0,1-3.82-3.53,13.29,13.29,0,0,1-1.68-4.52A30.94,30.94,0,0,1,149.91,106.4Zm8.24,0q0,5.72,1,7.8a3.16,3.16,0,0,0,2.93,2.09,3.07,3.07,0,0,0,2.19-.88,5.48,5.48,0,0,0,1.36-2.81,28.78,28.78,0,0,0,.44-6c0-4-.33-6.64-1-8a3.22,3.22,0,0,0-3-2,3.08,3.08,0,0,0-3,2.09Q158.16,100.76,158.15,106.42Z"/><path class="cls-5" d="M177.77,106.4q0-8.52,3.07-11.93t9.35-3.41a13.92,13.92,0,0,1,5,.75,9.19,9.19,0,0,1,3.16,1.93,10.48,10.48,0,0,1,1.93,2.51,13.28,13.28,0,0,1,1.13,3.07,28.57,28.57,0,0,1,.84,7q0,8.13-2.76,11.91T190,122a13.31,13.31,0,0,1-6.1-1.2,9.83,9.83,0,0,1-3.81-3.53,13.08,13.08,0,0,1-1.69-4.52A30.94,30.94,0,0,1,177.77,106.4Zm8.24,0q0,5.72,1,7.8a3.16,3.16,0,0,0,2.93,2.09,3.07,3.07,0,0,0,2.19-.88,5.56,5.56,0,0,0,1.37-2.81,29.5,29.5,0,0,0,.44-6q0-6-1-8a3.24,3.24,0,0,0-3-2,3.09,3.09,0,0,0-3,2.09Q186,100.76,186,106.42Z"/><path class="cls-6" d="M220.89,91.57h24.76V98h-15.5v4.75h14.38v6.1H230.15v5.89H246.1v6.77H220.89Z"/><path class="cls-6" d="M251.2,121.47V91.57h15.4a22.37,22.37,0,0,1,6.55.74A7,7,0,0,1,276.8,95a8.43,8.43,0,0,1-2.6,12.06,11.28,11.28,0,0,1-3.24,1.19,8.81,8.81,0,0,1,2.4,1.1,9,9,0,0,1,1.48,1.57,11.84,11.84,0,0,1,1.3,1.86l4.47,8.66H270.17l-4.94-9.13a6.91,6.91,0,0,0-1.67-2.31,3.89,3.89,0,0,0-2.26-.69h-.82v12.13Zm9.28-17.78h3.9a14.16,14.16,0,0,0,2.44-.41,2.46,2.46,0,0,0,1.5-.94,3,3,0,0,0-.33-4,5.56,5.56,0,0,0-3.45-.78h-4.06Z"/><path class="cls-6" d="M283.69,121.47V91.57h15.4a22.32,22.32,0,0,1,6.55.74A7,7,0,0,1,309.29,95a8.45,8.45,0,0,1-2.59,12.06,11.24,11.24,0,0,1-3.25,1.19,6.19,6.19,0,0,1,3.88,2.67,11.84,11.84,0,0,1,1.3,1.86l4.47,8.66H302.66l-4.94-9.13a6.91,6.91,0,0,0-1.67-2.31,3.89,3.89,0,0,0-2.26-.69H293v12.13ZM293,103.69h3.9a14.16,14.16,0,0,0,2.44-.41,2.41,2.41,0,0,0,1.5-.94,3,3,0,0,0-.33-4,5.52,5.52,0,0,0-3.45-.78H293Z"/><path class="cls-6" d="M314.18,106.54q0-7.32,4.08-11.4t11.36-4.08q7.47,0,11.51,4t4,11.23a18.39,18.39,0,0,1-1.77,8.6,12.57,12.57,0,0,1-5.1,5.22A16.86,16.86,0,0,1,330,122a19,19,0,0,1-8.37-1.61,12.6,12.6,0,0,1-5.38-5.1A16.94,16.94,0,0,1,314.18,106.54Zm9.24,0q0,4.53,1.69,6.51a6.35,6.35,0,0,0,9.18,0q1.63-1.93,1.64-6.95,0-4.23-1.71-6.17a5.8,5.8,0,0,0-4.62-2,5.59,5.59,0,0,0-4.48,2Q323.43,102,323.42,106.58Z"/><path class="cls-6" d="M350.27,121.47V91.57h15.39a22.32,22.32,0,0,1,6.55.74A6.92,6.92,0,0,1,375.86,95a8.22,8.22,0,0,1,1.39,4.84,8.34,8.34,0,0,1-1.06,4.3,8.25,8.25,0,0,1-2.92,2.92,11.28,11.28,0,0,1-3.24,1.19,8.81,8.81,0,0,1,2.4,1.1,9.36,9.36,0,0,1,1.48,1.57,11.62,11.62,0,0,1,1.29,1.86l4.48,8.66H369.24l-4.94-9.13a7.05,7.05,0,0,0-1.67-2.31,3.92,3.92,0,0,0-2.27-.69h-.81v12.13Zm9.28-17.78h3.89a14.23,14.23,0,0,0,2.45-.41,2.46,2.46,0,0,0,1.5-.94,3,3,0,0,0-.34-4,5.52,5.52,0,0,0-3.45-.78h-4.05Z"/></g><g id="Bad_Request" data-name="Bad Request"><path class="cls-6" d="M162.29,75V52.68h8.36a10.3,10.3,0,0,1,4.09.68,5.23,5.23,0,0,1,2.42,2.08,5.53,5.53,0,0,1,.88,2.94,5,5,0,0,1-.78,2.69,5.61,5.61,0,0,1-2.34,2,5.82,5.82,0,0,1,3.11,2,5.44,5.44,0,0,1,1.08,3.38,6.54,6.54,0,0,1-.66,2.91,5.67,5.67,0,0,1-1.63,2.07,6.78,6.78,0,0,1-2.44,1.1,14.74,14.74,0,0,1-3.59.38Zm3-12.92h4.82a10.87,10.87,0,0,0,2.81-.26,2.93,2.93,0,0,0,2.26-3.06,3.52,3.52,0,0,0-.53-1.95,2.7,2.7,0,0,0-1.52-1.16,13.07,13.07,0,0,0-3.39-.31h-4.45Zm0,10.29h5.55a12.64,12.64,0,0,0,2-.11,4.78,4.78,0,0,0,1.7-.61,3.25,3.25,0,0,0,1.13-1.24,3.91,3.91,0,0,0,.44-1.87,3.66,3.66,0,0,0-.64-2.17,3.35,3.35,0,0,0-1.77-1.29,10.9,10.9,0,0,0-3.26-.37h-5.15Z"/><path class="cls-6" d="M193.36,73a10.21,10.21,0,0,1-2.93,1.83,8.56,8.56,0,0,1-3,.53,5.83,5.83,0,0,1-4.08-1.3,4.27,4.27,0,0,1-1.43-3.32,4.45,4.45,0,0,1,.54-2.17A4.55,4.55,0,0,1,183.85,67a6.69,6.69,0,0,1,2-.9,19.45,19.45,0,0,1,2.43-.41,24.34,24.34,0,0,0,4.88-.94c0-.37,0-.61,0-.71a3,3,0,0,0-.77-2.36,4.58,4.58,0,0,0-3.12-.93,4.87,4.87,0,0,0-2.85.68A4.18,4.18,0,0,0,185,63.79l-2.67-.36a6.59,6.59,0,0,1,1.2-2.78A5.3,5.3,0,0,1,186,59a10.84,10.84,0,0,1,3.67-.57,9.81,9.81,0,0,1,3.36.48,4.54,4.54,0,0,1,1.9,1.23,4.32,4.32,0,0,1,.85,1.86,15.48,15.48,0,0,1,.14,2.52V68.2a38.57,38.57,0,0,0,.17,4.83,6.35,6.35,0,0,0,.69,1.94H193.9A5.93,5.93,0,0,1,193.36,73Zm-.23-6.11a20,20,0,0,1-4.47,1,10.61,10.61,0,0,0-2.39.54,2.5,2.5,0,0,0-1.08.89,2.38,2.38,0,0,0-.38,1.3,2.36,2.36,0,0,0,.83,1.83,3.62,3.62,0,0,0,2.43.73,5.65,5.65,0,0,0,2.81-.69,4.36,4.36,0,0,0,1.81-1.9,6.67,6.67,0,0,0,.44-2.73Z"/><path class="cls-6" d="M210.61,75v-2a5,5,0,0,1-4.52,2.4,6.39,6.39,0,0,1-3.54-1.06,7,7,0,0,1-2.51-3,10.14,10.14,0,0,1-.89-4.38,11.67,11.67,0,0,1,.8-4.39,6.34,6.34,0,0,1,6-4.06,5.37,5.37,0,0,1,2.6.61,5.49,5.49,0,0,1,1.86,1.61v-8h2.72V75ZM202,66.91a7,7,0,0,0,1.31,4.64,3.94,3.94,0,0,0,3.08,1.53,3.87,3.87,0,0,0,3.05-1.47,6.72,6.72,0,0,0,1.25-4.47,7.63,7.63,0,0,0-1.27-4.87,3.94,3.94,0,0,0-3.15-1.55,3.82,3.82,0,0,0-3,1.49A7.41,7.41,0,0,0,202,66.91Z"/><path class="cls-6" d="M226.49,75V52.68h9.88a13.13,13.13,0,0,1,4.53.6,5,5,0,0,1,2.48,2.12,6.35,6.35,0,0,1,.93,3.36,5.58,5.58,0,0,1-1.54,4A7.81,7.81,0,0,1,238,64.83a7.44,7.44,0,0,1,1.78,1.11,15.5,15.5,0,0,1,2.45,3L246.13,75h-3.71l-2.95-4.64c-.86-1.34-1.57-2.36-2.12-3.07a6.67,6.67,0,0,0-1.5-1.49,4.45,4.45,0,0,0-1.35-.59,8.81,8.81,0,0,0-1.64-.11h-3.42V75Zm2.95-12.45h6.34a9.44,9.44,0,0,0,3.16-.42,3.43,3.43,0,0,0,1.74-1.34,3.65,3.65,0,0,0,.59-2,3.32,3.32,0,0,0-1.15-2.6,5.36,5.36,0,0,0-3.62-1h-7.06Z"/><path class="cls-6" d="M259.63,69.77l2.83.35A6.89,6.89,0,0,1,260,74a8.4,8.4,0,0,1-10.24-.81A8.54,8.54,0,0,1,247.67,67a8.9,8.9,0,0,1,2.1-6.32,7.08,7.08,0,0,1,5.44-2.25,6.91,6.91,0,0,1,5.29,2.2,8.8,8.8,0,0,1,2.05,6.2c0,.17,0,.41,0,.73h-12A6.28,6.28,0,0,0,252,71.67a4.48,4.48,0,0,0,3.37,1.41,4.16,4.16,0,0,0,2.57-.79A5.31,5.31,0,0,0,259.63,69.77Zm-9-4.43h9a5.52,5.52,0,0,0-1-3.05,4.18,4.18,0,0,0-3.39-1.58A4.34,4.34,0,0,0,252.07,62,5,5,0,0,0,250.65,65.34Z"/><path class="cls-6" d="M276.18,81.15v-7.9a4.89,4.89,0,0,1-1.78,1.49,5.32,5.32,0,0,1-2.44.59A6.45,6.45,0,0,1,267,73a9,9,0,0,1-2.08-6.29,10.83,10.83,0,0,1,.85-4.36,6.31,6.31,0,0,1,2.45-2.93,6.53,6.53,0,0,1,3.51-1A5.42,5.42,0,0,1,276.46,61V58.82h2.46V81.15Zm-8.43-14.3a7.13,7.13,0,0,0,1.3,4.67,4,4,0,0,0,3.14,1.56,3.81,3.81,0,0,0,3-1.48,6.78,6.78,0,0,0,1.27-4.51,7.58,7.58,0,0,0-1.33-4.85A4,4,0,0,0,272,60.62a3.75,3.75,0,0,0-3,1.51A7.36,7.36,0,0,0,267.75,66.85Z"/><path class="cls-6" d="M293.78,75V72.59a5.89,5.89,0,0,1-5.12,2.74,6.48,6.48,0,0,1-2.67-.55,4.37,4.37,0,0,1-1.83-1.37,5,5,0,0,1-.85-2,14,14,0,0,1-.17-2.56v-10h2.74v9a15.92,15.92,0,0,0,.17,2.88,2.83,2.83,0,0,0,1.09,1.7,3.41,3.41,0,0,0,2.07.61,4.51,4.51,0,0,0,2.31-.63,3.52,3.52,0,0,0,1.53-1.71,8.64,8.64,0,0,0,.45-3.16V58.82h2.73V75Z"/><path class="cls-6" d="M311.57,69.77l2.83.35A6.94,6.94,0,0,1,311.92,74a8.4,8.4,0,0,1-10.24-.81A8.54,8.54,0,0,1,299.61,67a8.94,8.94,0,0,1,2.09-6.32,7.12,7.12,0,0,1,5.45-2.25,6.91,6.91,0,0,1,5.29,2.2,8.8,8.8,0,0,1,2.05,6.2c0,.17,0,.41,0,.73h-12a6.23,6.23,0,0,0,1.51,4.08,4.47,4.47,0,0,0,3.37,1.41,4.16,4.16,0,0,0,2.57-.79A5.31,5.31,0,0,0,311.57,69.77Zm-9-4.43h9a5.52,5.52,0,0,0-1-3.05,4.2,4.2,0,0,0-3.39-1.58A4.34,4.34,0,0,0,304,62,5,5,0,0,0,302.59,65.34Z"/><path class="cls-6" d="M316.74,70.15l2.7-.43a3.75,3.75,0,0,0,1.27,2.49,4.43,4.43,0,0,0,2.91.87,4.29,4.29,0,0,0,2.8-.77,2.28,2.28,0,0,0,.91-1.8,1.68,1.68,0,0,0-.8-1.46,12,12,0,0,0-2.8-.92,25.37,25.37,0,0,1-4.17-1.32,4,4,0,0,1-2.37-3.7,4.15,4.15,0,0,1,.5-2A4.47,4.47,0,0,1,319,59.58a5.89,5.89,0,0,1,1.74-.8,8.59,8.59,0,0,1,2.37-.32,9.19,9.19,0,0,1,3.33.55,4.41,4.41,0,0,1,2.12,1.48,5.79,5.79,0,0,1,1,2.5l-2.68.36a2.87,2.87,0,0,0-1.06-1.94,3.82,3.82,0,0,0-2.47-.7,4.53,4.53,0,0,0-2.69.62,1.83,1.83,0,0,0-.8,1.46,1.55,1.55,0,0,0,.33,1,2.47,2.47,0,0,0,1.05.73c.27.1,1.08.33,2.42.7a32.84,32.84,0,0,1,4.05,1.27,4.07,4.07,0,0,1,1.8,1.43,4,4,0,0,1,.65,2.34,4.6,4.6,0,0,1-.79,2.58A5.22,5.22,0,0,1,327,74.67a8.38,8.38,0,0,1-3.4.66,7.6,7.6,0,0,1-4.8-1.31A6,6,0,0,1,316.74,70.15Z"/><path class="cls-6" d="M339.37,72.52l.4,2.41a9.75,9.75,0,0,1-2.07.25,4.69,4.69,0,0,1-2.31-.47,2.71,2.71,0,0,1-1.16-1.24,9.92,9.92,0,0,1-.33-3.23V61h-2V58.82h2v-4l2.72-1.65v5.64h2.75V61h-2.75v9.44a5,5,0,0,0,.14,1.5,1.18,1.18,0,0,0,.47.54,1.86,1.86,0,0,0,.94.19A9,9,0,0,0,339.37,72.52Z"/></g></g></svg>